<?xml version="1.0" encoding="UTF-8" standalone="no"?>
<!-- Created with Inkscape (http://www.inkscape.org/) -->

<svg
   width="161.80299mm"
   height="100mm"
   viewBox="0 0 161.80299 100"
   version="1.1"
   id="svg240"
   inkscape:version="1.2.2 (b0a8486541, 2022-12-01)"
   sodipodi:docname="diday-icon-main-dark.svg"
   inkscape:export-filename="diday-icon-main-raw1.png"
   inkscape:export-xdpi="96"
   inkscape:export-ydpi="96"
   xmlns:inkscape="http://www.inkscape.org/namespaces/inkscape"
   xmlns:sodipodi="http://sodipodi.sourceforge.net/DTD/sodipodi-0.dtd"
   xmlns:xlink="http://www.w3.org/1999/xlink"
   xmlns="http://www.w3.org/2000/svg"
   xmlns:svg="http://www.w3.org/2000/svg">
  <sodipodi:namedview
     id="namedview242"
     pagecolor="#505050"
     bordercolor="#ffffff"
     borderopacity="1"
     inkscape:showpageshadow="0"
     inkscape:pageopacity="0"
     inkscape:pagecheckerboard="1"
     inkscape:deskcolor="#505050"
     inkscape:document-units="mm"
     showgrid="false"
     inkscape:zoom="1.8826929"
     inkscape:cx="282.04282"
     inkscape:cy="176.60873"
     inkscape:window-width="1920"
     inkscape:window-height="1008"
     inkscape:window-x="0"
     inkscape:window-y="0"
     inkscape:window-maximized="1"
     inkscape:current-layer="layer1" />
  <defs
     id="defs237">
    <linearGradient
       inkscape:collect="always"
       id="linearGradient1146">
      <stop
         style="stop-color:#ff0000;stop-opacity:1;"
         offset="0"
         id="stop1142" />
      <stop
         style="stop-color:#ffff00;stop-opacity:1;"
         offset="0.2"
         id="stop1144" />
      <stop
         style="stop-color:#00ff00;stop-opacity:1;"
         offset="0.40000001"
         id="stop4054" />
      <stop
         style="stop-color:#00ffff;stop-opacity:1;"
         offset="0.60000002"
         id="stop4056" />
      <stop
         style="stop-color:#0000ff;stop-opacity:1;"
         offset="0.80000001"
         id="stop4058" />
      <stop
         style="stop-color:#ff00ff;stop-opacity:1;"
         offset="1"
         id="stop4060" />
    </linearGradient>
    <linearGradient
       inkscape:collect="always"
       xlink:href="#linearGradient1146"
       id="linearGradient1148"
       x1="48.797504"
       y1="138.62044"
       x2="118.7975"
       y2="138.62044"
       gradientUnits="userSpaceOnUse"
       gradientTransform="matrix(1.9742429,0,0,1.9742429,-65.736864,-115.0498)" />
  </defs>
  <g
     inkscape:label="Main"
     inkscape:groupmode="layer"
     id="layer1"
     transform="translate(-18.797504,-108.62044)">
    <g
       id="g1786"
       inkscape:label="CTreffOS DI.DAY Event Banner">
      <rect
         style="fill:#191919;fill-opacity:1;stroke-width:0.43296"
         id="rect351"
         width="161.80299"
         height="100"
         x="18.797504"
         y="108.62044"
         inkscape:label="Single Color" />
      <path
         id="path1659"
         style="font-weight:300;font-size:13.2535px;font-family:Montserrat;-inkscape-font-specification:'Montserrat Light';text-align:end;text-anchor:end;fill:#ffffff;stroke-width:0.465"
         d="M 106.25573 130.59068 C 105.37217 130.59068 104.69164 130.83335 104.21451 131.31931 C 103.73739 131.79644 103.49879 132.43711 103.49879 133.24116 L 103.49879 133.55949 L 102.39912 133.55949 L 102.39912 135.14957 L 103.49879 135.14957 L 103.49879 140.53064 L 105.56637 140.53064 L 105.56637 135.14957 L 107.34249 135.14957 L 107.34249 133.55897 L 105.51366 133.55897 L 105.51366 133.2546 C 105.51366 132.56541 105.82735 132.22055 106.45469 132.22055 C 106.61373 132.22055 106.76394 132.2425 106.9053 132.2867 C 107.04668 132.33088 107.1744 132.39269 107.28926 132.47221 L 107.8329 130.97463 C 107.63851 130.84212 107.39992 130.74504 107.11718 130.68318 C 106.83444 130.62131 106.54731 130.59068 106.25573 130.59068 z M 111.49055 130.59068 C 110.60699 130.59068 109.92698 130.83335 109.44985 131.31931 C 108.97273 131.79644 108.73413 132.43711 108.73413 133.24116 L 108.73413 133.55949 L 107.63394 133.55949 L 107.63394 135.14957 L 108.73413 135.14957 L 108.73413 140.53064 L 110.80171 140.53064 L 110.80171 135.14957 L 112.57731 135.14957 L 112.57731 133.55897 L 110.74848 133.55897 L 110.74848 133.2546 C 110.74848 132.56541 111.06218 132.22055 111.68951 132.22055 C 111.84855 132.22055 111.99876 132.2425 112.14013 132.2867 C 112.2815 132.33088 112.40973 132.39269 112.5246 132.47221 L 113.06772 130.97463 C 112.87333 130.84212 112.63474 130.74504 112.352 130.68318 C 112.06926 130.62131 111.78213 130.59068 111.49055 130.59068 z M 50.41883 130.69661 L 50.41883 140.53064 L 52.486404 140.53064 L 52.486404 137.00527 C 52.486404 136.35143 52.645294 135.86965 52.963377 135.5604 C 53.290297 135.24232 53.701063 135.08342 54.19586 135.08342 C 54.646478 135.08342 55.000026 135.22035 55.256261 135.49425 C 55.512494 135.76816 55.640733 136.19221 55.640733 136.76653 L 55.640733 140.53064 L 57.708307 140.53064 L 57.708307 136.44872 C 57.708307 135.72419 57.580068 135.13205 57.323835 134.6726 C 57.0676 134.2043 56.714052 133.85944 56.263434 133.63855 C 55.821651 133.40882 55.317897 133.29439 54.752415 133.29439 C 54.292961 133.29439 53.86891 133.36949 53.480142 133.5197 C 53.100208 133.66106 52.769145 133.86849 52.486404 134.1424 L 52.486404 130.69661 L 50.41883 130.69661 z M 45.422235 131.094 C 44.697712 131.094 44.030467 131.21356 43.420807 131.45212 C 42.811146 131.69068 42.276742 132.02634 41.817288 132.45929 C 41.366669 132.8834 41.013122 133.38716 40.756887 133.97031 C 40.509489 134.55347 40.38585 135.19363 40.38585 135.89164 C 40.38585 136.58966 40.509489 137.23034 40.756887 137.81349 C 41.013122 138.39664 41.366669 138.905 41.817288 139.33794 C 42.267906 139.76206 42.797711 140.09312 43.407371 140.33168 C 44.025867 140.57025 44.693111 140.6898 45.4088 140.6898 C 46.22168 140.6898 46.954827 140.54828 47.608665 140.26554 C 48.262504 139.9828 48.80611 139.57203 49.239057 139.03305 L 47.860846 137.76078 C 47.224679 138.49414 46.447081 138.86045 45.528172 138.86045 C 44.945019 138.86045 44.427981 138.73682 43.977362 138.48942 C 43.53558 138.23318 43.186632 137.88424 42.930398 137.44245 C 42.682999 136.99183 42.559361 136.4748 42.559361 135.89164 C 42.559361 135.30849 42.682999 134.79605 42.930398 134.35427 C 43.186632 133.90365 43.53558 133.5547 43.977362 133.30731 C 44.427981 133.05107 44.945019 132.92283 45.528172 132.92283 C 46.447081 132.92283 47.224679 133.28558 47.860846 134.0101 L 49.239057 132.73731 C 48.80611 132.20717 48.262504 131.80101 47.608665 131.51827 C 46.954827 131.23553 46.226281 131.094 45.422235 131.094 z M 83.777517 131.82316 L 83.777517 133.40032 L 82.677843 133.40032 L 82.677843 134.99041 L 83.777517 134.99041 L 83.777517 138.07859 C 83.777517 138.92682 84.012027 139.56749 84.480316 140.00044 C 84.948607 140.42455 85.60205 140.63657 86.441437 140.63657 C 86.759521 140.63657 87.064533 140.60132 87.35611 140.53064 C 87.656522 140.45112 87.912999 140.33616 88.125055 140.18596 L 87.567983 138.72816 C 87.338256 138.90488 87.060329 138.99326 86.733409 138.99326 C 86.450668 138.99326 86.229442 138.91356 86.0704 138.75452 C 85.920194 138.58664 85.845091 138.35265 85.845091 138.05224 L 85.845091 134.99041 L 87.62121 134.99041 L 87.62121 133.40032 L 85.845091 133.40032 L 85.845091 131.82316 L 83.777517 131.82316 z M 62.45272 133.29439 C 61.887238 133.29439 61.330866 133.36949 60.783055 133.5197 C 60.235244 133.6699 59.766742 133.88193 59.377973 134.15583 L 60.120046 135.60019 C 60.37628 135.39696 60.685893 135.23807 61.048155 135.12322 C 61.419253 134.99952 61.794768 134.9377 62.174701 134.9377 C 62.731348 134.9377 63.142114 135.06133 63.407184 135.30873 C 63.681089 135.55613 63.818012 135.90048 63.818012 136.34226 L 62.174701 136.34226 C 61.087916 136.34226 60.305717 136.54152 59.828591 136.93912 C 59.351466 137.33673 59.112873 137.84917 59.112873 138.4765 C 59.112873 139.095 59.346866 139.61152 59.815155 140.02679 C 60.283446 140.43324 60.937406 140.63657 61.776793 140.63657 C 62.828236 140.63657 63.552699 140.30959 63.950303 139.65575 L 63.950303 140.53064 L 65.885586 140.53064 L 65.885586 136.46163 C 65.885586 135.38369 65.585174 134.58872 64.984349 134.07625 C 64.383524 133.55495 63.539506 133.29439 62.45272 133.29439 z M 71.19999 133.29439 C 70.440124 133.29439 69.764196 133.45328 69.172207 133.77136 C 68.589054 134.08061 68.125151 134.51334 67.780561 135.06999 C 67.444806 135.61779 67.277232 136.24979 67.277232 136.96548 C 67.277232 137.68117 67.444806 138.31724 67.780561 138.87389 C 68.125151 139.4217 68.589054 139.85444 69.172207 140.17252 C 69.764196 140.48177 70.440124 140.63657 71.19999 140.63657 C 71.951021 140.63657 72.622865 140.48177 73.214854 140.17252 C 73.806843 139.85444 74.270746 139.4217 74.606501 138.87389 C 74.942256 138.31724 75.109829 137.68117 75.109829 136.96548 C 75.109829 136.24979 74.942256 135.61779 74.606501 135.06999 C 74.270746 134.51334 73.806843 134.08061 73.214854 133.77136 C 72.622865 133.45328 71.951021 133.29439 71.19999 133.29439 z M 79.271332 133.29439 C 78.228725 133.29439 77.415875 133.5105 76.832721 133.94344 C 76.258404 134.37639 75.971275 134.92868 75.971275 135.60019 C 75.971275 136.03313 76.059662 136.38209 76.236375 136.64715 C 76.413088 136.91223 76.642998 137.11557 76.925739 137.25693 C 77.217315 137.39831 77.526411 137.50458 77.853331 137.57526 C 78.189086 137.64592 78.516066 137.70314 78.83415 137.74734 C 79.231754 137.8092 79.572018 137.8797 79.854759 137.95922 C 80.1375 138.03874 80.279023 138.19355 80.279023 138.42327 C 80.279023 138.62649 80.177351 138.78538 79.974132 138.90025 C 79.779747 139.01511 79.444083 139.07284 78.966958 139.07284 C 78.53401 139.07284 78.092076 139.01103 77.641457 138.88733 C 77.190839 138.76363 76.80664 138.59553 76.488556 138.38348 L 75.799193 139.86815 C 76.126112 140.08904 76.568047 140.27449 77.124693 140.4247 C 77.690175 140.56607 78.277716 140.63657 78.887376 140.63657 C 79.95649 140.63657 80.782625 140.42455 81.365778 140.00044 C 81.957767 139.57632 82.253579 139.03272 82.253579 138.37005 C 82.253579 137.90175 82.147308 137.53544 81.935252 137.27037 C 81.732032 136.99646 81.467388 136.79312 81.140469 136.66059 C 80.813549 136.51923 80.464602 136.41756 80.093504 136.3557 C 79.731243 136.28504 79.386378 136.22782 79.059459 136.18362 C 78.73254 136.1306 78.463295 136.05959 78.251239 135.97123 C 78.048019 135.87403 77.946348 135.72383 77.946348 135.52061 C 77.946348 135.33506 78.048019 135.18077 78.251239 135.05707 C 78.463295 134.92454 78.803043 134.85811 79.271332 134.85811 C 79.598252 134.85811 79.934432 134.89797 80.279023 134.97749 C 80.623614 135.04817 80.972561 135.1851 81.325987 135.38832 L 82.014834 133.91709 C 81.670243 133.7227 81.246192 133.5725 80.74256 133.46647 C 80.247763 133.35161 79.757294 133.29439 79.271332 133.29439 z M 93.717996 133.29439 C 92.587031 133.29439 91.769582 133.64334 91.265949 134.34135 L 91.265949 133.40032 L 89.291392 133.40032 L 89.291392 140.53064 L 91.358966 140.53064 L 91.358966 137.16443 C 91.358966 136.48409 91.53114 135.98442 91.875731 135.66633 C 92.220322 135.33941 92.679624 135.17593 93.253941 135.17593 C 93.386476 135.17593 93.541282 135.18513 93.717996 135.2028 L 93.717996 133.29439 z M 98.157518 133.29439 C 97.432994 133.29439 96.783634 133.45328 96.209316 133.77136 C 95.634998 134.08061 95.180297 134.51334 94.844542 135.06999 C 94.517623 135.61779 94.354132 136.24979 94.354132 136.96548 C 94.354132 137.67233 94.521706 138.30381 94.857461 138.86045 C 95.193216 139.40826 95.666319 139.84151 96.275979 140.1596 C 96.88564 140.47769 97.600902 140.63657 98.422618 140.63657 L 98.423135 140.63657 C 99.713139 140.63657 100.69356 140.25238 101.36507 139.48367 L 100.26488 138.29098 C 100.02632 138.52071 99.761676 138.69288 99.470099 138.80774 C 99.187358 138.92261 98.855778 138.97983 98.475845 138.97983 C 97.93687 138.97983 97.486251 138.85159 97.123989 138.59535 C 96.770563 138.33911 96.540653 137.99017 96.434626 137.54839 L 101.82913 137.54839 C 101.838 137.46003 101.84668 137.36756 101.85548 137.27037 C 101.86428 137.16434 101.86892 137.07135 101.86892 136.99183 C 101.86892 136.23197 101.70543 135.57801 101.37851 135.0302 C 101.05159 134.47355 100.60505 134.04541 100.03957 133.745 C 99.482927 133.44459 98.855535 133.29439 98.157518 133.29439 z M 98.170954 134.85811 C 98.639243 134.85811 99.028042 134.99504 99.337291 135.26894 C 99.655374 135.53401 99.850032 135.89164 99.920718 136.34226 L 96.421706 136.34226 C 96.492392 135.89164 96.68245 135.53401 96.991698 135.26894 C 97.309781 134.99504 97.702664 134.85811 98.170954 134.85811 z M 71.19999 134.99041 C 71.712458 134.99041 72.141109 135.16718 72.4857 135.52061 C 72.839126 135.8652 73.0159 136.34698 73.0159 136.96548 C 73.0159 137.57514 72.839126 138.05641 72.4857 138.40984 C 72.141109 138.76326 71.712458 138.94004 71.19999 138.94004 C 70.678686 138.94004 70.241352 138.76326 69.887926 138.40984 C 69.543335 138.05641 69.371161 137.57514 69.371161 136.96548 C 69.371161 136.34698 69.543335 135.8652 69.887926 135.52061 C 70.241352 135.16718 70.678686 134.99041 71.19999 134.99041 z M 62.400011 137.54839 L 63.818012 137.54839 L 63.818012 138.27754 C 63.694313 138.59563 63.495571 138.83831 63.221666 139.00618 C 62.94776 139.16523 62.638147 139.24493 62.293557 139.24493 C 61.931295 139.24493 61.644167 139.16982 61.432111 139.01962 C 61.228891 138.86058 61.127737 138.64855 61.127737 138.38348 C 61.127737 138.14492 61.215607 137.94618 61.39232 137.78714 C 61.577869 137.6281 61.914049 137.54839 62.400011 137.54839 z M 40.38585 146.34062 L 40.38585 170.65645 L 51.015176 170.65645 C 53.655178 170.65645 55.970975 170.15827 57.962555 169.16248 C 59.954136 168.14354 61.505989 166.71935 62.617568 164.88987 C 63.729148 163.0604 64.28465 160.93012 64.28465 158.49853 C 64.28465 156.06695 63.729148 153.93615 62.617568 152.10667 C 61.505989 150.2772 59.954136 148.86448 57.962555 147.86869 C 55.970975 146.84974 53.655178 146.34062 51.015176 146.34062 L 40.38585 146.34062 z M 69.078673 146.34062 L 69.078673 170.65645 L 73.594159 170.65645 L 73.594159 146.34062 L 69.078673 146.34062 z M 89.33015 146.34062 L 89.33015 170.65645 L 99.229804 170.65645 C 101.82349 170.65645 104.09343 170.1468 106.03869 169.12786 C 108.00712 168.08575 109.53552 166.65011 110.62394 164.82063 C 111.71237 162.99116 112.2564 160.8838 112.2564 158.49853 C 112.2564 156.11327 111.71237 154.00591 110.62394 152.17644 C 109.53552 150.34696 108.00712 148.92226 106.03869 147.90331 C 104.09343 146.86121 101.82349 146.34062 99.229804 146.34062 L 89.33015 146.34062 z M 124.90059 146.34062 L 113.78499 170.65645 L 116.45976 170.65645 L 119.37741 164.1602 L 132.95953 164.1602 L 135.84256 170.65645 L 138.55247 170.65645 L 127.43635 146.34062 L 124.90059 146.34062 z M 137.02388 146.34062 L 146.7499 162.24972 L 146.7499 170.65645 L 149.28618 170.65645 L 149.28618 162.24972 L 159.0122 146.34062 L 156.44182 146.34062 L 148.10486 159.95736 L 139.7679 146.34062 L 137.02388 146.34062 z M 91.900535 148.56374 L 99.091311 148.56374 C 101.24499 148.56374 103.109 148.99209 104.68373 149.84893 C 106.28163 150.68261 107.52082 151.85198 108.40082 153.35724 C 109.28082 154.83935 109.72064 156.55327 109.72064 158.49853 C 109.72064 160.4438 109.28082 162.16866 108.40082 163.67393 C 107.52082 165.15603 106.28163 166.32591 104.68373 167.18276 C 103.109 168.01644 101.24499 168.43281 99.091311 168.43281 L 91.900535 168.43281 L 91.900535 148.56374 z M 126.15116 149.01487 L 132.0216 162.07609 L 120.31534 162.07609 L 126.15116 149.01487 z M 44.901337 150.16157 L 50.80692 150.16157 C 52.613237 150.16157 54.18802 150.50863 55.531179 151.20337 C 56.874338 151.87495 57.904568 152.83639 58.622463 154.08692 C 59.363517 155.33744 59.734023 156.80801 59.734023 158.49853 C 59.734023 160.18906 59.363517 161.65911 58.622463 162.90963 C 57.904568 164.16016 56.874338 165.13306 55.531179 165.8278 C 54.18802 166.49938 52.613237 166.83497 50.80692 166.83497 L 44.901337 166.83497 L 44.901337 150.16157 z M 81.1322 165.13327 C 80.344832 165.13327 79.673126 165.39955 79.117336 165.93219 C 78.561547 166.46482 78.283796 167.15945 78.283796 168.0163 C 78.283796 168.84998 78.561547 169.54462 79.117336 170.10041 C 79.673126 170.63304 80.344832 170.89933 81.1322 170.89933 C 81.91957 170.89933 82.591274 170.63304 83.147065 170.10041 C 83.702854 169.54462 83.980605 168.84998 83.980605 168.0163 C 83.980605 167.15945 83.702854 166.46482 83.147065 165.93219 C 82.591274 165.39955 81.91957 165.13327 81.1322 165.13327 z M 122.51262 176.55014 L 122.51262 186.38417 L 123.14876 186.38417 L 123.14876 184.75429 C 123.42266 185.28443 123.80686 185.69928 124.30166 185.9997 C 124.79645 186.29128 125.35743 186.4374 125.98476 186.4374 C 126.6386 186.4374 127.22206 186.29128 127.73452 185.9997 C 128.247 185.69928 128.65316 185.28443 128.95357 184.75429 C 129.25398 184.22415 129.40419 183.61413 129.40419 182.92495 C 129.40419 182.22693 129.25398 181.61742 128.95357 181.09612 C 128.65316 180.56598 128.247 180.15522 127.73452 179.86364 C 127.22206 179.56322 126.6386 179.41302 125.98476 179.41302 C 125.3751 179.41302 124.82281 179.55862 124.32801 179.8502 C 123.83321 180.13294 123.44902 180.53502 123.17511 181.05633 L 123.17511 176.55014 L 122.51262 176.55014 z M 152.78364 176.55014 L 152.78364 186.38417 L 153.44613 186.38417 L 153.44613 184.34347 L 155.23517 182.68672 L 158.19106 186.38417 L 159.01272 186.38417 L 155.75245 182.26246 L 158.72075 179.46573 L 157.87274 179.46573 L 153.44613 183.52129 L 153.44613 176.55014 L 152.78364 176.55014 z M 138.53593 177.02712 C 138.4034 177.02712 138.28844 177.07157 138.19125 177.15993 C 138.1029 177.24828 138.05896 177.36323 138.05896 177.50461 C 138.05896 177.63714 138.1029 177.75158 138.19125 177.84877 C 138.28844 177.93713 138.4034 177.98158 138.53593 177.98158 C 138.65963 177.98158 138.76998 177.93713 138.86718 177.84877 C 138.96437 177.75158 139.01291 177.63714 139.01291 177.50461 C 139.01291 177.36323 138.96437 177.24828 138.86718 177.15993 C 138.76998 177.07157 138.65963 177.02712 138.53593 177.02712 z M 140.81538 177.02712 C 140.69168 177.02712 140.58133 177.07157 140.48413 177.15993 C 140.38694 177.24828 140.33841 177.36323 140.33841 177.50461 C 140.33841 177.63714 140.38694 177.75158 140.48413 177.84877 C 140.58133 177.93713 140.69168 177.98158 140.81538 177.98158 C 140.94791 177.98158 141.05827 177.93713 141.14663 177.84877 C 141.24382 177.75158 141.29287 177.63714 141.29287 177.50461 C 141.29287 177.36323 141.24382 177.24828 141.14663 177.15993 C 141.05827 177.07157 140.94791 177.02712 140.81538 177.02712 z M 92.572846 177.04055 C 91.883664 177.04055 91.242988 177.15959 90.650999 177.39815 C 90.067846 177.62788 89.555408 177.95486 89.113625 178.37897 C 88.680678 178.80309 88.345014 179.30224 88.106452 179.87656 C 87.867889 180.45088 87.748334 181.07418 87.748334 181.74569 C 87.748334 182.4172 87.867889 183.03999 88.106452 183.61431 C 88.345014 184.18863 88.680678 184.68778 89.113625 185.1119 C 89.555408 185.536 90.067846 185.86758 90.650999 186.10615 C 91.242988 186.33588 91.883664 186.45031 92.572846 186.45031 C 93.262027 186.45031 93.898103 186.33588 94.481256 186.10615 C 95.073246 185.86758 95.585683 185.536 96.01863 185.1119 C 96.451578 184.68778 96.787242 184.18863 97.025804 183.61431 C 97.273202 183.03999 97.396841 182.4172 97.396841 181.74569 C 97.396841 181.07418 97.273202 180.45088 97.025804 179.87656 C 96.787242 179.30224 96.451578 178.80309 96.01863 178.37897 C 95.585683 177.95486 95.073246 177.62788 94.481256 177.39815 C 93.898103 177.15959 93.262027 177.04055 92.572846 177.04055 z M 92.572846 177.66325 C 93.35922 177.66325 94.061715 177.84003 94.680211 178.19345 C 95.307542 178.54688 95.802096 179.03275 96.164358 179.65125 C 96.526619 180.26975 96.707994 180.96815 96.707994 181.74569 C 96.707994 182.52323 96.526619 183.22113 96.164358 183.83962 C 95.802096 184.45812 95.307542 184.94399 94.680211 185.29741 C 94.061715 185.65084 93.35922 185.82761 92.572846 185.82761 C 91.786473 185.82761 91.079377 185.65084 90.452045 185.29741 C 89.824714 184.94399 89.33016 184.45812 88.967898 183.83962 C 88.605636 183.22113 88.424262 182.52323 88.424262 181.74569 C 88.424262 180.96815 88.605636 180.26975 88.967898 179.65125 C 89.33016 179.03275 89.824714 178.54688 90.452045 178.19345 C 91.079377 177.84003 91.786473 177.66325 92.572846 177.66325 z M 101.38626 179.41302 C 100.51153 179.41302 99.853484 179.59847 99.411705 179.96957 C 98.978757 180.34067 98.762132 180.78669 98.762132 181.30799 C 98.762132 181.69677 98.841835 182.01046 99.000877 182.24902 C 99.168755 182.47875 99.389464 182.66012 99.663369 182.79266 C 99.937271 182.9252 100.23769 183.02687 100.56461 183.09755 C 100.89153 183.16822 101.21851 183.23412 101.54542 183.29599 C 101.87234 183.349 102.17276 183.42002 102.44666 183.50838 C 102.72057 183.59674 102.93719 183.72497 103.09623 183.89285 C 103.26411 184.05189 103.3479 184.2726 103.3479 184.55534 C 103.3479 184.94411 103.18901 185.2578 102.87093 185.49637 C 102.56168 185.73493 102.04004 185.85397 101.30668 185.85397 C 100.79421 185.85397 100.31703 185.77478 99.875242 185.61574 C 99.43346 185.44786 99.080429 185.24912 98.815359 185.01939 L 98.510468 185.54908 C 98.784373 185.80531 99.168572 186.01733 99.663369 186.18521 C 100.167 186.35309 100.70601 186.4374 101.28032 186.4374 C 102.16389 186.4374 102.83981 186.26522 103.30811 185.92063 C 103.77639 185.5672 104.01039 185.10738 104.01039 184.5419 C 104.01039 184.16197 103.9266 183.86156 103.75873 183.64067 C 103.59968 183.41094 103.38305 183.23417 103.10915 183.11047 C 102.83525 182.97793 102.53484 182.87626 102.20792 182.80558 C 101.881 182.73488 101.55402 182.67306 101.2271 182.62006 C 100.90018 182.5582 100.59977 182.4831 100.32586 182.39475 C 100.05196 182.29756 99.831247 182.16524 99.663369 181.99736 C 99.504327 181.82064 99.424624 181.58665 99.424624 181.29507 C 99.424624 180.92397 99.57943 180.61436 99.888678 180.36697 C 100.20676 180.11957 100.70183 179.99593 101.37334 179.99593 C 101.74444 179.99593 102.11075 180.04907 102.47302 180.15509 C 102.83528 180.25228 103.16226 180.40709 103.45384 180.61915 L 103.75873 180.08895 C 103.48482 179.88573 103.12719 179.72224 102.68541 179.59854 C 102.25246 179.47484 101.81921 179.41302 101.38626 179.41302 z M 109.24573 179.41302 C 108.59189 179.41302 108.03092 179.54994 107.56263 179.82385 C 107.09434 180.09775 106.74079 180.47327 106.50223 180.95039 L 106.50223 179.46573 L 105.86609 179.46573 L 105.86609 186.38417 L 106.52858 186.38417 L 106.52858 182.69964 C 106.52858 181.87792 106.7631 181.22448 107.23138 180.73852 C 107.69968 180.25256 108.33983 180.00936 109.15271 180.00936 C 109.85956 180.00936 110.40777 180.21271 110.79654 180.61915 C 111.19414 181.02559 111.39289 181.61721 111.39289 182.39475 L 111.39289 186.38417 L 112.05538 186.38417 L 112.05538 182.34204 C 112.05538 181.37012 111.79482 180.64105 111.27351 180.15509 C 110.76105 179.66029 110.08512 179.41302 109.24573 179.41302 z M 117.11812 179.41302 C 116.57914 179.41302 116.06671 179.50141 115.58074 179.67812 C 115.10362 179.846 114.69285 180.08459 114.34826 180.39384 L 114.67951 180.87081 C 114.96225 180.61457 115.3112 180.40715 115.72647 180.24811 C 116.14175 180.08024 116.58829 179.99593 117.06541 179.99593 C 118.43494 179.99593 119.11955 180.65449 119.11955 181.971 L 119.11955 182.52756 L 116.74708 182.52756 C 116.10208 182.52756 115.58965 182.61594 115.20971 182.79266 C 114.83861 182.96937 114.56937 183.20336 114.40149 183.49494 C 114.24245 183.78651 114.16274 184.1089 114.16274 184.46232 C 114.16274 185.04548 114.38345 185.52267 114.82523 185.89376 C 115.26702 186.25603 115.87704 186.4374 116.65458 186.4374 C 117.26424 186.4374 117.77668 186.32244 118.19195 186.09271 C 118.61607 185.86298 118.93385 185.54929 119.1459 185.15169 L 119.1459 186.38417 L 119.78204 186.38417 L 119.78204 181.99736 C 119.78204 181.1403 119.55264 180.49554 119.09319 180.06259 C 118.63374 179.62964 117.97518 179.41302 117.11812 179.41302 z M 134.73203 179.41302 C 134.07819 179.41302 133.5259 179.54994 133.07528 179.82385 C 132.6335 180.08891 132.30652 180.47311 132.09446 180.97675 L 132.09446 179.46573 L 131.45833 179.46573 L 131.45833 186.38417 L 132.12134 186.38417 L 132.12134 182.77922 C 132.12134 181.92216 132.33796 181.25544 132.77091 180.77831 C 133.20386 180.29235 133.80468 180.04916 134.57338 180.04916 C 134.59985 180.04916 134.62591 180.05379 134.65245 180.06259 L 134.73203 180.06259 L 134.73203 179.41302 z M 148.29038 179.41302 C 147.61886 179.41302 147.01804 179.56322 146.4879 179.86364 C 145.9666 180.15522 145.55124 180.56598 145.24198 181.09612 C 144.94158 181.62626 144.79136 182.23577 144.79136 182.92495 C 144.79136 183.60529 144.94158 184.21072 145.24198 184.74086 C 145.55124 185.271 145.9666 185.68636 146.4879 185.98678 C 147.01804 186.28719 147.61886 186.4374 148.29038 186.4374 C 148.83819 186.4374 149.34194 186.33113 149.80139 186.11907 C 150.26085 185.90702 150.63176 185.58923 150.9145 185.16512 L 150.42409 184.807 C 150.1767 185.16043 149.863 185.421 149.48307 185.58887 C 149.11197 185.75675 148.71449 185.84105 148.29038 185.84105 C 147.7514 185.84105 147.26554 185.7215 146.83258 185.48293 C 146.40848 185.23554 146.07281 184.89528 145.82541 184.46232 C 145.58684 184.02054 145.46729 183.5081 145.46729 182.92495 C 145.46729 182.3418 145.58684 181.83396 145.82541 181.40101 C 146.07281 180.95922 146.40848 180.61896 146.83258 180.3804 C 147.26554 180.133 147.7514 180.00936 148.29038 180.00936 C 148.71449 180.00936 149.11197 180.09315 149.48307 180.26103 C 149.863 180.4289 150.1767 180.68947 150.42409 181.04289 L 150.9145 180.68529 C 150.63176 180.26118 150.26085 179.94288 149.80139 179.73083 C 149.34194 179.51877 148.83819 179.41302 148.29038 179.41302 z M 136.60065 179.46573 L 136.60065 183.50838 C 136.60065 184.4803 136.86172 185.21345 137.38303 185.70824 C 137.90434 186.19421 138.60683 186.4374 139.4904 186.4374 C 140.10005 186.4374 140.62986 186.30456 141.08048 186.03949 C 141.5311 185.76558 141.87136 185.39007 142.10109 184.91294 L 142.10109 186.38417 L 142.73723 186.38417 L 142.73723 179.46573 L 142.07473 179.46573 L 142.07473 183.15026 C 142.07473 183.97197 141.84943 184.62593 141.39881 185.1119 C 140.94819 185.59785 140.32948 185.84105 139.54311 185.84105 C 138.81858 185.84105 138.2576 185.63771 137.86 185.23127 C 137.4624 184.82483 137.26366 184.23269 137.26366 183.45515 L 137.26366 179.46573 L 136.60065 179.46573 z M 125.94497 180.00936 C 126.47511 180.00936 126.95229 180.133 127.37641 180.3804 C 127.80052 180.61896 128.1321 180.95922 128.37066 181.40101 C 128.61806 181.83396 128.7417 182.3418 128.7417 182.92495 C 128.7417 183.49927 128.61806 184.00762 128.37066 184.4494 C 128.1321 184.89119 127.80052 185.23554 127.37641 185.48293 C 126.95229 185.7215 126.47511 185.84105 125.94497 185.84105 C 125.41483 185.84105 124.93764 185.7215 124.51353 185.48293 C 124.09826 185.23554 123.76719 184.89119 123.51979 184.4494 C 123.28123 184.00762 123.16168 183.49927 123.16168 182.92495 C 123.16168 182.3418 123.28123 181.83396 123.51979 181.40101 C 123.76719 180.95922 124.09826 180.61896 124.51353 180.3804 C 124.93764 180.133 125.41483 180.00936 125.94497 180.00936 z M 116.76052 183.04432 L 119.11955 183.04432 L 119.11955 184.34347 C 118.92516 184.8471 118.62475 185.23129 118.21831 185.49637 C 117.8207 185.76143 117.33023 185.89376 116.74708 185.89376 C 116.13742 185.89376 115.66483 185.76552 115.32908 185.50929 C 114.99332 185.24422 114.82523 184.88659 114.82523 184.43597 C 114.82523 184.03836 114.96675 183.7073 115.2495 183.44223 C 115.54107 183.17716 116.04483 183.04432 116.76052 183.04432 z "
         inkscape:label="Text" />
      <path
         style="color:#000000;fill:url(#linearGradient1148);-inkscape-stroke:none"
         d="m 30.600371,158.16146 v 0.91796 H 168.79763 v -0.91796 z"
         id="path393"
         inkscape:label="Rainbow Line" />
      <path
         id="path1589"
         style="font-weight:600;font-size:34.7369px;font-family:Montserrat;-inkscape-font-specification:'Montserrat Semi-Bold';fill:#ffffff;stroke-width:1.21875"
         d="m 59.694749,157.62055 c 0.0234,0.28651 0.03927,0.57758 0.03927,0.87798 0,0.38588 -0.02185,0.75898 -0.06046,1.1219 h 4.565096 c 0.02747,-0.36743 0.04599,-0.73957 0.04599,-1.1219 0,-0.2973 -0.0087,-0.58968 -0.02532,-0.87798 z m 9.383924,0 v 1.99988 h 4.515486 v -1.99988 z m 40.607337,0 c 0.0208,0.2878 0.0346,0.57927 0.0346,0.87798 0,0.38337 -0.0222,0.75565 -0.0563,1.1219 h 2.54506 c 0.0279,-0.36769 0.047,-0.73996 0.047,-1.1219 0,-0.29693 -0.008,-0.58966 -0.0253,-0.87798 z m 10.0583,0 -0.91415,1.99988 h 2.58227 l 0.89348,-1.99988 z m 29.79147,0 -1.22473,1.99988 h 2.58278 l 1.22215,-1.99988 z"
         sodipodi:nodetypes="csccsccccccccsccscccccccccccc"
         inkscape:label="3D Effect" />
    </g>
  </g>
</svg>
