<?xml version="1.0" encoding="UTF-8" standalone="no"?>
<!-- Created with Inkscape (http://www.inkscape.org/) -->

<svg
   width="161.80299mm"
   height="100mm"
   viewBox="0 0 161.80299 100"
   version="1.1"
   id="svg240"
   inkscape:version="1.2.2 (b0a8486541, 2022-12-01)"
   sodipodi:docname="diday-icon-main-dark.svg"
   inkscape:export-filename="diday-icon-main-raw1.png"
   inkscape:export-xdpi="96"
   inkscape:export-ydpi="96"
   xmlns:inkscape="http://www.inkscape.org/namespaces/inkscape"
   xmlns:sodipodi="http://sodipodi.sourceforge.net/DTD/sodipodi-0.dtd"
   xmlns:xlink="http://www.w3.org/1999/xlink"
   xmlns="http://www.w3.org/2000/svg"
   xmlns:svg="http://www.w3.org/2000/svg">
  <sodipodi:namedview
     id="namedview242"
     pagecolor="#505050"
     bordercolor="#ffffff"
     borderopacity="1"
     inkscape:showpageshadow="0"
     inkscape:pageopacity="0"
     inkscape:pagecheckerboard="1"
     inkscape:deskcolor="#505050"
     inkscape:document-units="mm"
     showgrid="false"
     inkscape:zoom="3.659624"
     inkscape:cx="231.17129"
     inkscape:cy="188.27071"
     inkscape:window-width="3840"
     inkscape:window-height="2068"
     inkscape:window-x="0"
     inkscape:window-y="0"
     inkscape:window-maximized="1"
     inkscape:current-layer="layer1" />
  <defs
     id="defs237">
    <linearGradient
       inkscape:collect="always"
       id="linearGradient1146">
      <stop
         style="stop-color:#ff0000;stop-opacity:1;"
         offset="0"
         id="stop1142" />
      <stop
         style="stop-color:#ffff00;stop-opacity:1;"
         offset="0.2"
         id="stop1144" />
      <stop
         style="stop-color:#00ff00;stop-opacity:1;"
         offset="0.40000001"
         id="stop4054" />
      <stop
         style="stop-color:#00ffff;stop-opacity:1;"
         offset="0.60000002"
         id="stop4056" />
      <stop
         style="stop-color:#0000ff;stop-opacity:1;"
         offset="0.80000001"
         id="stop4058" />
      <stop
         style="stop-color:#ff00ff;stop-opacity:1;"
         offset="1"
         id="stop4060" />
    </linearGradient>
    <linearGradient
       inkscape:collect="always"
       xlink:href="#linearGradient1146"
       id="linearGradient1148"
       x1="48.797504"
       y1="138.62044"
       x2="118.7975"
       y2="138.62044"
       gradientUnits="userSpaceOnUse"
       gradientTransform="matrix(1.9742429,0,0,1.9742429,-65.736864,-115.0498)" />
  </defs>
  <g
     inkscape:groupmode="layer"
     id="layer2"
     inkscape:label="Background"
     transform="translate(-18.797504,-108.62044)">
    <rect
       style="fill:#191919;fill-opacity:1;stroke-width:0.43296"
       id="rect351"
       width="161.80299"
       height="100"
       x="18.797504"
       y="108.62044"
       inkscape:label="Single Color" />
  </g>
  <g
     inkscape:label="Main"
     inkscape:groupmode="layer"
     id="layer1"
     transform="translate(-18.797504,-108.62044)"
     style="display:inline">
    <path
       id="path254"
       style="font-weight:300;font-size:13.2535px;font-family:Montserrat;-inkscape-font-specification:'Montserrat Light';text-align:end;text-anchor:end;display:inline;fill:#ffffff;stroke-width:0.465"
       inkscape:label="Text"
       d="m 106.25573,130.59068 c -1.77597,0 -2.75694,1.04681 -2.75694,2.65048 v 0.31833 h -1.09967 v 1.59008 h 1.09967 v 5.38107 h 2.06758 v -5.38107 h 1.77612 v -1.59008 h -1.82883 v -0.30489 c 0,-0.70244 0.33137,-1.03405 0.94103,-1.03405 0.31809,0 0.60926,0.0926 0.83457,0.25166 l 0.54364,-1.49758 c -0.38435,-0.26507 -0.99402,-0.38395 -1.57717,-0.38395 z m 5.23482,0 c -1.77596,0 -2.75642,1.04681 -2.75642,2.65048 v 0.31833 h -1.10019 v 1.59008 h 1.10019 v 5.38107 h 2.06758 v -5.38107 h 1.7756 v -1.59008 h -1.82883 v -0.30489 c 0,-0.70244 0.33137,-1.03405 0.94103,-1.03405 0.31809,0 0.60978,0.0926 0.83509,0.25166 l 0.54312,-1.49758 c -0.38435,-0.26507 -0.99401,-0.38395 -1.57717,-0.38395 z m -61.07172,0.10593 v 9.83403 h 2.067574 v -3.52537 c 0,-1.3121 0.715444,-1.92185 1.709456,-1.92185 0.91449,0 1.444873,0.53006 1.444873,1.68311 v 3.76411 h 2.067574 v -4.08192 c 0,-2.17357 -1.272699,-3.15433 -2.955892,-3.15433 -0.914491,0 -1.709365,0.29136 -2.266011,0.84801 v -3.44579 z m -4.996595,0.39739 c -2.88926,0 -5.036385,2.00116 -5.036385,4.79764 0,2.79649 2.146942,4.79816 5.02295,4.79816 1.616925,0 2.955527,-0.58321 3.830257,-1.65675 l -1.378211,-1.27227 c -0.622913,0.72894 -1.40493,1.09967 -2.332674,1.09967 -1.736206,0 -2.968811,-1.21935 -2.968811,-2.96881 0,-1.74945 1.232605,-2.96881 2.968811,-2.96881 0.927744,0 1.709761,0.37159 2.332674,1.08727 l 1.378211,-1.27279 c -0.87473,-1.06027 -2.213149,-1.64331 -3.816822,-1.64331 z m 38.355282,0.72916 v 1.57716 h -1.099674 v 1.59009 h 1.099674 v 3.08818 c 0,1.69645 0.980728,2.55798 2.66392,2.55798 0.636167,0 1.259507,-0.14579 1.683618,-0.45061 l -0.557072,-1.4578 c -0.225309,0.1723 -0.529743,0.2651 -0.834574,0.2651 -0.556646,0 -0.888318,-0.33137 -0.888318,-0.94102 v -3.06183 h 1.776119 v -1.59009 h -1.776119 v -1.57716 z m -21.324797,1.47123 c -1.139799,0 -2.292792,0.3048 -3.074747,0.86144 l 0.742073,1.44436 c 0.516886,-0.41086 1.299207,-0.66249 2.054655,-0.66249 1.113293,0 1.643311,0.51658 1.643311,1.40456 h -1.643311 c -2.173572,0 -3.061828,0.87516 -3.061828,2.13424 0,1.23258 0.99398,2.16007 2.66392,2.16007 1.047026,0 1.775906,-0.34466 2.17351,-0.98082 v 0.87489 h 1.935283 v -4.06901 c 0,-2.16031 -1.259294,-3.16724 -3.432866,-3.16724 z m 8.74727,0 c -2.266347,0 -3.922758,1.52402 -3.922758,3.67109 0,2.14706 1.656411,3.67109 3.922758,3.67109 2.266346,0 3.909839,-1.52403 3.909839,-3.67109 0,-2.14707 -1.643493,-3.67109 -3.909839,-3.67109 z m 8.071342,0 c -2.080797,0 -3.300057,0.95394 -3.300057,2.3058 0,1.7362 1.603793,1.97486 2.862875,2.14715 0.795209,0.11928 1.444873,0.22531 1.444873,0.67593 0,0.39761 -0.357814,0.64957 -1.312065,0.64957 -0.87473,0 -1.842234,-0.2785 -2.478402,-0.68936 l -0.689363,1.48467 c 0.662674,0.43736 1.882115,0.76842 3.088183,0.76842 2.133811,0 3.366203,-0.94118 3.366203,-2.26652 0,-2.80975 -4.307231,-1.63011 -4.307231,-2.84944 0,-0.37109 0.39724,-0.6625 1.324984,-0.6625 0.649421,0 1.35222,0.1326 2.054655,0.53021 l 0.688847,-1.47123 c -0.675928,-0.3976 -1.762744,-0.6227 -2.743502,-0.6227 z m 14.446664,0 c -1.10004,0 -1.948415,0.35778 -2.452047,1.04696 v -0.94103 h -1.974557 v 7.13032 h 2.067574 v -3.36621 c 0,-1.3651 0.755175,-1.9885 1.894975,-1.9885 0.159042,0 0.291759,0.0137 0.464055,0.0269 z m 4.440039,0 c -2.173572,0 -3.803903,1.53727 -3.803903,3.67109 0,2.12056 1.603337,3.67109 4.068486,3.67109 1.285589,0 2.279772,-0.39745 2.942452,-1.1529 l -1.10019,-1.19269 c -0.490378,0.46387 -1.033586,0.68885 -1.789035,0.68885 -1.086786,0 -1.842417,-0.54346 -2.041219,-1.43144 h 5.394504 c 0.0133,-0.1723 0.0398,-0.39752 0.0398,-0.55656 0,-2.29284 -1.61683,-3.69744 -3.710885,-3.69744 z m 0.01292,1.56372 c 0.927744,0 1.603975,0.58291 1.749764,1.48415 h -3.499012 c 0.145788,-0.90124 0.80825,-1.48415 1.749248,-1.48415 z m -26.970964,0.1323 c 1.033772,0 1.81591,0.74249 1.81591,1.97507 0,1.23257 -0.782138,1.97456 -1.81591,1.97456 -1.033772,0 -1.828829,-0.74199 -1.828829,-1.97456 0,-1.23258 0.795057,-1.97507 1.828829,-1.97507 z m -8.799979,2.55798 h 1.418001 v 0.72915 c -0.238563,0.64942 -0.835274,0.96739 -1.524455,0.96739 -0.728942,0 -1.16582,-0.34456 -1.16582,-0.86145 0,-0.47713 0.304768,-0.83509 1.272274,-0.83509 z m -22.014161,8.79223 v 24.31583 h 10.629326 c 7.885268,0 13.269474,-4.86317 13.269474,-12.15792 0,-7.29473 -5.384206,-12.15791 -13.269474,-12.15791 z m 28.692823,0 v 24.31583 h 4.515486 v -24.31583 z m 20.251477,0 v 24.31583 h 9.899654 c 7.781055,0 13.026595,-5.00211 13.026595,-12.15792 0,-7.15579 -5.24554,-12.15791 -13.026595,-12.15791 z m 35.570439,0 -11.1156,24.31583 h 2.67477 l 2.91765,-6.49625 h 13.58212 l 2.88303,6.49625 h 2.70991 l -11.11612,-24.31583 z m -33.000054,2.22312 h 7.190776 c 6.461048,0 10.629328,4.09901 10.629328,9.93479 0,5.8358 -4.16828,9.93428 -10.629328,9.93428 h -7.190776 z m 34.250624,0.45113 5.87044,13.06122 h -11.70626 z m -81.249822,1.1467 h 5.905583 c 5.41895,0 8.927103,3.30012 8.927103,8.33696 0,5.03685 -3.508153,8.33644 -8.927103,8.33644 h -5.905583 z m 36.230863,14.9717 c -1.563158,0 -2.848404,1.14618 -2.848404,2.88303 0,1.66737 1.285246,2.88303 2.848404,2.88303 1.56316,0 2.848405,-1.21566 2.848405,-2.88303 0,-1.73685 -1.285245,-2.88303 -2.848405,-2.88303 z m 41.380419,11.41687 v 9.83403 h 0.63614 v -1.62988 c 0.5434,1.06028 1.59017,1.68311 2.836,1.68311 1.94827,0 3.41943,-1.44491 3.41943,-3.51245 0,-2.0808 -1.47116,-3.51193 -3.41943,-3.51193 -1.21932,0 -2.26626,0.59628 -2.80965,1.64331 v -4.50619 z m 30.27102,0 v 9.83403 h 0.66249 v -2.0407 l 1.78904,-1.65675 2.95589,3.69745 h 0.82166 l -3.26078,-4.12171 2.96881,-2.79673 h -0.84801 l -4.42661,4.05556 v -6.97115 z m -14.26114,0.47698 c -0.25181,0 -0.47698,0.19916 -0.47698,0.47749 0,0.26507 0.22517,0.47697 0.47698,0.47697 0.26507,0 0.47749,-0.2119 0.47749,-0.47697 0,-0.27833 -0.21242,-0.47749 -0.47749,-0.47749 z m 2.29288,0 c -0.26507,0 -0.47697,0.19916 -0.47697,0.47749 0,0.26507 0.2119,0.47697 0.47697,0.47697 0.26507,0 0.47749,-0.2119 0.47749,-0.47697 0,-0.27833 -0.21242,-0.47749 -0.47749,-0.47749 z m -48.24305,0.0134 c -2.808065,2.1e-4 -4.819941,2.00553 -4.823478,4.71961 2.1e-4,2.71027 2.087914,4.69355 4.823478,4.69015 2.667083,8e-5 4.820684,-1.90018 4.820894,-4.71185 -0.0035,-2.72152 -2.059621,-4.69438 -4.820894,-4.69791 z m -0.263033,0.63046 c 0,0.33338 -0.03694,0.67407 -0.136943,0.9741 -0.06667,0.16674 -0.133325,0.33354 -0.133325,0.56689 0,0.23334 0.06665,0.40021 0.133325,0.56689 0.1,0.23335 0.133564,0.49966 0.166915,0.76636 -0.266688,0.0665 -0.533534,0.19994 -0.700215,0.39997 -0.233353,-0.16673 -0.433545,-0.33328 -0.566891,-0.5333 -0.1,-0.13339 -0.233297,-0.29997 -0.399975,-0.39997 -0.200021,-0.0999 -0.366356,-0.13358 -0.566374,-0.16692 -0.30003,-0.0334 -0.713094,-0.25757 -0.979785,-0.42426 0.666728,-1.03343 1.883152,-1.68309 3.183268,-1.74976 z m 0.533301,0 c 1.333452,0.0665 2.52481,0.75253 3.191536,1.78593 -0.300027,0.16671 -0.661405,0.35476 -0.994771,0.38809 -0.166683,0.0334 -0.366871,0.0336 -0.566891,0.16692 -0.200012,0.0999 -0.299965,0.2666 -0.399975,0.39997 -0.166683,0.20002 -0.366355,0.36662 -0.566374,0.5333 -0.166685,-0.20003 -0.433527,-0.36662 -0.700215,-0.39997 0.03335,-0.2667 0.06638,-0.53301 0.166398,-0.76636 0.06667,-0.16673 0.133325,-0.33355 0.133325,-0.56689 0,-0.23335 -0.06665,-0.40021 -0.133325,-0.56689 -0.13336,-0.30003 -0.129708,-0.64072 -0.129708,-0.9741 z m 8.543662,1.74201 c -1.749454,0 -2.624127,0.84795 -2.624127,1.89497 0,2.71697 4.585767,1.23282 4.585767,3.24735 0,0.78196 -0.58333,1.29863 -2.04122,1.29863 -1.02052,0 -1.961182,-0.38396 -2.49132,-0.83458 l -0.304891,0.52969 c 0.543391,0.50363 1.630071,0.88832 2.769851,0.88832 1.76272,0 2.73007,-0.76896 2.73007,-1.8955 0,-2.63743 -4.585765,-1.16603 -4.585765,-3.24683 0,-0.7422 0.596855,-1.29914 1.948715,-1.29914 0.74219,0 1.49734,0.19911 2.0805,0.62322 l 0.30489,-0.5302 c -0.5434,-0.41086 -1.49774,-0.67593 -2.37247,-0.67593 z m 7.85947,0 c -1.3121,0 -2.27963,0.58312 -2.7435,1.53737 v -1.48466 h -0.63614 v 6.91844 h 0.66249 v -3.68453 c 0,-1.64343 0.99395,-2.69028 2.62413,-2.69028 1.40487,0 2.24018,0.82148 2.24018,2.38539 v 3.98942 h 0.66249 v -4.04213 c 0,-1.93501 -1.12646,-2.92902 -2.80965,-2.92902 z m 7.87239,0 c -1.07354,0 -2.08068,0.37116 -2.76986,0.98082 l 0.33125,0.47697 c 0.5699,-0.51689 1.43165,-0.87488 2.3859,-0.87488 1.35186,0 2.05414,0.68948 2.05414,1.97507 v 0.55656 h -2.37247 c -1.92176,0 -2.58434,0.88774 -2.58434,1.93476 0,1.17957 0.94118,1.97508 2.49184,1.97508 1.20606,0 2.05396,-0.4905 2.49132,-1.28571 v 1.23248 h 0.63614 v -4.38681 c 0,-1.7097 -0.95422,-2.58434 -2.66392,-2.58434 z m 17.61391,0 c -1.31209,0 -2.21346,0.55647 -2.63757,1.56373 v -1.51102 h -0.63613 v 6.91844 h 0.66301 v -3.60495 c 0,-1.7097 0.91412,-2.73006 2.45153,-2.73006 0.053,0 0.10615,0.0129 0.15916,0.0129 z m 13.55835,0 c -2.02778,0 -3.49902,1.44438 -3.49902,3.51193 0,2.05429 1.47124,3.51245 3.49902,3.51245 1.10002,0 2.05422,-0.43731 2.62412,-1.27228 l -0.49041,-0.35812 c -0.50361,0.70243 -1.27225,1.03405 -2.13371,1.03405 -1.63018,0 -2.82309,-1.16664 -2.82309,-2.9161 0,-1.74946 1.19291,-2.91559 2.82309,-2.91559 0.86146,0 1.6301,0.3311 2.13371,1.03353 l 0.49041,-0.3576 c -0.5699,-0.84823 -1.5241,-1.27227 -2.62412,-1.27227 z m -11.68973,0.0527 v 4.04265 c 0,1.93499 1.12703,2.92902 2.88975,2.92902 1.2193,0 2.14682,-0.5702 2.61069,-1.52446 v 1.47123 h 0.63614 v -6.91844 h -0.6625 v 3.68453 c 0,1.64343 -0.96772,2.69079 -2.53162,2.69079 -1.44463,0 -2.27945,-0.82199 -2.27945,-2.3859 v -3.98942 z m -47.753157,0.4253 c 0.300025,0.16671 0.624739,0.42085 0.824756,0.65422 0.1,0.13338 0.233291,0.29996 0.399975,0.39997 0.200017,0.0999 0.366872,0.13358 0.566891,0.16692 0.266689,0.0334 0.499668,0.1331 0.766361,0.23306 -0.03334,0.13341 -0.06666,0.26715 -0.06666,0.40049 0,0.13339 0.03333,0.26664 0.06666,0.39998 -0.233354,0.10002 -0.499672,0.19973 -0.766361,0.23306 -0.166683,0.0334 -0.366874,0.0336 -0.566891,0.16691 -0.200018,0.10013 -0.299967,0.26666 -0.399975,0.39998 -0.200017,0.26672 -0.517495,0.50198 -0.817522,0.66869 -0.26669,-0.53339 -0.436149,-1.21711 -0.436149,-1.85053 0.03335,-0.6334 0.162227,-1.33941 0.428915,-1.87275 z m 7.453292,0.0325 c 0.26669,0.53336 0.404626,1.18821 0.404626,1.8216 0,0.63338 -0.137938,1.29236 -0.404626,1.82572 -0.300029,-0.16675 -0.627841,-0.39191 -0.827857,-0.62528 -0.100009,-0.13337 -0.233294,-0.29995 -0.399975,-0.39998 -0.200014,-0.0999 -0.366872,-0.13356 -0.566891,-0.16691 -0.266689,-0.0334 -0.500187,-0.13308 -0.766878,-0.23306 0.03334,-0.13338 0.06666,-0.26662 0.06666,-0.39998 0,-0.13339 -0.03333,-0.26713 -0.06666,-0.40049 0.233356,-0.0999 0.500189,-0.19972 0.766878,-0.23306 0.166685,-0.0334 0.366877,-0.0336 0.566891,-0.16692 0.200018,-0.0999 0.299966,-0.26664 0.399975,-0.39997 0.200016,-0.26671 0.527828,-0.45499 0.827857,-0.62167 z m 29.644185,0.0858 c 1.59042,0 2.79673,1.17938 2.79673,2.91559 0,1.73621 -1.20631,2.9161 -2.79673,2.9161 -1.59042,0 -2.78329,-1.17989 -2.78329,-2.9161 0,-1.73621 1.19287,-2.91559 2.78329,-2.91559 z m -33.37264,1.2361 c 0.266688,0 0.500228,0.23355 0.500228,0.50023 0,0.2667 -0.23354,0.49971 -0.500228,0.49971 -0.266694,0 -0.499711,-0.23301 -0.499711,-0.49971 0,-0.26668 0.233017,-0.50023 0.499711,-0.50023 z m -0.933276,1.30018 c 0.166682,0.20003 0.433527,0.36667 0.700215,0.39998 -0.03335,0.26671 -0.0669,0.53352 -0.166915,0.76688 -0.06667,0.16673 -0.133325,0.33303 -0.133325,0.56637 0,0.23334 0.06665,0.40021 0.133325,0.56689 0.133333,0.30002 0.133326,0.63349 0.133326,0.96687 -1.300115,-0.0665 -2.484242,-0.69825 -3.184302,-1.73168 0.300028,-0.16673 0.651071,-0.40179 0.984436,-0.43512 0.166683,-0.0334 0.366353,-0.0336 0.566374,-0.16691 0.200014,-0.0999 0.299967,-0.26662 0.399975,-0.39998 0.166685,-0.2 0.366873,-0.3666 0.566891,-0.5333 z m 1.867069,0 c 0.233353,0.16674 0.433029,0.3333 0.566374,0.5333 0.1,0.13338 0.233298,0.29998 0.399975,0.39998 0.20002,0.0999 0.366875,0.13358 0.566891,0.16691 0.30003,0.0334 0.720329,0.24312 0.98702,0.4098 -0.666726,1.03343 -1.887286,1.69032 -3.187403,1.757 0,-0.33338 0.03331,-0.66685 0.133326,-0.96687 0.06667,-0.16672 0.133325,-0.33355 0.133325,-0.56689 0,-0.23334 -0.06665,-0.3997 -0.133325,-0.56637 -0.100009,-0.23336 -0.133077,-0.50017 -0.166398,-0.76688 0.266688,-0.0665 0.533531,-0.19995 0.700215,-0.39998 z m 23.254397,0.49868 h 2.35903 v 1.29915 c -0.39761,0.99402 -1.20616,1.55029 -2.37247,1.55029 -1.21932,0 -1.92185,-0.55655 -1.92185,-1.45779 0,-0.79521 0.50392,-1.39165 1.93529,-1.39165 z" />
    <path
       style="color:#000000;fill:url(#linearGradient1148);-inkscape-stroke:none"
       d="m 30.600371,158.16146 v 0.91796 H 168.79763 v -0.91796 z"
       id="path393"
       inkscape:label="Rainbow Line" />
    <path
       id="path642"
       style="font-weight:600;font-size:34.7369px;font-family:Montserrat;-inkscape-font-specification:'Montserrat Semi-Bold';display:inline;fill:#ffffff;stroke-width:1.21875"
       d="m 137.02388,146.34062 9.72602,15.9091 v 8.40673 h 2.53628 v -8.40673 l 9.72602,-15.9091 h -2.57038 l -8.33696,13.61674 -8.33696,-13.61674 z m -77.557541,9.8795 c 0.174244,0.71098 0.267684,1.47137 0.267684,2.27841 0,0.89999 -0.115177,1.74261 -0.330729,2.52233 h 4.648295 c 0.151902,-0.80302 0.233061,-1.64404 0.233061,-2.52233 0,-0.78931 -0.06453,-1.54923 -0.187069,-2.27841 z m 9.612334,0 v 4.80074 h 4.515486 v -4.80074 z m 40.411487,0 c 0.15042,0.72357 0.23048,1.4842 0.23048,2.27841 0,0.88406 -0.0989,1.72649 -0.28422,2.52233 h 2.58588 c 0.15274,-0.80527 0.2341,-1.64698 0.2341,-2.52233 0,-0.78703 -0.0652,-1.54733 -0.18862,-2.27841 z m 10.89442,0 -2.19469,4.80074 h 2.59674 l 2.14509,-4.80074 z m 9.00514,0 2.15749,4.80074 h 2.60036 l -2.1947,-4.80074 z"
       inkscape:label="Text 3D Effect" />
  </g>
</svg>
