<?xml version="1.0" encoding="UTF-8" standalone="no"?>
<!-- Created with Inkscape (http://www.inkscape.org/) -->

<svg
   width="105mm"
   height="148mm"
   viewBox="0 0 105 148"
   version="1.1"
   id="svg240"
   inkscape:version="1.4.3 (0d15f75042, 2025-12-25)"
   sodipodi:docname="diday-event-flyer-DINA6-dark.svg"
   inkscape:export-filename="diday-2026-28-03-DINA6-dark.png"
   inkscape:export-xdpi="261.25714"
   inkscape:export-ydpi="261.25714"
   xmlns:inkscape="http://www.inkscape.org/namespaces/inkscape"
   xmlns:sodipodi="http://sodipodi.sourceforge.net/DTD/sodipodi-0.dtd"
   xmlns:xlink="http://www.w3.org/1999/xlink"
   xmlns="http://www.w3.org/2000/svg"
   xmlns:svg="http://www.w3.org/2000/svg">
  <sodipodi:namedview
     id="namedview242"
     pagecolor="#505050"
     bordercolor="#ffffff"
     borderopacity="1"
     inkscape:showpageshadow="0"
     inkscape:pageopacity="0"
     inkscape:pagecheckerboard="1"
     inkscape:deskcolor="#505050"
     inkscape:document-units="mm"
     showgrid="false"
     inkscape:zoom="2.0387161"
     inkscape:cx="38.749877"
     inkscape:cy="235.19704"
     inkscape:window-width="4082"
     inkscape:window-height="1642"
     inkscape:window-x="0"
     inkscape:window-y="0"
     inkscape:window-maximized="1"
     inkscape:current-layer="layer1"
     showguides="false" />
  <defs
     id="defs237">
    <rect
       x="-413.98603"
       y="4.414543"
       width="171.67667"
       height="88.29086"
       id="rect1" />
    <rect
       x="324.18628"
       y="276.80439"
       width="12.241708"
       height="16.176512"
       id="rect1965" />
    <linearGradient
       inkscape:collect="always"
       id="linearGradient1146">
      <stop
         style="stop-color:#ff0000;stop-opacity:1;"
         offset="0"
         id="stop1142" />
      <stop
         style="stop-color:#ffff00;stop-opacity:1;"
         offset="0.2"
         id="stop1144" />
      <stop
         style="stop-color:#00ff00;stop-opacity:1;"
         offset="0.40000001"
         id="stop4054" />
      <stop
         style="stop-color:#00ffff;stop-opacity:1;"
         offset="0.60000002"
         id="stop4056" />
      <stop
         style="stop-color:#0000ff;stop-opacity:1;"
         offset="0.80000001"
         id="stop4058" />
      <stop
         style="stop-color:#ff00ff;stop-opacity:1;"
         offset="1"
         id="stop4060" />
    </linearGradient>
    <linearGradient
       inkscape:collect="always"
       xlink:href="#linearGradient1146"
       id="linearGradient2058"
       gradientUnits="userSpaceOnUse"
       gradientTransform="matrix(1.2811549,0,0,1.2811549,-36.059572,-17.097415)"
       x1="48.797504"
       y1="138.62044"
       x2="118.7975"
       y2="138.62044" />
    <linearGradient
       inkscape:collect="always"
       xlink:href="#linearGradient1146"
       id="linearGradient2156"
       gradientUnits="userSpaceOnUse"
       gradientTransform="matrix(1.2811549,0,0,1.2811549,-36.059573,34.972103)"
       x1="48.797504"
       y1="138.62044"
       x2="118.7975"
       y2="138.62044" />
    <linearGradient
       inkscape:collect="always"
       xlink:href="#linearGradient1146"
       id="linearGradient1148"
       x1="48.797504"
       y1="138.62044"
       x2="118.7975"
       y2="138.62044"
       gradientUnits="userSpaceOnUse"
       gradientTransform="matrix(1.2811599,0,0,1.2811599,-54.857505,-134.03539)" />
  </defs>
  <rect
     style="fill:#191919;fill-opacity:1;stroke-width:0.424307"
     id="rect351"
     width="105"
     height="148"
     x="-2.3167075e-07"
     y="-1.4847153e-06"
     inkscape:label="Single Color" />
  <g
     inkscape:label="Main"
     inkscape:groupmode="layer"
     id="layer1"
     transform="translate(-18.797504,-108.62044)">
    <path
       style="color:#000000;fill:url(#linearGradient2058);stroke-width:0.648934;-inkscape-stroke:none"
       d="m 26.457007,160.19881 v 0.5957 H 116.138 v -0.5957 z"
       id="path393-0"
       inkscape:label="Rainbow Line" />
    <path
       style="color:#000000;fill:url(#linearGradient2156);stroke-width:0.648934;-inkscape-stroke:none"
       d="m 26.457007,212.26828 v 0.5957 H 116.138 v -0.5957 z"
       id="path393-0-6"
       inkscape:label="Rainbow Line" />
    <path
       d="m 54.64102,149.46904 h 1.425107 v -1.17463 h 0.742783 v -1.25237 h -0.742783 v -3.34252 H 54.64102 l -2.798391,3.58436 v 1.01053 h 2.798391 z m -1.252366,-2.427 1.252366,-1.48557 v 1.48557 z m 5.00083,2.53064 c 0.500947,0 0.898249,-0.40594 0.898249,-0.89824 0,-0.50095 -0.397302,-0.89825 -0.898249,-0.89825 -0.492309,0 -0.898249,0.3973 -0.898249,0.89825 0,0.4923 0.40594,0.89824 0.898249,0.89824 z m 4.612156,-0.10364 h 1.960601 c 1.986512,0 3.377071,-0.75142 3.377071,-2.88476 0,-2.10743 -1.381922,-2.88476 -3.377071,-2.88476 H 63.00164 Z m 1.995149,-1.23509 h -0.526857 v -3.31661 h 0.526857 c 1.045078,0 1.831046,0.31093 1.831046,1.66694 0,1.36465 -0.785968,1.64967 -1.831046,1.64967 z m 4.508526,1.23509 h 1.433744 v -4.28396 h -2.176527 v 1.07099 h 0.742783 z m 0.639139,-4.97492 c 0.457761,0 0.820516,-0.36275 0.820516,-0.82051 0,-0.45777 -0.362755,-0.82052 -0.820516,-0.82052 -0.457762,0 -0.820516,0.36275 -0.820516,0.82052 0,0.45776 0.362754,0.82051 0.820516,0.82051 z m 3.869381,6.74551 c 1.347374,0 2.245623,-0.59596 2.245623,-2.13334 v -3.92121 h -1.24373 l -0.17274,0.57005 c -0.336843,-0.4664 -0.889612,-0.70824 -1.407832,-0.70824 -0.872338,0 -1.796498,0.66505 -1.796498,2.17653 0,1.29555 0.92416,2.07288 1.84832,2.07288 0.449124,0 0.967345,-0.19865 1.35601,-0.65641 v 0.75142 c 0,0.61322 -0.423213,0.78596 -0.803242,0.78596 -0.449124,0 -0.699597,-0.17274 -0.863701,-0.41457 l -1.114174,0.50958 c 0.423214,0.75142 1.24373,0.96735 1.951964,0.96735 z m -0.0086,-3.04023 c -0.475035,0 -0.898249,-0.33684 -0.898249,-1.05372 0,-0.70823 0.423214,-1.00189 0.898249,-1.00189 0.483673,0 0.898249,0.25047 0.898249,1.04508 0,0.78597 -0.414576,1.01053 -0.898249,1.01053 z m 3.584365,1.26964 h 1.433743 v -4.28396 H 76.84678 v 1.07099 h 0.742783 z m 0.639139,-4.97492 c 0.457761,0 0.820515,-0.36275 0.820515,-0.82051 0,-0.45777 -0.362754,-0.82052 -0.820515,-0.82052 -0.457762,0 -0.820516,0.36275 -0.820516,0.82052 0,0.45776 0.362754,0.82051 0.820516,0.82051 z m 3.523901,4.97492 h 0.8637 v -1.14872 h -0.362754 c -0.423213,0 -0.570043,-0.0777 -0.570043,-0.47504 v -1.58057 h 0.932797 v -1.07963 h -0.932797 v -1.07099 H 80.2584 v 1.07099 h -0.708235 v 1.07963 H 80.2584 v 1.96924 c 0,1.03644 0.388665,1.23509 1.494203,1.23509 z m 2.858856,0.10364 c 0.570043,0 1.070989,-0.13819 1.381922,-0.61322 l 0.146829,0.50958 h 1.338736 c -0.08637,-0.32821 -0.146829,-0.98462 -0.146829,-1.59785 v -1.0969 c 0,-1.1919 -0.742783,-1.71876 -2.003786,-1.71876 -1.01053,0 -1.710128,0.44912 -1.995149,1.01053 l 1.209181,0.41457 c 0.08637,-0.28502 0.380028,-0.46639 0.708235,-0.46639 0.440487,0 0.708235,0.1641 0.708235,0.62186 v 0.12092 c -1.770587,0.095 -2.867488,0.51822 -2.867488,1.55466 0,0.76869 0.630502,1.261 1.520114,1.261 z m 0.500947,-0.9587 c -0.302296,0 -0.526858,-0.16411 -0.526858,-0.42322 0,-0.31093 0.336843,-0.53549 1.373285,-0.59595 v 0.11228 c 0,0.70823 -0.336844,0.90689 -0.846427,0.90689 z m 4.551711,0.85506 h 0.92416 v -1.14009 h -0.40594 c -0.483672,0 -0.570042,-0.0864 -0.570042,-0.5614 v -4.41351 h -1.433744 v 4.86263 c 0,1.05372 0.388665,1.25237 1.485566,1.25237 z"
       id="text1792"
       style="font-weight:800;font-size:8.63701px;font-family:'Atkinson Hyperlegible Next';-inkscape-font-specification:'Atkinson Hyperlegible Next Ultra-Bold';text-align:center;text-anchor:middle;fill:#ffffff;stroke-width:0.948712"
       inkscape:label="Digital"
       aria-label="4. Digital" />
    <path
       d="m 32.819626,157.46426 h 3.057502 v -1.07099 h -0.794605 v -3.62754 h 0.794605 v -1.07099 h -3.057502 v 1.07099 h 0.794605 v 3.62754 h -0.794605 z m 3.84347,0 h 1.425106 v -2.17652 c 0,-0.75142 0.215926,-1.14872 0.742783,-1.14872 0.423214,0 0.613228,0.27638 0.613228,0.88097 v 2.44427 h 1.425106 v -2.73793 c 0,-1.08826 -0.414576,-1.67558 -1.459654,-1.67558 -0.647776,0 -1.140085,0.38867 -1.321463,0.68233 l -0.155466,-0.55277 h -1.26964 z m 6.754134,0.10365 c 0.423213,0 0.941434,-0.17274 1.330099,-0.64778 l 0.164104,0.54413 h 1.364647 c -0.120918,-0.60459 -0.146829,-1.22645 -0.146829,-1.68421 v -4.43079 h -1.425107 v 2.40109 c -0.285021,-0.48367 -0.863701,-0.6996 -1.286914,-0.6996 -1.122811,0 -1.900142,0.82915 -1.900142,2.22835 0,1.39056 0.768694,2.28881 1.900142,2.28881 z m 0.466399,-1.0969 c -0.483673,0 -0.898249,-0.44049 -0.898249,-1.19191 0,-0.75142 0.414576,-1.14008 0.898249,-1.14008 0.466398,0 0.889612,0.31956 0.889612,1.16599 0,0.87234 -0.423214,1.166 -0.889612,1.166 z m 5.311755,1.0969 c 0.682324,0 1.433744,-0.29366 1.908779,-0.97598 l -1.114174,-0.41458 c -0.155466,0.18138 -0.449124,0.30229 -0.83779,0.30229 -0.457761,0 -0.83779,-0.25911 -0.967345,-0.78596 h 3.17842 c 0.120918,-1.58058 -0.811879,-2.64293 -2.228349,-2.64293 -1.26964,0 -2.331992,0.87234 -2.331992,2.23699 0,1.45102 0.993256,2.28017 2.392451,2.28017 z m 0.872338,-2.70339 h -1.891505 c 0.120918,-0.55276 0.526858,-0.76869 1.001893,-0.76869 0.466399,0 0.83779,0.2332 0.889612,0.76869 z m 1.908782,3.99894 h 1.425107 v -2.00379 c 0.285021,0.47504 0.872338,0.70824 1.286914,0.70824 1.131448,0 1.900142,-0.83779 1.900142,-2.24562 0,-1.39056 -0.768694,-2.27154 -1.900142,-2.27154 -0.414576,0 -1.001893,0.22456 -1.286914,0.6996 l -0.164103,-0.57004 h -1.261004 z m 2.25426,-2.39245 c -0.475036,0 -0.898249,-0.32821 -0.898249,-1.18327 0,-0.85507 0.423213,-1.14872 0.898249,-1.14872 0.475035,0 0.889612,0.44048 0.889612,1.18327 0,0.76005 -0.414577,1.14872 -0.889612,1.14872 z m 5.242668,1.0969 c 0.682324,0 1.433744,-0.29366 1.908779,-0.97598 l -1.114174,-0.41458 c -0.155466,0.18138 -0.449125,0.30229 -0.83779,0.30229 -0.457762,0 -0.83779,-0.25911 -0.967345,-0.78596 h 3.178419 c 0.120918,-1.58058 -0.811879,-2.64293 -2.228348,-2.64293 -1.269641,0 -2.331993,0.87234 -2.331993,2.23699 0,1.45102 0.993256,2.28017 2.392452,2.28017 z m 0.872338,-2.70339 h -1.891505 c 0.120918,-0.55276 0.526857,-0.76869 1.001893,-0.76869 0.466398,0 0.83779,0.2332 0.889612,0.76869 z m 1.90878,2.59974 h 1.425106 v -2.17652 c 0,-0.75142 0.215926,-1.14872 0.742783,-1.14872 0.423214,0 0.613228,0.27638 0.613228,0.88097 v 2.44427 h 1.425107 v -2.73793 c 0,-1.08826 -0.414577,-1.67558 -1.459655,-1.67558 -0.647776,0 -1.140085,0.38867 -1.321463,0.68233 l -0.155466,-0.55277 h -1.26964 z m 6.754134,0.10365 c 0.423213,0 0.941434,-0.17274 1.330099,-0.64778 l 0.164103,0.54413 h 1.364648 c -0.120918,-0.60459 -0.146829,-1.22645 -0.146829,-1.68421 v -4.43079 h -1.425107 v 2.40109 c -0.285021,-0.48367 -0.863701,-0.6996 -1.286914,-0.6996 -1.122812,0 -1.900143,0.82915 -1.900143,2.22835 0,1.39056 0.768694,2.28881 1.900143,2.28881 z m 0.466398,-1.0969 c -0.483672,0 -0.898249,-0.44049 -0.898249,-1.19191 0,-0.75142 0.414577,-1.14008 0.898249,-1.14008 0.466399,0 0.889612,0.31956 0.889612,1.16599 0,0.87234 -0.423213,1.166 -0.889612,1.166 z m 5.311758,1.0969 c 0.682324,0 1.433743,-0.29366 1.908779,-0.97598 l -1.114174,-0.41458 c -0.155466,0.18138 -0.449125,0.30229 -0.83779,0.30229 -0.457762,0 -0.83779,-0.25911 -0.967345,-0.78596 h 3.178419 c 0.120918,-1.58058 -0.811879,-2.64293 -2.228348,-2.64293 -1.269641,0 -2.331993,0.87234 -2.331993,2.23699 0,1.45102 0.993256,2.28017 2.392452,2.28017 z m 0.872338,-2.70339 h -1.891505 c 0.120918,-0.55276 0.526857,-0.76869 1.001893,-0.76869 0.466398,0 0.83779,0.2332 0.889612,0.76869 z m 1.90878,2.59974 h 1.425106 v -2.17652 c 0,-0.75142 0.215926,-1.14872 0.742783,-1.14872 0.423214,0 0.613228,0.27638 0.613228,0.88097 v 2.44427 h 1.425106 v -2.73793 c 0,-1.08826 -0.414576,-1.67558 -1.459654,-1.67558 -0.647776,0 -1.140085,0.38867 -1.321463,0.68233 l -0.155466,-0.55277 h -1.26964 z m 7.08234,0.10365 c 0.66505,0 1.494202,-0.2332 1.951964,-1.05372 l -1.140085,-0.41457 c -0.146829,0.24183 -0.380029,0.38002 -0.725509,0.38002 -0.431851,0 -0.872338,-0.27638 -0.872338,-1.18327 0,-0.87233 0.43185,-1.15735 0.872338,-1.15735 0.302295,0 0.587317,0.12091 0.716872,0.4923 l 1.174633,-0.43185 c -0.423213,-0.90688 -1.26964,-1.14872 -1.995149,-1.14872 -1.312826,0 -2.211075,0.88098 -2.211075,2.23699 0,1.36465 0.777331,2.28017 2.228349,2.28017 z m 4.525801,0 c 0.682324,0 1.433744,-0.29366 1.908779,-0.97598 l -1.114174,-0.41458 c -0.155466,0.18138 -0.449124,0.30229 -0.83779,0.30229 -0.457761,0 -0.83779,-0.25911 -0.967345,-0.78596 h 3.17842 c 0.120918,-1.58058 -0.811879,-2.64293 -2.228349,-2.64293 -1.26964,0 -2.331993,0.87234 -2.331993,2.23699 0,1.45102 0.993257,2.28017 2.392452,2.28017 z m 0.872338,-2.70339 h -1.891505 c 0.120918,-0.55276 0.526858,-0.76869 1.001893,-0.76869 0.466399,0 0.83779,0.2332 0.889612,0.76869 z m 4.784907,2.59974 h 1.960601 c 1.986512,0 3.377075,-0.75142 3.377075,-2.88476 0,-2.10743 -1.381926,-2.88476 -3.377075,-2.88476 h -1.960601 z m 1.995149,-1.23509 h -0.526857 v -3.31661 h 0.526857 c 1.045078,0 1.831046,0.31093 1.831046,1.66694 0,1.36465 -0.785968,1.64967 -1.831046,1.64967 z m 5.277217,1.33874 c 0.57005,0 1.07099,-0.13819 1.38192,-0.61323 l 0.14683,0.50958 h 1.33874 c -0.0864,-0.3282 -0.14683,-0.98462 -0.14683,-1.59784 v -1.0969 c 0,-1.19191 -0.74278,-1.71877 -2.00379,-1.71877 -1.01053,0 -1.71012,0.44913 -1.99514,1.01053 l 1.20918,0.41458 c 0.0864,-0.28502 0.38003,-0.4664 0.70823,-0.4664 0.44049,0 0.70824,0.1641 0.70824,0.62186 v 0.12092 c -1.77059,0.095 -2.86749,0.51822 -2.86749,1.55466 0,0.7687 0.6305,1.26101 1.52011,1.26101 z m 0.50095,-0.95871 c -0.3023,0 -0.52686,-0.1641 -0.52686,-0.42321 0,-0.31094 0.33685,-0.5355 1.37329,-0.59596 v 0.11228 c 0,0.70824 -0.33685,0.90689 -0.84643,0.90689 z m 3.01433,2.25426 h 0.59595 c 1.15736,0 1.45965,-0.3023 1.8915,-1.41647 l 1.66695,-4.26668 h -1.52875 l -0.77733,2.55655 -0.79461,-2.55655 h -1.52011 l 1.6583,4.24941 -0.0432,0.10364 c -0.095,0.2332 -0.26775,0.29366 -0.78597,0.29366 h -0.36275 z"
       id="text1792-3"
       style="font-weight:800;font-size:8.63701px;font-family:'Atkinson Hyperlegible Next';-inkscape-font-specification:'Atkinson Hyperlegible Next Ultra-Bold';text-align:center;text-anchor:middle;fill:#ffffff;stroke-width:0.948712"
       inkscape:label="Indipendence Day"
       aria-label="Independence Day" />
    <path
       d="m 33.125728,167.90688 h 1.010604 v -3.07937 h 1.266228 v -0.89171 h -3.543059 v 0.89171 h 1.266227 z m 3.192318,0.0713 c 0.392353,0 0.737147,-0.0951 0.951157,-0.42207 l 0.101061,0.35074 h 0.921433 c -0.05945,-0.2259 -0.101061,-0.6777 -0.101061,-1.09978 v -0.75498 c 0,-0.82037 -0.511247,-1.183 -1.379177,-1.183 -0.695533,0 -1.177057,0.30912 -1.373233,0.69553 l 0.832263,0.28535 c 0.05945,-0.19618 0.261568,-0.32102 0.487467,-0.32102 0.303182,0 0.487468,0.11295 0.487468,0.42802 v 0.0832 c -1.218669,0.0654 -1.97365,0.35668 -1.97365,1.07005 0,0.52908 0.433965,0.86793 1.046272,0.86793 z m 0.344795,-0.65986 c -0.208066,0 -0.362629,-0.11295 -0.362629,-0.29129 0,-0.21401 0.231845,-0.36858 0.945212,-0.41019 v 0.0773 c 0,0.48747 -0.231844,0.6242 -0.582583,0.6242 z m 3.62629,1.8072 c 0.927378,0 1.54563,-0.41019 1.54563,-1.46835 v -2.69891 h -0.856042 l -0.118894,0.39235 c -0.231845,-0.32101 -0.612307,-0.48747 -0.968991,-0.48747 -0.600418,0 -1.236504,0.45775 -1.236504,1.49808 0,0.89171 0.636086,1.42673 1.272172,1.42673 0.309126,0 0.66581,-0.13673 0.933323,-0.4518 v 0.51719 c 0,0.42208 -0.291292,0.54097 -0.55286,0.54097 -0.309126,0 -0.481523,-0.11889 -0.594473,-0.28534 l -0.76687,0.35074 c 0.291292,0.51719 0.856041,0.66581 1.343509,0.66581 z m -0.0059,-2.09255 c -0.32696,0 -0.618252,-0.23184 -0.618252,-0.72526 0,-0.48746 0.291292,-0.68959 0.618252,-0.68959 0.332905,0 0.618252,0.1724 0.618252,0.71932 0,0.54097 -0.285347,0.69553 -0.618252,0.69553 z m 5.267034,0.94521 c 0.291291,0 0.647975,-0.11889 0.915488,-0.44585 l 0.11295,0.37452 h 0.939267 c -0.08323,-0.41614 -0.10106,-0.84416 -0.10106,-1.15923 v -3.04964 h -0.980881 v 1.65263 c -0.196176,-0.3329 -0.594473,-0.48152 -0.885764,-0.48152 -0.772815,0 -1.307841,0.57069 -1.307841,1.53374 0,0.9571 0.529081,1.57535 1.307841,1.57535 z m 0.321015,-0.75498 c -0.332905,0 -0.618252,-0.30318 -0.618252,-0.82037 0,-0.51719 0.285347,-0.78471 0.618252,-0.78471 0.321015,0 0.612307,0.21996 0.612307,0.80254 0,0.60042 -0.291292,0.80254 -0.612307,0.80254 z m 3.656006,0.75498 c 0.469634,0 0.986826,-0.20212 1.313786,-0.67175 l -0.76687,-0.28535 c -0.107006,0.12484 -0.309126,0.20807 -0.576639,0.20807 -0.315071,0 -0.576639,-0.17835 -0.66581,-0.54097 h 2.187661 c 0.08323,-1.08789 -0.558805,-1.81909 -1.533741,-1.81909 -0.873875,0 -1.605077,0.60042 -1.605077,1.53968 0,0.99872 0.683644,1.56941 1.64669,1.56941 z m 0.600418,-1.8607 h -1.301896 c 0.08323,-0.38046 0.362629,-0.52908 0.689589,-0.52908 0.321015,0 0.576639,0.16051 0.612307,0.52908 z m 2.603792,1.86665 c 0.808483,0 1.456459,-0.33291 1.456459,-1.01655 0,-0.49936 -0.285347,-0.73715 -1.034383,-0.86793 l -0.564749,-0.10106 c -0.255624,-0.0416 -0.326961,-0.10106 -0.326961,-0.20807 0,-0.13078 0.130785,-0.23184 0.4518,-0.23184 0.291292,0 0.481523,0.10106 0.564749,0.30912 l 0.820373,-0.30318 c -0.237789,-0.51124 -0.790649,-0.69553 -1.373233,-0.69553 -0.784704,0 -1.397011,0.37452 -1.397011,0.97493 0,0.46964 0.386407,0.76687 0.98088,0.86793 l 0.535026,0.0951 c 0.332905,0.0535 0.410186,0.13673 0.410186,0.2259 0,0.1724 -0.255623,0.25562 -0.511246,0.25562 -0.350739,0 -0.636086,-0.13078 -0.707423,-0.36262 l -0.820373,0.30318 c 0.219955,0.47557 0.77876,0.75498 1.515906,0.75498 z m 5.249203,-0.006 c 0.832263,0 1.587243,-0.49935 1.587243,-1.56346 0,-1.06411 -0.75498,-1.54563 -1.587243,-1.54563 -0.832262,0 -1.587242,0.48152 -1.587242,1.54563 0,1.06411 0.75498,1.56346 1.587242,1.56346 z m 0,-0.74903 c -0.350739,0 -0.588528,-0.27346 -0.588528,-0.81443 0,-0.54097 0.249679,-0.7966 0.588528,-0.7966 0.33885,0 0.588529,0.25563 0.588529,0.7966 0,0.54097 -0.23779,0.81443 -0.588529,0.81443 z m 2.330338,0.6777 h 0.98088 v -2.2055 h 0.647976 v -0.74309 h -0.647976 v -0.30318 c 0,-0.21401 0.07728,-0.24968 0.410186,-0.24968 h 0.23779 v -0.76687 h -0.428021 c -0.826317,0 -1.200835,0.19618 -1.200835,0.91549 v 0.40424 h -0.487468 v 0.74309 h 0.487468 z m 2.401666,0 h 0.980881 v -2.2055 h 0.647975 v -0.74309 h -0.647975 v -0.30318 c 0,-0.21401 0.07728,-0.24968 0.410186,-0.24968 h 0.237789 v -0.76687 h -0.42802 c -0.826318,0 -1.200836,0.19618 -1.200836,0.91549 v 0.40424 H 62.22519 v 0.74309 h 0.487468 z m 3.453893,0.0713 c 0.469634,0 0.986825,-0.20212 1.313786,-0.67175 l -0.766871,-0.28535 c -0.107005,0.12484 -0.309126,0.20807 -0.576638,0.20807 -0.315071,0 -0.576639,-0.17835 -0.66581,-0.54097 h 2.18766 c 0.08323,-1.08789 -0.558804,-1.81909 -1.53374,-1.81909 -0.873875,0 -1.605077,0.60042 -1.605077,1.53968 0,0.99872 0.683644,1.56941 1.64669,1.56941 z m 0.600418,-1.8607 h -1.301896 c 0.08323,-0.38046 0.362629,-0.52908 0.689589,-0.52908 0.321015,0 0.576639,0.16051 0.612307,0.52908 z m 1.313785,1.78937 h 0.98088 v -1.49808 c 0,-0.51719 0.148618,-0.79065 0.511247,-0.79065 0.291292,0 0.422076,0.19024 0.422076,0.60637 v 1.68236 h 0.98088 v -1.88448 c 0,-0.74904 -0.285347,-1.15328 -1.004659,-1.15328 -0.445855,0 -0.784705,0.26751 -0.909544,0.46963 l -0.107005,-0.38046 h -0.873875 z m 4.987622,0.0713 c 0.469634,0 0.986825,-0.20212 1.313785,-0.67175 l -0.76687,-0.28535 c -0.107005,0.12484 -0.309126,0.20807 -0.576638,0.20807 -0.315071,0 -0.576639,-0.17835 -0.66581,-0.54097 h 2.18766 c 0.08323,-1.08789 -0.558804,-1.81909 -1.53374,-1.81909 -0.873875,0 -1.605077,0.60042 -1.605077,1.53968 0,0.99872 0.683644,1.56941 1.64669,1.56941 z m 0.600418,-1.8607 h -1.301896 c 0.08323,-0.38046 0.362629,-0.52908 0.689589,-0.52908 0.321015,0 0.576639,0.16051 0.612307,0.52908 z m 1.313788,1.78937 h 0.980881 v -1.49808 c 0,-0.51719 0.148618,-0.79065 0.511247,-0.79065 0.291291,0 0.422075,0.19024 0.422075,0.60637 v 1.68236 h 0.980881 v -1.88448 c 0,-0.74904 -0.285347,-1.15328 -1.004659,-1.15328 -0.445855,0 -0.784705,0.26751 -0.909544,0.46963 l -0.107005,-0.38046 h -0.873876 z m 5.457257,0 h 1.010604 v -1.59319 h 1.551575 v 1.59319 h 1.010604 v -3.97108 h -1.010604 v 1.48618 h -1.551575 v -1.48618 h -1.010604 z m 5.058961,0.0713 c 0.392352,0 0.737147,-0.0951 0.951157,-0.42207 l 0.10106,0.35074 h 0.921434 c -0.05945,-0.2259 -0.101061,-0.6777 -0.101061,-1.09978 v -0.75498 c 0,-0.82037 -0.511247,-1.183 -1.379177,-1.183 -0.695534,0 -1.177057,0.30912 -1.373233,0.69553 l 0.832262,0.28535 c 0.05945,-0.19618 0.261569,-0.32102 0.487468,-0.32102 0.303182,0 0.487468,0.11295 0.487468,0.42802 v 0.0832 c -1.218669,0.0654 -1.97365,0.35668 -1.97365,1.07005 0,0.52908 0.433965,0.86793 1.046272,0.86793 z m 0.344795,-0.65986 c -0.208066,0 -0.362629,-0.11295 -0.362629,-0.29129 0,-0.21401 0.231845,-0.36858 0.945212,-0.41019 v 0.0773 c 0,0.48747 -0.231844,0.6242 -0.582583,0.6242 z m 3.489559,0.65986 c 0.457744,0 1.028438,-0.16051 1.343509,-0.72525 l -0.784705,-0.28535 c -0.10106,0.16645 -0.261568,0.26157 -0.499357,0.26157 -0.297236,0 -0.600418,-0.19023 -0.600418,-0.81443 0,-0.60042 0.297237,-0.7966 0.600418,-0.7966 0.208066,0 0.404242,0.0832 0.493413,0.33885 l 0.808483,-0.29723 c -0.291292,-0.6242 -0.873875,-0.79065 -1.373233,-0.79065 -0.903599,0 -1.52185,0.60636 -1.52185,1.53968 0,0.93927 0.535025,1.56941 1.53374,1.56941 z m 1.830981,-0.0713 h 0.980881 v -0.69554 l 0.303181,-0.32101 0.725257,1.01655 h 1.159222 l -1.236503,-1.70614 1.159222,-1.24245 h -1.159222 l -0.951157,1.076 v -2.33628 h -0.980881 z m 4.779566,0.0773 c 0.808483,0 1.456459,-0.33291 1.456459,-1.01655 0,-0.49936 -0.285347,-0.73715 -1.034383,-0.86793 l -0.56475,-0.10106 c -0.255623,-0.0416 -0.32696,-0.10106 -0.32696,-0.20807 0,-0.13078 0.130784,-0.23184 0.4518,-0.23184 0.291291,0 0.481523,0.10106 0.564749,0.30912 l 0.820373,-0.30318 c -0.237789,-0.51124 -0.790649,-0.69553 -1.373233,-0.69553 -0.784704,0 -1.397011,0.37452 -1.397011,0.97493 0,0.46964 0.386407,0.76687 0.98088,0.86793 l 0.535026,0.0951 c 0.332905,0.0535 0.410186,0.13673 0.410186,0.2259 0,0.1724 -0.255623,0.25562 -0.511247,0.25562 -0.350739,0 -0.636086,-0.13078 -0.707422,-0.36262 l -0.820373,0.30318 c 0.219955,0.47557 0.778759,0.75498 1.515906,0.75498 z m 1.836924,0.88576 h 0.98088 v -1.37918 c 0.196176,0.32696 0.600418,0.48747 0.885765,0.48747 0.77876,0 1.30784,-0.57664 1.30784,-1.54563 0,-0.9571 -0.52908,-1.56346 -1.30784,-1.56346 -0.285347,0 -0.689589,0.15456 -0.885765,0.48152 l -0.11295,-0.39235 h -0.86793 z m 1.551574,-1.64669 c -0.32696,0 -0.618252,-0.2259 -0.618252,-0.81443 0,-0.58852 0.291292,-0.79065 0.618252,-0.79065 0.32696,0 0.612307,0.30319 0.612307,0.81443 0,0.52314 -0.285347,0.79065 -0.612307,0.79065 z m 2.954541,0.75498 c 0.39235,0 0.73714,-0.0951 0.95115,-0.42207 l 0.10106,0.35074 h 0.92144 c -0.0594,-0.2259 -0.10106,-0.6777 -0.10106,-1.09978 v -0.75498 c 0,-0.82037 -0.51125,-1.183 -1.37918,-1.183 -0.69553,0 -1.17706,0.30912 -1.37323,0.69553 l 0.83226,0.28535 c 0.0594,-0.19618 0.26157,-0.32102 0.48747,-0.32102 0.30318,0 0.48747,0.11295 0.48747,0.42802 v 0.0832 c -1.21867,0.0654 -1.97365,0.35668 -1.97365,1.07005 0,0.52908 0.43396,0.86793 1.04627,0.86793 z m 0.34479,-0.65986 c -0.20806,0 -0.36263,-0.11295 -0.36263,-0.29129 0,-0.21401 0.23185,-0.36858 0.94522,-0.41019 v 0.0773 c 0,0.48747 -0.23185,0.6242 -0.58259,0.6242 z m 3.48956,0.65986 c 0.45774,0 1.02844,-0.16051 1.34351,-0.72525 l -0.78471,-0.28535 c -0.10106,0.16645 -0.26157,0.26157 -0.49936,0.26157 -0.29723,0 -0.60041,-0.19023 -0.60041,-0.81443 0,-0.60042 0.29723,-0.7966 0.60041,-0.7966 0.20807,0 0.40425,0.0832 0.49342,0.33885 l 0.80848,-0.29723 c -0.29129,-0.6242 -0.87387,-0.79065 -1.37323,-0.79065 -0.9036,0 -1.52185,0.60636 -1.52185,1.53968 0,0.93927 0.53502,1.56941 1.53374,1.56941 z m 3.11505,0 c 0.46963,0 0.98682,-0.20212 1.31378,-0.67175 l -0.76687,-0.28535 c -0.107,0.12484 -0.30913,0.20807 -0.57664,0.20807 -0.31507,0 -0.57664,-0.17835 -0.66581,-0.54097 h 2.18766 c 0.0832,-1.08789 -0.5588,-1.81909 -1.53374,-1.81909 -0.87387,0 -1.60508,0.60042 -1.60508,1.53968 0,0.99872 0.68365,1.56941 1.6467,1.56941 z m 0.60041,-1.8607 h -1.30189 c 0.0832,-0.38046 0.36263,-0.52908 0.68959,-0.52908 0.32101,0 0.57663,0.16051 0.6123,0.52908 z"
       id="text1792-1"
       style="font-weight:800;font-size:5.94473px;font-family:'Atkinson Hyperlegible Next';-inkscape-font-specification:'Atkinson Hyperlegible Next Ultra-Bold';text-align:center;text-anchor:middle;fill:#ffffff;stroke-width:0.652984"
       inkscape:label="Title"
       aria-label="Tag des offenen Hackspace" />
    <path
       d="m 53.692736,194.23885 h 5.331737 v -0.21646 h -4.978566 l 3.258283,-3.30386 c 1.036727,-1.04812 1.287364,-1.6975 1.287364,-2.44941 0,-1.26458 -0.945586,-2.03927 -2.449409,-2.03927 -1.162045,0 -2.027883,0.36456 -2.620298,1.02533 l 0.159496,0.1595 c 0.581023,-0.64938 1.367112,-0.96837 2.460802,-0.96837 1.44686,0 2.221557,0.71773 2.221557,1.83421 0,0.67216 -0.205067,1.26457 -1.219008,2.28991 l -3.451958,3.49753 z m 9.376113,0.0342 c 1.845601,0 2.939291,-0.83166 2.939291,-2.17598 0,-1.07091 -0.751912,-1.81143 -2.062061,-2.02789 1.13926,-0.21646 1.777246,-0.88862 1.777246,-1.8456 0,-1.2304 -1.048119,-1.9937 -2.654476,-1.9937 -1.606356,0 -2.63169,0.7633 -2.63169,1.9937 0,0.95698 0.6152,1.62914 1.75446,1.8456 -1.298756,0.21646 -2.039275,0.95698 -2.039275,2.02789 0,1.34432 1.070904,2.17598 2.916505,2.17598 z m 0,-0.21646 c -1.70889,0 -2.688653,-0.75191 -2.688653,-1.94813 0,-1.17344 0.979763,-1.92535 2.688653,-1.92535 1.70889,0 2.711439,0.75191 2.711439,1.92535 0,1.19622 -1.002549,1.94813 -2.711439,1.94813 z m 0,-4.08994 c -1.526608,0 -2.403838,-0.68356 -2.403838,-1.75446 0,-1.0823 0.9228,-1.76585 2.403838,-1.76585 1.481038,0 2.426624,0.68355 2.426624,1.77724 0,1.05951 -0.900015,1.74307 -2.426624,1.74307 z m 4.716545,4.3064 c 0.159497,0 0.296208,-0.13671 0.296208,-0.2962 0,-0.1595 -0.136711,-0.29621 -0.296208,-0.29621 -0.159496,0 -0.296207,0.13671 -0.296207,0.29621 0,0.15949 0.136711,0.2962 0.296207,0.2962 z m 4.636777,0 c 1.811423,0 3.041824,-1.58357 3.041824,-4.02158 0,-2.43802 -1.230401,-4.02159 -3.041824,-4.02159 -1.811424,0 -3.041824,1.58357 -3.041824,4.02159 0,2.43801 1.2304,4.02158 3.041824,4.02158 z m 0,-0.21646 c -1.674712,0 -2.813972,-1.46964 -2.813972,-3.80512 0,-2.33549 1.13926,-3.80513 2.813972,-3.80513 1.674712,0 2.813972,1.46964 2.813972,3.80513 0,2.33548 -1.13926,3.80512 -2.813972,3.80512 z m 6.550748,0.21646 c 1.70889,0 2.631691,-0.90001 2.631691,-2.22155 0,-1.32154 -0.911408,-2.22156 -2.791187,-2.22156 h -0.09114 l 2.58612,-3.395 v -0.17088 h -4.81907 v 0.21646 h 4.51147 l -2.58612,3.39499 v 0.17089 h 0.410133 c 1.743068,0 2.551943,0.78609 2.551943,2.0051 0,1.219 -0.820267,2.00509 -2.403839,2.00509 -1.173438,0 -2.141809,-0.46709 -2.58612,-1.05951 l -0.148104,0.14811 c 0.478489,0.66077 1.538001,1.12786 2.734224,1.12786 z m 4.329192,0 c 0.159497,0 0.296208,-0.13671 0.296208,-0.2962 0,-0.1595 -0.136711,-0.29621 -0.296208,-0.29621 -0.159496,0 -0.296207,0.13671 -0.296207,0.29621 0,0.15949 0.136711,0.2962 0.296207,0.2962 z m 1.640528,-0.0342 h 5.331737 v -0.21646 h -4.978567 l 3.258284,-3.30386 c 1.036727,-1.04812 1.287364,-1.6975 1.287364,-2.44941 0,-1.26458 -0.945586,-2.03927 -2.449409,-2.03927 -1.162046,0 -2.027883,0.36456 -2.620298,1.02533 l 0.159496,0.1595 c 0.581023,-0.64938 1.367112,-0.96837 2.460802,-0.96837 1.44686,0 2.221557,0.71773 2.221557,1.83421 0,0.67216 -0.205067,1.26457 -1.219008,2.28991 l -3.451958,3.49753 z m 9.490049,0.0342 c 1.811423,0 3.041824,-1.58357 3.041824,-4.02158 0,-2.43802 -1.230401,-4.02159 -3.041824,-4.02159 -1.811423,0 -3.041824,1.58357 -3.041824,4.02159 0,2.43801 1.230401,4.02158 3.041824,4.02158 z m 0,-0.21646 c -1.674712,0 -2.813972,-1.46964 -2.813972,-3.80512 0,-2.33549 1.13926,-3.80513 2.813972,-3.80513 1.674712,0 2.813972,1.46964 2.813972,3.80513 0,2.33548 -1.13926,3.80512 -2.813972,3.80512 z m 4.203873,0.18229 h 5.331739 v -0.21646 h -4.978569 l 3.258279,-3.30386 c 1.03673,-1.04812 1.28737,-1.6975 1.28737,-2.44941 0,-1.26458 -0.94559,-2.03927 -2.44941,-2.03927 -1.162045,0 -2.027883,0.36456 -2.620298,1.02533 l 0.159496,0.1595 c 0.581023,-0.64938 1.367112,-0.96837 2.460802,-0.96837 1.44686,0 2.22156,0.71773 2.22156,1.83421 0,0.67216 -0.20507,1.26457 -1.21901,2.28991 l -3.451959,3.49753 z m 9.558409,0.0342 c 1.48104,0 2.54055,-0.9228 2.54055,-2.33548 0,-1.41268 -1.02534,-2.32409 -2.6203,-2.32409 -1.34433,0 -2.43802,0.75191 -2.64308,2.03928 -0.13672,-0.53546 -0.1595,-1.0823 -0.1595,-1.42408 0,-2.51776 1.25319,-3.78234 3.16714,-3.78234 0.6152,0 1.18483,0.10253 1.58357,0.35317 l 0.11393,-0.19368 c -0.4671,-0.28481 -1.05951,-0.37595 -1.6975,-0.37595 -2.02788,0 -3.39499,1.34432 -3.39499,4.02159 0,2.47219 1.03672,4.02158 3.11018,4.02158 z m 0,-0.21646 c -1.67471,0 -2.52916,-1.09369 -2.52916,-2.09623 0,-1.18483 0.99116,-2.13042 2.44941,-2.13042 1.48104,0 2.39245,0.83166 2.39245,2.10763 0,1.27597 -0.94559,2.11902 -2.3127,2.11902 z"
       id="text1983"
       style="font-weight:100;font-size:11.3926px;font-family:Montserrat;-inkscape-font-specification:'Montserrat Thin';fill:#ffffff;stroke-width:1.25139"
       inkscape:label="Date"
       aria-label="28.03.2026" />
    <path
       d="m 34.662069,181.98475 c 1.891172,0 2.722832,-0.93419 2.722832,-1.9937 0,-2.88233 -5.069707,-1.34433 -5.069707,-4.03298 0,-0.99116 0.774697,-1.80003 2.449409,-1.80003 0.717734,0 1.538001,0.22785 2.175986,0.69495 l 0.125319,-0.18228 c -0.581023,-0.44432 -1.458253,-0.72913 -2.312698,-0.72913 -1.868386,0 -2.665868,0.95698 -2.665868,2.0051 0,2.93929 5.069707,1.36711 5.069707,4.04437 0,0.97976 -0.774697,1.77725 -2.506372,1.77725 -1.116475,0 -2.130416,-0.4671 -2.631691,-1.05952 l -0.159496,0.14811 c 0.535452,0.66077 1.640534,1.12786 2.802579,1.12786 z m 8.453308,-0.0342 h 0.227852 v -3.86209 c 0,-1.34433 -0.740519,-2.06207 -2.107631,-2.06207 -0.888623,0 -1.731676,0.34178 -2.289913,0.87723 l 0.159496,0.1595 c 0.512667,-0.48988 1.264579,-0.82027 2.141809,-0.82027 1.219008,0 1.868387,0.6266 1.868387,1.857 v 0.64938 h -2.23295 c -1.572179,0 -2.096238,0.74052 -2.096238,1.58357 0,0.99115 0.763304,1.65192 2.084845,1.65192 1.105083,0 1.868387,-0.50127 2.244343,-1.28736 z m 0,-1.68611 c -0.387349,0.95698 -1.105083,1.50383 -2.244343,1.50383 -1.173437,0 -1.856993,-0.55824 -1.856993,-1.44687 0,-0.78608 0.524059,-1.35571 1.856993,-1.35571 h 2.244343 z m 2.779787,1.68611 h 0.227852 v -3.20132 c 0,-1.49243 0.911408,-2.50638 2.415232,-2.50638 1.287363,0 2.050668,0.7747 2.050668,2.23295 v 3.47475 h 0.227852 v -3.20132 c 0,-1.49243 0.911408,-2.50638 2.415231,-2.50638 1.287364,0 2.050668,0.7747 2.050668,2.23295 v 3.47475 h 0.227852 v -3.47475 c 0,-1.59496 -0.87723,-2.44941 -2.289913,-2.44941 -1.287364,0 -2.164594,0.70635 -2.460801,1.75447 -0.227852,-1.15066 -1.036727,-1.75447 -2.23295,-1.75447 -1.207616,0 -2.062061,0.61521 -2.403839,1.59497 v -1.56079 h -0.227852 z m 13.523026,0.0342 c 1.469645,0 2.187379,-0.63798 2.187379,-1.5266 0,-2.22156 -4.021588,-0.88863 -4.021588,-2.91651 0,-0.72913 0.546845,-1.29876 1.845601,-1.29876 0.660771,0 1.344327,0.19368 1.811424,0.56963 l 0.136711,-0.18228 c -0.444312,-0.36456 -1.219008,-0.60381 -1.948135,-0.60381 -1.458253,0 -2.084846,0.72913 -2.084846,1.51522 0,2.28991 4.032981,0.94559 4.032981,2.91651 0,0.77469 -0.558238,1.31015 -1.959527,1.31015 -0.945586,0 -1.743068,-0.36457 -2.164594,-0.7747 l -0.136712,0.18228 c 0.444312,0.4671 1.344327,0.80887 2.301306,0.80887 z m 5.434263,0 c 0.421526,0 0.87723,-0.13671 1.150653,-0.42152 l -0.159497,-0.1595 c -0.250637,0.23925 -0.603808,0.36457 -0.979763,0.36457 -0.797482,0 -1.207616,-0.45571 -1.207616,-1.28737 v -4.20387 h 1.993705 V 176.0606 H 63.65623 v -1.28736 h -0.227852 v 1.28736 h -1.13926 v 0.21646 h 1.13926 v 4.26083 c 0,0.86584 0.489882,1.44686 1.424075,1.44686 z m 6.43682,-0.0342 h 0.227852 v -3.86209 c 0,-1.34433 -0.740519,-2.06207 -2.107631,-2.06207 -0.888622,0 -1.731675,0.34178 -2.289912,0.87723 l 0.159496,0.1595 c 0.512667,-0.48988 1.264579,-0.82027 2.141809,-0.82027 1.219008,0 1.868386,0.6266 1.868386,1.857 v 0.64938 h -2.232949 c -1.572179,0 -2.096239,0.74052 -2.096239,1.58357 0,0.99115 0.763305,1.65192 2.084846,1.65192 1.105082,0 1.868387,-0.50127 2.244342,-1.28736 z m 0,-1.68611 c -0.387348,0.95698 -1.105082,1.50383 -2.244342,1.50383 -1.173438,0 -1.856994,-0.55824 -1.856994,-1.44687 0,-0.78608 0.52406,-1.35571 1.856994,-1.35571 h 2.244342 z m 5.149448,3.93045 c 1.822816,0 2.722831,-0.86584 2.722831,-2.7684 V 176.0606 H 78.9337 v 1.72029 c -0.398741,-1.05952 -1.401289,-1.75447 -2.665868,-1.75447 -1.651927,0 -2.89372,1.18484 -2.89372,2.85955 0,1.67471 1.241793,2.87093 2.89372,2.87093 1.264579,0 2.267127,-0.70634 2.665868,-1.77724 v 1.48103 c 0,1.74307 -0.797482,2.51777 -2.494979,2.51777 -0.991156,0 -1.845601,-0.33039 -2.449409,-0.9228 l -0.159496,0.1595 c 0.558237,0.6152 1.538001,0.97976 2.608905,0.97976 z m -0.170889,-2.65448 c -1.538001,0 -2.665868,-1.09369 -2.665868,-2.65447 0,-1.56079 1.127867,-2.64309 2.665868,-2.64309 1.538001,0 2.665868,1.0823 2.665868,2.64309 0,1.56078 -1.127867,2.65447 -2.665868,2.65447 z"
       id="text1983-2"
       style="font-weight:100;font-size:11.3926px;font-family:Montserrat;-inkscape-font-specification:'Montserrat Thin';fill:#ffffff;stroke-width:1.25139"
       inkscape:label="Day"
       aria-label="Samstag" />
    <g
       id="g14"
       transform="translate(0,-0.34449715)">
      <path
         id="path1"
         style="font-size:68.4761px;line-height:107%;font-family:'DejaVu Sans Mono';-inkscape-font-specification:'DejaVu Sans Mono';letter-spacing:0px;word-spacing:0px;fill:#ffffff;fill-opacity:1;stroke-width:0.0886262"
         d="m 12.03736,108.78532 v 12.73314 h 0.281101 v -12.45182 h 20.295151 v 15.99677 h 0.281101 v -16.27809 z m 3.668605,1.56598 c -0.558321,0 -0.994173,0.20428 -1.307617,0.61266 -0.311484,0.4064 -0.46713,0.97416 -0.46713,1.70328 0,0.73311 0.154573,1.30191 0.464099,1.70632 0.311484,0.4044 0.748413,0.60659 1.310648,0.60659 0.178272,0 0.346784,-0.0209 0.505463,-0.0628 0.15868,-0.0398 0.313471,-0.10067 0.464314,-0.18234 v -0.61851 c -0.143006,0.12152 -0.297797,0.2141 -0.464314,0.27785 -0.164559,0.0637 -0.333067,0.0957 -0.505463,0.0957 -0.385925,0 -0.674922,-0.15133 -0.866907,-0.45414 -0.191985,-0.3028 -0.287814,-0.75909 -0.287814,-1.36869 0,-0.61158 0.09583,-1.0687 0.287814,-1.3715 0.191985,-0.30281 0.480982,-0.45435 0.866907,-0.45435 0.168478,0 0.335916,0.032 0.502433,0.0957 0.166517,0.0637 0.322377,0.15633 0.467344,0.27785 v -0.61851 c -0.150843,-0.0817 -0.305634,-0.1425 -0.464314,-0.18234 -0.158679,-0.0418 -0.327191,-0.0628 -0.505463,-0.0628 z m 10.496464,0 c -0.493674,0 -0.861998,0.1914 -1.104917,0.5739 -0.240957,0.38248 -0.361447,0.96312 -0.361447,1.74204 0,0.78092 0.12049,1.36155 0.361447,1.74205 0.240962,0.3805 0.609281,0.57086 1.104917,0.57086 0.495631,0 0.863951,-0.19118 1.104913,-0.57367 0.242919,-0.3825 0.364258,-0.9623 0.364258,-1.73924 0,-0.77892 -0.121339,-1.35956 -0.364258,-1.74204 -0.240962,-0.3825 -0.609282,-0.5739 -1.104913,-0.5739 z m 3.667305,0 c -0.43686,0 -0.787603,0.12061 -1.052072,0.36166 -0.262506,0.23906 -0.393715,0.55771 -0.393715,0.95614 0,0.31874 0.09219,0.57284 0.27634,0.76209 0.184148,0.18925 0.479786,0.33062 0.887265,0.42425 l 0.317485,0.0747 c 0.284056,0.0637 0.482795,0.15447 0.59642,0.27201 0.115577,0.11753 0.173464,0.28775 0.173464,0.51088 0,0.24502 -0.0834,0.43643 -0.249912,0.57389 -0.166517,0.13547 -0.399558,0.20314 -0.699292,0.20314 -0.203735,0 -0.406547,-0.0338 -0.60833,-0.10157 -0.199816,-0.0677 -0.412276,-0.17444 -0.637565,-0.31987 v 0.64255 c 0.209615,0.0897 0.418216,0.15628 0.625873,0.2001 0.207653,0.0458 0.414326,0.0689 0.620022,0.0689 0.493675,0 0.869714,-0.11168 1.128306,-0.3348 0.258588,-0.22312 0.388083,-0.54675 0.388083,-0.97108 0,-0.36058 -0.09412,-0.64539 -0.282186,-0.85457 -0.188066,-0.20917 -0.487782,-0.36259 -0.899175,-0.46019 l -0.311421,-0.0717 c -0.291892,-0.0697 -0.491705,-0.1565 -0.599449,-0.26009 -0.105789,-0.10359 -0.158743,-0.25389 -0.158743,-0.45111 0,-0.22511 0.08125,-0.40343 0.243853,-0.53491 0.162598,-0.13347 0.384064,-0.20032 0.664201,-0.20032 0.184148,0 0.366162,0.0299 0.546395,0.0896 0.18219,0.0598 0.363563,0.14841 0.543796,0.26595 v -0.61245 c -0.2057,-0.0777 -0.401653,-0.13562 -0.587758,-0.17347 -0.186108,-0.0398 -0.363407,-0.0597 -0.531885,-0.0597 z m -12.321236,0.0808 v 4.46145 h 0.596419 v -2.12472 h 1.625103 v 2.12472 h 0.59642 v -4.46145 h -0.59642 v 1.82867 h -1.625103 v -1.82867 z m 4.672171,0 -1.34292,4.46145 h 0.61418 l 0.317481,-1.16252 h 1.536744 l 0.323332,1.16252 h 0.614176 l -1.342916,-4.46145 z m 3.98176,0.40931 c 0.301686,0 0.518219,0.14053 0.649475,0.42143 0.133213,0.28089 0.199674,0.74901 0.199674,1.40442 0,0.65541 -0.06646,1.12354 -0.199674,1.40443 -0.131256,0.27889 -0.347789,0.4184 -0.649475,0.4184 -0.299733,0 -0.516267,-0.14054 -0.64948,-0.42144 -0.131255,-0.28089 -0.196857,-0.74796 -0.196857,-1.40139 0,-0.65541 0.0656,-1.12353 0.196857,-1.40442 0.133213,-0.28089 0.349747,-0.42143 0.64948,-0.42143 z m -3.62313,0.12257 0.625873,2.28303 h -1.251963 z m -8.918569,6.01639 v 0.50806 h 1.378217 v 3.95339 h 0.59642 v -3.95339 h 1.372369 v -0.50806 z m 3.90531,0 v 4.46145 h 0.596638 v -1.88563 h 0.566967 c 0.193942,0 0.35066,0.0467 0.47016,0.14033 0.121462,0.0916 0.257813,0.29799 0.40866,0.61873 l 0.523002,1.12657 h 0.637568 l -0.596419,-1.21926 c -0.160641,-0.3307 -0.294851,-0.55095 -0.402596,-0.66052 -0.107745,-0.11156 -0.238095,-0.18712 -0.3909,-0.22696 0.286017,-0.0418 0.507483,-0.15539 0.664206,-0.34066 0.15868,-0.18726 0.238003,-0.42828 0.238003,-0.72311 0,-0.41835 -0.128418,-0.73825 -0.385054,-0.95939 -0.25663,-0.22112 -0.625809,-0.33155 -1.107724,-0.33155 z m 3.781873,0 v 4.46145 h 2.659413 v -0.50806 h -2.06581 v -1.61666 h 1.921793 v -0.50806 h -1.921793 v -1.32061 h 2.009938 v -0.50806 z m 3.729027,0 v 4.46145 h 0.596637 v -2.13078 h 1.80117 v -0.50785 h -1.80117 v -1.31476 h 1.986331 v -0.50806 z m 3.623347,0 v 4.46145 h 0.596415 v -2.13078 h 1.801388 v -0.50785 h -1.801388 v -1.31476 h 1.98655 v -0.50806 z m -10.537609,0.49593 h 0.625873 c 0.282098,0 0.496486,0.0687 0.643411,0.20617 0.148886,0.13547 0.223494,0.33185 0.223494,0.58884 0,0.26694 -0.06968,0.4652 -0.208768,0.59469 -0.139088,0.12949 -0.350693,0.19404 -0.634749,0.19404 h -0.649261 z m -5.938857,5.1354 c -2.5231576,0 -4.564318,2.04117 -4.564318,4.56432 0,2.52316 2.0411604,4.56432 4.564318,4.56432 2.523157,0 4.564536,-2.04116 4.564536,-4.56432 0,-2.52315 -2.041379,-4.56432 -4.564536,-4.56432 z m 6.732135,0.83616 c -0.493675,0 -0.861999,0.19119 -1.104917,0.57368 -0.240958,0.38249 -0.361447,0.96334 -0.361447,1.74226 0,0.78091 0.120489,1.36155 0.361447,1.74205 0.240962,0.38049 0.609281,0.57086 1.104917,0.57086 0.495632,0 0.863951,-0.1914 1.104913,-0.5739 0.242919,-0.38249 0.364477,-0.96207 0.364477,-1.73901 0,-0.77892 -0.121558,-1.35977 -0.364477,-1.74226 -0.240962,-0.38249 -0.609281,-0.57368 -1.104913,-0.57368 z m 3.667305,0 c -0.43686,0 -0.787386,0.12061 -1.051853,0.36166 -0.262512,0.23905 -0.393935,0.55771 -0.393935,0.95613 0,0.31875 0.09219,0.57284 0.276337,0.76209 0.184147,0.18926 0.480008,0.33063 0.887486,0.42426 l 0.317264,0.0747 c 0.284059,0.0637 0.482799,0.15447 0.59642,0.27201 0.115585,0.11753 0.173468,0.28776 0.173468,0.51087 0,0.24504 -0.08318,0.43623 -0.249699,0.57368 -0.166517,0.13546 -0.399771,0.20336 -0.699505,0.20336 -0.203735,0 -0.406334,-0.0338 -0.608112,-0.10157 -0.199821,-0.0677 -0.412499,-0.17445 -0.637783,-0.31987 v 0.64255 c 0.209615,0.0896 0.418216,0.15628 0.625873,0.20011 0.207653,0.0458 0.414326,0.0689 0.620022,0.0689 0.493675,0 0.869931,-0.11169 1.12852,-0.33481 0.258592,-0.22311 0.387869,-0.54675 0.387869,-0.97107 0,-0.36058 -0.09412,-0.64561 -0.282186,-0.85479 -0.188065,-0.20917 -0.487782,-0.36236 -0.899175,-0.45998 l -0.311421,-0.0719 c -0.291892,-0.0697 -0.491705,-0.15628 -0.59945,-0.25987 -0.105788,-0.1036 -0.158742,-0.25411 -0.158742,-0.45133 0,-0.22511 0.08125,-0.40321 0.243853,-0.5347 0.162598,-0.13347 0.38406,-0.20032 0.664201,-0.20032 0.184148,0 0.36638,0.0299 0.546613,0.0897 0.182186,0.0597 0.363345,0.1484 0.543574,0.26594 v -0.61266 c -0.205696,-0.0777 -0.401649,-0.1354 -0.587753,-0.17325 -0.186109,-0.0398 -0.363408,-0.0597 -0.531886,-0.0597 z m 2.17756,0.0808 v 4.46124 h 0.573031 v -3.67251 l 1.480868,3.67251 h 0.752346 v -4.46124 h -0.57303 v 3.67251 l -1.481087,-3.67251 z m 4.666321,0 -1.34292,4.46124 h 0.61418 l 0.317263,-1.1623 h 1.536962 l 0.323114,1.1623 h 0.61418 l -1.34292,-4.46124 z m -17.470064,0.18863 c 0,0.28351 -0.02843,0.56714 -0.11348,0.8223 -0.0567,0.14175 -0.113263,0.2834 -0.113263,0.48186 0,0.19845 0.05657,0.34011 0.113263,0.48186 0.08505,0.19845 0.113501,0.42526 0.14185,0.65207 -0.2268,0.0567 -0.453584,0.17012 -0.595336,0.34022 -0.198449,-0.14175 -0.368673,-0.28338 -0.482074,-0.45348 -0.08504,-0.11341 -0.198257,-0.25518 -0.340006,-0.34023 -0.1701,-0.0851 -0.311972,-0.1135 -0.482073,-0.14185 -0.2551506,-0.0284 -0.5385397,-0.1701 -0.7653399,-0.31185 0.567001,-0.87884 1.5308059,-1.47419 2.6364589,-1.5309 z m 0.453704,0 c 1.134004,0.0567 2.097827,0.65206 2.664827,1.5309 -0.255149,0.14175 -0.510206,0.2835 -0.793708,0.31185 -0.141749,0.0284 -0.311972,0.0285 -0.482073,0.14185 -0.170101,0.0851 -0.255173,0.22682 -0.340224,0.34023 -0.141751,0.1701 -0.311755,0.31173 -0.481856,0.45348 -0.141751,-0.1701 -0.368537,-0.31187 -0.595336,-0.34022 0.02835,-0.22681 0.05659,-0.45362 0.141633,-0.65207 0.0567,-0.14175 0.11348,-0.28341 0.11348,-0.48186 0,-0.19846 -0.05678,-0.34011 -0.11348,-0.48186 -0.113401,-0.25516 -0.113263,-0.53879 -0.113263,-0.8223 z m 6.505174,0.22068 c 0.301686,0 0.518219,0.14055 0.649475,0.42144 0.133213,0.28089 0.199888,0.74901 0.199888,1.40442 0,0.65541 -0.06668,1.12353 -0.199888,1.40442 -0.131256,0.2789 -0.347789,0.41841 -0.649475,0.41841 -0.299733,0 -0.516049,-0.14055 -0.649261,-0.42144 -0.131256,-0.28089 -0.197077,-0.74797 -0.197077,-1.40139 0,-0.65541 0.06582,-1.12353 0.197077,-1.40442 0.133212,-0.28089 0.349528,-0.42144 0.649261,-0.42144 z m 10.869598,0.12258 0.626091,2.28303 h -1.251963 z m -20.720265,1.5846 c 0.2551508,0.14175 0.4819761,0.31178 0.6520762,0.51023 0.085045,0.11339 0.1984735,0.25518 0.3402238,0.34022 0.170102,0.0851 0.311973,0.1135 0.482074,0.14185 0.226799,0.0284 0.425274,0.11333 0.652076,0.19838 -0.02835,0.1134 -0.05674,0.22682 -0.05674,0.34022 0,0.11339 0.02839,0.22683 0.05674,0.34022 -0.198451,0.0851 -0.425277,0.17003 -0.652076,0.19837 -0.14175,0.0284 -0.311972,0.0285 -0.482074,0.14186 -0.1701009,0.0851 -0.2551732,0.22682 -0.3402238,0.34022 -0.1701001,0.2268 -0.3969254,0.36848 -0.6520762,0.51022 -0.2268018,-0.45359 -0.3683761,-0.99224 -0.3683761,-1.53089 0.028351,-0.53865 0.1415743,-1.0773 0.3683761,-1.5309 z m 6.237067,0 c 0.226801,0.4536 0.368592,0.99225 0.368592,1.5309 0,0.53865 -0.141791,1.0773 -0.368592,1.53089 -0.255152,-0.14174 -0.481978,-0.31177 -0.652078,-0.51022 -0.08505,-0.1134 -0.198473,-0.25517 -0.340223,-0.34022 -0.170101,-0.0851 -0.311756,-0.1135 -0.481857,-0.14186 -0.226802,-0.0284 -0.425276,-0.11331 -0.652077,-0.19837 0.02835,-0.11339 0.05674,-0.22683 0.05674,-0.34022 0,-0.1134 -0.02839,-0.22682 -0.05674,-0.34022 0.198451,-0.0851 0.425275,-0.17003 0.652077,-0.19838 0.141752,-0.0284 0.311756,-0.0285 0.481857,-0.14185 0.170101,-0.0851 0.255173,-0.22683 0.340223,-0.34022 0.1701,-0.22681 0.396926,-0.36848 0.652078,-0.51023 z m -3.118535,1.10557 c 0.226801,0 0.425334,0.19852 0.425334,0.42533 0,0.2268 -0.198533,0.42533 -0.425334,0.42533 -0.226802,0 -0.425115,-0.19853 -0.425115,-0.42533 0,-0.22681 0.198313,-0.42533 0.425115,-0.42533 z m -0.793709,1.10578 c 0.141752,0.17009 0.368536,0.31187 0.595336,0.34022 -0.02835,0.2268 -0.05681,0.45362 -0.14185,0.65208 -0.0567,0.14175 -0.113263,0.28341 -0.113263,0.48185 0,0.19845 0.05657,0.34032 0.113263,0.48207 0.1134,0.25515 0.11348,0.53858 0.11348,0.82209 -1.105653,-0.0567 -2.0694777,-0.65205 -2.6648287,-1.5309 0.2551496,-0.14175 0.5102085,-0.28351 0.7937097,-0.31186 0.141751,-0.0284 0.311973,-0.0285 0.482073,-0.14185 0.1701,-0.0851 0.254956,-0.22681 0.340006,-0.34022 0.14175,-0.1701 0.311973,-0.31173 0.482074,-0.45348 z m 1.587636,0 c 0.198451,0.14175 0.368455,0.28338 0.481856,0.45348 0.08505,0.11341 0.198473,0.25518 0.340224,0.34022 0.170101,0.0851 0.311973,0.1135 0.482073,0.14185 0.25515,0.0284 0.53854,0.17011 0.765341,0.31186 -0.567001,0.87885 -1.530807,1.47419 -2.63646,1.5309 0,-0.28351 0.02821,-0.56694 0.113263,-0.82209 0.0567,-0.14175 0.11348,-0.28362 0.11348,-0.48207 0,-0.19844 -0.05678,-0.3401 -0.11348,-0.48185 -0.08505,-0.19846 -0.113284,-0.42528 -0.141633,-0.65208 0.226799,-0.0567 0.453585,-0.17013 0.595336,-0.34022 z m 4.658741,1.50512 v 0.28132 h 9.929928 v -0.28132 z"
         inkscape:label="CTreffOS Logo"
         transform="translate(18.797504,108.62044)" />
      <path
         d="m 11.670992,243.54112 -0.109649,-3.55861 h 0.697767 l 0.01495,1.94378 q 0,0.18441 -0.01,0.41866 -0.005,0.22927 -0.02492,0.42364 h 0.01994 q 0.06978,-0.19437 0.154506,-0.41367 0.08473,-0.22428 0.149521,-0.37879 l 0.897129,-1.99362 h 0.657895 l 0.04984,1.99362 q 0.005,0.0847 0,0.2193 0,0.13457 -0.005,0.28907 -0.005,0.14953 -0.01495,0.28409 h 0.01994 q 0.04486,-0.13955 0.09968,-0.28907 0.05482,-0.15451 0.109649,-0.29904 0.05981,-0.14952 0.104665,-0.25917 l 0.802432,-1.9388 h 0.752592 l -1.57496,3.55861 h -0.842304 l -0.03987,-1.61981 q -0.005,-0.2193 -0.01,-0.35886 0,-0.14453 0,-0.25917 0,-0.11463 0.005,-0.23923 h -0.01994 q -0.06479,0.19936 -0.134569,0.37879 -0.06479,0.17942 -0.139554,0.34888 l -0.78748,1.7494 z m 3.987236,0 0.573165,-2.72129 h 0.752592 l -0.583134,2.72129 z m 1.066586,-3.05522 q -0.164473,0 -0.274122,-0.0698 -0.104665,-0.0748 -0.104665,-0.23425 0,-0.13457 0.05482,-0.22926 0.05483,-0.0947 0.154506,-0.14952 0.09968,-0.0548 0.244218,-0.0548 0.15949,0 0.264155,0.0698 0.104665,0.0698 0.104665,0.22926 0,0.19937 -0.119617,0.31898 -0.114634,0.11962 -0.323964,0.11962 z m 0.423643,3.05522 0.573166,-2.72129 h 0.60307 l -0.04984,0.4685 h 0.01994 q 0.109649,-0.16946 0.229266,-0.28409 0.119617,-0.11962 0.264155,-0.17444 0.144537,-0.0598 0.328947,-0.0598 0.05981,0 0.124601,0.005 0.06978,0.005 0.104665,0.0199 l -0.159489,0.72269 q -0.05483,-0.0249 -0.129586,-0.0349 -0.06978,-0.01 -0.149521,-0.01 -0.139553,0 -0.264155,0.0598 -0.119617,0.0548 -0.214314,0.16946 -0.0947,0.10965 -0.164474,0.26914 -0.06978,0.1545 -0.114633,0.35386 l -0.25917,1.21611 z m 3.214718,1.19617 q -0.119617,0 -0.23425,-0.0199 -0.119617,-0.015 -0.199362,-0.0399 v -0.59311 q 0.06978,0.0199 0.144538,0.0349 0.06978,0.0149 0.139553,0.0149 0.179426,0 0.274123,-0.10466 0.0947,-0.0997 0.139553,-0.30403 l 0.493421,-2.34749 h -0.423644 l 0.07476,-0.35386 0.473484,-0.20435 0.04984,-0.20434 q 0.05482,-0.24422 0.139553,-0.4087 0.08473,-0.16945 0.204346,-0.27412 0.119617,-0.10965 0.274123,-0.15451 0.15949,-0.0498 0.358852,-0.0498 0.169457,0 0.333931,0.0349 0.164473,0.0299 0.269139,0.0847 l -0.189394,0.52333 q -0.06978,-0.0299 -0.154506,-0.0498 -0.07975,-0.0199 -0.169458,-0.0199 -0.124601,0 -0.204346,0.0698 -0.07974,0.0698 -0.119617,0.23923 l -0.04984,0.20933 h 0.538277 l -0.124601,0.55821 h -0.533294 l -0.523325,2.45714 q -0.05482,0.26914 -0.174441,0.47349 -0.114634,0.20434 -0.313996,0.31399 -0.194378,0.11463 -0.493421,0.11463 z m 2.048448,-1.19617 0.573166,-2.72129 h 0.60307 l -0.04984,0.4685 h 0.01994 q 0.109649,-0.16946 0.229267,-0.28409 0.119617,-0.11962 0.264154,-0.17444 0.144538,-0.0598 0.328947,-0.0598 0.05981,0 0.124602,0.005 0.06978,0.005 0.104665,0.0199 l -0.15949,0.72269 q -0.05482,-0.0249 -0.129585,-0.0349 -0.06978,-0.01 -0.149522,-0.01 -0.139553,0 -0.264154,0.0598 -0.119617,0.0548 -0.214314,0.16946 -0.0947,0.10965 -0.164474,0.26914 -0.06978,0.1545 -0.114633,0.35386 l -0.259171,1.21611 z m 3.209729,0.0498 q -0.318979,0 -0.563197,-0.11463 -0.239235,-0.11463 -0.378788,-0.34888 -0.134569,-0.23425 -0.134569,-0.58812 0,-0.3439 0.0947,-0.6579 0.09968,-0.31898 0.289075,-0.56818 0.194378,-0.2492 0.478468,-0.39374 0.284091,-0.14952 0.657895,-0.14952 0.458532,0 0.682815,0.20933 0.229266,0.20933 0.229266,0.53329 0,0.21432 -0.09968,0.38876 -0.0947,0.17444 -0.289075,0.29904 -0.189394,0.1246 -0.483453,0.19438 -0.294059,0.0648 -0.692783,0.0648 h -0.124601 q -0.005,0.0299 -0.005,0.0548 0,0.0199 0,0.0448 0,0.2193 0.124601,0.34889 0.129586,0.12958 0.358852,0.12958 0.214314,0 0.388756,-0.0498 0.174442,-0.0498 0.413676,-0.15949 v 0.55323 q -0.214314,0.10467 -0.433612,0.15949 -0.219299,0.0498 -0.513358,0.0498 z m -0.144537,-1.6248 q 0.284091,0 0.458533,-0.0598 0.174441,-0.0598 0.254186,-0.15949 0.08473,-0.10466 0.08473,-0.21929 0,-0.11464 -0.06978,-0.16946 -0.06479,-0.0598 -0.18441,-0.0598 -0.134569,0 -0.269138,0.0847 -0.13457,0.0847 -0.239235,0.23425 -0.09968,0.14952 -0.144537,0.34888 z m 2.586718,1.6248 q -0.234251,0 -0.388756,-0.0947 -0.154506,-0.0997 -0.229266,-0.27413 -0.07476,-0.17444 -0.07476,-0.41367 0,-0.0897 0.01495,-0.22927 0.01495,-0.14454 0.04486,-0.28907 l 0.309012,-1.4703 h 0.732655 l -0.333932,1.58991 q -0.01994,0.0797 -0.0299,0.15451 -0.01,0.0748 -0.01,0.13457 0,0.1545 0.06479,0.22926 0.06978,0.0698 0.199362,0.0698 0.169457,0 0.299043,-0.13955 0.134569,-0.14454 0.23425,-0.38377 0.09968,-0.23924 0.15949,-0.52831 l 0.239234,-1.1264 h 0.732655 l -0.578149,2.72129 h -0.558214 l 0.04984,-0.50339 h -0.02492 q -0.104665,0.15949 -0.229266,0.28908 -0.124601,0.1246 -0.279107,0.19438 -0.154505,0.0698 -0.343899,0.0698 z m 3.344298,0 q -0.31898,0 -0.563198,-0.11463 -0.239234,-0.11463 -0.378788,-0.34888 -0.134569,-0.23425 -0.134569,-0.58812 0,-0.3439 0.0947,-0.6579 0.09968,-0.31898 0.289075,-0.56818 0.194378,-0.2492 0.478468,-0.39374 0.284091,-0.14952 0.657895,-0.14952 0.458533,0 0.682815,0.20933 0.229266,0.20933 0.229266,0.53329 0,0.21432 -0.09968,0.38876 -0.0947,0.17444 -0.289075,0.29904 -0.189394,0.1246 -0.483453,0.19438 -0.294059,0.0648 -0.692783,0.0648 h -0.124601 q -0.005,0.0299 -0.005,0.0548 0,0.0199 0,0.0448 0,0.2193 0.124601,0.34889 0.129586,0.12958 0.358852,0.12958 0.214314,0 0.388756,-0.0498 0.174442,-0.0498 0.413676,-0.15949 v 0.55323 q -0.214314,0.10467 -0.433612,0.15949 -0.219299,0.0498 -0.513357,0.0498 z m -0.144538,-1.6248 q 0.284091,0 0.458533,-0.0598 0.174441,-0.0598 0.254186,-0.15949 0.08473,-0.10466 0.08473,-0.21929 0,-0.11464 -0.06978,-0.16946 -0.06479,-0.0598 -0.184409,-0.0598 -0.13457,0 -0.269139,0.0847 -0.13457,0.0847 -0.239235,0.23425 -0.09968,0.14952 -0.144537,0.34888 z m 1.714509,1.57496 0.57815,-2.72129 h 0.558213 l -0.04984,0.50339 h 0.01994 q 0.104665,-0.16447 0.229266,-0.28907 0.129586,-0.12461 0.284091,-0.19438 0.154506,-0.0698 0.3439,-0.0698 0.23425,0 0.388756,0.0997 0.159489,0.0947 0.23425,0.26914 0.07975,0.17444 0.07975,0.41368 0,0.0897 -0.01495,0.20434 -0.01495,0.10965 -0.03987,0.23425 l -0.323963,1.55004 h -0.732655 l 0.333931,-1.58991 q 0.01994,-0.0847 0.0299,-0.1545 0.01,-0.0748 0.01,-0.13457 0,-0.15451 -0.06978,-0.22429 -0.06479,-0.0748 -0.194378,-0.0748 -0.164474,0 -0.299043,0.14454 -0.13457,0.13955 -0.234251,0.37879 -0.0947,0.23923 -0.159489,0.52831 l -0.239235,1.12639 z m 5.17843,0.0498 q -0.234251,0 -0.388756,-0.0947 -0.154506,-0.0997 -0.229266,-0.27413 -0.07476,-0.17444 -0.07476,-0.41367 0,-0.0897 0.01495,-0.22927 0.01495,-0.14454 0.04486,-0.28907 l 0.309012,-1.4703 h 0.732655 l -0.333931,1.58991 q -0.01994,0.0797 -0.0299,0.15451 -0.01,0.0748 -0.01,0.13457 0,0.1545 0.06479,0.22926 0.06978,0.0698 0.199362,0.0698 0.169457,0 0.299043,-0.13955 0.134569,-0.14454 0.23425,-0.38377 0.09968,-0.23924 0.15949,-0.52831 l 0.239234,-1.1264 h 0.732655 l -0.578149,2.72129 h -0.558214 l 0.04984,-0.50339 h -0.02492 q -0.104665,0.15949 -0.229266,0.28908 -0.124601,0.1246 -0.279107,0.19438 -0.154505,0.0698 -0.343899,0.0698 z m 2.138158,-0.0498 0.578149,-2.72129 h 0.558214 l -0.04984,0.50339 h 0.01994 q 0.104665,-0.16447 0.229266,-0.28907 0.129585,-0.12461 0.284091,-0.19438 0.154505,-0.0698 0.343899,-0.0698 0.23425,0 0.388756,0.0997 0.15949,0.0947 0.23425,0.26914 0.07975,0.17444 0.07975,0.41368 0,0.0897 -0.01495,0.20434 -0.01495,0.10965 -0.03987,0.23425 l -0.323964,1.55004 h -0.732655 l 0.333931,-1.58991 q 0.01994,-0.0847 0.0299,-0.1545 0.01,-0.0748 0.01,-0.13457 0,-0.15451 -0.06978,-0.22429 -0.06479,-0.0748 -0.194378,-0.0748 -0.164473,0 -0.299043,0.14454 -0.134569,0.13955 -0.23425,0.37879 -0.0947,0.23923 -0.15949,0.52831 l -0.239234,1.12639 z m 3.797846,0.0498 q -0.264155,0 -0.468501,-0.0448 -0.199362,-0.0399 -0.353867,-0.11464 v -0.61802 q 0.189394,0.10467 0.378787,0.15949 0.194378,0.0548 0.398724,0.0548 0.114634,0 0.214315,-0.0249 0.09968,-0.0299 0.159489,-0.0847 0.06479,-0.0598 0.06479,-0.15451 0,-0.0748 -0.03489,-0.12958 -0.0299,-0.0548 -0.114633,-0.11962 -0.08473,-0.0648 -0.25917,-0.15949 -0.174442,-0.0997 -0.294059,-0.20933 -0.114633,-0.10965 -0.174442,-0.24422 -0.05483,-0.13457 -0.05483,-0.30403 0,-0.2492 0.114634,-0.43361 0.119617,-0.18939 0.353867,-0.28907 0.23425,-0.10467 0.573166,-0.10467 0.25917,0 0.478469,0.0598 0.219298,0.0598 0.408692,0.16946 l -0.234251,0.50837 q -0.134569,-0.0797 -0.304027,-0.13955 -0.164473,-0.0648 -0.338915,-0.0648 -0.134569,0 -0.219298,0.0648 -0.07974,0.0648 -0.07974,0.17942 0,0.0598 0.03489,0.11464 0.03489,0.0498 0.114633,0.10466 0.08473,0.0498 0.219299,0.1246 0.18441,0.0947 0.309011,0.20435 0.124601,0.10965 0.189394,0.2492 0.06978,0.13457 0.06978,0.30901 0,0.314 -0.144537,0.52333 -0.139554,0.20933 -0.398724,0.31399 -0.259171,0.0997 -0.608054,0.0997 z m 3.762961,0 q -0.20933,0 -0.383772,-0.0997 -0.174441,-0.0997 -0.274122,-0.31898 -0.09968,-0.2193 -0.09968,-0.57815 0,-0.23923 0.04984,-0.49342 0.05483,-0.25917 0.154506,-0.49342 0.104665,-0.23923 0.25917,-0.42863 0.154506,-0.18939 0.353868,-0.29904 0.199362,-0.10965 0.438596,-0.10965 0.169458,0 0.289075,0.0548 0.124601,0.0498 0.214314,0.14453 0.08971,0.0947 0.149522,0.21432 h 0.01994 l 0.144537,-0.36384 h 0.588118 l -0.578149,2.72129 h -0.593102 l 0.03987,-0.3738 h -0.01994 q -0.08971,0.11463 -0.199362,0.21431 -0.109649,0.0947 -0.244219,0.15451 -0.134569,0.0548 -0.309011,0.0548 z m 0.294059,-0.60307 q 0.139554,0 0.259171,-0.10965 0.124601,-0.11463 0.219298,-0.29904 0.0947,-0.18441 0.144537,-0.40869 0.01994,-0.0997 0.0299,-0.19438 0.01495,-0.0947 0.01495,-0.17942 0,-0.1894 -0.08473,-0.30403 -0.07975,-0.11962 -0.224282,-0.11962 -0.109649,0 -0.20933,0.0698 -0.0947,0.0648 -0.179426,0.17942 -0.07975,0.11464 -0.139553,0.26416 -0.05483,0.14952 -0.08971,0.32396 -0.0299,0.17444 -0.0299,0.35387 0,0.20933 0.07476,0.31898 0.07476,0.10466 0.214314,0.10466 z m 2.641551,0.60307 q -0.234251,0 -0.388756,-0.0947 -0.154506,-0.0997 -0.229266,-0.27413 -0.07476,-0.17444 -0.07476,-0.41367 0,-0.0897 0.01495,-0.22927 0.01495,-0.14454 0.04486,-0.28907 l 0.309011,-1.4703 h 0.732656 l -0.333932,1.58991 q -0.01994,0.0797 -0.0299,0.15451 -0.01,0.0748 -0.01,0.13457 0,0.1545 0.06479,0.22926 0.06978,0.0698 0.199362,0.0698 0.169457,0 0.299043,-0.13955 0.134569,-0.14454 0.23425,-0.38377 0.09968,-0.23924 0.15949,-0.52831 l 0.239234,-1.1264 h 0.732655 l -0.578149,2.72129 h -0.558214 l 0.04984,-0.50339 h -0.02492 q -0.104665,0.15949 -0.229266,0.28908 -0.124601,0.1246 -0.279107,0.19438 -0.154505,0.0698 -0.343899,0.0698 z m 1.953746,1.14633 q -0.119618,0 -0.234251,-0.0199 -0.119617,-0.015 -0.199362,-0.0399 v -0.59311 q 0.06978,0.0199 0.144538,0.0349 0.06978,0.0149 0.139553,0.0149 0.179426,0 0.274123,-0.10466 0.0947,-0.0997 0.139553,-0.30403 l 0.493421,-2.34749 h -0.423644 l 0.07476,-0.35386 0.473484,-0.20435 0.04984,-0.20434 q 0.05483,-0.24422 0.139553,-0.4087 0.08473,-0.16945 0.204346,-0.27412 0.119618,-0.10965 0.274123,-0.15451 0.15949,-0.0498 0.358852,-0.0498 0.169457,0 0.333931,0.0349 0.164474,0.0299 0.269139,0.0847 l -0.189394,0.52333 q -0.06978,-0.0299 -0.154506,-0.0498 -0.07974,-0.0199 -0.169457,-0.0199 -0.124602,0 -0.204346,0.0698 -0.07975,0.0698 -0.119618,0.23923 l -0.04984,0.20933 h 0.538277 l -0.124601,0.55821 h -0.533293 l -0.523326,2.45714 q -0.05482,0.26914 -0.174441,0.47349 -0.114633,0.20434 -0.313995,0.31399 -0.194378,0.11463 -0.493421,0.11463 z m 3.384175,-1.19617 0.752591,-3.55861 h 1.99362 l -0.134569,0.62301 h -1.236044 l -0.164474,0.77751 h 1.1563 l -0.13457,0.62301 h -1.156299 l -0.194378,0.90211 h 1.241028 l -0.129585,0.63297 z m 3.538673,0.0498 q -0.23425,0 -0.388756,-0.0947 -0.154505,-0.0997 -0.229266,-0.27413 -0.07476,-0.17444 -0.07476,-0.41367 0,-0.0897 0.01495,-0.22927 0.01495,-0.14454 0.04486,-0.28907 l 0.309011,-1.4703 h 0.732655 l -0.333931,1.58991 q -0.01994,0.0797 -0.0299,0.15451 -0.01,0.0748 -0.01,0.13457 0,0.1545 0.06479,0.22926 0.06978,0.0698 0.199362,0.0698 0.169458,0 0.299043,-0.13955 0.13457,-0.14454 0.234251,-0.38377 0.09968,-0.23924 0.159489,-0.52831 l 0.239235,-1.1264 h 0.732655 l -0.57815,2.72129 h -0.558214 l 0.04984,-0.50339 h -0.02492 q -0.104665,0.15949 -0.229267,0.28908 -0.124601,0.1246 -0.279106,0.19438 -0.154506,0.0698 -0.3439,0.0698 z m 3.279503,0 q -0.28409,0 -0.518341,-0.10965 -0.229266,-0.11463 -0.363835,-0.35386 -0.129586,-0.23924 -0.129586,-0.61304 0,-0.28908 0.06479,-0.54825 0.06479,-0.26415 0.189394,-0.48345 0.124601,-0.2193 0.299043,-0.37879 0.174442,-0.15949 0.398724,-0.24422 0.224282,-0.0897 0.488437,-0.0897 0.229266,0 0.423644,0.0449 0.199362,0.0399 0.383772,0.1246 l -0.234251,0.5632 q -0.114633,-0.0498 -0.25917,-0.0897 -0.139554,-0.0448 -0.284091,-0.0448 -0.169458,0 -0.304027,0.0997 -0.134569,0.0997 -0.229266,0.26415 -0.08971,0.15949 -0.139554,0.35885 -0.04486,0.19438 -0.04486,0.38378 0,0.17942 0.04984,0.29405 0.04984,0.10965 0.139554,0.16448 0.0947,0.0548 0.224282,0.0548 0.174442,0 0.333931,-0.0548 0.164474,-0.0548 0.333932,-0.13956 v 0.60307 q -0.169458,0.0897 -0.36882,0.14454 -0.199362,0.0498 -0.453549,0.0498 z m 1.27093,-0.0498 0.802432,-3.78788 h 0.732656 l -0.139554,0.6579 q -0.01994,0.10965 -0.05981,0.25419 -0.03987,0.14453 -0.07975,0.28409 -0.03987,0.13457 -0.07476,0.23425 h 0.01994 q 0.09968,-0.1246 0.214314,-0.21432 0.114634,-0.0947 0.249203,-0.14453 0.139553,-0.0548 0.299043,-0.0548 0.23425,0 0.388756,0.0997 0.159489,0.0947 0.23425,0.26914 0.07974,0.17444 0.07974,0.41368 0,0.0897 -0.01495,0.20434 -0.01495,0.10965 -0.03987,0.23425 l -0.323963,1.55004 h -0.732655 l 0.333931,-1.58991 q 0.01994,-0.0847 0.0299,-0.1545 0.01,-0.0748 0.01,-0.13457 0,-0.15451 -0.06978,-0.22429 -0.06479,-0.0748 -0.194378,-0.0748 -0.164474,0 -0.299043,0.14454 -0.134569,0.13955 -0.23425,0.37879 -0.0947,0.23923 -0.15949,0.52831 l -0.239234,1.12639 z m 3.932414,-1.18122 h -0.593102 l -0.124601,-2.37739 h 0.842304 z m -0.727671,0.83234 q 0,-0.22927 0.124601,-0.31898 0.124601,-0.0947 0.304027,-0.0947 0.174442,0 0.299043,0.0947 0.124601,0.0897 0.124601,0.31898 0,0.2193 -0.124601,0.31898 -0.124601,0.0947 -0.299043,0.0947 -0.179426,0 -0.304027,-0.0947 -0.124601,-0.0997 -0.124601,-0.31898 z"
         id="text2301"
         style="font-style:italic;font-weight:900;font-size:4.98405px;font-family:Overpass;-inkscape-font-specification:'Overpass Heavy Italic';fill:#ffffff;stroke-width:0.547461"
         inkscape:label="Message"
         transform="rotate(-11.498977)"
         aria-label="Wir freuen uns auf Euch!" />
    </g>
    <path
       d="m 33.910158,207.09804 h 0.216459 v -7.97482 H 31.85949 v 0.21646 h 2.050668 z m 2.255745,-2.36966 h 4.614003 v 2.36966 h 0.227852 v -2.36966 h 1.777246 v -0.21646 h -1.777246 v -2.08485 h -0.227852 v 2.08485 h -4.306402 l 4.454506,-5.3887 h -0.273422 l -4.488685,5.43427 z m 7.906445,2.40384 c 0.159497,0 0.296208,-0.13672 0.296208,-0.29621 0,-0.1595 -0.136711,-0.29621 -0.296208,-0.29621 -0.159496,0 -0.296207,0.13671 -0.296207,0.29621 0,0.15949 0.136711,0.29621 0.296207,0.29621 z m 0,-5.36592 c 0.159497,0 0.296208,-0.13671 0.296208,-0.29621 0,-0.15949 -0.136711,-0.2962 -0.296208,-0.2962 -0.159496,0 -0.296207,0.13671 -0.296207,0.2962 0,0.1595 0.136711,0.29621 0.296207,0.29621 z m 4.750706,5.36592 c 1.811423,0 3.041824,-1.58358 3.041824,-4.02159 0,-2.43802 -1.230401,-4.02159 -3.041824,-4.02159 -1.811424,0 -3.041825,1.58357 -3.041825,4.02159 0,2.43801 1.230401,4.02159 3.041825,4.02159 z m 0,-0.21646 c -1.674713,0 -2.813973,-1.46965 -2.813973,-3.80513 0,-2.33549 1.13926,-3.80513 2.813973,-3.80513 1.674712,0 2.813972,1.46964 2.813972,3.80513 0,2.33548 -1.13926,3.80513 -2.813972,3.80513 z m 7.42798,0.21646 c 1.811423,0 3.041824,-1.58358 3.041824,-4.02159 0,-2.43802 -1.230401,-4.02159 -3.041824,-4.02159 -1.811423,0 -3.041824,1.58357 -3.041824,4.02159 0,2.43801 1.230401,4.02159 3.041824,4.02159 z m 0,-0.21646 c -1.674712,0 -2.813972,-1.46965 -2.813972,-3.80513 0,-2.33549 1.13926,-3.80513 2.813972,-3.80513 1.674712,0 2.813972,1.46964 2.813972,3.80513 0,2.33548 -1.13926,3.80513 -2.813972,3.80513 z m 6.218401,-2.72284 h 2.84815 v -0.21645 h -2.84815 z m 5.84243,2.90512 h 5.331737 v -0.21646 h -4.978566 l 3.258283,-3.30386 c 1.036727,-1.04811 1.287364,-1.69749 1.287364,-2.4494 0,-1.26458 -0.945586,-2.03928 -2.449409,-2.03928 -1.162045,0 -2.027883,0.36456 -2.620298,1.02533 l 0.159497,0.1595 c 0.581022,-0.64938 1.367112,-0.96837 2.460801,-0.96837 1.44686,0 2.221557,0.71773 2.221557,1.83421 0,0.67216 -0.205067,1.26458 -1.219008,2.28991 l -3.451958,3.49753 z m 6.322899,0 h 5.331737 v -0.21646 h -4.978566 l 3.258283,-3.30386 c 1.036727,-1.04811 1.287364,-1.69749 1.287364,-2.4494 0,-1.26458 -0.945586,-2.03928 -2.449409,-2.03928 -1.162045,0 -2.027883,0.36456 -2.620298,1.02533 l 0.159496,0.1595 c 0.581023,-0.64938 1.367112,-0.96837 2.460802,-0.96837 1.44686,0 2.221557,0.71773 2.221557,1.83421 0,0.67216 -0.205067,1.26458 -1.219008,2.28991 l -3.451958,3.49753 z m 6.86974,0.0342 c 0.159496,0 0.296207,-0.13672 0.296207,-0.29621 0,-0.1595 -0.136711,-0.29621 -0.296207,-0.29621 -0.159497,0 -0.296208,0.13671 -0.296208,0.29621 0,0.15949 0.136711,0.29621 0.296208,0.29621 z m 0,-5.36592 c 0.159496,0 0.296207,-0.13671 0.296207,-0.29621 0,-0.15949 -0.136711,-0.2962 -0.296207,-0.2962 -0.159497,0 -0.296208,0.13671 -0.296208,0.2962 0,0.1595 0.136711,0.29621 0.296208,0.29621 z m 4.750705,5.36592 c 1.811424,0 3.041824,-1.58358 3.041824,-4.02159 0,-2.43802 -1.2304,-4.02159 -3.041824,-4.02159 -1.811423,0 -3.041824,1.58357 -3.041824,4.02159 0,2.43801 1.230401,4.02159 3.041824,4.02159 z m 0,-0.21646 c -1.674712,0 -2.813972,-1.46965 -2.813972,-3.80513 0,-2.33549 1.13926,-3.80513 2.813972,-3.80513 1.674712,0 2.813972,1.46964 2.813972,3.80513 0,2.33548 -1.13926,3.80513 -2.813972,3.80513 z m 7.427979,0.21646 c 1.811423,0 3.041824,-1.58358 3.041824,-4.02159 0,-2.43802 -1.230401,-4.02159 -3.041824,-4.02159 -1.811424,0 -3.041824,1.58357 -3.041824,4.02159 0,2.43801 1.2304,4.02159 3.041824,4.02159 z m 0,-0.21646 c -1.674712,0 -2.813972,-1.46965 -2.813972,-3.80513 0,-2.33549 1.13926,-3.80513 2.813972,-3.80513 1.674712,0 2.813972,1.46964 2.813972,3.80513 0,2.33548 -1.13926,3.80513 -2.813972,3.80513 z"
       id="text1983-1"
       style="font-weight:100;font-size:11.3926px;font-family:Montserrat;-inkscape-font-specification:'Montserrat Thin';fill:#ffffff;stroke-width:1.25139"
       inkscape:label="Time Range"
       aria-label="14:00 - 22:00" />
    <text
       xml:space="preserve"
       style="font-style:normal;font-variant:normal;font-weight:200;font-stretch:normal;font-size:5.98886px;font-family:Montserrat;-inkscape-font-specification:'Montserrat Ultra-Light';fill:#fffffe;fill-opacity:1;stroke-width:1.11017"
       x="99.907661"
       y="207.42839"
       id="text1766-0-3"
       inkscape:label="Clock"><tspan
         sodipodi:role="line"
         style="font-style:normal;font-variant:normal;font-weight:200;font-stretch:normal;font-size:5.98886px;font-family:Montserrat;-inkscape-font-specification:'Montserrat Ultra-Light';fill:#fffffe;fill-opacity:1;stroke-width:1.11017"
         x="99.907661"
         y="207.42839"
         id="tspan2634">Uhr</tspan></text>
    <g
       id="g5153"
       transform="translate(18.797506,83.228373)"
       inkscape:label="DI.DAY">
      <path
         id="path1143"
         style="font-weight:300;font-size:13.2535px;font-family:Montserrat;-inkscape-font-specification:'Montserrat Light';text-align:end;text-anchor:end;display:inline;fill:#ffffff;stroke-width:0.301756"
         d="m 14.009483,35.590539 v 15.779449 h 6.897766 c 5.117045,0 8.611057,-3.155893 8.611057,-7.889728 0,-4.733822 -3.494012,-7.889721 -8.611057,-7.889721 z m 18.619843,0 v 15.779449 h 2.930267 V 35.590539 Z m 13.141939,0 v 15.779449 h 6.424255 c 5.049417,0 8.453443,-3.246056 8.453443,-7.889728 0,-4.643659 -3.404026,-7.889721 -8.453443,-7.889721 z m 23.082985,0 -7.213328,15.779449 h 1.735758 l 1.893372,-4.215659 h 8.813944 l 1.870906,4.215659 h 1.758562 L 70.499799,35.590539 Z m 7.867255,0 6.311577,10.324008 v 5.455441 h 1.645887 V 45.914547 L 90.990546,35.590539 H 89.32253 l -5.410164,8.83641 -5.410164,-8.83641 z m -29.282221,1.442665 h 4.666362 c 4.192816,0 6.897768,2.660001 6.897768,6.447056 0,3.787068 -2.704952,6.446725 -6.897768,6.446725 h -4.666362 z m 22.226507,0.292755 3.809548,8.475913 H 65.87871 Z m -52.72604,0.744137 h 3.832353 c 3.516559,0 5.79313,2.141571 5.79313,5.410164 0,3.2686 -2.276571,5.409827 -5.79313,5.409827 h -3.832353 z m 23.511558,9.715694 c -1.014391,0 -1.848435,0.743799 -1.848435,1.870906 0,1.082019 0.834044,1.870906 1.848435,1.870906 1.014393,0 1.848437,-0.788887 1.848437,-1.870906 0,-1.127107 -0.834044,-1.870906 -1.848437,-1.870906 z"
         inkscape:label="Text"
         sodipodi:nodetypes="ccsssccccccccssscccccccccccccccccccccssscccccccsssccsssss" />
      <path
         style="color:#000000;display:inline;fill:url(#linearGradient1148);stroke-width:0.648937;-inkscape-stroke:none"
         d="m 7.6593201,43.261523 v 0.595698 H 97.340676 v -0.595698 z"
         id="path393"
         inkscape:label="Rainbow Line" />
      <path
         id="path359"
         style="font-weight:600;font-size:34.7369px;font-family:Montserrat;-inkscape-font-specification:'Montserrat Semi-Bold';display:inline;fill:#ffffff;stroke-width:0.790892"
         d="m 26.539077,42.886697 c 0.0172,0.193441 0.02616,0.391244 0.02616,0.593563 0,0.258141 -0.0157,0.508274 -0.0436,0.751852 h 2.964473 c 0.02009,-0.246219 0.03219,-0.496177 0.03219,-0.751852 0,-0.20117 -0.0086,-0.398214 -0.02113,-0.593563 z m 6.090249,0 v 1.345415 h 2.930267 v -1.345415 z m 26.349603,0 c 0.01512,0.194746 0.02446,0.392217 0.02446,0.593563 0,0.256084 -0.01356,0.506554 -0.0379,0.751852 h 1.650916 c 0.02025,-0.246472 0.03251,-0.496631 0.03251,-0.751852 0,-0.200859 -0.0089,-0.398084 -0.02148,-0.593563 z m 6.539952,0 -0.615031,1.345415 h 1.676069 l 0.601279,-1.345415 z m 19.336482,0 -0.823619,1.345415 h 1.675738 l 0.822606,-1.345415 z"
         sodipodi:nodetypes="csccsccccccccsccscccccccccccc"
         inkscape:label="3D Effect" />
    </g>
    <g
       id="text6-3"
       style="font-size:3.52778px;font-family:'Atkinson Hyperlegible Next';-inkscape-font-specification:'Atkinson Hyperlegible Next';text-align:center;text-anchor:middle;fill:#ffffff;stroke-width:0.132292"
       aria-label="im AStA der Uni Osnabrück • Alte Münze 12&#10;https://chaostreff-osnabrueck.de">
      <path
         d="m 37.952914,246.73241 h 0.296334 v -1.74978 h -0.539751 v 0.23636 h 0.243417 z m 0.119945,-2.08139 c 0.119944,0 0.218722,-0.0988 0.218722,-0.21873 0,-0.11994 -0.09878,-0.21872 -0.218722,-0.21872 -0.119945,0 -0.218723,0.0988 -0.218723,0.21872 0,0.11995 0.09878,0.21873 0.218723,0.21873 z m 0.691448,2.08139 h 0.296333 v -0.94898 c 0,-0.37394 0.169334,-0.57502 0.423334,-0.57502 0.321028,0 0.373944,0.23636 0.373944,0.50447 v 1.01953 h 0.296334 v -0.94898 c 0,-0.37394 0.165806,-0.57502 0.419806,-0.57502 0.324555,0 0.373944,0.23636 0.373944,0.50447 v 1.01953 h 0.296334 v -1.10773 c 0,-0.39864 -0.15875,-0.67027 -0.564445,-0.67027 -0.243417,0 -0.448028,0.0917 -0.589139,0.30691 -0.07761,-0.1905 -0.236361,-0.30691 -0.504473,-0.30691 -0.261055,0 -0.426861,0.127 -0.525639,0.2928 l -0.07761,-0.26458 h -0.218722 z m 3.714751,0 h 0.352778 l 0.183445,-0.51506 h 1.065389 l 0.183445,0.51506 h 0.352778 l -0.881945,-2.35656 h -0.370417 z m 0.635,-0.80081 0.433917,-1.22061 0.433917,1.22061 z m 2.518831,0.84314 c 0.490361,0 0.917223,-0.254 0.917223,-0.70203 0,-0.41628 -0.28575,-0.57503 -0.733779,-0.68086 l -0.331611,-0.0776 c -0.215194,-0.0494 -0.366889,-0.14817 -0.366889,-0.33514 0,-0.24694 0.254,-0.36689 0.518584,-0.36689 0.215194,0 0.433917,0.0917 0.525639,0.27164 l 0.303389,-0.10936 c -0.144639,-0.30339 -0.47625,-0.44097 -0.814917,-0.44097 -0.486834,0 -0.864306,0.27164 -0.864306,0.65616 0,0.35278 0.250472,0.53623 0.631472,0.62442 l 0.317501,0.0741 c 0.377472,0.0882 0.483305,0.19403 0.483305,0.38806 0,0.28222 -0.264583,0.41981 -0.5715,0.41981 -0.257528,0 -0.536223,-0.127 -0.613834,-0.38806 l -0.303389,0.10936 c 0.123473,0.381 0.515056,0.55739 0.903112,0.55739 z m 1.746254,-0.0423 h 0.246945 v -0.26106 h -0.183445 c -0.151694,0 -0.179917,-0.0282 -0.179917,-0.22578 v -1.02658 h 0.363362 v -0.23636 h -0.363362 v -0.43745 h -0.296333 v 0.43745 h -0.296334 v 0.23636 h 0.296334 v 1.07597 c 0,0.36336 0.07761,0.43745 0.41275,0.43745 z m 0.405695,0 h 0.352778 l 0.183445,-0.51506 h 1.06539 l 0.183444,0.51506 h 0.352778 l -0.881945,-2.35656 h -0.370417 z m 0.635001,-0.80081 0.433917,-1.22061 0.433917,1.22061 z m 3.36903,0.84314 c 0.275166,0 0.472722,-0.11994 0.567972,-0.30692 l 0.07761,0.26459 h 0.278695 c -0.05644,-0.30692 -0.05997,-0.54328 -0.05997,-0.6597 v -1.83797 h -0.296334 v 1.02305 c -0.105833,-0.18344 -0.292806,-0.30338 -0.567972,-0.30338 -0.39864,0 -0.751418,0.33513 -0.751418,0.91016 0,0.57856 0.352778,0.91017 0.751418,0.91017 z m 0.07761,-0.254 c -0.299862,0 -0.497417,-0.23989 -0.497417,-0.65617 0,-0.41628 0.197555,-0.65616 0.497417,-0.65616 0.299861,0 0.497417,0.23988 0.497417,0.65616 0,0.41628 -0.197556,0.65617 -0.497417,0.65617 z m 2.017887,0.254 c 0.328083,0 0.567973,-0.14464 0.694973,-0.34925 l -0.285751,-0.0847 c -0.08114,0.10584 -0.211666,0.17286 -0.409222,0.17286 -0.201084,0 -0.508,-0.11288 -0.546806,-0.57502 h 1.354668 c 0.03528,-0.50095 -0.257528,-0.98425 -0.814918,-0.98425 -0.479778,0 -0.850195,0.35277 -0.850195,0.90663 0,0.51506 0.306917,0.9137 0.857251,0.9137 z m 0.493889,-1.07245 h -1.037167 c 0.04939,-0.37394 0.299861,-0.49388 0.536222,-0.49388 0.310445,0 0.497417,0.24694 0.500945,0.49388 z m 0.673807,1.03012 h 0.296333 v -0.75142 c 0,-0.46567 0.15875,-0.71967 0.638529,-0.71967 v -0.30691 c -0.292806,0 -0.500945,0.14111 -0.624418,0.35277 l -0.09525,-0.32455 h -0.215194 z m 3.111506,0.0423 c 0.687917,0 0.948973,-0.33867 0.948973,-1.02658 v -1.37231 h -0.331611 v 1.397 c 0,0.46567 -0.165806,0.71614 -0.617362,0.71614 -0.451556,0 -0.617361,-0.25047 -0.617361,-0.71614 v -1.397 h -0.331612 v 1.37231 c 0,0.68791 0.264584,1.02658 0.948973,1.02658 z m 1.471086,-0.0423 h 0.296333 v -0.94898 c 0,-0.37394 0.176389,-0.57502 0.46214,-0.57502 0.338666,0 0.384528,0.23636 0.384528,0.50447 v 1.01953 h 0.296333 v -1.10773 c 0,-0.39864 -0.155222,-0.67027 -0.578556,-0.67027 -0.296333,0 -0.465667,0.127 -0.564445,0.2928 l -0.07761,-0.26458 h -0.218722 z m 2.017886,0 h 0.296334 v -1.74978 h -0.539751 v 0.23636 h 0.243417 z m 0.119945,-2.08139 c 0.119944,0 0.218722,-0.0988 0.218722,-0.21873 0,-0.11994 -0.09878,-0.21872 -0.218722,-0.21872 -0.119945,0 -0.218723,0.0988 -0.218723,0.21872 0,0.11995 0.09878,0.21873 0.218723,0.21873 z m 2.684647,2.12372 c 0.677333,0 1.104195,-0.508 1.104195,-1.22061 0,-0.71261 -0.426862,-1.22061 -1.104195,-1.22061 -0.677334,0 -1.104196,0.508 -1.104196,1.22061 0,0.71261 0.426862,1.22061 1.104196,1.22061 z m 0,-0.27869 c -0.426862,0 -0.765529,-0.33162 -0.765529,-0.94192 0,-0.61031 0.338667,-0.94192 0.765529,-0.94192 0.426861,0 0.765528,0.33161 0.765528,0.94192 0,0.6103 -0.338667,0.94192 -0.765528,0.94192 z m 2.102559,0.27869 c 0.398639,0 0.712611,-0.21872 0.712611,-0.53622 0,-0.33161 -0.236361,-0.4445 -0.599722,-0.52564 l -0.204612,-0.0459 c -0.201083,-0.0459 -0.299861,-0.10584 -0.299861,-0.23284 0,-0.14816 0.15875,-0.23636 0.356306,-0.23636 0.179917,0 0.352778,0.0741 0.416278,0.21872 l 0.278694,-0.1023 c -0.109361,-0.25047 -0.381,-0.36689 -0.673806,-0.36689 -0.366889,0 -0.673806,0.1905 -0.673806,0.49389 0,0.30339 0.222251,0.42333 0.522112,0.49036 l 0.204611,0.0459 c 0.257528,0.0564 0.377473,0.12347 0.377473,0.27517 0,0.1658 -0.183445,0.27164 -0.412751,0.27164 -0.194028,0 -0.402167,-0.0988 -0.451556,-0.29281 l -0.28575,0.10584 c 0.116417,0.29986 0.430389,0.43744 0.733779,0.43744 z m 1.072447,-0.0423 h 0.296334 v -0.94898 c 0,-0.37394 0.176389,-0.57502 0.462139,-0.57502 0.338667,0 0.384528,0.23636 0.384528,0.50447 v 1.01953 h 0.296333 v -1.10773 c 0,-0.39864 -0.155222,-0.67027 -0.578556,-0.67027 -0.296333,0 -0.465667,0.127 -0.564444,0.2928 l -0.07761,-0.26458 h -0.218722 z m 2.405944,0.0423 c 0.306917,0 0.497417,-0.10583 0.596195,-0.28222 l 0.07056,0.23989 h 0.271639 c -0.03175,-0.16581 -0.0635,-0.36689 -0.0635,-0.6597 v -0.40922 c 0,-0.47978 -0.211667,-0.70908 -0.694973,-0.70908 -0.313973,0 -0.575028,0.15522 -0.670278,0.42333 l 0.28575,0.0847 c 0.0388,-0.16934 0.179917,-0.27164 0.395111,-0.27164 0.275167,0 0.402167,0.1658 0.402167,0.41627 v 0.0317 c -0.751417,0.0706 -1.202973,0.22225 -1.202973,0.63853 0,0.3175 0.275167,0.49742 0.610306,0.49742 z m 0.06703,-0.23636 c -0.218722,0 -0.34925,-0.10583 -0.34925,-0.26811 0,-0.24342 0.3175,-0.34925 0.874889,-0.39511 v 0.13758 c 0,0.39511 -0.243417,0.52564 -0.525639,0.52564 z m 2.183693,0.23636 c 0.398639,0 0.751417,-0.33161 0.751417,-0.91017 0,-0.57503 -0.352778,-0.91016 -0.751417,-0.91016 -0.275167,0 -0.46214,0.11994 -0.567973,0.30338 v -1.02305 h -0.296334 v 2.49767 h 0.218723 l 0.07761,-0.26459 c 0.105833,0.18698 0.292806,0.30692 0.567973,0.30692 z m -0.07761,-0.254 c -0.299861,0 -0.497417,-0.23989 -0.497417,-0.65617 0,-0.41628 0.197556,-0.65616 0.497417,-0.65616 0.299862,0 0.497417,0.23988 0.497417,0.65616 0,0.41628 -0.197555,0.65617 -0.497417,0.65617 z m 1.210029,0.21167 h 0.296333 v -0.75142 c 0,-0.46567 0.15875,-0.71967 0.638528,-0.71967 v -0.30691 c -0.292805,0 -0.500944,0.14111 -0.624417,0.35277 l -0.09525,-0.32455 h -0.215194 z m 1.820341,0.0423 c 0.289278,0 0.448028,-0.127 0.546805,-0.29633 l 0.07408,0.254 h 0.22225 v -1.74978 h -0.296334 v 0.95955 c 0,0.37395 -0.165805,0.5715 -0.4445,0.5715 -0.321028,0 -0.366889,-0.23283 -0.366889,-0.50447 v -1.02658 h -0.296333 v 1.11478 c 0,0.39864 0.151694,0.67733 0.560917,0.67733 z m 0.462139,-2.12372 c 0.105833,0 0.1905,-0.0847 0.1905,-0.1905 0,-0.10584 -0.08467,-0.1905 -0.1905,-0.1905 -0.105834,0 -0.1905,0.0847 -0.1905,0.1905 0,0.10583 0.08467,0.1905 0.1905,0.1905 z m -0.635001,0 c 0.105834,0 0.1905,-0.0847 0.1905,-0.1905 0,-0.10584 -0.08467,-0.1905 -0.1905,-0.1905 -0.105833,0 -0.1905,0.0847 -0.1905,0.1905 0,0.10583 0.08467,0.1905 0.1905,0.1905 z m 2.21192,2.12372 c 0.310444,0 0.567972,-0.16581 0.6985,-0.39158 l -0.271639,-0.0988 c -0.07761,0.13053 -0.225778,0.2293 -0.416278,0.2293 -0.261056,0 -0.504472,-0.21166 -0.504472,-0.65264 0,-0.44097 0.239889,-0.64558 0.504472,-0.64558 0.179917,0 0.331611,0.0917 0.409223,0.23283 l 0.271639,-0.0988 c -0.112889,-0.2152 -0.345723,-0.39511 -0.659695,-0.39511 -0.518584,0 -0.846667,0.38805 -0.846667,0.91016 0,0.52917 0.313972,0.91017 0.814917,0.91017 z m 1.093615,-0.0423 h 0.296334 v -0.58561 l 0.204611,-0.22226 0.582083,0.80787 h 0.363362 l -0.74789,-1.02659 0.659695,-0.72319 h -0.356305 l -0.705556,0.78669 v -1.53458 h -0.296334 z m 3.242037,-0.31045 c 0.324556,0 0.585612,-0.26458 0.585612,-0.58561 0,-0.32456 -0.261056,-0.58561 -0.585612,-0.58561 -0.324556,0 -0.585611,0.26105 -0.585611,0.58561 0,0.32103 0.261055,0.58561 0.585611,0.58561 z m 1.760363,0.31045 h 0.352778 l 0.183445,-0.51506 h 1.06539 l 0.183444,0.51506 h 0.352778 l -0.881945,-2.35656 h -0.370417 z m 0.635001,-0.80081 0.433917,-1.22061 0.433917,1.22061 z m 2.197802,0.80081 h 0.194028 v -0.26106 h -0.119945 c -0.172861,0 -0.197555,-0.0388 -0.197555,-0.1905 v -2.04611 h -0.296334 v 2.08139 c 0,0.33161 0.09172,0.41628 0.419806,0.41628 z m 1.033637,0 h 0.246945 v -0.26106 h -0.183445 c -0.151695,0 -0.179917,-0.0282 -0.179917,-0.22578 v -1.02658 h 0.363362 v -0.23636 h -0.363362 v -0.43745 h -0.296333 v 0.43745 h -0.296334 v 0.23636 h 0.296334 v 1.07597 c 0,0.36336 0.07761,0.43745 0.41275,0.43745 z m 1.312338,0.0423 c 0.328084,0 0.567973,-0.14464 0.694973,-0.34925 l -0.28575,-0.0847 c -0.08114,0.10584 -0.211667,0.17286 -0.409223,0.17286 -0.201083,0 -0.508,-0.11288 -0.546806,-0.57502 h 1.354668 c 0.03528,-0.50095 -0.257528,-0.98425 -0.814917,-0.98425 -0.479778,0 -0.850195,0.35277 -0.850195,0.90663 0,0.51506 0.306917,0.9137 0.85725,0.9137 z m 0.493889,-1.07245 h -1.037167 c 0.04939,-0.37394 0.299861,-0.49388 0.536223,-0.49388 0.310444,0 0.497417,0.24694 0.500944,0.49388 z m 1.682754,1.03012 h 0.331612 v -2.01084 l 0.684389,2.01084 h 0.328084 l 0.680861,-2.01084 v 2.01084 h 0.331611 v -2.35656 H 92.53828 l -0.627945,1.92617 -0.627945,-1.92617 h -0.550334 z m 3.439582,0.0423 c 0.289278,0 0.448028,-0.127 0.546806,-0.29633 l 0.07408,0.254 h 0.222251 v -1.74978 h -0.296334 v 0.95955 c 0,0.37395 -0.165806,0.5715 -0.4445,0.5715 -0.321028,0 -0.366889,-0.23283 -0.366889,-0.50447 v -1.02658 h -0.296334 v 1.11478 c 0,0.39864 0.151695,0.67733 0.560917,0.67733 z m 0.462139,-2.12372 c 0.105834,0 0.1905,-0.0847 0.1905,-0.1905 0,-0.10584 -0.08467,-0.1905 -0.1905,-0.1905 -0.105833,0 -0.1905,0.0847 -0.1905,0.1905 0,0.10583 0.08467,0.1905 0.1905,0.1905 z m -0.635,0 c 0.105833,0 0.1905,-0.0847 0.1905,-0.1905 0,-0.10584 -0.08467,-0.1905 -0.1905,-0.1905 -0.105833,0 -0.1905,0.0847 -0.1905,0.1905 0,0.10583 0.08467,0.1905 0.1905,0.1905 z m 1.524006,2.08139 h 0.296334 v -0.94898 c 0,-0.37394 0.176389,-0.57502 0.462139,-0.57502 0.338667,0 0.384528,0.23636 0.384528,0.50447 v 1.01953 h 0.296333 v -1.10773 c 0,-0.39864 -0.155222,-0.67027 -0.578556,-0.67027 -0.296333,0 -0.465667,0.127 -0.564444,0.2928 l -0.07761,-0.26458 h -0.218722 z m 1.827388,0 h 1.375834 v -0.26106 h -1.023056 l 0.987779,-1.22767 v -0.26105 h -1.308807 v 0.26105 h 0.956029 l -0.987779,1.22767 z m 2.398888,0.0423 c 0.328081,0 0.567971,-0.14464 0.694971,-0.34925 l -0.28575,-0.0847 c -0.0811,0.10584 -0.211666,0.17286 -0.409221,0.17286 -0.201084,0 -0.508001,-0.11288 -0.546806,-0.57502 h 1.354667 c 0.0353,-0.50095 -0.25753,-0.98425 -0.814917,-0.98425 -0.479778,0 -0.850195,0.35277 -0.850195,0.90663 0,0.51506 0.306917,0.9137 0.857251,0.9137 z m 0.493891,-1.07245 h -1.037169 c 0.04939,-0.37394 0.299861,-0.49388 0.536222,-0.49388 0.310447,0 0.497417,0.24694 0.500947,0.49388 z m 2.15901,1.03012 h 0.29633 v -2.35656 h -0.19756 c -0.1023,0.28928 -0.38805,0.34219 -0.72672,0.34219 v 0.23637 h 0.62795 z m 0.78669,-0.27517 v 0.27517 h 1.69686 v -0.28223 h -1.29822 c 0.65969,-0.46566 1.23825,-0.91016 1.23825,-1.46755 0,-0.41981 -0.3175,-0.64911 -0.75142,-0.64911 -0.41627,0 -0.71261,0.21519 -0.79727,0.55739 l 0.29633,0.0847 c 0.0564,-0.28575 0.27164,-0.39511 0.49389,-0.39511 0.27516,0 0.43744,0.16581 0.43744,0.40922 0,0.41275 -0.48683,0.85725 -1.31586,1.46756 z"
         id="path15" />
      <path
         d="m 46.560714,251.14213 h 0.296334 v -0.94897 c 0,-0.37395 0.176389,-0.57503 0.462139,-0.57503 0.338667,0 0.384528,0.23636 0.384528,0.50447 v 1.01953 h 0.296333 v -1.10772 c 0,-0.39864 -0.155222,-0.67028 -0.578556,-0.67028 -0.296333,0 -0.465667,0.127 -0.564444,0.29281 v -1.01248 h -0.296334 z m 2.405943,0 h 0.246944 v -0.26105 h -0.183444 c -0.151695,0 -0.179917,-0.0282 -0.179917,-0.22578 v -1.02659 h 0.363361 v -0.23636 H 48.85024 v -0.43744 h -0.296334 v 0.43744 h -0.296333 v 0.23636 h 0.296333 v 1.07598 c 0,0.36336 0.07761,0.43744 0.412751,0.43744 z m 1.150057,0 h 0.246944 v -0.26105 h -0.183444 c -0.151695,0 -0.179917,-0.0282 -0.179917,-0.22578 v -1.02659 h 0.363361 v -0.23636 h -0.363361 v -0.43744 h -0.296334 v 0.43744 H 49.40763 v 0.23636 h 0.296333 v 1.07598 c 0,0.36336 0.07761,0.43744 0.412751,0.43744 z m 0.624418,0.5715 h 0.296333 v -0.83608 c 0.105834,0.18697 0.292806,0.30692 0.567973,0.30692 0.398639,0 0.751417,-0.33514 0.751417,-0.91017 0,-0.57856 -0.352778,-0.91017 -0.751417,-0.91017 -0.275167,0 -0.462139,0.11995 -0.567973,0.30339 l -0.08114,-0.27517 h -0.215194 z m 0.786695,-0.78317 c -0.299862,0 -0.497417,-0.23988 -0.497417,-0.65616 0,-0.41628 0.197555,-0.65617 0.497417,-0.65617 0.299861,0 0.497417,0.23989 0.497417,0.65617 0,0.41628 -0.197556,0.65616 -0.497417,0.65616 z m 1.774473,0.25401 c 0.398639,0 0.712612,-0.21873 0.712612,-0.53623 0,-0.33161 -0.236362,-0.4445 -0.599723,-0.52564 l -0.204611,-0.0459 c -0.201084,-0.0459 -0.299862,-0.10583 -0.299862,-0.23283 0,-0.14817 0.158751,-0.23636 0.356306,-0.23636 0.179917,0 0.352778,0.0741 0.416278,0.21872 l 0.278695,-0.10231 c -0.109361,-0.25047 -0.381,-0.36689 -0.673806,-0.36689 -0.366889,0 -0.673806,0.19051 -0.673806,0.49389 0,0.30339 0.22225,0.42334 0.522111,0.49037 l 0.204612,0.0459 c 0.257528,0.0564 0.377472,0.12347 0.377472,0.27516 0,0.16581 -0.183444,0.27164 -0.41275,0.27164 -0.194028,0 -0.402167,-0.0988 -0.451556,-0.2928 l -0.28575,0.10583 c 0.116417,0.29986 0.430389,0.43745 0.733778,0.43745 z m 1.188864,0 c 0.127,0 0.229306,-0.10231 0.229306,-0.22931 0,-0.127 -0.102306,-0.22931 -0.229306,-0.22931 -0.127,0 -0.229305,0.10231 -0.229305,0.22931 0,0.127 0.102305,0.22931 0.229305,0.22931 z m 0,-1.35467 c 0.127,0 0.229306,-0.10231 0.229306,-0.22931 0,-0.127 -0.102306,-0.2293 -0.229306,-0.2293 -0.127,0 -0.229305,0.1023 -0.229305,0.2293 0,0.127 0.102305,0.22931 0.229305,0.22931 z m 0.440969,1.62983 h 0.292806 l 0.931334,-2.81517 h -0.292806 z m 1.012469,0 h 0.292805 l 0.931334,-2.81517 h -0.292805 z m 2.024945,-0.27516 c 0.310445,0 0.567973,-0.16581 0.6985,-0.39159 l -0.271639,-0.0988 c -0.07761,0.13053 -0.225778,0.22931 -0.416278,0.22931 -0.261055,0 -0.504472,-0.21167 -0.504472,-0.65264 0,-0.44097 0.239889,-0.64558 0.504472,-0.64558 0.179917,0 0.331612,0.0917 0.409223,0.23283 l 0.271639,-0.0988 c -0.112889,-0.21519 -0.345723,-0.39511 -0.659695,-0.39511 -0.518584,0 -0.846667,0.38806 -0.846667,0.91017 0,0.52916 0.313972,0.91017 0.814917,0.91017 z m 1.093615,-0.0423 h 0.296334 v -0.94897 c 0,-0.37395 0.176389,-0.57503 0.462139,-0.57503 0.338667,0 0.384528,0.23636 0.384528,0.50447 v 1.01953 h 0.296333 v -1.10772 c 0,-0.39864 -0.155222,-0.67028 -0.578556,-0.67028 -0.296333,0 -0.465667,0.127 -0.564444,0.29281 v -1.01248 h -0.296334 z m 2.405943,0.0423 c 0.306917,0 0.497417,-0.10584 0.596195,-0.28223 l 0.07056,0.23989 h 0.271639 c -0.03175,-0.1658 -0.0635,-0.36689 -0.0635,-0.65969 v -0.40923 c 0,-0.47977 -0.211667,-0.70908 -0.694973,-0.70908 -0.313972,0 -0.575028,0.15522 -0.670278,0.42333 l 0.28575,0.0847 c 0.03881,-0.16933 0.179917,-0.27164 0.395111,-0.27164 0.275167,0 0.402167,0.16581 0.402167,0.41628 v 0.0317 c -0.751417,0.0706 -1.202973,0.22225 -1.202973,0.63853 0,0.3175 0.275167,0.49742 0.610306,0.49742 z m 0.06703,-0.23637 c -0.218722,0 -0.34925,-0.10583 -0.34925,-0.26811 0,-0.24341 0.3175,-0.34925 0.874889,-0.39511 v 0.13758 c 0,0.39512 -0.243417,0.52564 -0.525639,0.52564 z m 2.007306,0.23637 c 0.402167,0 0.839611,-0.2787 0.839611,-0.91017 0,-0.63147 -0.437444,-0.91017 -0.839611,-0.91017 -0.402167,0 -0.839612,0.2787 -0.839612,0.91017 0,0.63147 0.437445,0.91017 0.839612,0.91017 z m 0,-0.26106 c -0.264584,0 -0.522112,-0.19756 -0.522112,-0.64911 0,-0.45156 0.257528,-0.64911 0.522112,-0.64911 0.264583,0 0.522111,0.19755 0.522111,0.64911 0,0.45155 -0.257528,0.64911 -0.522111,0.64911 z m 1.785058,0.26106 c 0.39864,0 0.712612,-0.21873 0.712612,-0.53623 0,-0.33161 -0.236361,-0.4445 -0.599723,-0.52564 l -0.204611,-0.0459 c -0.201083,-0.0459 -0.299861,-0.10583 -0.299861,-0.23283 0,-0.14817 0.15875,-0.23636 0.356306,-0.23636 0.179916,0 0.352778,0.0741 0.416278,0.21872 l 0.278694,-0.10231 c -0.109361,-0.25047 -0.381,-0.36689 -0.673806,-0.36689 -0.366889,0 -0.673806,0.19051 -0.673806,0.49389 0,0.30339 0.222251,0.42334 0.522112,0.49037 l 0.204611,0.0459 c 0.257528,0.0564 0.377473,0.12347 0.377473,0.27516 0,0.16581 -0.183445,0.27164 -0.412751,0.27164 -0.194028,0 -0.402167,-0.0988 -0.451556,-0.2928 l -0.28575,0.10583 c 0.116417,0.29986 0.430389,0.43745 0.733778,0.43745 z m 1.591028,-0.0423 h 0.246945 v -0.26105 h -0.183445 c -0.151694,0 -0.179917,-0.0282 -0.179917,-0.22578 v -1.02659 h 0.363362 v -0.23636 h -0.363362 v -0.43744 h -0.296333 v 0.43744 h -0.296334 v 0.23636 h 0.296334 v 1.07598 c 0,0.36336 0.07761,0.43744 0.41275,0.43744 z m 0.624418,0 h 0.296333 v -0.75142 c 0,-0.46566 0.15875,-0.71966 0.638528,-0.71966 v -0.30692 c -0.292805,0 -0.500944,0.14111 -0.624417,0.35278 l -0.09525,-0.32456 h -0.215194 z m 1.915585,0.0423 c 0.328084,0 0.567973,-0.14464 0.694973,-0.34926 l -0.28575,-0.0847 c -0.08114,0.10583 -0.211667,0.17286 -0.409223,0.17286 -0.201083,0 -0.508,-0.11289 -0.546806,-0.57503 h 1.354668 c 0.03528,-0.50094 -0.257528,-0.98425 -0.814917,-0.98425 -0.479778,0 -0.850195,0.35278 -0.850195,0.90664 0,0.51506 0.306917,0.9137 0.85725,0.9137 z m 0.49389,-1.07245 H 68.91625 c 0.04939,-0.37394 0.299862,-0.49389 0.536223,-0.49389 0.310444,0 0.497417,0.24695 0.500945,0.49389 z m 0.761998,1.03011 h 0.296334 v -1.51342 h 0.363361 v -0.23636 H 71.01175 v -0.30691 c 0,-0.17992 0.02822,-0.22578 0.179916,-0.22578 h 0.183445 v -0.25047 h -0.1905 c -0.391584,0 -0.469195,0.11994 -0.469195,0.47977 v 0.30339 h -0.296333 v 0.23636 h 0.296333 z m 1.132414,0 h 0.296334 v -1.51342 h 0.363361 v -0.23636 h -0.363361 v -0.30691 c 0,-0.17992 0.02822,-0.22578 0.179916,-0.22578 h 0.183445 v -0.25047 h -0.1905 c -0.391584,0 -0.469195,0.11994 -0.469195,0.47977 v 0.30339 h -0.296333 v 0.23636 h 0.296333 z m 0.776107,-0.73378 h 1.030111 v -0.28575 h -1.030111 z m 2.155473,0.77612 c 0.402167,0 0.839612,-0.2787 0.839612,-0.91017 0,-0.63147 -0.437445,-0.91017 -0.839612,-0.91017 -0.402167,0 -0.839612,0.2787 -0.839612,0.91017 0,0.63147 0.437445,0.91017 0.839612,0.91017 z m 0,-0.26106 c -0.264583,0 -0.522111,-0.19756 -0.522111,-0.64911 0,-0.45156 0.257528,-0.64911 0.522111,-0.64911 0.264584,0 0.522112,0.19755 0.522112,0.64911 0,0.45155 -0.257528,0.64911 -0.522112,0.64911 z m 1.785057,0.26106 c 0.398639,0 0.712612,-0.21873 0.712612,-0.53623 0,-0.33161 -0.236362,-0.4445 -0.599723,-0.52564 l -0.204611,-0.0459 c -0.201084,-0.0459 -0.299862,-0.10583 -0.299862,-0.23283 0,-0.14817 0.158751,-0.23636 0.356306,-0.23636 0.179917,0 0.352778,0.0741 0.416278,0.21872 l 0.278695,-0.10231 c -0.109361,-0.25047 -0.381,-0.36689 -0.673806,-0.36689 -0.366889,0 -0.673806,0.19051 -0.673806,0.49389 0,0.30339 0.22225,0.42334 0.522111,0.49037 l 0.204612,0.0459 c 0.257528,0.0564 0.377472,0.12347 0.377472,0.27516 0,0.16581 -0.183444,0.27164 -0.41275,0.27164 -0.194028,0 -0.402167,-0.0988 -0.451556,-0.2928 l -0.28575,0.10583 c 0.116417,0.29986 0.430389,0.43745 0.733778,0.43745 z m 1.072448,-0.0423 h 0.296333 v -0.94897 c 0,-0.37395 0.176389,-0.57503 0.462139,-0.57503 0.338667,0 0.384528,0.23636 0.384528,0.50447 v 1.01953 h 0.296334 v -1.10772 c 0,-0.39864 -0.155223,-0.67028 -0.578556,-0.67028 -0.296334,0 -0.465667,0.127 -0.564445,0.29281 l -0.07761,-0.26459 h -0.218722 z m 2.405946,0.0423 c 0.306916,0 0.497416,-0.10584 0.596194,-0.28223 l 0.07056,0.23989 h 0.271639 c -0.03175,-0.1658 -0.0635,-0.36689 -0.0635,-0.65969 v -0.40923 c 0,-0.47977 -0.211667,-0.70908 -0.694973,-0.70908 -0.313972,0 -0.575028,0.15522 -0.670278,0.42333 l 0.28575,0.0847 c 0.03881,-0.16933 0.179917,-0.27164 0.395112,-0.27164 0.275166,0 0.402167,0.16581 0.402167,0.41628 v 0.0317 c -0.751418,0.0706 -1.202973,0.22225 -1.202973,0.63853 0,0.3175 0.275166,0.49742 0.610306,0.49742 z m 0.06703,-0.23637 c -0.218722,0 -0.34925,-0.10583 -0.34925,-0.26811 0,-0.24341 0.3175,-0.34925 0.87489,-0.39511 v 0.13758 c 0,0.39512 -0.243417,0.52564 -0.52564,0.52564 z m 2.183693,0.23637 c 0.398639,0 0.751417,-0.33162 0.751417,-0.91017 0,-0.57503 -0.352778,-0.91017 -0.751417,-0.91017 -0.275167,0 -0.462139,0.11995 -0.567973,0.30339 v -1.02306 h -0.296333 v 2.49767 h 0.218722 l 0.07761,-0.26458 c 0.105834,0.18697 0.292806,0.30692 0.567973,0.30692 z m -0.07761,-0.25401 c -0.299862,0 -0.497417,-0.23988 -0.497417,-0.65616 0,-0.41628 0.197555,-0.65617 0.497417,-0.65617 0.299861,0 0.497417,0.23989 0.497417,0.65617 0,0.41628 -0.197556,0.65616 -0.497417,0.65616 z m 1.210028,0.21167 h 0.296334 v -0.75142 c 0,-0.46566 0.15875,-0.71966 0.638528,-0.71966 v -0.30692 c -0.292806,0 -0.500945,0.14111 -0.624417,0.35278 l -0.09525,-0.32456 h -0.215195 z m 1.820337,0.0423 c 0.289278,0 0.448028,-0.12701 0.546806,-0.29634 l 0.07408,0.254 h 0.222251 v -1.74978 h -0.296334 v 0.95956 c 0,0.37394 -0.165806,0.5715 -0.4445,0.5715 -0.321028,0 -0.366889,-0.23283 -0.366889,-0.50447 v -1.02659 h -0.296334 v 1.11478 c 0,0.39864 0.151695,0.67734 0.560917,0.67734 z m 2.081396,0 c 0.328083,0 0.567972,-0.14464 0.694972,-0.34926 l -0.28575,-0.0847 c -0.08114,0.10583 -0.211667,0.17286 -0.409222,0.17286 -0.201084,0 -0.508001,-0.11289 -0.546806,-0.57503 h 1.354667 c 0.03528,-0.50094 -0.257528,-0.98425 -0.814917,-0.98425 -0.479778,0 -0.850195,0.35278 -0.850195,0.90664 0,0.51506 0.306917,0.9137 0.857251,0.9137 z m 0.493889,-1.07245 h -1.037168 c 0.04939,-0.37394 0.299862,-0.49389 0.536223,-0.49389 0.310445,0 0.497417,0.24695 0.500945,0.49389 z m 1.361723,1.07245 c 0.310444,0 0.567972,-0.16581 0.6985,-0.39159 l -0.271639,-0.0988 c -0.07761,0.13053 -0.225778,0.22931 -0.416278,0.22931 -0.261056,0 -0.504473,-0.21167 -0.504473,-0.65264 0,-0.44097 0.239889,-0.64558 0.504473,-0.64558 0.179917,0 0.331611,0.0917 0.409222,0.23283 l 0.27164,-0.0988 c -0.112889,-0.21519 -0.345723,-0.39511 -0.659695,-0.39511 -0.518584,0 -0.846668,0.38806 -0.846668,0.91017 0,0.52916 0.313973,0.91017 0.814918,0.91017 z m 1.093615,-0.0423 h 0.296333 v -0.58561 l 0.204612,-0.22225 0.582083,0.80786 h 0.363362 l -0.74789,-1.02658 0.659695,-0.7232 h -0.356306 l -0.705556,0.7867 v -1.53459 h -0.296333 z m 1.834449,0.0423 c 0.127,0 0.229306,-0.10231 0.229306,-0.22931 0,-0.127 -0.102306,-0.22931 -0.229306,-0.22931 -0.127,0 -0.229305,0.10231 -0.229305,0.22931 0,0.127 0.102305,0.22931 0.229305,0.22931 z m 1.213556,0 c 0.275166,0 0.472722,-0.11995 0.567972,-0.30692 l 0.07761,0.26458 h 0.278695 c -0.05644,-0.30692 -0.05997,-0.54328 -0.05997,-0.65969 v -1.83798 h -0.296334 v 1.02306 c -0.105833,-0.18344 -0.292806,-0.30339 -0.567972,-0.30339 -0.398639,0 -0.751417,0.33514 -0.751417,0.91017 0,0.57855 0.352778,0.91017 0.751417,0.91017 z m 0.07761,-0.25401 c -0.299861,0 -0.497417,-0.23988 -0.497417,-0.65616 0,-0.41628 0.197556,-0.65617 0.497417,-0.65617 0.299861,0 0.497417,0.23989 0.497417,0.65617 0,0.41628 -0.197556,0.65616 -0.497417,0.65616 z m 2.017884,0.25401 c 0.328084,0 0.567973,-0.14464 0.694973,-0.34926 l -0.28575,-0.0847 c -0.08114,0.10583 -0.211667,0.17286 -0.409223,0.17286 -0.201083,0 -0.508,-0.11289 -0.546806,-0.57503 h 1.354668 c 0.03528,-0.50094 -0.257528,-0.98425 -0.814917,-0.98425 -0.479778,0 -0.850195,0.35278 -0.850195,0.90664 0,0.51506 0.306917,0.9137 0.85725,0.9137 z m 0.493889,-1.07245 H 94.87718 c 0.04939,-0.37394 0.299861,-0.49389 0.536223,-0.49389 0.310444,0 0.497417,0.24695 0.500944,0.49389 z"
         id="path16" />
    </g>
  </g>
  <g
     inkscape:groupmode="layer"
     id="layer3"
     inkscape:label="Warning"
     style="display:inline"
     transform="translate(-44.469645,24.05668)" />
</svg>
