<?xml version="1.0" encoding="UTF-8" standalone="no"?>
<!-- Created with Inkscape (http://www.inkscape.org/) -->

<svg
   width="105mm"
   height="148mm"
   viewBox="0 0 105 148"
   version="1.1"
   id="svg240"
   inkscape:version="1.2.2 (b0a8486541, 2022-12-01)"
   sodipodi:docname="diday-event-flyer-DINA6-light.svg"
   inkscape:export-filename="diday-nr5-2026-28-03-DINA6-dark.png"
   inkscape:export-xdpi="96"
   inkscape:export-ydpi="96"
   xmlns:inkscape="http://www.inkscape.org/namespaces/inkscape"
   xmlns:sodipodi="http://sodipodi.sourceforge.net/DTD/sodipodi-0.dtd"
   xmlns:xlink="http://www.w3.org/1999/xlink"
   xmlns="http://www.w3.org/2000/svg"
   xmlns:svg="http://www.w3.org/2000/svg">
  <sodipodi:namedview
     id="namedview242"
     pagecolor="#505050"
     bordercolor="#ffffff"
     borderopacity="1"
     inkscape:showpageshadow="0"
     inkscape:pageopacity="0"
     inkscape:pagecheckerboard="1"
     inkscape:deskcolor="#505050"
     inkscape:document-units="mm"
     showgrid="false"
     inkscape:zoom="1.44159"
     inkscape:cx="137.34834"
     inkscape:cy="282.67399"
     inkscape:window-width="1920"
     inkscape:window-height="1008"
     inkscape:window-x="0"
     inkscape:window-y="0"
     inkscape:window-maximized="1"
     inkscape:current-layer="layer1" />
  <defs
     id="defs237">
    <rect
       x="324.18628"
       y="276.80439"
       width="12.241708"
       height="16.176512"
       id="rect1965" />
    <linearGradient
       inkscape:collect="always"
       id="linearGradient1146">
      <stop
         style="stop-color:#ff0000;stop-opacity:1;"
         offset="0"
         id="stop1142" />
      <stop
         style="stop-color:#ffff00;stop-opacity:1;"
         offset="0.2"
         id="stop1144" />
      <stop
         style="stop-color:#00ff00;stop-opacity:1;"
         offset="0.40000001"
         id="stop4054" />
      <stop
         style="stop-color:#00ffff;stop-opacity:1;"
         offset="0.60000002"
         id="stop4056" />
      <stop
         style="stop-color:#0000ff;stop-opacity:1;"
         offset="0.80000001"
         id="stop4058" />
      <stop
         style="stop-color:#ff00ff;stop-opacity:1;"
         offset="1"
         id="stop4060" />
    </linearGradient>
    <linearGradient
       inkscape:collect="always"
       xlink:href="#linearGradient1146"
       id="linearGradient2058"
       gradientUnits="userSpaceOnUse"
       gradientTransform="matrix(1.2811549,0,0,1.2811549,-36.059572,-11.284521)"
       x1="48.797504"
       y1="138.62044"
       x2="118.7975"
       y2="138.62044" />
    <linearGradient
       inkscape:collect="always"
       xlink:href="#linearGradient1146"
       id="linearGradient2156"
       gradientUnits="userSpaceOnUse"
       gradientTransform="matrix(1.2811549,0,0,1.2811549,-36.059573,40.784997)"
       x1="48.797504"
       y1="138.62044"
       x2="118.7975"
       y2="138.62044" />
    <linearGradient
       inkscape:collect="always"
       xlink:href="#linearGradient1146"
       id="linearGradient1148"
       x1="48.797504"
       y1="138.62044"
       x2="118.7975"
       y2="138.62044"
       gradientUnits="userSpaceOnUse"
       gradientTransform="matrix(1.2811599,0,0,1.2811599,-54.857505,-134.03539)" />
  </defs>
  <g
     inkscape:label="Main"
     inkscape:groupmode="layer"
     id="layer1"
     transform="translate(-18.797504,-108.62044)">
    <rect
       style="display:inline;fill:#ffffff;fill-opacity:1;stroke-width:0.424307"
       id="rect351"
       width="105"
       height="148"
       x="-2.3167075e-07"
       y="-1.4847153e-06"
       inkscape:label="Single Color"
       transform="translate(18.797504,108.62044)" />
    <path
       style="color:#000000;fill:url(#linearGradient2058);stroke-width:0.648934;-inkscape-stroke:none"
       d="m 26.457007,166.01173 v 0.5957 H 116.138 v -0.5957 z"
       id="path393-0"
       inkscape:label="Rainbow Line" />
    <path
       style="color:#000000;fill:url(#linearGradient2156);stroke-width:0.648934;-inkscape-stroke:none"
       d="m 26.457007,218.0812 v 0.5957 H 116.138 v -0.5957 z"
       id="path393-0-6"
       inkscape:label="Rainbow Line" />
    <path
       id="path3412"
       style="font-weight:800;font-size:8.63701px;font-family:'Atkinson Hyperlegible Next';-inkscape-font-specification:'Atkinson Hyperlegible Next Ultra-Bold';text-align:center;text-anchor:middle;fill:#191919;stroke-width:0.948712;fill-opacity:1"
       d="M 70.096698 148.66606 C 69.638938 148.66606 69.276593 149.02892 69.276593 149.48668 C 69.276593 149.94444 69.638938 150.30678 70.096698 150.30678 C 70.55446 150.30678 70.91732 149.94444 70.91732 149.48668 C 70.91732 149.02892 70.55446 148.66606 70.096698 148.66606 z M 78.180959 148.66606 C 77.723198 148.66606 77.360854 149.02892 77.360854 149.48668 C 77.360854 149.94444 77.723198 150.30678 78.180959 150.30678 C 78.63872 150.30678 79.001581 149.94444 79.001581 149.48668 C 79.001581 149.02892 78.63872 148.66606 78.180959 148.66606 z M 88.131256 149.1668 L 88.131256 154.02955 C 88.131256 155.08327 88.519538 155.28167 89.616437 155.28167 L 90.540928 155.28167 L 90.540928 154.14169 L 90.134752 154.14169 C 89.65108 154.14169 89.564761 154.0555 89.564761 153.58049 L 89.564761 149.1668 L 88.131256 149.1668 z M 52.425426 149.51252 L 52.062657 152.46634 L 53.315294 152.94125 C 53.522582 152.56986 53.842334 152.3971 54.231 152.3971 C 54.74922 152.3971 55.197866 152.70821 55.197866 153.37326 C 55.197866 154.00376 54.791961 154.34065 54.204645 154.34065 C 53.84189 154.34065 53.435988 154.19335 53.271886 153.64922 L 52.054389 154.0988 C 52.443054 154.97114 53.315332 155.38554 54.282677 155.38554 C 55.560952 155.38554 56.66651 154.69472 56.66651 153.37326 C 56.66651 152.01726 55.656047 151.3522 54.619607 151.3522 C 54.230942 151.3522 53.75564 151.46456 53.487893 151.62867 L 53.608816 150.6525 L 56.390041 150.6525 L 56.390041 149.51252 L 52.425426 149.51252 z M 62.953982 149.51252 L 62.953982 155.28167 L 64.914586 155.28167 C 66.901096 155.28167 68.291641 154.53043 68.291641 152.3971 C 68.291641 150.28967 66.909733 149.51252 64.914586 149.51252 L 62.953982 149.51252 z M 80.21081 149.92696 L 80.21081 150.9977 L 79.502843 150.9977 L 79.502843 152.07774 L 80.21081 152.07774 L 80.21081 154.04661 C 80.21081 155.08305 80.599755 155.28167 81.705292 155.28167 L 82.568805 155.28167 L 82.568805 154.13291 L 82.206037 154.13291 C 81.782824 154.13291 81.636046 154.05534 81.636046 153.658 L 81.636046 152.07774 L 82.568805 152.07774 L 82.568805 150.9977 L 81.636046 150.9977 L 81.636046 149.92696 L 80.21081 149.92696 z M 64.422626 150.73001 L 64.949209 150.73001 C 65.994286 150.73001 66.780105 151.04109 66.780105 152.3971 C 66.780105 153.76174 65.994286 154.04661 64.949209 154.04661 L 64.422626 154.04661 L 64.422626 150.73001 z M 73.387454 150.85972 C 72.515116 150.85972 71.591181 151.52486 71.591181 153.03633 C 71.591181 154.33188 72.515488 155.10908 73.439647 155.10908 C 73.88877 155.10908 74.406972 154.91054 74.795636 154.45278 L 74.795636 155.20416 C 74.795636 155.81738 74.372096 155.99016 73.992068 155.99016 C 73.542944 155.99016 73.292658 155.81754 73.128555 155.57571 L 72.014411 156.08524 C 72.437624 156.83666 73.257996 157.05263 73.96623 157.05263 C 75.313602 157.05263 76.212087 156.45628 76.212087 154.91891 L 76.212087 150.9977 L 74.968236 150.9977 L 74.795636 151.56821 C 74.458794 151.10181 73.905673 150.85972 73.387454 150.85972 z M 85.280784 150.86851 C 84.270255 150.86851 83.570578 151.31737 83.285557 151.87878 L 84.494786 152.29323 C 84.581156 152.0082 84.875064 151.82711 85.20327 151.82711 C 85.643756 151.82711 85.911237 151.99101 85.911237 152.44877 L 85.911237 152.5697 C 84.140652 152.6647 83.043712 153.0882 83.043712 154.12464 C 83.043712 154.89333 83.674421 155.38554 84.564032 155.38554 C 85.134075 155.38554 85.634927 155.24717 85.94586 154.77214 L 86.092621 155.28167 L 87.431558 155.28167 C 87.345188 154.95346 87.284796 154.29707 87.284796 153.68384 L 87.284796 152.58727 C 87.284796 151.39537 86.541786 150.86851 85.280784 150.86851 z M 68.714871 150.9977 L 68.714871 152.06895 L 69.457978 152.06895 L 69.457978 155.28167 L 70.891482 155.28167 L 70.891482 150.9977 L 68.714871 150.9977 z M 76.799132 150.9977 L 76.799132 152.06895 L 77.542239 152.06895 L 77.542239 155.28167 L 78.975743 155.28167 L 78.975743 150.9977 L 76.799132 150.9977 z M 73.957961 151.95681 C 74.441634 151.95681 74.856098 152.2071 74.856098 153.00171 C 74.856098 153.78768 74.441634 154.01198 73.957961 154.01198 C 73.482927 154.01198 73.059308 153.67518 73.059308 152.9583 C 73.059308 152.25007 73.482927 151.95681 73.957961 151.95681 z M 85.911237 153.40789 L 85.911237 153.52002 C 85.911237 154.22826 85.574359 154.42695 85.064777 154.42695 C 84.762481 154.42695 84.538194 154.26283 84.538194 154.00372 C 84.538194 153.69279 84.874797 153.46835 85.911237 153.40789 z M 58.34186 153.58875 C 57.849551 153.58875 57.443724 153.98646 57.443724 154.48741 C 57.443724 154.97972 57.849551 155.38554 58.34186 155.38554 C 58.842806 155.38554 59.239997 154.97972 59.239997 154.48741 C 59.239997 153.98646 58.842806 153.58875 58.34186 153.58875 z M 44.703933 157.16218 L 44.703933 159.56307 C 44.418912 159.0794 43.840402 158.86337 43.41719 158.86337 C 42.29438 158.86337 41.517047 159.69298 41.517047 161.09217 C 41.517047 162.48273 42.285743 163.38092 43.41719 163.38092 C 43.840402 163.38092 44.358677 163.20794 44.747341 162.7329 L 44.911672 163.27705 L 46.27593 163.27705 C 46.155012 162.67246 46.129169 162.05068 46.129169 161.59292 L 46.129169 157.16218 L 44.703933 157.16218 z M 70.295653 157.16218 L 70.295653 159.56307 C 70.010632 159.0794 69.432122 158.86337 69.008909 158.86337 C 67.886099 158.86337 67.108767 159.69298 67.108767 161.09217 C 67.108767 162.48273 67.877462 163.38092 69.008909 163.38092 C 69.432122 163.38092 69.949879 163.20794 70.338544 162.7329 L 70.502875 163.27705 L 71.86765 163.27705 C 71.746732 162.67246 71.720889 162.05068 71.720889 161.59292 L 71.720889 157.16218 L 70.295653 157.16218 z M 32.819387 157.50738 L 32.819387 158.57863 L 33.614171 158.57863 L 33.614171 162.20632 L 32.819387 162.20632 L 32.819387 163.27705 L 35.877082 163.27705 L 35.877082 162.20632 L 35.082298 162.20632 L 35.082298 158.57863 L 35.877082 158.57863 L 35.877082 157.50738 L 32.819387 157.50738 z M 94.833173 157.50738 L 94.833173 163.27705 L 96.793777 163.27705 C 98.780287 163.27705 100.17083 162.52581 100.17083 160.39247 C 100.17083 158.28505 98.788924 157.50738 96.793777 157.50738 L 94.833173 157.50738 z M 96.301817 158.72539 L 96.8284 158.72539 C 97.873477 158.72539 98.659296 159.03647 98.659296 160.39247 C 98.659296 161.75712 97.873477 162.04199 96.8284 162.04199 L 96.301817 162.04199 L 96.301817 158.72539 z M 39.409683 158.86337 C 38.761907 158.86337 38.269694 159.25235 38.088316 159.54601 L 37.93277 158.99308 L 36.66308 158.99308 L 36.66308 163.27705 L 38.088316 163.27705 L 38.088316 161.10044 C 38.088316 160.34902 38.30405 159.95167 38.830907 159.95167 C 39.25412 159.95167 39.444306 160.22817 39.444306 160.83276 L 39.444306 163.27705 L 40.869542 163.27705 L 40.869542 160.53923 C 40.869542 159.45098 40.45476 158.86337 39.409683 158.86337 z M 49.13467 158.86337 C 47.865032 158.86337 46.80303 159.73579 46.80303 161.10044 C 46.80303 162.55146 47.795938 163.38092 49.195132 163.38092 C 49.877455 163.38092 50.629025 163.08707 51.104059 162.40475 L 49.989915 161.99031 C 49.834449 162.17169 49.540906 162.29262 49.15224 162.29262 C 48.69448 162.29262 48.314412 162.03347 48.184858 161.50662 L 51.363475 161.50662 C 51.484393 159.92604 50.551139 158.86337 49.13467 158.86337 z M 54.688337 158.86337 C 54.273761 158.86337 53.686614 159.08803 53.401593 159.56307 L 53.237262 158.99308 L 51.976357 158.99308 L 51.976357 164.67645 L 53.401593 164.67645 L 53.401593 162.67244 C 53.686614 163.14748 54.273761 163.38092 54.688337 163.38092 C 55.819783 163.38092 56.588479 162.54289 56.588479 161.13506 C 56.588479 159.74451 55.819783 158.86337 54.688337 158.86337 z M 59.413113 158.86337 C 58.143473 158.86337 57.080955 159.73579 57.080955 161.10044 C 57.080955 162.55146 58.07438 163.38092 59.473574 163.38092 C 60.155897 163.38092 60.90695 163.08707 61.381985 162.40475 L 60.267841 161.99031 C 60.112375 162.17169 59.818831 162.29262 59.430166 162.29262 C 58.972404 162.29262 58.592338 162.03347 58.462783 161.50662 L 61.6414 161.50662 C 61.762318 159.92604 60.82958 158.86337 59.413113 158.86337 z M 65.000885 158.86337 C 64.35311 158.86337 63.860897 159.25235 63.679519 159.54601 L 63.523973 158.99308 L 62.2548 158.99308 L 62.2548 163.27705 L 63.679519 163.27705 L 63.679519 161.10044 C 63.679519 160.34902 63.89577 159.95167 64.422626 159.95167 C 64.84584 159.95167 65.035509 160.22817 65.035509 160.83276 L 65.035509 163.27705 L 66.460745 163.27705 L 66.460745 160.53923 C 66.460745 159.45098 66.045962 158.86337 65.000885 158.86337 z M 74.72639 158.86337 C 73.45675 158.86337 72.394233 159.73579 72.394233 161.10044 C 72.394233 162.55146 73.387657 163.38092 74.786851 163.38092 C 75.469175 163.38092 76.220743 163.08707 76.695779 162.40475 L 75.581635 161.99031 C 75.426169 162.17169 75.132108 162.29262 74.743443 162.29262 C 74.285682 162.29262 73.905615 162.03347 73.77606 161.50662 L 76.954678 161.50662 C 77.075596 159.92604 76.142857 158.86337 74.72639 158.86337 z M 80.314679 158.86337 C 79.666904 158.86337 79.174691 159.25235 78.993313 159.54601 L 78.837767 158.99308 L 77.568077 158.99308 L 77.568077 163.27705 L 78.993313 163.27705 L 78.993313 161.10044 C 78.993313 160.34902 79.209047 159.95167 79.735903 159.95167 C 80.159117 159.95167 80.349303 160.22817 80.349303 160.83276 L 80.349303 163.27705 L 81.774022 163.27705 L 81.774022 160.53923 C 81.774022 159.45098 81.359756 158.86337 80.314679 158.86337 z M 84.633279 158.86337 C 83.320454 158.86337 82.422044 159.74443 82.422044 161.10044 C 82.422044 162.46509 83.199315 163.38092 84.650332 163.38092 C 85.315381 163.38092 86.144389 163.14776 86.602151 162.32724 L 85.462169 161.91228 C 85.31534 162.15411 85.082111 162.29262 84.736632 162.29262 C 84.304781 162.29262 83.864333 162.01611 83.864333 161.10923 C 83.864333 160.2369 84.296144 159.95167 84.736632 159.95167 C 85.038926 159.95167 85.323829 160.07275 85.453384 160.44415 L 86.627989 160.01214 C 86.204776 159.10526 85.358787 158.86337 84.633279 158.86337 z M 89.115692 158.86337 C 87.846054 158.86337 86.783535 159.73579 86.783535 161.10044 C 86.783535 162.55146 87.77696 163.38092 89.176154 163.38092 C 89.858477 163.38092 90.610047 163.08707 91.085081 162.40475 L 89.970937 161.99031 C 89.815472 162.17169 89.521411 162.29262 89.132746 162.29262 C 88.674985 162.29262 88.294918 162.03347 88.165363 161.50662 L 91.34398 161.50662 C 91.464898 159.92604 90.532161 158.86337 89.115692 158.86337 z M 102.82235 158.86337 C 101.81182 158.86337 101.11266 159.31276 100.82764 159.87416 L 102.03687 160.2886 C 102.12327 160.00358 102.41664 159.82248 102.74483 159.82248 C 103.18532 159.82248 103.45332 159.98638 103.45332 160.44415 L 103.45332 160.56507 C 101.68273 160.66007 100.58579 161.08305 100.58579 162.1195 C 100.58579 162.88819 101.21599 163.38092 102.1056 163.38092 C 102.67565 163.38092 103.1765 163.24256 103.48743 162.76752 L 103.6347 163.27705 L 104.97312 163.27705 C 104.88672 162.94885 104.82636 162.29245 104.82636 161.67922 L 104.82636 160.58213 C 104.82636 159.39022 104.08336 158.86337 102.82235 158.86337 z M 105.15451 158.99308 L 106.8128 163.24243 L 106.76991 163.3463 C 106.67491 163.5795 106.50213 163.63982 105.98391 163.63982 L 105.62114 163.63982 L 105.62114 164.67645 L 106.21697 164.67645 C 107.37433 164.67645 107.67648 164.37417 108.10833 163.26 L 109.77541 158.99308 L 108.24682 158.99308 L 107.46909 161.54951 L 106.67483 158.99308 L 105.15451 158.99308 z M 49.178079 159.90878 C 49.644477 159.90878 50.016125 160.14172 50.067947 160.67721 L 48.176073 160.67721 C 48.29699 160.12445 48.703044 159.90878 49.178079 159.90878 z M 59.456004 159.90878 C 59.922402 159.90878 60.29405 160.14172 60.345872 160.67721 L 58.454515 160.67721 C 58.575433 160.12445 58.980969 159.90878 59.456004 159.90878 z M 74.769798 159.90878 C 75.236196 159.90878 75.607328 160.14172 75.65915 160.67721 L 73.767792 160.67721 C 73.88871 160.12445 74.294763 159.90878 74.769798 159.90878 z M 89.158584 159.90878 C 89.624982 159.90878 89.99663 160.14172 90.048452 160.67721 L 88.157095 160.67721 C 88.278013 160.12445 88.683549 159.90878 89.158584 159.90878 z M 43.883828 159.95167 C 44.350226 159.95167 44.773179 160.27159 44.773179 161.11801 C 44.773179 161.99035 44.350226 162.28383 43.883828 162.28383 C 43.400156 162.28383 42.985175 161.84359 42.985175 161.09217 C 42.985175 160.34075 43.400156 159.95167 43.883828 159.95167 z M 54.231 159.95167 C 54.706035 159.95167 55.120351 160.39227 55.120351 161.13506 C 55.120351 161.89511 54.706035 162.28383 54.231 162.28383 C 53.755965 162.28383 53.332347 161.9555 53.332347 161.10044 C 53.332347 160.24537 53.755965 159.95167 54.231 159.95167 z M 69.475031 159.95167 C 69.941429 159.95167 70.364899 160.27159 70.364899 161.11801 C 70.364899 161.99035 69.941429 162.28383 69.475031 162.28383 C 68.991359 162.28383 68.576894 161.84359 68.576894 161.09217 C 68.576894 160.34075 68.991359 159.95167 69.475031 159.95167 z M 103.45332 161.40275 L 103.45332 161.51489 C 103.45332 162.22313 103.11644 162.42181 102.60686 162.42181 C 102.30456 162.42181 102.07976 162.25769 102.07976 161.99858 C 102.07976 161.68764 102.41688 161.46321 103.45332 161.40275 z M 61.511693 169.45135 C 60.685376 169.45135 60.311249 169.64775 60.311249 170.36706 L 60.311249 170.77117 L 59.823424 170.77117 L 59.823424 171.51428 L 60.311249 171.51428 L 60.311249 173.71983 L 61.292068 173.71983 L 61.292068 171.51428 L 61.94009 171.51428 L 61.94009 170.77117 L 61.292068 170.77117 L 61.292068 170.46783 C 61.292068 170.25382 61.368956 170.21823 61.701862 170.21823 L 61.94009 170.21823 L 61.94009 169.45135 L 61.511693 169.45135 z M 63.913613 169.45135 C 63.087296 169.45135 62.712653 169.64775 62.712653 170.36706 L 62.712653 170.77117 L 62.225344 170.77117 L 62.225344 171.51428 L 62.712653 171.51428 L 62.712653 173.71983 L 63.693472 173.71983 L 63.693472 171.51428 L 64.341494 171.51428 L 64.341494 170.77117 L 63.693472 170.77117 L 63.693472 170.46783 C 63.693472 170.25382 63.770877 170.21823 64.103782 170.21823 L 64.341494 170.21823 L 64.341494 169.45135 L 63.913613 169.45135 z M 46.436127 169.51078 L 46.436127 171.16339 C 46.239951 170.83049 45.841684 170.68177 45.550393 170.68177 C 44.777579 170.68177 44.242462 171.25248 44.242462 172.21552 C 44.242462 173.17262 44.771634 173.79114 45.550393 173.79114 C 45.841684 173.79114 46.19807 173.67213 46.465583 173.34517 L 46.578754 173.71983 L 47.517715 173.71983 C 47.434485 173.30369 47.416946 172.87579 47.416946 172.56072 L 47.416946 169.51078 L 46.436127 169.51078 z M 91.164146 169.51078 L 91.164146 173.71983 L 92.144965 173.71983 L 92.144965 173.02426 L 92.448306 172.70335 L 93.173326 173.71983 L 94.332428 173.71983 L 93.096328 172.01347 L 94.25543 170.77117 L 93.096328 170.77117 L 92.144965 171.84707 L 92.144965 169.51078 L 91.164146 169.51078 z M 31.859756 169.74849 L 31.859756 170.64043 L 33.125828 170.64043 L 33.125828 173.71983 L 34.136103 173.71983 L 34.136103 170.64043 L 35.402692 170.64043 L 35.402692 169.74849 L 31.859756 169.74849 z M 80.439736 169.74849 L 80.439736 173.71983 L 81.450527 173.71983 L 81.450527 172.12664 L 83.001854 172.12664 L 83.001854 173.71983 L 84.012645 173.71983 L 84.012645 169.74849 L 83.001854 169.74849 L 83.001854 171.23471 L 81.450527 171.23471 L 81.450527 169.74849 L 80.439736 169.74849 z M 39.89079 170.67608 C 39.290373 170.67608 38.654173 171.13385 38.654173 172.17418 C 38.654173 173.06589 39.290362 173.60097 39.926447 173.60097 C 40.235573 173.60097 40.592211 173.46387 40.859723 173.1488 L 40.859723 173.66608 C 40.859723 174.08816 40.568353 174.20713 40.306785 174.20713 C 39.99766 174.20713 39.825456 174.08833 39.712506 173.92188 L 38.945628 174.27276 C 39.23692 174.78995 39.801748 174.93836 40.289215 174.93836 C 41.216592 174.93836 41.834858 174.52839 41.834858 173.47023 L 41.834858 170.77117 L 40.978579 170.77117 L 40.859723 171.16339 C 40.627878 170.84238 40.247474 170.67608 39.89079 170.67608 z M 36.811392 170.68177 C 36.115859 170.68177 35.634525 170.99093 35.438349 171.37733 L 36.270339 171.66259 C 36.329789 171.46641 36.532266 171.34168 36.758165 171.34168 C 37.061347 171.34168 37.245474 171.455 37.245474 171.77007 L 37.245474 171.85327 C 36.026806 171.91867 35.271951 172.20961 35.271951 172.92297 C 35.271951 173.45205 35.705575 173.79114 36.317882 173.79114 C 36.710234 173.79114 37.055235 173.69591 37.269245 173.36894 L 37.370014 173.71983 L 38.291921 173.71983 C 38.232471 173.49393 38.190636 173.04223 38.190636 172.62015 L 38.190636 171.86516 C 38.190636 171.04479 37.679321 170.68177 36.811392 170.68177 z M 49.485553 170.68177 C 48.611679 170.68177 47.880483 171.28247 47.880483 172.22173 C 47.880483 173.22044 48.564366 173.79114 49.527411 173.79114 C 49.997045 173.79114 50.514066 173.58897 50.841026 173.11935 L 50.074148 172.83409 C 49.967142 172.95893 49.764952 173.04183 49.497439 173.04183 C 49.182368 173.04183 48.921017 172.8634 48.831846 172.50078 L 51.01931 172.50078 C 51.10254 171.41289 50.460488 170.68177 49.485553 170.68177 z M 52.725666 170.68177 C 51.940962 170.68177 51.328335 171.05649 51.328335 171.6569 C 51.328335 172.12654 51.714681 172.424 52.309154 172.52507 L 52.844521 172.62015 C 53.177426 172.67365 53.254832 172.75681 53.254832 172.84598 C 53.254832 173.01838 52.998858 173.10126 52.743236 173.10126 C 52.392497 173.10126 52.107122 172.97085 52.035785 172.73901 L 51.21568 173.04183 C 51.435635 173.51741 51.994205 173.79682 52.73135 173.79682 C 53.539832 173.79682 54.188109 173.46399 54.188109 172.78035 C 54.188109 172.28099 53.902582 172.04348 53.153546 171.9127 L 52.588723 171.81141 C 52.333099 171.76981 52.261611 171.71017 52.261611 171.60316 C 52.261611 171.47238 52.392765 171.37165 52.71378 171.37165 C 53.005072 171.37165 53.195378 171.47261 53.278603 171.68067 L 54.098708 171.37733 C 53.86092 170.86609 53.308249 170.68177 52.725666 170.68177 z M 57.980642 170.68177 C 57.148381 170.68177 56.393659 171.1633 56.393659 172.22741 C 56.393659 173.29152 57.148381 173.79114 57.980642 173.79114 C 58.812904 173.79114 59.568142 173.29152 59.568142 172.22741 C 59.568142 171.1633 58.812904 170.68177 57.980642 170.68177 z M 66.124848 170.68177 C 65.250974 170.68177 64.519778 171.28247 64.519778 172.22173 C 64.519778 173.22044 65.203661 173.79114 66.166706 173.79114 C 66.636339 173.79114 67.15336 173.58897 67.480321 173.11935 L 66.713442 172.83409 C 66.606437 172.95893 66.404245 173.04183 66.136733 173.04183 C 65.821663 173.04183 65.560312 172.8634 65.471141 172.50078 L 67.658604 172.50078 C 67.741834 171.41289 67.099783 170.68177 66.124848 170.68177 z M 69.971125 170.68177 C 69.52527 170.68177 69.186458 170.94939 69.061619 171.15151 L 68.954649 170.77117 L 68.080801 170.77117 L 68.080801 173.71983 L 69.061619 173.71983 L 69.061619 172.22173 C 69.061619 171.70454 69.210071 171.43108 69.572699 171.43108 C 69.863991 171.43108 69.994896 171.62111 69.994896 172.03724 L 69.994896 173.71983 L 70.975714 173.71983 L 70.975714 171.83519 C 70.975714 171.08615 70.690436 170.68177 69.971125 170.68177 z M 73.026752 170.68177 C 72.152878 170.68177 71.421682 171.28247 71.421682 172.22173 C 71.421682 173.22044 72.105565 173.79114 73.06861 173.79114 C 73.538243 173.79114 74.055265 173.58897 74.382225 173.11935 L 73.615347 172.83409 C 73.508342 172.95893 73.306149 173.04183 73.038638 173.04183 C 72.723567 173.04183 72.462216 172.8634 72.373045 172.50078 L 74.560509 172.50078 C 74.643738 171.41289 74.001687 170.68177 73.026752 170.68177 z M 76.873029 170.68177 C 76.427174 170.68177 76.088363 170.94939 75.963524 171.15151 L 75.856553 170.77117 L 74.982705 170.77117 L 74.982705 173.71983 L 75.963524 173.71983 L 75.963524 172.22173 C 75.963524 171.70454 76.111975 171.43108 76.474604 171.43108 C 76.765894 171.43108 76.8968 171.62111 76.8968 172.03724 L 76.8968 173.71983 L 77.877619 173.71983 L 77.877619 171.83519 C 77.877619 171.08615 77.59234 170.68177 76.873029 170.68177 z M 85.992369 170.68177 C 85.296836 170.68177 84.814985 170.99093 84.618809 171.37733 L 85.451317 171.66259 C 85.510767 171.46641 85.712727 171.34168 85.938625 171.34168 C 86.241807 171.34168 86.425934 171.455 86.425934 171.77007 L 86.425934 171.85327 C 85.207266 171.91867 84.452411 172.20961 84.452411 172.92297 C 84.452411 173.45205 84.886553 173.79114 85.498859 173.79114 C 85.891211 173.79114 86.235696 173.69591 86.449705 173.36894 L 86.550991 173.71983 L 87.472382 173.71983 C 87.412932 173.49393 87.371613 173.04223 87.371613 172.62015 L 87.371613 171.86516 C 87.371613 171.04479 86.860298 170.68177 85.992369 170.68177 z M 89.321365 170.68177 C 88.417767 170.68177 87.799494 171.28841 87.799494 172.22173 C 87.799494 173.16099 88.334536 173.79114 89.33325 173.79114 C 89.790994 173.79114 90.361767 173.63035 90.676837 173.0656 L 89.891872 172.78035 C 89.790813 172.9468 89.630467 173.04183 89.392678 173.04183 C 89.095442 173.04183 88.792198 172.85161 88.792198 172.22741 C 88.792198 171.62699 89.089497 171.43108 89.392678 171.43108 C 89.600744 171.43108 89.797017 171.51443 89.886188 171.77007 L 90.694407 171.47242 C 90.403116 170.84822 89.820722 170.68177 89.321365 170.68177 z M 95.937498 170.68177 C 95.152795 170.68177 94.540684 171.05649 94.540684 171.6569 C 94.540684 172.12654 94.927031 172.424 95.521503 172.52507 L 96.056871 172.62015 C 96.389776 172.67365 96.466665 172.75681 96.466665 172.84598 C 96.466665 173.01838 96.211209 173.10126 95.955585 173.10126 C 95.604846 173.10126 95.319471 172.97085 95.248135 172.73901 L 94.42803 173.04183 C 94.647984 173.51741 95.206553 173.79682 95.943699 173.79682 C 96.752182 173.79682 97.399941 173.46399 97.399941 172.78035 C 97.399941 172.28099 97.114931 172.04348 96.365896 171.9127 L 95.801073 171.81141 C 95.54545 171.76981 95.473961 171.71017 95.473961 171.60316 C 95.473961 171.47238 95.604597 171.37165 95.925613 171.37165 C 96.216903 171.37165 96.40721 171.47261 96.490436 171.68067 L 97.311058 171.37733 C 97.073269 170.86609 96.520082 170.68177 95.937498 170.68177 z M 99.647349 170.68177 C 99.362003 170.68177 98.957791 170.83643 98.761615 171.16339 L 98.648444 170.77117 L 97.780797 170.77117 L 97.780797 174.68256 L 98.761615 174.68256 L 98.761615 173.30331 C 98.957791 173.63028 99.362003 173.79114 99.647349 173.79114 C 100.42611 173.79114 100.95528 173.21449 100.95528 172.2455 C 100.95528 171.2884 100.42611 170.68177 99.647349 170.68177 z M 102.77997 170.68177 C 102.08445 170.68177 101.6031 170.99093 101.40693 171.37733 L 102.23892 171.66259 C 102.29832 171.46641 102.50085 171.34168 102.72675 171.34168 C 103.02993 171.34168 103.21406 171.455 103.21406 171.77007 L 103.21406 171.85327 C 101.99539 171.91867 101.24053 172.20961 101.24053 172.92297 C 101.24053 173.45205 101.67467 173.79114 102.28698 173.79114 C 102.67933 173.79114 103.02382 173.69591 103.23783 173.36894 L 103.33911 173.71983 L 104.2605 173.71983 C 104.2011 173.49393 104.15922 173.04223 104.15922 172.62015 L 104.15922 171.86516 C 104.15922 171.04479 103.6479 170.68177 102.77997 170.68177 z M 106.10897 170.68177 C 105.20537 170.68177 104.5871 171.28841 104.5871 172.22173 C 104.5871 173.16099 105.12214 173.79114 106.12086 173.79114 C 106.5786 173.79114 107.14937 173.63035 107.46444 173.0656 L 106.68 172.78035 C 106.57894 172.9468 106.41807 173.04183 106.18028 173.04183 C 105.88305 173.04183 105.58032 172.85161 105.58032 172.22741 C 105.58032 171.62699 105.8771 171.43108 106.18028 171.43108 C 106.38835 171.43108 106.58462 171.51443 106.67379 171.77007 L 107.48253 171.47242 C 107.19124 170.84822 106.60833 170.68177 106.10897 170.68177 z M 109.19457 170.68177 C 108.3207 170.68177 107.5895 171.28247 107.5895 172.22173 C 107.5895 173.22044 108.27286 173.79114 109.23591 173.79114 C 109.70554 173.79114 110.22308 173.58897 110.55004 173.11935 L 109.78316 172.83409 C 109.67616 172.95893 109.47397 173.04183 109.20646 173.04183 C 108.89139 173.04183 108.62952 172.8634 108.54035 172.50078 L 110.72833 172.50078 C 110.81153 171.41289 110.16951 170.68177 109.19457 170.68177 z M 49.515526 171.4011 C 49.83654 171.4011 50.092223 171.5617 50.127891 171.93027 L 48.825645 171.93027 C 48.908875 171.54981 49.188566 171.4011 49.515526 171.4011 z M 66.15482 171.4011 C 66.475835 171.4011 66.731518 171.5617 66.767186 171.93027 L 65.46494 171.93027 C 65.54817 171.54981 65.82786 171.4011 66.15482 171.4011 z M 73.056724 171.4011 C 73.377739 171.4011 73.632905 171.5617 73.668573 171.93027 L 72.366844 171.93027 C 72.450074 171.54981 72.729765 171.4011 73.056724 171.4011 z M 109.22403 171.4011 C 109.54504 171.4011 109.80072 171.5617 109.83639 171.93027 L 108.53466 171.93027 C 108.61786 171.54981 108.89707 171.4011 109.22403 171.4011 z M 40.283014 171.43108 C 40.615919 171.43108 40.901581 171.60349 40.901581 172.15041 C 40.901581 172.69138 40.615919 172.84598 40.283014 172.84598 C 39.956055 172.84598 39.664964 172.61386 39.664964 172.12044 C 39.664964 171.63298 39.956055 171.43108 40.283014 171.43108 z M 45.871304 171.43108 C 46.192318 171.43108 46.483669 171.65103 46.483669 172.23361 C 46.483669 172.83403 46.192318 173.03615 45.871304 173.03615 C 45.538399 173.03615 45.252737 172.73271 45.252737 172.21552 C 45.252737 171.69834 45.538399 171.43108 45.871304 171.43108 z M 57.980642 171.43108 C 58.319492 171.43108 58.569237 171.68644 58.569237 172.22741 C 58.569237 172.76838 58.331381 173.04183 57.980642 173.04183 C 57.629903 173.04183 57.392047 172.76838 57.392047 172.22741 C 57.392047 171.68644 57.641793 171.43108 57.980642 171.43108 z M 99.332123 171.43108 C 99.659083 171.43108 99.944489 171.73426 99.944489 172.2455 C 99.944489 172.76864 99.659083 173.03615 99.332123 173.03615 C 99.005163 173.03615 98.714073 172.81026 98.714073 172.22173 C 98.714073 171.63321 99.005163 171.43108 99.332123 171.43108 z M 37.245474 172.42947 L 37.245474 172.50698 C 37.245474 172.99445 37.013819 173.13123 36.66308 173.13123 C 36.455014 173.13123 36.300312 173.01812 36.300312 172.83978 C 36.300312 172.62577 36.532107 172.47108 37.245474 172.42947 z M 86.425934 172.42947 L 86.425934 172.50698 C 86.425934 172.99445 86.194279 173.13123 85.843541 173.13123 C 85.635475 173.13123 85.480772 173.01812 85.480772 172.83978 C 85.480772 172.62577 85.712568 172.47108 86.425934 172.42947 z M 103.21406 172.42947 L 103.21406 172.50698 C 103.21406 172.99445 102.9824 173.13123 102.63166 173.13123 C 102.4236 173.13123 102.26889 173.01812 102.26889 172.83978 C 102.26889 172.62577 102.50069 172.47108 103.21406 172.42947 z M 34.753119 179.7546 C 34.130325 179.7546 33.62154 179.84946 33.226597 180.03934 C 32.839249 180.22922 32.550894 180.47606 32.361017 180.77986 C 32.178736 181.08367 32.087132 181.41027 32.087132 181.75964 C 32.087132 182.17737 32.178736 182.5153 32.361017 182.77354 C 32.543299 183.03177 32.785853 183.23659 33.089655 183.38849 C 33.393457 183.53279 33.723841 183.65081 34.080809 183.74195 C 34.445372 183.83309 34.806462 183.92418 35.16343 184.01532 C 35.520398 184.09887 35.850782 184.20882 36.154584 184.34553 C 36.458386 184.47465 36.701457 184.65682 36.883739 184.89227 C 37.06602 185.12012 37.157107 185.42409 37.157107 185.80384 C 37.157107 186.13043 37.06602 186.43062 36.883739 186.70405 C 36.709053 186.96987 36.435275 187.18224 36.063117 187.34173 C 35.698554 187.50123 35.228024 187.581 34.6508 187.581 C 34.09636 187.581 33.580029 187.47859 33.10154 187.27352 C 32.630647 187.06845 32.269556 186.81784 32.018919 186.52163 L 31.859239 186.66994 C 32.125066 186.99653 32.512573 187.26602 33.021442 187.47868 C 33.537906 187.69134 34.084945 187.79752 34.662169 187.79752 C 35.292559 187.79752 35.80889 187.70644 36.211428 187.52415 C 36.613966 187.33428 36.910386 187.08743 37.100263 186.78363 C 37.290139 186.47983 37.385 186.15322 37.385 185.80384 C 37.385 185.39371 37.293913 185.06333 37.111632 184.81269 C 36.92935 184.56206 36.68628 184.36478 36.382477 184.22048 C 36.078675 184.06858 35.748291 183.94678 35.391323 183.85564 C 35.034356 183.7569 34.673265 183.66582 34.308702 183.58227 C 33.951734 183.49113 33.62135 183.38117 33.317548 183.25206 C 33.013746 183.11535 32.770675 182.93318 32.588393 182.70532 C 32.406112 182.46988 32.315025 182.15836 32.315025 181.77101 C 32.315025 181.43683 32.402338 181.13664 32.577025 180.87081 C 32.75171 180.59739 33.021715 180.38125 33.386278 180.22175 C 33.750841 180.05466 34.210049 179.97061 34.764488 179.97061 C 35.121456 179.97061 35.493867 180.02773 35.881216 180.14166 C 36.268563 180.25558 36.62159 180.43021 36.940583 180.66565 L 37.066156 180.48375 C 36.777544 180.26349 36.424001 180.08835 36.006273 179.95924 C 35.59614 179.82252 35.178443 179.7546 34.753119 179.7546 z M 63.428372 180.58607 L 63.428372 181.87333 L 62.288906 181.87333 L 62.288906 182.08986 L 63.428372 182.08986 L 63.428372 186.35058 C 63.428372 186.7835 63.549649 187.13275 63.79269 187.39858 C 64.035732 187.66441 64.389275 187.79752 64.852574 187.79752 C 65.065236 187.79752 65.273826 187.76356 65.478892 187.6952 C 65.691554 187.62685 65.86618 187.52015 66.002891 187.37584 L 65.843728 187.21668 C 65.585496 187.45972 65.258886 187.581 64.863943 187.581 C 64.468999 187.581 64.168806 187.47104 63.963739 187.25078 C 63.758673 187.03052 63.656265 186.71146 63.656265 186.29374 L 63.656265 182.08986 L 65.649941 182.08986 L 65.649941 181.87333 L 63.656265 181.87333 L 63.656265 180.58607 L 63.428372 180.58607 z M 41.235411 181.83923 C 40.794897 181.83923 40.373427 181.919 39.970889 182.07849 C 39.56835 182.23798 39.226645 182.45086 38.945628 182.71669 L 39.105308 182.87586 C 39.363541 182.63282 39.675055 182.43554 40.039618 182.28364 C 40.404181 182.13174 40.806266 182.05575 41.24678 182.05575 C 41.854384 182.05575 42.317883 182.21151 42.636876 182.52291 C 42.955869 182.83431 43.1154 183.29729 43.1154 183.91249 L 43.1154 184.56206 L 40.882461 184.56206 C 40.358402 184.56206 39.944479 184.63805 39.640676 184.78995 C 39.336874 184.93426 39.116446 185.12775 38.979735 185.37079 C 38.850619 185.60624 38.785948 185.8644 38.785948 186.14542 C 38.785948 186.6391 38.968639 187.03793 39.333201 187.34173 C 39.697764 187.64554 40.210322 187.79752 40.871092 187.79752 C 41.425531 187.79752 41.88903 187.68002 42.261188 187.44457 C 42.640941 187.20912 42.925523 186.89761 43.1154 186.51026 L 43.1154 187.76341 L 43.343293 187.76341 L 43.343293 183.90112 C 43.343293 183.22515 43.161119 182.7126 42.796556 182.36323 C 42.439588 182.01386 41.918966 181.83923 41.235411 181.83923 z M 48.526955 181.83923 C 47.926946 181.83923 47.418162 181.98367 47.000434 182.27228 C 46.5903 182.56089 46.297654 182.94788 46.122968 183.43396 L 46.122968 181.87333 L 45.895075 181.87333 L 45.895075 187.76341 L 46.122968 187.76341 L 46.122968 184.56206 C 46.122968 184.06078 46.217829 183.62421 46.407705 183.25206 C 46.605177 182.87231 46.882728 182.57966 47.239696 182.37459 C 47.604259 182.16193 48.03705 182.05575 48.538324 182.05575 C 49.183904 182.05575 49.685141 182.24547 50.042108 182.62523 C 50.406671 183.00498 50.588845 183.55956 50.588845 184.28869 L 50.588845 187.76341 L 50.816738 187.76341 L 50.816738 184.56206 C 50.816738 184.06078 50.911599 183.62421 51.101475 183.25206 C 51.298946 182.87231 51.576498 182.57966 51.933466 182.37459 C 52.298029 182.16193 52.73082 182.05575 53.232095 182.05575 C 53.877675 182.05575 54.378911 182.24547 54.735879 182.62523 C 55.100442 183.00498 55.282615 183.55956 55.282615 184.28869 L 55.282615 187.76341 L 55.510509 187.76341 L 55.510509 184.28869 C 55.510509 183.49121 55.305693 182.88379 54.895559 182.46606 C 54.485426 182.04834 53.927066 181.83923 53.220726 181.83923 C 52.582741 181.83923 52.050798 182.00253 51.625474 182.32912 C 51.200151 182.64811 50.911795 183.06958 50.759894 183.59364 C 50.645968 183.01642 50.391577 182.57985 49.996633 182.28364 C 49.609286 181.98744 49.11937 181.83923 48.526955 181.83923 z M 59.429649 181.83923 C 58.943566 181.83923 58.544737 181.91145 58.23334 182.05575 C 57.929537 182.20006 57.705335 182.386 57.561029 182.61386 C 57.416723 182.84171 57.344505 183.08855 57.344505 183.35438 C 57.344505 183.68097 57.416723 183.94291 57.561029 184.14038 C 57.705335 184.33026 57.895573 184.48224 58.13102 184.59616 C 58.374062 184.70252 58.639775 184.78606 58.928388 184.84679 C 59.217 184.90759 59.505356 184.96471 59.793968 185.01784 C 60.08258 185.07101 60.345036 185.14323 60.580483 185.23437 C 60.823525 185.31791 61.017021 185.44296 61.161326 185.61006 C 61.305633 185.76955 61.377851 185.98998 61.377851 186.271 C 61.377851 186.65834 61.225867 186.97364 60.922065 187.21668 C 60.618262 187.45972 60.117026 187.581 59.41828 187.581 C 58.947386 187.581 58.522142 187.50501 58.142389 187.3531 C 57.762636 187.19361 57.466216 187.01143 57.253555 186.80637 L 57.117129 186.98878 C 57.337386 187.22423 57.655931 187.41773 58.07366 187.56963 C 58.491388 187.72153 58.939792 187.79752 59.41828 187.79752 C 60.155001 187.79752 60.701523 187.65308 61.05849 187.36447 C 61.423053 187.07586 61.605744 186.71151 61.605744 186.271 C 61.605744 185.952 61.533526 185.70139 61.389219 185.51911 C 61.244914 185.32923 61.050901 185.18102 60.80786 185.07469 C 60.572413 184.96833 60.310473 184.88479 60.021861 184.82406 C 59.740844 184.76326 59.456262 184.70614 59.16765 184.65301 C 58.879038 184.59984 58.613325 184.52814 58.370282 184.437 C 58.134836 184.34586 57.944598 184.21652 57.800291 184.04943 C 57.655985 183.87474 57.583767 183.64299 57.583767 183.35438 C 57.583767 182.98982 57.728203 182.68208 58.016816 182.43144 C 58.313023 182.1808 58.784069 182.05575 59.429649 182.05575 C 59.763832 182.05575 60.090442 182.10532 60.409434 182.20406 C 60.728427 182.2952 61.005461 182.43535 61.240908 182.62523 L 61.377851 182.44281 C 61.157594 182.26053 60.868721 182.11661 60.511754 182.01028 C 60.154786 181.89636 59.794212 181.83923 59.429649 181.83923 z M 69.409402 181.83923 C 68.968889 181.83923 68.547418 181.919 68.144879 182.07849 C 67.742341 182.23798 67.400636 182.45086 67.119619 182.71669 L 67.279299 182.87586 C 67.537532 182.63282 67.84853 182.43554 68.213092 182.28364 C 68.577655 182.13174 68.980257 182.05575 69.420771 182.05575 C 70.028375 182.05575 70.491874 182.21151 70.810867 182.52291 C 71.129859 182.83431 71.28939 183.29729 71.28939 183.91249 L 71.28939 184.56206 L 69.056452 184.56206 C 68.532392 184.56206 68.118469 184.63805 67.814667 184.78995 C 67.510865 184.93426 67.290436 185.12775 67.153726 185.37079 C 67.024609 185.60624 66.959939 185.8644 66.959939 186.14542 C 66.959939 186.6391 67.142113 187.03793 67.506676 187.34173 C 67.871239 187.64554 68.384313 187.79752 69.045083 187.79752 C 69.599522 187.79752 70.062505 187.68002 70.434662 187.44457 C 70.814415 187.20912 71.099514 186.89761 71.28939 186.51026 L 71.28939 187.76341 L 71.517283 187.76341 L 71.517283 183.90112 C 71.517283 183.22515 71.334592 182.7126 70.97003 182.36323 C 70.613062 182.01386 70.092957 181.83923 69.409402 181.83923 z M 76.267898 181.83923 C 75.721054 181.83923 75.227365 181.96102 74.786851 182.20406 C 74.353933 182.4471 74.008455 182.78503 73.750222 183.21795 C 73.499586 183.64328 73.374018 184.13697 73.374018 184.699 C 73.374018 185.25344 73.499586 185.74713 73.750222 186.18005 C 74.008455 186.61296 74.353933 186.95467 74.786851 187.20531 C 75.227365 187.44835 75.721054 187.56963 76.267898 187.56963 C 76.898288 187.56963 77.4491 187.4101 77.919993 187.0911 C 78.390887 186.76452 78.728819 186.33172 78.933885 185.79247 L 78.933885 187.27352 C 78.933885 188.14695 78.728552 188.78508 78.318419 189.18762 C 77.91588 189.59015 77.289593 189.7912 76.438947 189.7912 C 75.945268 189.7912 75.489317 189.71143 75.071588 189.55193 C 74.65386 189.39243 74.293286 189.16446 73.989484 188.86825 L 73.829804 189.02794 C 74.110821 189.33173 74.483233 189.57103 74.946532 189.74572 C 75.40983 189.92041 75.907293 190.00772 76.438947 190.00772 C 77.350354 190.00772 78.029991 189.78352 78.478099 189.33541 C 78.933802 188.8873 79.161778 188.18879 79.161778 187.23941 L 79.161778 181.87333 L 78.933885 181.87333 L 78.933885 183.59364 C 78.728819 183.06198 78.390887 182.63674 77.919993 182.31775 C 77.4491 181.99876 76.898288 181.83923 76.267898 181.83923 z M 76.267898 182.05575 C 76.784362 182.05575 77.239797 182.16948 77.63474 182.39733 C 78.037278 182.61759 78.352566 182.92533 78.580418 183.32027 C 78.815865 183.71522 78.933885 184.17494 78.933885 184.699 C 78.933885 185.21546 78.815865 185.67467 78.580418 186.07721 C 78.352566 186.47975 78.037278 186.79504 77.63474 187.02289 C 77.239797 187.24314 76.784362 187.3531 76.267898 187.3531 C 75.759029 187.3531 75.303078 187.24314 74.900539 187.02289 C 74.498001 186.79504 74.178938 186.47975 73.943492 186.07721 C 73.71564 185.67467 73.601911 185.21546 73.601911 184.699 C 73.601911 184.17494 73.71564 183.71522 73.943492 183.32027 C 74.178938 182.92533 74.498001 182.61759 74.900539 182.39733 C 75.303078 182.16948 75.759029 182.05575 76.267898 182.05575 z M 40.871092 184.77858 L 43.1154 184.77858 L 43.1154 186.07721 C 42.925523 186.5557 42.644715 186.92811 42.272557 187.19394 C 41.907994 187.45217 41.440721 187.581 40.871092 187.581 C 40.286273 187.581 39.830321 187.45217 39.503734 187.19394 C 39.177147 186.92811 39.013841 186.57457 39.013841 186.13405 C 39.013841 185.73911 39.154504 185.41628 39.435521 185.16564 C 39.724133 184.90741 40.202727 184.77858 40.871092 184.77858 z M 69.045083 184.77858 L 71.28939 184.77858 L 71.28939 186.07721 C 71.099514 186.5557 70.818189 186.92811 70.446031 187.19394 C 70.081468 187.45217 69.614712 187.581 69.045083 187.581 C 68.460264 187.581 68.004312 187.45217 67.677725 187.19394 C 67.351137 186.92811 67.187832 186.57457 67.187832 186.13405 C 67.187832 185.73911 67.328494 185.41628 67.609512 185.16564 C 67.898123 184.90741 68.376718 184.77858 69.045083 184.77858 z M 56.141995 192.04274 C 55.56477 192.04274 55.055986 192.13005 54.615473 192.30474 C 54.182554 192.47942 53.818206 192.73382 53.521999 193.068 L 53.681163 193.22768 C 53.969775 192.90109 54.315771 192.65802 54.718309 192.49852 C 55.120847 192.33903 55.59515 192.25926 56.141995 192.25926 C 56.863525 192.25926 57.414337 192.42634 57.79409 192.76052 C 58.173843 193.08711 58.363564 193.53122 58.363564 194.09326 C 58.363564 194.31351 58.333374 194.53772 58.272614 194.76557 C 58.211853 194.98583 58.093833 195.22513 57.919147 195.48336 C 57.744461 195.74159 57.486295 196.04126 57.144517 196.38304 L 53.692532 199.88102 L 53.692532 200.05155 L 59.024506 200.05155 L 59.024506 199.83503 L 54.045998 199.83503 L 57.304198 196.53135 C 57.653571 196.18198 57.919284 195.87046 58.101565 195.59704 C 58.283847 195.32362 58.409414 195.06546 58.477769 194.82241 C 58.55372 194.57937 58.591457 194.33253 58.591457 194.08189 C 58.591457 193.4515 58.371546 192.95404 57.931033 192.58947 C 57.490519 192.22492 56.893905 192.04274 56.141995 192.04274 z M 63.068704 192.04274 C 62.263628 192.04274 61.622245 192.22114 61.143756 192.57811 C 60.672863 192.93507 60.43734 193.42122 60.43734 194.03641 C 60.43734 194.51491 60.585033 194.91751 60.88124 195.24409 C 61.185043 195.56309 61.622125 195.77545 62.191754 195.88178 C 61.538579 195.99571 61.033569 196.22746 60.676601 196.57683 C 60.327229 196.9262 60.152086 197.37083 60.152086 197.91008 C 60.152086 198.57845 60.406995 199.10988 60.915863 199.50481 C 61.432328 199.89216 62.149702 200.08566 63.068704 200.08566 C 63.995301 200.08566 64.716965 199.89216 65.233429 199.50481 C 65.749893 199.10988 66.008059 198.57845 66.008059 197.91008 C 66.008059 197.37083 65.825885 196.9262 65.461322 196.57683 C 65.104355 196.22746 64.599345 195.99571 63.946169 195.88178 C 64.515799 195.77545 64.952365 195.56309 65.256167 195.24409 C 65.567565 194.91751 65.723322 194.51491 65.723322 194.03641 C 65.723322 193.42122 65.480251 192.93507 64.994167 192.57811 C 64.515679 192.22114 63.87378 192.04274 63.068704 192.04274 z M 72.422138 192.04274 C 71.822128 192.04274 71.290702 192.20982 70.827403 192.544 C 70.3717 192.87059 70.014383 193.33786 69.756151 193.94546 C 69.505514 194.54548 69.380463 195.25153 69.380463 196.0642 C 69.380463 196.87686 69.505514 197.58721 69.756151 198.19482 C 70.014383 198.79483 70.3717 199.26159 70.827403 199.59577 C 71.290702 199.92235 71.822128 200.08566 72.422138 200.08566 C 73.029743 200.08566 73.561686 199.92235 74.017389 199.59577 C 74.473093 199.26159 74.826119 198.79483 75.076756 198.19482 C 75.334988 197.58721 75.463813 196.87686 75.463813 196.0642 C 75.463813 195.25153 75.334988 194.54548 75.076756 193.94546 C 74.826119 193.33786 74.473093 192.87059 74.017389 192.544 C 73.561686 192.20982 73.029743 192.04274 72.422138 192.04274 z M 87.392283 192.04274 C 86.815059 192.04274 86.305758 192.13005 85.865245 192.30474 C 85.432327 192.47942 85.067979 192.73382 84.771772 193.068 L 84.931452 193.22768 C 85.220064 192.90109 85.565543 192.65802 85.968081 192.49852 C 86.370619 192.33903 86.845439 192.25926 87.392283 192.25926 C 88.113814 192.25926 88.664109 192.42634 89.043862 192.76052 C 89.423615 193.08711 89.613853 193.53122 89.613853 194.09326 C 89.613853 194.31351 89.583146 194.53772 89.522386 194.76557 C 89.461625 194.98583 89.344122 195.22513 89.169436 195.48336 C 88.99475 195.74159 88.736584 196.04126 88.394806 196.38304 L 84.942821 199.88102 L 84.942821 200.05155 L 90.274278 200.05155 L 90.274278 199.83503 L 85.295771 199.83503 L 88.55397 196.53135 C 88.903343 196.18198 89.169056 195.87046 89.351337 195.59704 C 89.533618 195.32362 89.659186 195.06546 89.727541 194.82241 C 89.803492 194.57937 89.84123 194.33253 89.84123 194.08189 C 89.84123 193.4515 89.621318 192.95404 89.180805 192.58947 C 88.740291 192.22492 88.144194 192.04274 87.392283 192.04274 z M 94.432681 192.04274 C 93.832671 192.04274 93.301245 192.20982 92.837946 192.544 C 92.382242 192.87059 92.024925 193.33786 91.766693 193.94546 C 91.516056 194.54548 91.391006 195.25153 91.391006 196.0642 C 91.391006 196.87686 91.516056 197.58721 91.766693 198.19482 C 92.024925 198.79483 92.382242 199.26159 92.837946 199.59577 C 93.301245 199.92235 93.832671 200.08566 94.432681 200.08566 C 95.040285 200.08566 95.571712 199.92235 96.027415 199.59577 C 96.483119 199.26159 96.836662 198.79483 97.087299 198.19482 C 97.345531 197.58721 97.474355 196.87686 97.474355 196.0642 C 97.474355 195.25153 97.345531 194.54548 97.087299 193.94546 C 96.836662 193.33786 96.483119 192.87059 96.027415 192.544 C 95.571712 192.20982 95.040285 192.04274 94.432681 192.04274 z M 101.08602 192.04274 C 100.5088 192.04274 100.00001 192.13005 99.559499 192.30474 C 99.126581 192.47942 98.761716 192.73382 98.465509 193.068 L 98.62519 193.22768 C 98.913802 192.90109 99.259281 192.65802 99.661819 192.49852 C 100.06436 192.33903 100.53918 192.25926 101.08602 192.25926 C 101.80755 192.25926 102.35836 192.42634 102.73812 192.76052 C 103.11787 193.08711 103.30759 193.53122 103.30759 194.09326 C 103.30759 194.31351 103.27737 194.53772 103.21664 194.76557 C 103.15588 194.98583 103.03786 195.22513 102.86317 195.48336 C 102.68849 195.74159 102.43032 196.04126 102.08854 196.38304 L 98.636558 199.88102 L 98.636558 200.05155 L 103.96802 200.05155 L 103.96802 199.83503 L 98.989508 199.83503 L 102.24822 196.53135 C 102.5976 196.18198 102.86331 195.87046 103.04559 195.59704 C 103.22787 195.32362 103.35293 195.06546 103.42128 194.82241 C 103.49723 194.57937 103.53548 194.33253 103.53548 194.08189 C 103.53548 193.4515 103.31506 192.95404 102.87454 192.58947 C 102.43403 192.22492 101.83793 192.04274 101.08602 192.04274 z M 108.47989 192.04274 C 107.80393 192.04274 107.2116 192.19472 106.70273 192.49852 C 106.19386 192.79473 105.79504 193.23884 105.50642 193.83126 C 105.22541 194.42367 105.08474 195.16798 105.08474 196.0642 C 105.08474 196.88446 105.19847 197.59858 105.42632 198.20619 C 105.66177 198.80619 106.00777 199.26918 106.46347 199.59577 C 106.92677 199.92235 107.504 200.08566 108.19515 200.08566 L 108.19515 200.08617 C 108.68883 200.08617 109.12539 199.99079 109.50515 199.80092 C 109.89249 199.60345 110.19269 199.33019 110.40535 198.98082 C 110.62561 198.63144 110.73556 198.22129 110.73556 197.7504 C 110.73556 197.04406 110.49627 196.48192 110.01778 196.0642 C 109.54688 195.63887 108.91253 195.42651 108.11505 195.42651 C 107.66694 195.42651 107.25679 195.50627 106.88463 195.66577 C 106.51247 195.82527 106.20147 196.0565 105.95084 196.3603 C 105.7002 196.66411 105.54067 197.03274 105.47232 197.46566 C 105.40397 197.19984 105.35817 196.94167 105.33537 196.69103 C 105.32017 196.4328 105.31264 196.21615 105.31264 196.04146 C 105.31264 194.78068 105.60151 193.83533 106.17873 193.20494 C 106.75595 192.57456 107.52291 192.25926 108.47989 192.25926 C 108.79128 192.25926 109.08341 192.28571 109.35683 192.33884 C 109.63026 192.392 109.86578 192.48309 110.06325 192.61221 L 110.17746 192.41843 C 109.94201 192.27409 109.67955 192.17545 109.39094 192.12232 C 109.10233 192.06912 108.79888 192.04274 108.47989 192.04274 z M 76.48959 192.07684 L 76.48959 192.29337 L 81.000942 192.29337 L 78.414537 195.68851 L 78.414537 195.85904 L 78.824848 195.85904 C 79.69828 195.85904 80.340178 196.04122 80.750312 196.40578 C 81.16804 196.77035 81.37663 197.25648 81.37663 197.86409 C 81.37663 198.47169 81.171814 198.95784 80.76168 199.3224 C 80.359143 199.68696 79.763046 199.86913 78.973159 199.86913 C 78.38834 199.86913 77.863944 199.76673 77.400645 199.56166 C 76.944942 199.35659 76.60701 199.10597 76.386754 198.80977 L 76.238442 198.95808 C 76.481484 199.28466 76.846348 199.55415 77.332432 199.76681 C 77.826111 199.97947 78.37315 200.08566 78.973159 200.08566 C 79.8314 200.08566 80.484104 199.88084 80.932213 199.47071 C 81.380322 199.06058 81.604523 198.52485 81.604523 197.86409 C 81.604523 197.20332 81.372774 196.66812 80.909475 196.25798 C 80.453771 195.84785 79.755266 195.64252 78.813479 195.64252 L 78.722528 195.64252 L 81.308417 192.24789 L 81.308417 192.07684 L 76.48959 192.07684 z M 63.068704 192.25926 C 63.813019 192.25926 64.401569 192.41879 64.834487 192.73779 C 65.275001 193.05678 65.495429 193.48958 65.495429 194.03641 C 65.495429 194.56807 65.283065 194.99332 64.857742 195.31231 C 64.432419 195.62371 63.835805 195.77946 63.068704 195.77946 C 62.309198 195.77946 61.716874 195.61993 61.291551 195.30094 C 60.873823 194.98194 60.665233 194.5567 60.665233 194.02505 C 60.665233 193.4858 60.88137 193.05678 61.314289 192.73779 C 61.747207 192.41879 62.331983 192.25926 63.068704 192.25926 z M 72.422138 192.25926 C 72.984172 192.25926 73.474087 192.41502 73.891816 192.72642 C 74.317139 193.03782 74.647522 193.47815 74.882969 194.04778 C 75.118416 194.60982 75.23592 195.28191 75.23592 196.0642 C 75.23592 196.83889 75.118416 197.51098 74.882969 198.08061 C 74.647522 198.65024 74.317139 199.0911 73.891816 199.4025 C 73.474087 199.71389 72.984172 199.86913 72.422138 199.86913 C 71.867698 199.86913 71.377783 199.71389 70.95246 199.4025 C 70.527136 199.0911 70.196753 198.65024 69.961306 198.08061 C 69.72586 197.51098 69.608356 196.83889 69.608356 196.0642 C 69.608356 195.28191 69.72586 194.60982 69.961306 194.04778 C 70.196753 193.47815 70.527136 193.03782 70.95246 192.72642 C 71.377783 192.41502 71.867698 192.25926 72.422138 192.25926 z M 94.432681 192.25926 C 94.994715 192.25926 95.48463 192.41502 95.902358 192.72642 C 96.327682 193.03782 96.658065 193.47815 96.893512 194.04778 C 97.128959 194.60982 97.246462 195.28191 97.246462 196.0642 C 97.246462 196.83889 97.128959 197.51098 96.893512 198.08061 C 96.658065 198.65024 96.327682 199.0911 95.902358 199.4025 C 95.48463 199.71389 94.994715 199.86913 94.432681 199.86913 C 93.878241 199.86913 93.388326 199.71389 92.963003 199.4025 C 92.537679 199.0911 92.207296 198.65024 91.971849 198.08061 C 91.736402 197.51098 91.618899 196.83889 91.618899 196.0642 C 91.618899 195.28191 91.736402 194.60982 91.971849 194.04778 C 92.207296 193.47815 92.537679 193.03782 92.963003 192.72642 C 93.388326 192.41502 93.878241 192.25926 94.432681 192.25926 z M 108.11505 195.64252 C 108.85936 195.64252 109.44414 195.83653 109.86946 196.22388 C 110.29479 196.60363 110.50767 197.11241 110.50767 197.7504 C 110.50767 198.17573 110.40904 198.54762 110.21156 198.86661 C 110.01409 199.1856 109.74031 199.43245 109.39094 199.60713 C 109.04916 199.78182 108.65085 199.86913 108.19515 199.86913 C 107.64071 199.86913 107.17344 199.76673 106.79368 199.56166 C 106.42152 199.349 106.14071 199.08328 105.95084 198.76429 C 105.76096 198.43771 105.66559 198.10732 105.66559 197.77314 C 105.66559 197.37819 105.76851 197.0214 105.97358 196.7024 C 106.17864 196.37582 106.46322 196.11765 106.82779 195.92777 C 107.19994 195.73789 107.62896 195.64252 108.11505 195.64252 z M 63.068704 195.99599 C 63.926945 195.99599 64.591487 196.17061 65.06238 196.51998 C 65.540869 196.86936 65.780166 197.33663 65.780166 197.92145 C 65.780166 198.52146 65.540869 198.99576 65.06238 199.34513 C 64.591487 199.6945 63.926945 199.86913 63.068704 199.86913 C 62.218057 199.86913 61.557289 199.6945 61.086396 199.34513 C 60.615502 198.99576 60.379979 198.52146 60.379979 197.92145 C 60.379979 197.33663 60.615502 196.86936 61.086396 196.51998 C 61.557289 196.17061 62.218057 195.99599 63.068704 195.99599 z M 67.778494 199.49345 C 67.705376 199.49528 67.639434 199.52556 67.580573 199.5844 C 67.519813 199.63756 67.489106 199.70601 67.489106 199.78955 C 67.489106 199.86553 67.519813 199.93397 67.580573 199.99471 C 67.641333 200.05544 67.709261 200.08566 67.785212 200.08566 C 67.868756 200.08566 67.9372 200.05544 67.990367 199.99471 C 68.051127 199.93395 68.081834 199.8655 68.081834 199.78955 C 68.081834 199.70597 68.051127 199.63753 67.990367 199.5844 C 67.937202 199.52366 67.868757 199.49345 67.785212 199.49345 C 67.782838 199.49345 67.780852 199.49339 67.778494 199.49345 z M 83.294859 199.49345 C 83.221741 199.49528 83.1558 199.52556 83.096938 199.5844 C 83.036178 199.63756 83.005988 199.70601 83.005988 199.78955 C 83.005988 199.86553 83.036178 199.93397 83.096938 199.99471 C 83.157699 200.05544 83.226143 200.08566 83.302094 200.08566 C 83.385638 200.08566 83.454083 200.05544 83.507249 199.99471 C 83.568009 199.93395 83.5982 199.8655 83.5982 199.78955 C 83.5982 199.70597 83.568009 199.63753 83.507249 199.5844 C 83.454084 199.52366 83.38564 199.49345 83.302094 199.49345 C 83.29972 199.49345 83.297218 199.49339 83.294859 199.49345 z M 48.823061 204.9019 C 48.223051 204.9019 47.691625 205.06898 47.228327 205.40316 C 46.772623 205.72976 46.415307 206.19703 46.157074 206.80463 C 45.906437 207.40464 45.781387 208.11069 45.781387 208.92336 C 45.781387 209.73603 45.906437 210.44638 46.157074 211.05398 C 46.415307 211.65399 46.772623 212.12075 47.228327 212.45493 C 47.691625 212.78152 48.223051 212.94482 48.823061 212.94482 C 49.430666 212.94482 49.962093 212.78152 50.417796 212.45493 C 50.8735 212.12075 51.227043 211.65399 51.47768 211.05398 C 51.735912 210.44638 51.864736 209.73603 51.864736 208.92336 C 51.864736 208.11069 51.735912 207.40464 51.47768 206.80463 C 51.227043 206.19703 50.8735 205.72976 50.417796 205.40316 C 49.962093 205.06898 49.430666 204.9019 48.823061 204.9019 z M 56.251032 204.9019 C 55.651022 204.9019 55.119596 205.06898 54.656297 205.40316 C 54.200594 205.72976 53.843276 206.19703 53.585045 206.80463 C 53.334408 207.40464 53.209357 208.11069 53.209357 208.92336 C 53.209357 209.73603 53.334408 210.44638 53.585045 211.05398 C 53.843276 211.65399 54.200594 212.12075 54.656297 212.45493 C 55.119596 212.78152 55.651022 212.94482 56.251032 212.94482 C 56.858637 212.94482 57.390063 212.78152 57.845767 212.45493 C 58.30147 212.12075 58.655013 211.65399 58.90565 211.05398 C 59.163882 210.44638 59.292707 209.73603 59.292707 208.92336 C 59.292707 208.11069 59.163882 207.40464 58.90565 206.80463 C 58.655013 206.19703 58.30147 205.72976 57.845767 205.40316 C 57.390063 205.06898 56.858637 204.9019 56.251032 204.9019 z M 70.761257 204.9019 C 70.184033 204.9019 69.675249 204.98921 69.234735 205.1639 C 68.801817 205.33859 68.436953 205.59298 68.140745 205.92716 L 68.300426 206.08684 C 68.589037 205.76026 68.934517 205.51719 69.337055 205.35769 C 69.739593 205.19819 70.214413 205.11843 70.761257 205.11843 C 71.482788 205.11843 72.0336 205.28551 72.413353 205.61969 C 72.793106 205.94628 72.982827 206.39039 72.982827 206.95242 C 72.982827 207.17268 72.952636 207.39688 72.891877 207.62473 C 72.831117 207.84499 72.713096 208.08429 72.53841 208.34252 C 72.363723 208.60074 72.105558 208.90043 71.76378 209.24221 L 68.311794 212.74018 L 68.311794 212.91072 L 73.643769 212.91072 L 73.643769 212.69419 L 68.665261 212.69419 L 71.92346 209.39052 C 72.272833 209.04115 72.538546 208.72963 72.720828 208.45621 C 72.903109 208.18279 73.02816 207.92462 73.096515 207.68158 C 73.172466 207.43854 73.21072 207.19169 73.21072 206.94105 C 73.21072 206.31066 72.990292 205.8132 72.549779 205.44864 C 72.109266 205.08407 71.513169 204.9019 70.761257 204.9019 z M 77.084386 204.9019 C 76.507161 204.9019 75.99786 204.98921 75.557347 205.1639 C 75.124428 205.33859 74.760081 205.59298 74.463874 205.92716 L 74.623554 206.08684 C 74.912166 205.76026 75.257645 205.51719 75.660183 205.35769 C 76.062721 205.19819 76.537541 205.11843 77.084386 205.11843 C 77.805916 205.11843 78.356211 205.28551 78.735964 205.61969 C 79.115717 205.94628 79.305955 206.39039 79.305955 206.95242 C 79.305955 207.17268 79.275248 207.39688 79.214488 207.62473 C 79.153727 207.84499 79.036224 208.08429 78.861538 208.34252 C 78.686852 208.60074 78.428686 208.90043 78.086908 209.24221 L 74.634923 212.74018 L 74.634923 212.91072 L 79.96638 212.91072 L 79.96638 212.69419 L 74.987873 212.69419 L 78.246072 209.39052 C 78.595445 209.04115 78.861675 208.72963 79.043956 208.45621 C 79.226238 208.18279 79.351288 207.92462 79.419643 207.68158 C 79.495594 207.43854 79.533332 207.19169 79.533332 206.94105 C 79.533332 206.31066 79.31342 205.8132 78.872907 205.44864 C 78.432393 205.08407 77.836296 204.9019 77.084386 204.9019 z M 86.255402 204.9019 C 85.655393 204.9019 85.123449 205.06898 84.66015 205.40316 C 84.204447 205.72976 83.847647 206.19703 83.589415 206.80463 C 83.338778 207.40464 83.21321 208.11069 83.21321 208.92336 C 83.21321 209.73603 83.338778 210.44638 83.589415 211.05398 C 83.847647 211.65399 84.204447 212.12075 84.66015 212.45493 C 85.123449 212.78152 85.655393 212.94482 86.255402 212.94482 C 86.863007 212.94482 87.394433 212.78152 87.850137 212.45493 C 88.30584 212.12075 88.658866 211.65399 88.909504 211.05398 C 89.167735 210.44638 89.297077 209.73603 89.297077 208.92336 C 89.297077 208.11069 89.167735 207.40464 88.909504 206.80463 C 88.658866 206.19703 88.30584 205.72976 87.850137 205.40316 C 87.394433 205.06898 86.863007 204.9019 86.255402 204.9019 z M 93.683372 204.9019 C 93.083362 204.9019 92.551419 205.06898 92.088121 205.40316 C 91.632417 205.72976 91.275618 206.19703 91.017385 206.80463 C 90.766749 207.40464 90.641181 208.11069 90.641181 208.92336 C 90.641181 209.73603 90.766749 210.44638 91.017385 211.05398 C 91.275618 211.65399 91.632417 212.12075 92.088121 212.45493 C 92.551419 212.78152 93.083362 212.94482 93.683372 212.94482 C 94.290977 212.94482 94.822403 212.78152 95.278107 212.45493 C 95.733811 212.12075 96.086837 211.65399 96.337474 211.05398 C 96.595706 210.44638 96.725047 209.73603 96.725047 208.92336 C 96.725047 208.11069 96.595706 207.40464 96.337474 206.80463 C 96.086837 206.19703 95.733811 205.72976 95.278107 205.40316 C 94.822403 205.06898 94.290977 204.9019 93.683372 204.9019 z M 31.859239 204.93601 L 31.859239 205.15253 L 33.910277 205.15253 L 33.910277 212.91072 L 34.126801 212.91072 L 34.126801 204.93601 L 31.859239 204.93601 z M 40.654568 204.93601 L 36.165953 210.3703 L 36.165953 210.54135 L 40.780142 210.54135 L 40.780142 212.91072 L 41.007518 212.91072 L 41.007518 210.54135 L 42.785187 210.54135 L 42.785187 210.32483 L 41.007518 210.32483 L 41.007518 208.23968 L 40.780142 208.23968 L 40.780142 210.32483 L 36.473428 210.32483 L 40.927936 204.93601 L 40.654568 204.93601 z M 48.823061 205.11843 C 49.385096 205.11843 49.875011 205.27418 50.292739 205.58558 C 50.718063 205.89697 51.048447 206.33731 51.283893 206.90695 C 51.51934 207.46898 51.636843 208.14107 51.636843 208.92336 C 51.636843 209.69805 51.51934 210.37014 51.283893 210.93978 C 51.048447 211.5094 50.718063 211.95026 50.292739 212.26166 C 49.875011 212.57306 49.385096 212.72881 48.823061 212.72881 C 48.268622 212.72881 47.778707 212.57306 47.353384 212.26166 C 46.928061 211.95026 46.597677 211.5094 46.36223 210.93978 C 46.126783 210.37014 46.00928 209.69805 46.00928 208.92336 C 46.00928 208.14107 46.126783 207.46898 46.36223 206.90695 C 46.597677 206.33731 46.928061 205.89697 47.353384 205.58558 C 47.778707 205.27418 48.268622 205.11843 48.823061 205.11843 z M 56.251032 205.11843 C 56.813066 205.11843 57.302981 205.27418 57.72071 205.58558 C 58.146033 205.89697 58.476416 206.33731 58.711864 206.90695 C 58.94731 207.46898 59.064814 208.14107 59.064814 208.92336 C 59.064814 209.69805 58.94731 210.37014 58.711864 210.93978 C 58.476416 211.5094 58.146033 211.95026 57.72071 212.26166 C 57.302981 212.57306 56.813066 212.72881 56.251032 212.72881 C 55.696592 212.72881 55.206677 212.57306 54.781354 212.26166 C 54.356031 211.95026 54.025647 211.5094 53.7902 210.93978 C 53.554754 210.37014 53.43725 209.69805 53.43725 208.92336 C 53.43725 208.14107 53.554754 207.46898 53.7902 206.90695 C 54.025647 206.33731 54.356031 205.89697 54.781354 205.58558 C 55.206677 205.27418 55.696592 205.11843 56.251032 205.11843 z M 86.255402 205.11843 C 86.817437 205.11843 87.307351 205.27418 87.72508 205.58558 C 88.150403 205.89697 88.480787 206.33731 88.716234 206.90695 C 88.95168 207.46898 89.069184 208.14107 89.069184 208.92336 C 89.069184 209.69805 88.95168 210.37014 88.716234 210.93978 C 88.480787 211.5094 88.150403 211.95026 87.72508 212.26166 C 87.307351 212.57306 86.817437 212.72881 86.255402 212.72881 C 85.700963 212.72881 85.211047 212.57306 84.785724 212.26166 C 84.360401 211.95026 84.030017 211.5094 83.79457 210.93978 C 83.559123 210.37014 83.441103 209.69805 83.441103 208.92336 C 83.441103 208.14107 83.559123 207.46898 83.79457 206.90695 C 84.030017 206.33731 84.360401 205.89697 84.785724 205.58558 C 85.211047 205.27418 85.700963 205.11843 86.255402 205.11843 z M 93.683372 205.11843 C 94.245406 205.11843 94.735322 205.27418 95.15305 205.58558 C 95.578374 205.89697 95.908758 206.33731 96.144204 206.90695 C 96.379651 207.46898 96.497154 208.14107 96.497154 208.92336 C 96.497154 209.69805 96.379651 210.37014 96.144204 210.93978 C 95.908758 211.5094 95.578374 211.95026 95.15305 212.26166 C 94.735322 212.57306 94.245406 212.72881 93.683372 212.72881 C 93.128933 212.72881 92.639018 212.57306 92.213695 212.26166 C 91.788372 211.95026 91.457988 211.5094 91.222541 210.93978 C 90.987094 210.37014 90.869074 209.69805 90.869074 208.92336 C 90.869074 208.14107 90.987094 207.46898 91.222541 206.90695 C 91.457988 206.33731 91.788372 205.89697 92.213695 205.58558 C 92.639018 205.27418 93.128933 205.11843 93.683372 205.11843 z M 44.072447 206.98705 C 43.996496 206.98705 43.928052 207.01726 43.867292 207.078 C 43.806532 207.13116 43.776341 207.19961 43.776341 207.28315 C 43.776341 207.35913 43.806532 207.42706 43.867292 207.48779 C 43.928052 207.54852 43.996496 207.57926 44.072447 207.57926 C 44.155992 207.57926 44.224436 207.54852 44.277602 207.48779 C 44.338362 207.42703 44.368553 207.3591 44.368553 207.28315 C 44.368553 207.19958 44.338362 207.13113 44.277602 207.078 C 44.224437 207.01726 44.155993 206.98705 44.072447 206.98705 z M 81.504271 206.98705 C 81.42832 206.98705 81.360392 207.01726 81.299632 207.078 C 81.238872 207.13116 81.208165 207.19961 81.208165 207.28315 C 81.208165 207.35913 81.238872 207.42706 81.299632 207.48779 C 81.360393 207.54852 81.42832 207.57926 81.504271 207.57926 C 81.587815 207.57926 81.65626 207.54852 81.709426 207.48779 C 81.770186 207.42703 81.800893 207.3591 81.800893 207.28315 C 81.800893 207.19958 81.770186 207.13113 81.709426 207.078 C 81.65626 207.01726 81.587816 206.98705 81.504271 206.98705 z M 105.32142 208.79727 L 105.32142 213.24144 L 105.51934 213.24144 L 105.51934 211.56454 C 105.51934 211.18126 105.63114 210.87369 105.85472 210.64212 C 106.0783 210.41055 106.38367 210.29485 106.77095 210.29485 C 107.11031 210.29485 107.37394 210.39053 107.56159 210.58218 C 107.74925 210.77381 107.84271 211.05525 107.84271 211.42657 L 107.84271 213.24144 L 108.04064 213.24144 L 108.04064 211.41468 C 108.04064 210.98748 107.92663 210.66379 107.69905 210.4442 C 107.47148 210.22062 107.16833 210.10882 106.78903 210.10882 C 106.47761 210.10882 106.21177 210.17889 105.99218 210.31863 C 105.77658 210.45437 105.61916 210.64014 105.51934 210.8757 L 105.51934 208.79727 L 105.32142 208.79727 z M 100.6385 209.04894 L 100.6385 211.47463 C 100.6385 212.07351 100.78423 212.52239 101.07569 212.82183 C 101.37113 213.11728 101.77438 213.26522 102.28543 213.26522 C 102.79248 213.26522 103.19131 213.11728 103.48277 212.82183 C 103.77823 212.52239 103.92616 212.07351 103.92616 211.47463 L 103.92616 209.04894 L 103.72875 209.04894 L 103.72875 211.46843 C 103.72875 212.01141 103.60304 212.41687 103.35152 212.68437 C 103.09998 212.94788 102.74458 213.0797 102.28543 213.0797 C 101.82629 213.0797 101.47088 212.94788 101.21935 212.68437 C 100.96781 212.41687 100.84211 212.01141 100.84211 211.46843 L 100.84211 209.04894 L 100.6385 209.04894 z M 62.469257 209.78946 L 62.469257 210.00598 L 65.317662 210.00598 L 65.317662 209.78946 L 62.469257 209.78946 z M 110.73556 210.10882 C 110.42813 210.10882 110.1723 210.17668 109.96868 210.31242 C 109.76506 210.44418 109.61764 210.63384 109.52582 210.88138 L 109.52582 210.13311 L 109.3341 210.13311 L 109.3341 213.24144 L 109.53202 213.24144 L 109.53202 211.58832 C 109.53202 211.18906 109.6316 210.87538 109.83122 210.6478 C 110.03484 210.42023 110.31849 210.30674 110.68182 210.30674 L 110.73556 210.30674 L 110.73556 210.10882 z M 44.072447 212.35261 C 43.996496 212.35261 43.928052 212.38283 43.867292 212.44356 C 43.806532 212.49673 43.776341 212.56517 43.776341 212.64872 C 43.776341 212.7247 43.806532 212.79314 43.867292 212.85387 C 43.928052 212.9146 43.996496 212.94482 44.072447 212.94482 C 44.155992 212.94482 44.224436 212.9146 44.277602 212.85387 C 44.338362 212.7931 44.368553 212.72466 44.368553 212.64872 C 44.368553 212.56514 44.338362 212.49669 44.277602 212.44356 C 44.224437 212.38283 44.155993 212.35261 44.072447 212.35261 z M 81.504271 212.35261 C 81.42832 212.35261 81.360392 212.38283 81.299632 212.44356 C 81.238872 212.49673 81.208165 212.56517 81.208165 212.64872 C 81.208165 212.7247 81.238872 212.79314 81.299632 212.85387 C 81.360393 212.9146 81.42832 212.94482 81.504271 212.94482 C 81.587815 212.94482 81.65626 212.9146 81.709426 212.85387 C 81.770186 212.7931 81.800893 212.72466 81.800893 212.64872 C 81.800893 212.56514 81.770186 212.49669 81.709426 212.44356 C 81.65626 212.38283 81.587816 212.35261 81.504271 212.35261 z M 113.00002 227.43231 L 112.30652 227.57339 L 112.33753 228.7268 L 112.51426 230.17064 L 112.93439 230.08538 L 113.02638 228.58676 L 113.00002 227.43231 z M 110.17694 227.95579 L 109.47517 228.33251 L 109.57077 231.75143 L 110.26427 231.61035 L 110.2312 230.14739 C 110.2242 229.86396 110.38251 229.6179 110.61205 229.5712 C 110.85625 229.5215 110.97344 229.67089 110.98257 230.06574 L 111.01616 231.45739 L 111.71483 231.31528 L 111.68124 229.77584 C 111.66784 229.12246 111.28291 228.74304 110.75055 228.85134 C 110.51612 228.89904 110.3059 229.06374 110.20691 229.27716 L 110.17694 227.95579 z M 103.62488 229.40066 L 101.29531 229.87454 L 101.38988 233.41541 L 103.81712 232.9219 L 103.80007 232.18757 L 102.12007 232.52967 L 102.0994 231.80155 L 102.98306 231.62172 L 102.96239 230.8936 L 102.08286 231.0724 L 102.06839 230.4497 L 103.64555 230.12879 L 103.62488 229.40066 z M 108.1135 229.41048 C 108.04036 229.41028 107.96502 229.41821 107.88871 229.43374 C 107.12192 229.58973 106.67451 230.34167 106.84639 231.1866 C 106.98748 231.88014 107.4775 232.23827 108.10265 232.11109 C 108.62036 232.00578 108.98843 231.59001 109.05504 231.04242 L 108.37343 230.96749 C 108.33123 231.21003 108.19724 231.37476 108.00188 231.4145 C 107.79187 231.4572 107.60821 231.28064 107.54661 230.97783 C 107.46411 230.57246 107.63731 230.19663 107.93522 230.13602 C 108.13058 230.09632 108.279 230.17785 108.36568 230.3789 L 109.00957 230.01923 C 108.84583 229.63628 108.50846 229.41159 108.1135 229.41048 z M 106.28415 229.82079 L 105.59066 229.96187 L 105.62838 231.44964 C 105.63538 231.73307 105.47697 231.95345 105.22789 232.00412 C 104.99834 232.05082 104.883 231.89652 104.87442 231.51681 L 104.83825 230.11483 L 104.1401 230.25694 L 104.18041 231.85633 C 104.19551 232.44324 104.58154 232.82759 105.05529 232.73121 C 105.32391 232.67661 105.48741 232.55668 105.64492 232.30591 L 105.65887 232.54724 L 106.35237 232.40617 L 106.28415 229.82079 z M 99.398269 230.2063 C 99.325258 230.20675 99.254115 230.21344 99.190013 230.22645 C 98.804176 230.30495 98.56964 230.60214 98.580748 231.00677 L 98.5916 231.38556 L 98.288776 231.44757 L 98.306863 232.08474 L 98.604519 232.02428 L 98.659813 233.97093 L 99.35331 233.82985 L 99.303184 231.88217 L 99.762071 231.78863 L 99.749152 231.15043 L 99.285098 231.245 L 99.27838 231.01194 C 99.27418 230.91614 99.327977 230.85456 99.425657 230.83469 C 99.518457 230.81579 99.630881 230.81825 99.768789 230.84605 L 99.754836 230.25384 C 99.646604 230.22184 99.519953 230.20555 99.398269 230.2063 z M 112.78246 230.27141 C 112.75438 230.27214 112.72514 230.27554 112.69462 230.28175 C 112.44553 230.33245 112.28106 230.5745 112.34166 230.87241 C 112.38236 231.07266 112.56164 231.20392 112.78143 231.15921 C 113.05493 231.10361 113.20894 230.85873 113.14833 230.5608 C 113.1136 230.38986 112.97906 230.26633 112.78246 230.27141 z M 97.790615 231.54885 L 97.097117 231.68993 L 97.135358 233.1777 C 97.142158 233.46113 96.983433 233.6815 96.734349 233.73218 C 96.5048 233.77888 96.389466 233.62407 96.380882 233.24436 L 96.345225 231.84289 L 95.64656 231.985 L 95.686868 233.58387 C 95.701998 234.17079 96.088001 234.55512 96.56175 234.45875 C 96.830369 234.40415 96.994379 234.28424 97.151894 234.03346 L 97.16533 234.2753 L 97.858828 234.13423 L 97.790615 231.54885 z M 94.314342 232.21961 C 94.231373 232.22023 94.143688 232.22997 94.052342 232.24855 C 93.681157 232.32405 93.373858 232.48807 93.102012 232.75188 L 93.31957 233.29758 C 93.545636 233.08375 93.802508 232.94513 94.056476 232.89347 C 94.339749 232.83587 94.484508 232.94858 94.486424 233.23299 L 94.486941 233.30947 C 94.366575 233.26787 94.123395 233.27167 93.923151 233.31257 C 93.258927 233.44769 92.886784 233.89465 92.996076 234.43188 C 93.083506 234.86168 93.421649 235.09801 93.924701 234.99567 L 93.924701 234.99516 C 94.17867 234.94346 94.421247 234.78741 94.51743 234.61017 L 94.523114 234.81274 L 95.22178 234.67063 L 95.176304 233.07228 C 95.159426 232.5381 94.821375 232.21584 94.314342 232.21961 z M 90.572451 232.97409 C 90.504704 232.97603 90.436729 232.98374 90.369879 232.99734 C 89.759378 233.12153 89.419371 233.52669 89.517735 234.0102 C 89.582315 234.32767 89.837345 234.53012 90.389 234.64169 C 90.670703 234.70139 90.767395 234.75269 90.783291 234.83082 C 90.805151 234.93827 90.697299 235.03134 90.506822 235.07009 C 90.311461 235.10979 90.109758 235.06936 89.917711 234.92539 L 89.491897 235.40857 C 89.679406 235.65525 90.119922 235.76937 90.549713 235.68193 C 91.213939 235.54682 91.568235 235.13877 91.464903 234.63084 C 91.400323 234.31338 91.130086 234.10919 90.555915 233.98695 C 90.268335 233.92335 90.199742 233.8863 90.183844 233.80815 C 90.164964 233.71535 90.268136 233.62337 90.429307 233.59059 C 90.59048 233.55779 90.752043 233.60115 90.871658 233.7141 L 91.30884 233.23867 C 91.153398 233.06367 90.866023 232.9657 90.572451 232.97409 z M 88.267682 233.44073 C 88.213413 233.4416 88.156927 233.44749 88.0987 233.45933 C 87.864268 233.50703 87.661568 233.66016 87.558682 233.87946 L 87.554031 233.63141 L 86.850714 233.77456 L 86.918411 236.35941 L 87.612425 236.21834 L 87.577802 234.75021 C 87.571902 234.44624 87.72089 234.22787 87.960207 234.17918 C 88.204407 234.12948 88.321047 234.27859 88.329177 234.66856 L 88.364317 236.06537 L 89.062983 235.92326 L 89.023192 234.35488 C 89.010857 233.7821 88.709589 233.43361 88.267682 233.44073 z M 94.30814 233.84587 C 94.382178 233.84416 94.446366 233.84907 94.496243 233.85672 L 94.501927 234.05878 C 94.373375 234.20191 94.188324 234.29077 94.002733 234.32853 C 93.822024 234.36533 93.701532 234.32366 93.677688 234.20657 C 93.647878 234.06005 93.789173 233.92942 94.062677 233.87378 C 94.150589 233.85588 94.234103 233.84758 94.30814 233.84587 z M 86.181505 233.91047 L 85.488007 234.05154 L 85.526247 235.53931 C 85.533047 235.82276 85.374323 236.04313 85.125238 236.0938 C 84.895691 236.1405 84.780354 235.98568 84.771772 235.60597 L 84.735598 234.20451 L 84.037449 234.34662 L 84.077757 235.94548 C 84.092887 236.53239 84.47889 236.91675 84.952639 236.82037 C 85.221259 236.76567 85.385268 236.64636 85.542784 236.39559 L 85.55622 236.63692 L 86.249718 236.49584 L 86.181505 233.91047 z M 81.537344 234.80964 C 81.483074 234.81051 81.426588 234.81691 81.368362 234.82876 C 81.133929 234.87646 80.931229 235.0296 80.828343 235.24889 L 80.823692 235.00032 L 80.120376 235.14347 L 80.188589 237.72884 L 80.882087 237.58776 L 80.84798 236.11963 C 80.84208 235.81567 80.990552 235.59729 81.229869 235.54861 C 81.474069 235.49891 81.591225 235.64803 81.599355 236.03799 L 81.633979 237.4348 L 82.332644 237.29269 L 82.29337 235.72379 C 82.281035 235.15101 81.979251 234.80252 81.537344 234.80964 z M 78.671369 235.39978 C 78.597002 235.40031 78.519505 235.40807 78.438308 235.42459 C 77.534767 235.6084 77.209316 236.50899 77.360338 237.25135 C 77.508382 237.97908 78.021979 238.2306 78.656899 238.10143 C 79.115997 238.00803 79.385323 237.7804 79.577773 237.45134 L 79.11992 237.07617 C 79.02961 237.25729 78.823787 237.42149 78.618659 237.46322 C 78.369574 237.51392 78.132651 237.42453 78.075023 237.14128 L 79.657872 236.81933 C 79.687502 236.61495 79.672971 236.41949 79.637201 236.24366 C 79.539832 235.76503 79.191938 235.3961 78.671369 235.39978 z M 76.796548 235.81991 L 76.10305 235.96099 L 76.141291 237.44824 C 76.148091 237.73169 75.989366 237.95205 75.740282 238.00272 C 75.510733 238.04942 75.395397 237.89512 75.386815 237.51541 L 75.351158 236.11395 L 74.652493 236.25606 L 74.693317 237.85493 C 74.708447 238.44184 75.093933 238.82619 75.567682 238.72981 C 75.836303 238.67521 76.000311 238.55528 76.157827 238.30451 L 76.171263 238.54584 L 76.864761 238.40477 L 76.796548 235.81991 z M 78.586619 236.04574 C 78.762223 236.04764 78.89748 236.15607 78.964891 236.33978 L 78.061587 236.52374 C 78.079207 236.23533 78.265553 236.10078 78.485334 236.05607 C 78.520437 236.04893 78.5541 236.04538 78.586619 236.04574 z M 69.439891 236.30102 C 69.36688 236.30147 69.295737 236.30816 69.231635 236.32117 C 68.845798 236.39967 68.611261 236.69634 68.62237 237.10097 L 68.633222 237.48027 L 68.330398 237.54177 L 68.347968 238.17894 L 68.646141 238.11848 L 68.701435 240.06565 L 69.394932 239.92457 L 69.344289 237.97637 L 69.803693 237.88335 L 69.790774 237.24515 L 69.326719 237.3392 L 69.320002 237.10665 C 69.315802 237.01085 69.369589 236.94927 69.467279 236.9294 C 69.560079 236.9105 69.672503 236.91297 69.810411 236.94077 L 69.796458 236.34856 C 69.688225 236.31656 69.561575 236.30027 69.439891 236.30102 z M 73.291852 236.49377 C 73.217485 236.4943 73.139471 236.50257 73.058275 236.51909 C 72.154734 236.7029 71.829282 237.6035 71.980304 238.34586 C 72.128348 239.07358 72.642461 239.3251 73.277383 239.19593 C 73.736479 239.10253 74.00529 238.8749 74.19774 238.54584 L 73.740404 238.17067 C 73.650094 238.3518 73.444271 238.516 73.239142 238.55773 C 72.990057 238.60843 72.753134 238.51904 72.695506 238.23578 L 74.277838 237.91384 C 74.307468 237.70946 74.293455 237.51399 74.257685 237.33816 C 74.160315 236.85954 73.812422 236.49009 73.291852 236.49377 z M 71.360187 236.86326 C 71.328175 236.86389 71.296356 236.86745 71.266136 236.87359 C 71.070776 236.91329 70.899591 237.07038 70.853241 237.24256 L 70.850657 237.02914 L 70.151992 237.17125 L 70.220205 239.75662 L 70.91887 239.61451 L 70.875979 238.17894 C 70.867079 237.86033 71.001832 237.64976 71.255801 237.5981 C 71.402321 237.5683 71.577595 237.6039 71.705902 237.6844 L 71.7798 236.99813 C 71.650053 236.90882 71.498906 236.86051 71.360187 236.86326 z M 73.207103 237.14024 C 73.382706 237.14215 73.517965 237.25057 73.585374 237.43428 L 72.681553 237.61825 C 72.699173 237.32984 72.88552 237.19529 73.1053 237.15058 C 73.140404 237.14344 73.174584 237.13989 73.207103 237.14024 z M 64.329092 237.28959 C 64.307357 237.28974 64.285017 237.29171 64.262429 237.29631 C 64.018228 237.34601 63.851014 237.59883 63.900694 237.84304 C 63.938444 238.02863 64.09774 238.1387 64.278449 238.10194 C 64.52265 238.05224 64.69038 237.79941 64.640701 237.55521 C 64.607661 237.39281 64.481232 237.28854 64.329092 237.28959 z M 63.517255 237.55986 L 62.750377 237.71592 L 62.477525 239.62278 C 62.459865 239.74845 62.449888 239.82402 62.441868 239.90958 C 62.424988 239.82658 62.404627 239.73961 62.379857 239.64293 L 61.925104 237.88387 L 61.28535 238.01409 L 60.939635 239.94059 C 60.912735 240.08339 60.903273 240.13606 60.896743 240.22894 C 60.884763 240.14494 60.873051 240.08674 60.849201 239.96953 L 60.484365 238.17687 L 59.732473 238.32984 L 60.554645 241.72291 L 61.238324 241.5839 L 61.579389 239.68324 C 61.613449 239.48813 61.641062 239.32498 61.647602 239.23211 C 61.668462 239.33467 61.718084 239.57907 61.746304 239.68014 L 62.215526 241.38495 L 62.899205 241.24594 L 63.517255 237.55986 z M 66.462812 237.86268 C 66.425212 237.86237 66.388514 237.86584 66.353258 237.87302 C 66.157897 237.91272 65.986196 238.0698 65.939846 238.24199 L 65.937262 238.02908 L 65.238597 238.17119 L 65.30681 240.75604 L 66.005475 240.61393 L 65.962584 239.17836 C 65.953684 238.85974 66.088954 238.64919 66.342922 238.59752 C 66.489442 238.56772 66.664199 238.60332 66.792507 238.68382 L 66.866405 237.99756 C 66.741649 237.91168 66.597094 237.86377 66.462812 237.86268 z M 64.647935 238.29108 L 63.944619 238.43422 L 64.012832 241.01959 L 64.716148 240.87645 L 64.647935 238.29108 z " />
    <g
       id="g5153"
       transform="translate(18.797506,86.924599)"
       inkscape:label="DI.DAY">
      <path
         id="path1143"
         style="font-weight:300;font-size:13.2535px;font-family:Montserrat;-inkscape-font-specification:'Montserrat Light';text-align:end;text-anchor:end;display:inline;fill:#191919;stroke-width:0.301756;fill-opacity:1"
         d="m 14.009483,35.590539 v 15.779449 h 6.897766 c 5.117045,0 8.611057,-3.155893 8.611057,-7.889728 0,-4.733822 -3.494012,-7.889721 -8.611057,-7.889721 z m 18.619843,0 v 15.779449 h 2.930267 V 35.590539 Z m 13.141939,0 v 15.779449 h 6.424255 c 5.049417,0 8.453443,-3.246056 8.453443,-7.889728 0,-4.643659 -3.404026,-7.889721 -8.453443,-7.889721 z m 23.082985,0 -7.213328,15.779449 h 1.735758 l 1.893372,-4.215659 h 8.813944 l 1.870906,4.215659 h 1.758562 L 70.499799,35.590539 Z m 7.867255,0 6.311577,10.324008 v 5.455441 h 1.645887 V 45.914547 L 90.990546,35.590539 H 89.32253 l -5.410164,8.83641 -5.410164,-8.83641 z m -29.282221,1.442665 h 4.666362 c 4.192816,0 6.897768,2.660001 6.897768,6.447056 0,3.787068 -2.704952,6.446725 -6.897768,6.446725 h -4.666362 z m 22.226507,0.292755 3.809548,8.475913 H 65.87871 Z m -52.72604,0.744137 h 3.832353 c 3.516559,0 5.79313,2.141571 5.79313,5.410164 0,3.2686 -2.276571,5.409827 -5.79313,5.409827 h -3.832353 z m 23.511558,9.715694 c -1.014391,0 -1.848435,0.743799 -1.848435,1.870906 0,1.082019 0.834044,1.870906 1.848435,1.870906 1.014393,0 1.848437,-0.788887 1.848437,-1.870906 0,-1.127107 -0.834044,-1.870906 -1.848437,-1.870906 z"
         inkscape:label="Text"
         sodipodi:nodetypes="ccsssccccccccssscccccccccccccccccccccssscccccccsssccsssss" />
      <path
         style="color:#000000;display:inline;fill:url(#linearGradient1148);stroke-width:0.648937;-inkscape-stroke:none"
         d="m 7.6593201,43.261523 v 0.595698 H 97.340676 v -0.595698 z"
         id="path393"
         inkscape:label="Rainbow Line" />
      <path
         id="path359"
         style="font-weight:600;font-size:34.7369px;font-family:Montserrat;-inkscape-font-specification:'Montserrat Semi-Bold';display:inline;fill:#191919;stroke-width:0.790892;fill-opacity:1"
         d="m 26.539077,42.886697 c 0.0172,0.193441 0.02616,0.391244 0.02616,0.593563 0,0.258141 -0.0157,0.508274 -0.0436,0.751852 h 2.964473 c 0.02009,-0.246219 0.03219,-0.496177 0.03219,-0.751852 0,-0.20117 -0.0086,-0.398214 -0.02113,-0.593563 z m 6.090249,0 v 1.345415 h 2.930267 v -1.345415 z m 26.349603,0 c 0.01512,0.194746 0.02446,0.392217 0.02446,0.593563 0,0.256084 -0.01356,0.506554 -0.0379,0.751852 h 1.650916 c 0.02025,-0.246472 0.03251,-0.496631 0.03251,-0.751852 0,-0.200859 -0.0089,-0.398084 -0.02148,-0.593563 z m 6.539952,0 -0.615031,1.345415 h 1.676069 l 0.601279,-1.345415 z m 19.336482,0 -0.823619,1.345415 h 1.675738 l 0.822606,-1.345415 z"
         sodipodi:nodetypes="csccsccccccccsccscccccccccccc"
         inkscape:label="3D Effect" />
    </g>
    <path
       id="path1"
       style="font-size:68.4761px;line-height:107%;font-family:'DejaVu Sans Mono';-inkscape-font-specification:'DejaVu Sans Mono';letter-spacing:0px;word-spacing:0px;fill:#191919;fill-opacity:1;stroke-width:0.0886262"
       d="m 12.03736,118.31038 v 12.73314 h 0.281101 V 118.5917 h 20.295151 v 15.99677 h 0.281101 v -16.27809 z m 3.668605,1.56598 c -0.558321,0 -0.994173,0.20428 -1.307617,0.61266 -0.311484,0.4064 -0.46713,0.97416 -0.46713,1.70328 0,0.73311 0.154573,1.30191 0.464099,1.70632 0.311484,0.4044 0.748413,0.60659 1.310648,0.60659 0.178272,0 0.346784,-0.0209 0.505463,-0.0628 0.15868,-0.0398 0.313471,-0.10067 0.464314,-0.18234 v -0.61851 c -0.143006,0.12152 -0.297797,0.2141 -0.464314,0.27785 -0.164559,0.0637 -0.333067,0.0957 -0.505463,0.0957 -0.385925,0 -0.674922,-0.15133 -0.866907,-0.45414 -0.191985,-0.3028 -0.287814,-0.75909 -0.287814,-1.36869 0,-0.61158 0.09583,-1.0687 0.287814,-1.3715 0.191985,-0.30281 0.480982,-0.45435 0.866907,-0.45435 0.168478,0 0.335916,0.032 0.502433,0.0957 0.166517,0.0637 0.322377,0.15633 0.467344,0.27785 v -0.61851 c -0.150843,-0.0817 -0.305634,-0.1425 -0.464314,-0.18234 -0.158679,-0.0418 -0.327191,-0.0628 -0.505463,-0.0628 z m 10.496464,0 c -0.493674,0 -0.861998,0.1914 -1.104917,0.5739 -0.240957,0.38248 -0.361447,0.96312 -0.361447,1.74204 0,0.78092 0.12049,1.36155 0.361447,1.74205 0.240962,0.3805 0.609281,0.57086 1.104917,0.57086 0.495631,0 0.863951,-0.19118 1.104913,-0.57367 0.242919,-0.3825 0.364258,-0.9623 0.364258,-1.73924 0,-0.77892 -0.121339,-1.35956 -0.364258,-1.74204 -0.240962,-0.3825 -0.609282,-0.5739 -1.104913,-0.5739 z m 3.667305,0 c -0.43686,0 -0.787603,0.12061 -1.052072,0.36166 -0.262506,0.23906 -0.393715,0.55771 -0.393715,0.95614 0,0.31874 0.09219,0.57284 0.27634,0.76209 0.184148,0.18925 0.479786,0.33062 0.887265,0.42425 l 0.317485,0.0747 c 0.284056,0.0637 0.482795,0.15447 0.59642,0.27201 0.115577,0.11753 0.173464,0.28775 0.173464,0.51088 0,0.24502 -0.0834,0.43643 -0.249912,0.57389 -0.166517,0.13547 -0.399558,0.20314 -0.699292,0.20314 -0.203735,0 -0.406547,-0.0338 -0.60833,-0.10157 -0.199816,-0.0677 -0.412276,-0.17444 -0.637565,-0.31987 v 0.64255 c 0.209615,0.0897 0.418216,0.15628 0.625873,0.2001 0.207653,0.0458 0.414326,0.0689 0.620022,0.0689 0.493675,0 0.869714,-0.11168 1.128306,-0.3348 0.258588,-0.22312 0.388083,-0.54675 0.388083,-0.97108 0,-0.36058 -0.09412,-0.64539 -0.282186,-0.85457 -0.188066,-0.20917 -0.487782,-0.36259 -0.899175,-0.46019 l -0.311421,-0.0717 c -0.291892,-0.0697 -0.491705,-0.1565 -0.599449,-0.26009 -0.105789,-0.10359 -0.158743,-0.25389 -0.158743,-0.45111 0,-0.22511 0.08125,-0.40343 0.243853,-0.53491 0.162598,-0.13347 0.384064,-0.20032 0.664201,-0.20032 0.184148,0 0.366162,0.0299 0.546395,0.0896 0.18219,0.0598 0.363563,0.14841 0.543796,0.26595 v -0.61245 c -0.2057,-0.0777 -0.401653,-0.13562 -0.587758,-0.17347 -0.186108,-0.0398 -0.363407,-0.0597 -0.531885,-0.0597 z m -12.321236,0.0808 v 4.46145 h 0.596419 v -2.12472 h 1.625103 v 2.12472 h 0.59642 v -4.46145 h -0.59642 v 1.82867 h -1.625103 v -1.82867 z m 4.672171,0 -1.34292,4.46145 h 0.61418 l 0.317481,-1.16252 h 1.536744 l 0.323332,1.16252 h 0.614176 l -1.342916,-4.46145 z m 3.98176,0.40931 c 0.301686,0 0.518219,0.14053 0.649475,0.42143 0.133213,0.28089 0.199674,0.74901 0.199674,1.40442 0,0.65541 -0.06646,1.12354 -0.199674,1.40443 -0.131256,0.27889 -0.347789,0.4184 -0.649475,0.4184 -0.299733,0 -0.516267,-0.14054 -0.64948,-0.42144 -0.131255,-0.28089 -0.196857,-0.74796 -0.196857,-1.40139 0,-0.65541 0.0656,-1.12353 0.196857,-1.40442 0.133213,-0.28089 0.349747,-0.42143 0.64948,-0.42143 z m -3.62313,0.12257 0.625873,2.28303 h -1.251963 z m -8.918569,6.01639 v 0.50806 h 1.378217 v 3.95339 h 0.59642 v -3.95339 h 1.372369 v -0.50806 z m 3.90531,0 v 4.46145 h 0.596638 v -1.88563 h 0.566967 c 0.193942,0 0.35066,0.0467 0.47016,0.14033 0.121462,0.0916 0.257813,0.29799 0.40866,0.61873 l 0.523002,1.12657 h 0.637568 l -0.596419,-1.21926 c -0.160641,-0.3307 -0.294851,-0.55095 -0.402596,-0.66052 -0.107745,-0.11156 -0.238095,-0.18712 -0.3909,-0.22696 0.286017,-0.0418 0.507483,-0.15539 0.664206,-0.34066 0.15868,-0.18726 0.238003,-0.42828 0.238003,-0.72311 0,-0.41835 -0.128418,-0.73825 -0.385054,-0.95939 -0.25663,-0.22112 -0.625809,-0.33155 -1.107724,-0.33155 z m 3.781873,0 v 4.46145 h 2.659413 v -0.50806 h -2.06581 v -1.61666 h 1.921793 v -0.50806 h -1.921793 v -1.32061 h 2.009938 v -0.50806 z m 3.729027,0 v 4.46145 h 0.596637 v -2.13078 h 1.80117 v -0.50785 h -1.80117 v -1.31476 h 1.986331 v -0.50806 z m 3.623347,0 v 4.46145 h 0.596415 v -2.13078 h 1.801388 v -0.50785 h -1.801388 v -1.31476 h 1.98655 v -0.50806 z m -10.537609,0.49593 h 0.625873 c 0.282098,0 0.496486,0.0687 0.643411,0.20617 0.148886,0.13547 0.223494,0.33185 0.223494,0.58884 0,0.26694 -0.06968,0.4652 -0.208768,0.59469 -0.139088,0.12949 -0.350693,0.19404 -0.634749,0.19404 h -0.649261 z m -5.938857,5.1354 c -2.5231576,0 -4.564318,2.04117 -4.564318,4.56432 0,2.52316 2.0411604,4.56432 4.564318,4.56432 2.523157,0 4.564536,-2.04116 4.564536,-4.56432 0,-2.52315 -2.041379,-4.56432 -4.564536,-4.56432 z m 6.732135,0.83616 c -0.493675,0 -0.861999,0.19119 -1.104917,0.57368 -0.240958,0.38249 -0.361447,0.96334 -0.361447,1.74226 0,0.78091 0.120489,1.36155 0.361447,1.74205 0.240962,0.38049 0.609281,0.57086 1.104917,0.57086 0.495632,0 0.863951,-0.1914 1.104913,-0.5739 0.242919,-0.38249 0.364477,-0.96207 0.364477,-1.73901 0,-0.77892 -0.121558,-1.35977 -0.364477,-1.74226 -0.240962,-0.38249 -0.609281,-0.57368 -1.104913,-0.57368 z m 3.667305,0 c -0.43686,0 -0.787386,0.12061 -1.051853,0.36166 -0.262512,0.23905 -0.393935,0.55771 -0.393935,0.95613 0,0.31875 0.09219,0.57284 0.276337,0.76209 0.184147,0.18926 0.480008,0.33063 0.887486,0.42426 l 0.317264,0.0747 c 0.284059,0.0637 0.482799,0.15447 0.59642,0.27201 0.115585,0.11753 0.173468,0.28776 0.173468,0.51087 0,0.24504 -0.08318,0.43623 -0.249699,0.57368 -0.166517,0.13546 -0.399771,0.20336 -0.699505,0.20336 -0.203735,0 -0.406334,-0.0338 -0.608112,-0.10157 -0.199821,-0.0677 -0.412499,-0.17445 -0.637783,-0.31987 v 0.64255 c 0.209615,0.0896 0.418216,0.15628 0.625873,0.20011 0.207653,0.0458 0.414326,0.0689 0.620022,0.0689 0.493675,0 0.869931,-0.11169 1.12852,-0.33481 0.258592,-0.22311 0.387869,-0.54675 0.387869,-0.97107 0,-0.36058 -0.09412,-0.64561 -0.282186,-0.85479 -0.188065,-0.20917 -0.487782,-0.36236 -0.899175,-0.45998 l -0.311421,-0.0719 c -0.291892,-0.0697 -0.491705,-0.15628 -0.59945,-0.25987 -0.105788,-0.1036 -0.158742,-0.25411 -0.158742,-0.45133 0,-0.22511 0.08125,-0.40321 0.243853,-0.5347 0.162598,-0.13347 0.38406,-0.20032 0.664201,-0.20032 0.184148,0 0.36638,0.0299 0.546613,0.0897 0.182186,0.0597 0.363345,0.1484 0.543574,0.26594 v -0.61266 c -0.205696,-0.0777 -0.401649,-0.1354 -0.587753,-0.17325 -0.186109,-0.0398 -0.363408,-0.0597 -0.531886,-0.0597 z m 2.17756,0.0808 v 4.46124 h 0.573031 v -3.67251 l 1.480868,3.67251 h 0.752346 v -4.46124 h -0.57303 v 3.67251 l -1.481087,-3.67251 z m 4.666321,0 -1.34292,4.46124 h 0.61418 l 0.317263,-1.1623 h 1.536962 l 0.323114,1.1623 h 0.61418 l -1.34292,-4.46124 z m -17.470064,0.18863 c 0,0.28351 -0.02843,0.56714 -0.11348,0.8223 -0.0567,0.14175 -0.113263,0.2834 -0.113263,0.48186 0,0.19845 0.05657,0.34011 0.113263,0.48186 0.08505,0.19845 0.113501,0.42526 0.14185,0.65207 -0.2268,0.0567 -0.453584,0.17012 -0.595336,0.34022 -0.198449,-0.14175 -0.368673,-0.28338 -0.482074,-0.45348 -0.08504,-0.11341 -0.198257,-0.25518 -0.340006,-0.34023 -0.1701,-0.0851 -0.311972,-0.1135 -0.482073,-0.14185 -0.2551506,-0.0284 -0.5385397,-0.1701 -0.7653399,-0.31185 0.567001,-0.87884 1.5308059,-1.47419 2.6364589,-1.5309 z m 0.453704,0 c 1.134004,0.0567 2.097827,0.65206 2.664827,1.5309 -0.255149,0.14175 -0.510206,0.2835 -0.793708,0.31185 -0.141749,0.0284 -0.311972,0.0285 -0.482073,0.14185 -0.170101,0.0851 -0.255173,0.22682 -0.340224,0.34023 -0.141751,0.1701 -0.311755,0.31173 -0.481856,0.45348 -0.141751,-0.1701 -0.368537,-0.31187 -0.595336,-0.34022 0.02835,-0.22681 0.05659,-0.45362 0.141633,-0.65207 0.0567,-0.14175 0.11348,-0.28341 0.11348,-0.48186 0,-0.19846 -0.05678,-0.34011 -0.11348,-0.48186 -0.113401,-0.25516 -0.113263,-0.53879 -0.113263,-0.8223 z m 6.505174,0.22068 c 0.301686,0 0.518219,0.14055 0.649475,0.42144 0.133213,0.28089 0.199888,0.74901 0.199888,1.40442 0,0.65541 -0.06668,1.12353 -0.199888,1.40442 -0.131256,0.2789 -0.347789,0.41841 -0.649475,0.41841 -0.299733,0 -0.516049,-0.14055 -0.649261,-0.42144 -0.131256,-0.28089 -0.197077,-0.74797 -0.197077,-1.40139 0,-0.65541 0.06582,-1.12353 0.197077,-1.40442 0.133212,-0.28089 0.349528,-0.42144 0.649261,-0.42144 z m 10.869598,0.12258 0.626091,2.28303 h -1.251963 z m -20.720265,1.5846 c 0.2551508,0.14175 0.4819761,0.31178 0.6520762,0.51023 0.085045,0.11339 0.1984735,0.25518 0.3402238,0.34022 0.170102,0.0851 0.311973,0.1135 0.482074,0.14185 0.226799,0.0284 0.425274,0.11333 0.652076,0.19838 -0.02835,0.1134 -0.05674,0.22682 -0.05674,0.34022 0,0.11339 0.02839,0.22683 0.05674,0.34022 -0.198451,0.0851 -0.425277,0.17003 -0.652076,0.19837 -0.14175,0.0284 -0.311972,0.0285 -0.482074,0.14186 -0.1701009,0.0851 -0.2551732,0.22682 -0.3402238,0.34022 -0.1701001,0.2268 -0.3969254,0.36848 -0.6520762,0.51022 -0.2268018,-0.45359 -0.3683761,-0.99224 -0.3683761,-1.53089 0.028351,-0.53865 0.1415743,-1.0773 0.3683761,-1.5309 z m 6.237067,0 c 0.226801,0.4536 0.368592,0.99225 0.368592,1.5309 0,0.53865 -0.141791,1.0773 -0.368592,1.53089 -0.255152,-0.14174 -0.481978,-0.31177 -0.652078,-0.51022 -0.08505,-0.1134 -0.198473,-0.25517 -0.340223,-0.34022 -0.170101,-0.0851 -0.311756,-0.1135 -0.481857,-0.14186 -0.226802,-0.0284 -0.425276,-0.11331 -0.652077,-0.19837 0.02835,-0.11339 0.05674,-0.22683 0.05674,-0.34022 0,-0.1134 -0.02839,-0.22682 -0.05674,-0.34022 0.198451,-0.0851 0.425275,-0.17003 0.652077,-0.19838 0.141752,-0.0284 0.311756,-0.0285 0.481857,-0.14185 0.170101,-0.0851 0.255173,-0.22683 0.340223,-0.34022 0.1701,-0.22681 0.396926,-0.36848 0.652078,-0.51023 z m -3.118535,1.10557 c 0.226801,0 0.425334,0.19852 0.425334,0.42533 0,0.2268 -0.198533,0.42533 -0.425334,0.42533 -0.226802,0 -0.425115,-0.19853 -0.425115,-0.42533 0,-0.22681 0.198313,-0.42533 0.425115,-0.42533 z m -0.793709,1.10578 c 0.141752,0.17009 0.368536,0.31187 0.595336,0.34022 -0.02835,0.2268 -0.05681,0.45362 -0.14185,0.65208 -0.0567,0.14175 -0.113263,0.28341 -0.113263,0.48185 0,0.19845 0.05657,0.34032 0.113263,0.48207 0.1134,0.25515 0.11348,0.53858 0.11348,0.82209 -1.105653,-0.0567 -2.0694777,-0.65205 -2.6648287,-1.5309 0.2551496,-0.14175 0.5102085,-0.28351 0.7937097,-0.31186 0.141751,-0.0284 0.311973,-0.0285 0.482073,-0.14185 0.1701,-0.0851 0.254956,-0.22681 0.340006,-0.34022 0.14175,-0.1701 0.311973,-0.31173 0.482074,-0.45348 z m 1.587636,0 c 0.198451,0.14175 0.368455,0.28338 0.481856,0.45348 0.08505,0.11341 0.198473,0.25518 0.340224,0.34022 0.170101,0.0851 0.311973,0.1135 0.482073,0.14185 0.25515,0.0284 0.53854,0.17011 0.765341,0.31186 -0.567001,0.87885 -1.530807,1.47419 -2.63646,1.5309 0,-0.28351 0.02821,-0.56694 0.113263,-0.82209 0.0567,-0.14175 0.11348,-0.28362 0.11348,-0.48207 0,-0.19844 -0.05678,-0.3401 -0.11348,-0.48185 -0.08505,-0.19846 -0.113284,-0.42528 -0.141633,-0.65208 0.226799,-0.0567 0.453585,-0.17013 0.595336,-0.34022 z m 4.658741,1.50512 v 0.28132 h 9.929928 v -0.28132 z"
       inkscape:label="CTreffOS Logo"
       transform="translate(18.797504,108.62044)" />
  </g>
</svg>
