<?xml version="1.0" encoding="UTF-8" standalone="no"?>
<!-- Created with Inkscape (http://www.inkscape.org/) -->

<svg
   width="327.13"
   height="327.13"
   id="svg8195"
   version="1.1"
   inkscape:version="1.4.3 (0d15f75042, 2025-12-25)"
   sodipodi:docname="ctreffos-logo-square.svg"
   inkscape:export-filename="ctreffos-logo-square-whitebg.png"
   inkscape:export-xdpi="75.126099"
   inkscape:export-ydpi="75.126099"
   xmlns:inkscape="http://www.inkscape.org/namespaces/inkscape"
   xmlns:sodipodi="http://sodipodi.sourceforge.net/DTD/sodipodi-0.dtd"
   xmlns="http://www.w3.org/2000/svg"
   xmlns:svg="http://www.w3.org/2000/svg"
   xmlns:rdf="http://www.w3.org/1999/02/22-rdf-syntax-ns#"
   xmlns:cc="http://creativecommons.org/ns#"
   xmlns:dc="http://purl.org/dc/elements/1.1/">
  <defs
     id="defs8197" />
  <sodipodi:namedview
     id="base"
     pagecolor="#ffffff"
     bordercolor="#666666"
     borderopacity="1.0"
     inkscape:pageopacity="0.0"
     inkscape:pageshadow="2"
     inkscape:zoom="1.4"
     inkscape:cx="185"
     inkscape:cy="174.64286"
     inkscape:document-units="px"
     inkscape:current-layer="layer1"
     showgrid="false"
     inkscape:window-width="2560"
     inkscape:window-height="1310"
     inkscape:window-x="0"
     inkscape:window-y="0"
     inkscape:window-maximized="1"
     fit-margin-top="20"
     fit-margin-left="20"
     fit-margin-right="20"
     fit-margin-bottom="20"
     inkscape:showpageshadow="2"
     inkscape:pagecheckerboard="0"
     inkscape:deskcolor="#d1d1d1" />
  <metadata
     id="metadata8200">
    <rdf:RDF>
      <cc:Work
         rdf:about="">
        <dc:format>image/svg+xml</dc:format>
        <dc:type
           rdf:resource="http://purl.org/dc/dcmitype/StillImage" />
        <dc:title />
      </cc:Work>
    </rdf:RDF>
  </metadata>
  <g
     inkscape:label="Layer 1"
     inkscape:groupmode="layer"
     id="layer1"
     transform="translate(-103.21244,-659.6081)">
    <g
       id="g4">
      <g
         id="text2985-3-2-5-5-5"
         style="line-height:0%;letter-spacing:0px;word-spacing:0px"
         transform="matrix(0.79261755,0,0,0.80601726,52.570601,153.96767)"
         aria-label="CHAOS&#10;TREFF&#10; OSNA">
        <path
           style="font-size:68.4761px;line-height:107%;font-family:'DejaVu Sans Mono';-inkscape-font-specification:'DejaVu Sans Mono'"
           d="m 229.25518,768.39375 q -2.57454,1.37086 -5.28283,2.03957 -2.70828,0.70214 -5.75092,0.70214 -9.59601,0 -14.91227,-6.78742 -5.28283,-6.78743 -5.28283,-19.09173 0,-12.23742 5.31626,-19.05828 5.3497,-6.8543 14.87884,-6.8543 3.04264,0 5.75092,0.70215 2.70829,0.66871 5.28283,2.03957 v 6.92117 q -2.47424,-2.03958 -5.31626,-3.10951 -2.84203,-1.06994 -5.71749,-1.06994 -6.58681,0 -9.8635,5.08221 -3.27669,5.08221 -3.27669,15.34693 0,10.2313 3.27669,15.31351 3.27669,5.08221 9.8635,5.08221 2.94233,0 5.75092,-1.06994 2.84203,-1.06994 5.28283,-3.10951 z m 9.93037,-48.14726 h 6.78743 v 20.46258 h 18.48988 v -20.46258 h 6.78742 v 49.91934 h -6.78742 v -23.77271 h -18.48988 v 23.77271 h -6.78743 z m 57.24174,5.95154 -7.12178,25.54479 h 14.24356 z m -4.07914,-5.95154 h 8.19172 l 15.28006,49.91934 h -6.98804 l -3.67791,-13.00644 h -17.48682 l -3.61104,13.00644 h -6.98804 z m 54.96812,25.00982 q 0,-11.00031 -2.27362,-15.71472 -2.24019,-4.71442 -7.38927,-4.71442 -5.11565,0 -7.38927,4.71442 -2.24018,4.71441 -2.24018,15.71472 0,10.96688 2.24018,15.6813 2.27362,4.71442 7.38927,4.71442 5.14908,0 7.38927,-4.68099 2.27362,-4.71441 2.27362,-15.71473 z m 7.05491,0 q 0,13.03989 -4.14602,19.45952 -4.11258,6.41963 -12.57178,6.41963 -8.45921,0 -12.57178,-6.38619 -4.11258,-6.3862 -4.11258,-19.49296 0,-13.07331 4.11258,-19.49295 4.14601,-6.41963 12.57178,-6.41963 8.4592,0 12.57178,6.41963 4.14602,6.41964 4.14602,19.49295 z m 37.74878,-23.3046 v 6.85429 q -3.07607,-1.9727 -6.18558,-2.97577 -3.07608,-1.00306 -6.21902,-1.00306 -4.78129,0 -7.55645,2.24018 -2.77515,2.20675 -2.77515,5.98497 0,3.31013 1.80552,5.04878 1.83896,1.73865 6.82086,2.90889 l 3.54418,0.80246 q 7.02147,1.63834 10.23129,5.14908 3.20981,3.51074 3.20981,9.56258 0,7.12178 -4.41349,10.86657 -4.4135,3.74478 -12.83927,3.74478 -3.51074,0 -7.05491,-0.76901 -3.54418,-0.73559 -7.12178,-2.24019 v -7.18865 q 3.84509,2.4408 7.25552,3.57761 3.44387,1.13681 6.92117,1.13681 5.11564,0 7.95767,-2.27362 2.84202,-2.30706 2.84202,-6.41964 0,-3.74478 -1.9727,-5.71748 -1.93926,-1.9727 -6.78742,-3.04264 l -3.61104,-0.83589 q -6.95461,-1.57148 -10.09755,-4.74786 -3.14295,-3.17638 -3.14295,-8.52607 0,-6.68712 4.48037,-10.69939 4.5138,-4.04571 11.96994,-4.04571 2.87546,0 6.05184,0.66871 3.17639,0.63528 6.68712,1.93927 z"
           id="path1-91" />
        <path
           style="font-size:68.4761px;line-height:107%;font-family:'DejaVu Sans Mono';-inkscape-font-specification:'DejaVu Sans Mono'"
           d="m 194.95026,793.51592 h 38.08314 v 5.68405 h -15.61442 v 44.23529 h -6.78743 v -44.23529 h -15.68129 z m 65.06567,26.34725 q 2.60797,0.66871 4.44693,2.5411 1.83896,1.83896 4.58068,7.38927 l 6.78742,13.64172 h -7.25552 l -5.95154,-12.60522 q -2.57454,-5.38313 -4.64755,-6.92117 -2.03957,-1.57147 -5.34969,-1.57147 h -6.45307 v 21.09786 h -6.78743 v -49.91934 h 13.90921 q 8.22516,0 12.60522,3.71135 4.38006,3.71135 4.38006,10.73282 0,4.94847 -2.70828,8.09142 -2.67485,3.10951 -7.55644,3.81166 z m -13.84234,-20.79694 v 17.72086 h 7.38927 q 4.84816,0 7.22208,-2.17331 2.37393,-2.17332 2.37393,-6.65369 0,-4.31319 -2.5411,-6.58681 -2.50767,-2.30705 -7.3224,-2.30705 z m 36.24419,-5.55031 h 29.62393 v 5.68405 h -22.86994 v 14.77853 h 21.86687 v 5.68405 h -21.86687 v 18.08866 h 23.50522 v 5.68405 h -30.25921 z m 42.42977,0 h 29.38988 v 5.68405 h -22.60246 v 14.71166 h 20.49602 v 5.68405 h -20.49602 v 23.83958 h -6.78742 z m 41.22609,0 h 29.38988 v 5.68405 h -22.60246 v 14.71166 h 20.49602 v 5.68405 h -20.49602 v 23.83958 h -6.78742 z"
           id="path2-9" />
        <path
           style="font-size:68.4761px;line-height:107%;font-family:'DejaVu Sans Mono';-inkscape-font-specification:'DejaVu Sans Mono'"
           d="m 264.86409,891.79517 q 0,-11.00031 -2.27362,-15.71473 -2.24019,-4.71442 -7.38927,-4.71442 -5.11565,0 -7.38927,4.71442 -2.24018,4.71442 -2.24018,15.71473 0,10.96687 2.24018,15.68129 2.27362,4.71442 7.38927,4.71442 5.14908,0 7.38927,-4.68098 2.27362,-4.71442 2.27362,-15.71473 z m 7.05491,0 q 0,13.03988 -4.14602,19.45952 -4.11257,6.41963 -12.57178,6.41963 -8.45921,0 -12.57178,-6.3862 -4.11258,-6.3862 -4.11258,-19.49295 0,-13.07332 4.11258,-19.49295 4.14601,-6.41964 12.57178,-6.41964 8.45921,0 12.57178,6.41964 4.14602,6.41963 4.14602,19.49295 z m 37.74878,-23.30461 v 6.8543 q -3.07607,-1.9727 -6.18558,-2.97577 -3.07608,-1.00307 -6.21902,-1.00307 -4.78129,0 -7.55645,2.24019 -2.77515,2.20675 -2.77515,5.98497 0,3.31012 1.80552,5.04877 1.83896,1.73865 6.82086,2.9089 l 3.54418,0.80245 q 7.02147,1.63835 10.23129,5.14909 3.20982,3.51073 3.20982,9.56258 0,7.12178 -4.4135,10.86656 -4.4135,3.74479 -12.83927,3.74479 -3.51074,0 -7.05491,-0.76902 -3.54417,-0.73558 -7.12178,-2.24018 v -7.18866 q 3.84509,2.4408 7.25552,3.57761 3.44387,1.13681 6.92117,1.13681 5.11564,0 7.95767,-2.27362 2.84203,-2.30705 2.84203,-6.41963 0,-3.74479 -1.9727,-5.71749 -1.93927,-1.9727 -6.78743,-3.04264 l -3.61104,-0.83589 q -6.95461,-1.57147 -10.09755,-4.74785 -3.14295,-3.17638 -3.14295,-8.52608 0,-6.68712 4.48037,-10.69939 4.51381,-4.04571 11.96994,-4.04571 2.87546,0 6.05185,0.66872 3.17638,0.63527 6.68711,1.93926 z m 12.03682,-1.70521 h 8.55951 l 16.85154,41.09234 v -41.09234 h 6.51994 v 49.91934 h -8.55951 l -16.85154,-41.09235 v 41.09235 h -6.51994 z m 57.17487,5.95153 -7.12178,25.5448 h 14.24356 z m -4.07914,-5.95153 h 8.19172 l 15.28006,49.91934 h -6.98804 l -3.67791,-13.00645 h -17.48682 l -3.61104,13.00645 h -6.98804 z"
           id="path3-6" />
      </g>
      <path
         style="baseline-shift:baseline;display:inline;overflow:visible;vector-effect:none;stroke-width:0.999999;marker:none;enable-background:accumulate;stop-color:#000000"
         d="m 192.45005,719.64632 v 114.83595 h 2.53711 V 722.18344 h 183.03318 v 144.26952 h 2.53712 V 719.64632 Z m 50.85742,185.57034 v 2.53709 h 89.5547 v -2.53709 z"
         id="rect7647-4-3-9-1-6" />
      <g
         id="g6-9-4-6"
         transform="matrix(0.20465413,0,0,0.20494073,194.1329,885.5068)">
        <path
           d="m 6,37 c 0,19 3,38 17,57 -12,12 -10,41 -10,62 h -25 c 0,-21 1,-50 -11,-62 C -9,75 -6,56 -6,37 Z"
           id="felly-1-0-4"
           inkscape:connector-curvature="0"
           style="fill:#000000" />
        <path
           d="m -29.04294,23.696152 c -16.454483,9.5 -31.408965,21.598077 -40.863448,43.222432 -16.392305,-4.392305 -40.507042,11.839746 -58.693572,22.339746 l -12.5,-21.650635 c 18.18653,-10.5 43.801267,-24.133974 48.193572,-40.526279 23.454483,2.624355 41.408965,-4.277568 57.863448,-13.777568 z"
           id="use9-0-9-0"
           inkscape:connector-curvature="0"
           style="fill:#000000" />
        <path
           d="m -35.04294,-13.303848 c -16.454483,-9.5 -34.408965,-16.401923 -57.863448,-13.777568 -4.392305,-16.392305 -30.507042,-29.160254 -48.693572,-39.660254 l 12.5,-21.650635 c 18.18653,10.5 42.801267,25.866026 59.193572,21.473721 9.454483,21.624355 24.408965,33.722432 40.863448,43.222432 z"
           id="use11-0-3-0"
           inkscape:connector-curvature="0"
           style="fill:#000000" />
        <path
           d="m -6,-37 c 0,-19 -3,-38 -17,-57 12,-12 10,-41 10,-62 h 25 c 0,21 -1,50 11,62 C 9,-75 6,-56 6,-37 Z"
           id="use13-8-8-4"
           inkscape:connector-curvature="0"
           style="fill:#000000" />
        <path
           d="m 29.04294,-23.696152 c 16.454483,-9.5 31.408965,-21.598077 40.863448,-43.222432 16.392305,4.392305 40.507042,-11.839746 58.693572,-22.339746 l 12.5,21.650635 c -18.18653,10.5 -43.801267,24.133974 -48.193572,40.526279 -23.454483,-2.624355 -41.408965,4.277568 -57.863448,13.777568 z"
           id="use15-7-4-6"
           inkscape:connector-curvature="0"
           style="fill:#000000" />
        <path
           d="m 35.04294,13.303848 c 16.454483,9.5 34.408965,16.401923 57.863448,13.777568 4.392305,16.392305 30.507042,29.160254 48.693572,39.660254 l -12.5,21.650635 C 110.91343,77.892305 86.298693,62.526279 69.906388,66.918584 60.451905,45.294229 45.497423,33.196152 29.04294,23.696152 Z"
           id="use17-8-2-2"
           inkscape:connector-curvature="0"
           style="fill:#000000" />
        <g
           id="g19-5-6-6"
           style="fill:none;stroke:#000000">
          <path
             style="baseline-shift:baseline;display:inline;overflow:visible;opacity:1;vector-effect:none;fill:#000000;stroke:none;enable-background:accumulate;stop-color:#000000;stop-opacity:1"
             d="m 0,-201 c -110.93817,0 -201,90.06183 -201,201 0,110.93817 90.06183,201 201,201 110.93817,0 201,-90.06183 201,-201 0,-110.93817 -90.06183,-201 -201,-201 z m 0,12 c 104.45289,0 189,84.54711 189,189 0,104.45289 -84.54711,189 -189,189 -104.45289,0 -189,-84.54711 -189,-189 0,-104.45289 84.54711,-189 189,-189 z"
             id="circle21-7-3-7" />
          <path
             style="baseline-shift:baseline;display:inline;overflow:visible;opacity:1;vector-effect:none;fill:#000000;stroke:none;enable-background:accumulate;stop-color:#000000;stop-opacity:1"
             d="m 0,-182 c -100.44476,0 -182,81.55524 -182,182 0,100.44476 81.55524,182 182,182 100.44476,0 182,-81.55524 182,-182 0,-100.44476 -81.55524,-182 -182,-182 z m 0,12 c 93.959475,0 170,76.040525 170,170 0,93.959475 -76.040525,170 -170,170 -93.959475,0 -170,-76.040525 -170,-170 0,-93.959475 76.040525,-170 170,-170 z"
             id="circle23-0-2-5" />
          <path
             style="baseline-shift:baseline;display:inline;overflow:visible;opacity:1;vector-effect:none;fill:#000000;stroke:none;enable-background:accumulate;stop-color:#000000;stop-opacity:1"
             d="m 0,-162.5 c -89.681126,0 -162.5,72.818874 -162.5,162.5 0,89.681126 72.818874,162.5 162.5,162.5 C 89.681126,162.5 162.5,89.681126 162.5,0 162.5,-89.681126 89.681126,-162.5 0,-162.5 Z m 0,11 c 83.736285,0 151.5,67.763715 151.5,151.5 0,83.736285 -67.763715,151.5 -151.5,151.5 -83.736285,0 -151.5,-67.763715 -151.5,-151.5 0,-83.736285 67.763715,-151.5 151.5,-151.5 z"
             id="circle25-7-9-6" />
          <path
             style="baseline-shift:baseline;display:inline;overflow:visible;opacity:1;vector-effect:none;fill:#000000;stroke:none;enable-background:accumulate;stop-color:#000000;stop-opacity:1"
             d="m 0,-42.5 c -23.406956,0 -42.5,19.093044 -42.5,42.5 0,23.406956 19.093044,42.5 42.5,42.5 C 23.406956,42.5 42.5,23.406956 42.5,0 42.5,-23.406956 23.406956,-42.5 0,-42.5 Z m 0,11 c 17.462115,0 31.5,14.037885 31.5,31.5 0,17.462115 -14.037885,31.5 -31.5,31.5 -17.462115,0 -31.5,-14.037885 -31.5,-31.5 0,-17.462115 14.037885,-31.5 31.5,-31.5 z"
             id="circle27-5-2-9" />
          <path
             style="baseline-shift:baseline;display:inline;overflow:visible;opacity:1;vector-effect:none;fill:#000000;stroke:none;enable-background:accumulate;stop-color:#000000;stop-opacity:1"
             d="m 0,-23.5 c -12.913546,0 -23.5,10.586454 -23.5,23.5 0,12.913546 10.586454,23.5 23.5,23.5 C 12.913546,23.5 23.5,12.913546 23.5,0 23.5,-12.913546 12.913546,-23.5 0,-23.5 Z m 0,11 c 6.9687049,0 12.5,5.5312951 12.5,12.5 0,6.9687049 -5.5312951,12.5 -12.5,12.5 -6.9687049,0 -12.5,-5.5312951 -12.5,-12.5 0,-6.9687049 5.5312951,-12.5 12.5,-12.5 z"
             id="circle29-8-3-8" />
        </g>
      </g>
    </g>
  </g>
</svg>
