<?xml version="1.0" encoding="UTF-8" standalone="no"?>
<!-- Created with Inkscape (http://www.inkscape.org/) -->

<svg
   width="180.14078mm"
   height="107.37166mm"
   viewBox="0 0 180.14078 107.37166"
   version="1.1"
   id="svg1"
   inkscape:version="1.4 (e7c3feb100, 2024-10-09)"
   sodipodi:docname="sign-text.svg"
   xmlns:inkscape="http://www.inkscape.org/namespaces/inkscape"
   xmlns:sodipodi="http://sodipodi.sourceforge.net/DTD/sodipodi-0.dtd"
   xmlns="http://www.w3.org/2000/svg"
   xmlns:svg="http://www.w3.org/2000/svg">
  <sodipodi:namedview
     id="namedview1"
     pagecolor="#ffffff"
     bordercolor="#000000"
     borderopacity="0.25"
     inkscape:showpageshadow="2"
     inkscape:pageopacity="0.0"
     inkscape:pagecheckerboard="0"
     inkscape:deskcolor="#d1d1d1"
     inkscape:document-units="mm"
     inkscape:zoom="1.3782829"
     inkscape:cx="425.89225"
     inkscape:cy="179.93403"
     inkscape:window-width="2560"
     inkscape:window-height="1305"
     inkscape:window-x="0"
     inkscape:window-y="0"
     inkscape:window-maximized="1"
     inkscape:current-layer="layer1"
     showgrid="false" />
  <defs
     id="defs1" />
  <g
     inkscape:label="Layer 1"
     inkscape:groupmode="layer"
     id="layer1"
     transform="translate(34.925,-88.33008)">
    <g
       id="g12"
       transform="matrix(0.24192618,0,0,0.24192618,-48.796454,60.249675)">
      <path
         id="path12"
         d="m 133.795,448.355 c -1.502,-0.822 -3.061,-1.417 -4.649,-1.814 -1.615,-0.425 -3.316,-0.652 -5.102,-0.652 -5.641,0 -10.035,2.041 -13.181,6.123 -3.118,4.054 -4.677,9.78 -4.677,17.15 0,7.341 1.559,13.039 4.705,17.149 3.147,4.11 7.54,6.151 13.153,6.151 1.786,0 3.487,-0.198 5.102,-0.623 1.588,-0.397 3.147,-1.021 4.649,-1.843 v -6.208 c -1.445,1.219 -3.004,2.155 -4.705,2.778 -1.673,0.652 -3.345,0.964 -5.046,0.964 -3.883,0 -6.775,-1.531 -8.731,-4.564 -1.927,-3.061 -2.891,-7.653 -2.891,-13.804 0,-6.123 0.964,-10.715 2.891,-13.777 1.956,-3.033 4.848,-4.564 8.731,-4.564 1.729,0 3.43,0.341 5.102,0.964 1.673,0.652 3.232,1.588 4.649,2.807 z m 8.788,43.285 h 6.009 v -18.396 h 16.356 v 18.396 h 5.981 v -44.872 h -5.981 v 21.373 h -16.356 v -21.373 h -6.009 z m 50.626,-5.329 -6.321,-22.989 h 12.614 z m -3.628,5.329 h 7.257 l 13.521,-44.872 h -6.179 l -3.26,11.707 h -15.477 l -3.175,-11.707 h -6.18 z m 48.614,-22.478 c 0,6.604 -0.68,11.31 -2.012,14.144 -1.333,2.807 -3.487,4.224 -6.52,4.224 -3.033,0 -5.216,-1.417 -6.548,-4.224 -1.332,-2.834 -1.984,-7.54 -1.984,-14.144 0,-6.577 0.652,-11.282 1.984,-14.089 1.332,-2.834 3.515,-4.252 6.548,-4.252 3.033,0 5.187,1.418 6.52,4.224 1.332,2.806 2.012,7.54 2.012,14.117 z m 6.236,0 c 0,-7.824 -1.218,-13.635 -3.656,-17.49 -2.438,-3.855 -6.151,-5.783 -11.112,-5.783 -4.989,0 -8.702,1.928 -11.14,5.755 -2.41,3.826 -3.629,9.666 -3.629,17.518 0,7.852 1.219,13.691 3.629,17.518 2.466,3.855 6.151,5.782 11.14,5.782 4.961,0 8.674,-1.927 11.112,-5.782 2.438,-3.827 3.656,-9.666 3.656,-17.518 z m 33.393,14.796 c -1.815,1.191 -3.657,2.07 -5.471,2.665 -1.814,0.624 -3.657,0.907 -5.499,0.907 -2.835,0 -5.046,-0.68 -6.69,-2.012 -1.644,-1.333 -2.466,-3.119 -2.466,-5.386 0,-1.985 0.538,-3.487 1.615,-4.536 1.078,-1.049 3.09,-1.899 6.01,-2.608 l 3.146,-0.737 c 4.139,-0.963 7.144,-2.522 9.043,-4.62 1.899,-2.098 2.834,-4.961 2.834,-8.589 0,-4.28 -1.303,-7.54 -3.883,-9.78 -2.608,-2.239 -6.406,-3.373 -11.367,-3.373 -2.069,0 -4.139,0.227 -6.236,0.709 -2.098,0.425 -4.195,1.105 -6.293,2.012 v 6.463 c 2.268,-1.474 4.394,-2.551 6.406,-3.231 2.041,-0.68 4.082,-1.021 6.123,-1.021 3.005,0 5.358,0.681 7.03,2.041 1.672,1.389 2.523,3.317 2.523,5.783 0,2.239 -0.595,3.969 -1.758,5.131 -1.134,1.19 -3.118,2.097 -5.981,2.749 l -3.203,0.737 c -4.11,0.964 -7.087,2.382 -8.929,4.281 -1.843,1.899 -2.778,4.45 -2.778,7.653 0,4.025 1.332,7.229 3.969,9.638 2.664,2.41 6.179,3.628 10.573,3.628 1.701,0 3.486,-0.198 5.357,-0.595 1.871,-0.397 3.855,-0.964 5.925,-1.757 z"
         style="color:#000000;font-style:normal;font-variant:normal;font-weight:normal;font-stretch:normal;font-size:medium;line-height:normal;font-family:sans-serif;font-variant-ligatures:normal;font-variant-position:normal;font-variant-caps:normal;font-variant-numeric:normal;font-variant-alternates:normal;font-variant-east-asian:normal;font-feature-settings:normal;font-variation-settings:normal;text-indent:0;text-align:start;text-decoration-line:none;text-decoration-style:solid;text-decoration-color:#000000;letter-spacing:normal;word-spacing:normal;text-transform:none;writing-mode:lr-tb;direction:ltr;text-orientation:mixed;dominant-baseline:auto;baseline-shift:baseline;text-anchor:start;white-space:normal;shape-padding:0;shape-margin:0;inline-size:0;clip-rule:nonzero;display:inline;overflow:visible;visibility:visible;isolation:auto;mix-blend-mode:normal;color-interpolation:sRGB;color-interpolation-filters:linearRGB;solid-color:#000000;solid-opacity:1;vector-effect:none;fill:#000000;fill-opacity:1;fill-rule:evenodd;stroke:none;stroke-linecap:butt;stroke-linejoin:miter;stroke-miterlimit:4;stroke-dasharray:none;stroke-dashoffset:0;stroke-opacity:1;-inkscape-stroke:none;color-rendering:auto;image-rendering:auto;shape-rendering:auto;text-rendering:auto;enable-background:accumulate;stop-color:#000000;stop-opacity:1"
         transform="matrix(1.3333333,0,0,-1.3333333,0,793.70079)" />
      <path
         id="path13"
         d="m 103.465,425.763 h 33.675 v -5.102 h -13.805 v -39.77 h -6.009 v 39.77 h -13.861 z m 61.483,-25.965 c 1.077,-1.106 2.409,-3.317 4.025,-6.633 l 6.01,-12.274 h -6.407 l -5.272,11.338 c -1.502,3.232 -2.891,5.301 -4.11,6.208 -1.191,0.964 -2.778,1.418 -4.734,1.418 h -5.698 v -18.964 h -6.009 v 44.872 h 12.302 c 4.847,0 8.561,-1.105 11.14,-3.316 2.58,-2.24 3.884,-5.443 3.884,-9.666 0,-2.949 -0.794,-5.386 -2.381,-7.257 -1.588,-1.871 -3.827,-3.033 -6.69,-3.43 1.531,-0.397 2.835,-1.162 3.94,-2.296 z m -16.186,20.976 v -15.93 h 6.548 c 2.835,0 4.961,0.651 6.378,1.955 1.389,1.304 2.098,3.289 2.098,5.982 0,2.579 -0.766,4.563 -2.24,5.924 -1.502,1.389 -3.656,2.069 -6.491,2.069 z m 32.06,4.989 h 26.192 v -5.102 h -20.239 v -13.295 h 19.332 v -5.102 h -19.332 v -16.271 h 20.778 v -5.102 h -26.731 z m 37.502,0 h 25.994 v -5.102 h -19.984 v -13.238 h 18.113 v -5.102 h -18.113 v -21.43 h -6.01 z m 36.454,0 h 25.994 v -5.102 h -19.985 v -13.238 h 18.114 v -5.102 h -18.114 v -21.43 h -6.009 z"
         style="color:#000000;font-style:normal;font-variant:normal;font-weight:normal;font-stretch:normal;font-size:medium;line-height:normal;font-family:sans-serif;font-variant-ligatures:normal;font-variant-position:normal;font-variant-caps:normal;font-variant-numeric:normal;font-variant-alternates:normal;font-variant-east-asian:normal;font-feature-settings:normal;font-variation-settings:normal;text-indent:0;text-align:start;text-decoration-line:none;text-decoration-style:solid;text-decoration-color:#000000;letter-spacing:normal;word-spacing:normal;text-transform:none;writing-mode:lr-tb;direction:ltr;text-orientation:mixed;dominant-baseline:auto;baseline-shift:baseline;text-anchor:start;white-space:normal;shape-padding:0;shape-margin:0;inline-size:0;clip-rule:nonzero;display:inline;overflow:visible;visibility:visible;isolation:auto;mix-blend-mode:normal;color-interpolation:sRGB;color-interpolation-filters:linearRGB;solid-color:#000000;solid-opacity:1;vector-effect:none;fill:#000000;fill-opacity:1;fill-rule:evenodd;stroke:none;stroke-linecap:butt;stroke-linejoin:miter;stroke-miterlimit:4;stroke-dasharray:none;stroke-dashoffset:0;stroke-opacity:1;-inkscape-stroke:none;color-rendering:auto;image-rendering:auto;shape-rendering:auto;text-rendering:auto;enable-background:accumulate;stop-color:#000000;stop-opacity:1"
         transform="matrix(1.3333333,0,0,-1.3333333,0,793.70079)" />
      <path
         id="path14"
         d="m 163.276,351.524 c -1.304,2.834 -3.487,4.252 -6.52,4.252 -3.033,0 -5.216,-1.418 -6.548,-4.252 -1.304,-2.806 -1.984,-7.512 -1.984,-14.117 0,-6.576 0.68,-11.282 1.984,-14.088 1.332,-2.835 3.515,-4.252 6.548,-4.252 3.033,0 5.216,1.417 6.52,4.224 1.332,2.806 2.012,7.512 2.012,14.116 0,6.605 -0.68,11.311 -2.012,14.117 z m 8.248,-14.117 c 0,-7.823 -1.218,-13.634 -3.656,-17.489 -2.438,-3.856 -6.123,-5.783 -11.112,-5.783 -4.989,0 -8.702,1.927 -11.14,5.754 -2.41,3.827 -3.629,9.666 -3.629,17.518 0,7.824 1.219,13.692 3.629,17.518 2.466,3.856 6.151,5.783 11.14,5.783 4.989,0 8.674,-1.927 11.112,-5.783 2.438,-3.826 3.656,-9.694 3.656,-17.518 z m 33.393,14.797 c -1.815,1.191 -3.657,2.069 -5.471,2.665 -1.815,0.595 -3.657,0.907 -5.5,0.907 -2.834,0 -5.045,-0.681 -6.689,-2.013 -1.644,-1.332 -2.466,-3.118 -2.466,-5.386 0,-1.984 0.538,-3.486 1.615,-4.535 1.077,-1.049 3.09,-1.928 6.01,-2.608 l 3.146,-0.737 c 4.139,-0.964 7.144,-2.523 9.043,-4.62 1.899,-2.098 2.834,-4.961 2.834,-8.589 0,-4.281 -1.304,-7.541 -3.883,-9.78 -2.608,-2.239 -6.406,-3.373 -11.367,-3.373 -2.069,0 -4.139,0.227 -6.236,0.709 -2.098,0.425 -4.196,1.105 -6.293,2.012 v 6.463 c 2.268,-1.474 4.394,-2.551 6.406,-3.231 2.041,-0.681 4.082,-1.021 6.123,-1.021 3.033,0 5.357,0.68 7.03,2.041 1.672,1.389 2.523,3.317 2.523,5.783 0,2.239 -0.567,3.94 -1.758,5.13 -1.134,1.191 -3.118,2.098 -5.981,2.75 l -3.203,0.737 c -4.11,0.936 -7.058,2.381 -8.929,4.28 -1.843,1.9 -2.778,4.451 -2.778,7.654 0,4.025 1.332,7.228 3.968,9.638 2.665,2.409 6.18,3.628 10.574,3.628 1.7,0 3.486,-0.198 5.357,-0.595 1.871,-0.397 3.855,-0.964 5.925,-1.758 z m 10.629,7.682 h 7.569 l 14.91,-36.935 v 36.935 h 5.755 v -44.872 h -7.569 l -14.91,36.935 v -36.935 h -5.755 z m 50.571,-5.329 -6.322,-22.989 h 12.614 z m -3.629,5.329 h 7.257 l 13.493,-44.872 h -6.18 l -3.231,11.678 H 258.35 l -3.175,-11.678 h -6.18 z m 32.769,-23.442 v -16.441 h 7.058 c 3.487,0 5.953,0.623 7.427,1.842 1.474,1.219 2.211,3.26 2.211,6.095 0,2.919 -0.766,5.074 -2.325,6.434 -1.559,1.389 -3.997,2.07 -7.313,2.07 z m 0,18.453 v -13.521 h 6.945 c 2.891,0 4.96,0.567 6.236,1.672 1.304,1.134 1.956,2.948 1.956,5.443 0,2.267 -0.652,3.912 -1.928,4.904 -1.247,1.02 -3.345,1.502 -6.264,1.502 z m -6.01,4.989 h 13.068 c 4.507,0 7.994,-0.992 10.431,-2.976 2.467,-1.985 3.685,-4.791 3.685,-8.419 0,-2.75 -0.651,-4.904 -1.955,-6.492 -1.276,-1.587 -3.232,-2.579 -5.811,-2.976 2.919,-0.425 5.187,-1.701 6.803,-3.77 1.672,-2.069 2.494,-4.706 2.494,-7.909 0,-4.082 -1.304,-7.143 -3.94,-9.241 -2.608,-2.069 -6.52,-3.089 -11.707,-3.089 h -13.068 z m 57.94,-25.965 c 1.106,-1.106 2.438,-3.317 4.054,-6.633 l 6.009,-12.274 h -6.406 l -5.272,11.338 c -1.531,3.232 -2.892,5.301 -4.111,6.208 -1.19,0.935 -2.778,1.417 -4.733,1.417 h -5.698 v -18.963 h -6.01 v 44.872 h 12.303 c 4.847,0 8.56,-1.105 11.14,-3.317 2.58,-2.239 3.883,-5.442 3.883,-9.666 0,-2.948 -0.793,-5.385 -2.409,-7.285 -1.559,-1.842 -3.798,-3.004 -6.661,-3.401 1.53,-0.425 2.834,-1.162 3.911,-2.296 z m -16.157,20.976 v -15.931 h 6.52 c 2.863,0 4.989,0.652 6.406,1.956 1.389,1.304 2.098,3.288 2.098,5.981 0,2.58 -0.766,4.564 -2.268,5.925 -1.474,1.389 -3.629,2.069 -6.463,2.069 z m 30.557,4.989 h 6.01 V 329.47 c 0,-2.182 0.057,-3.741 0.17,-4.677 0.113,-0.935 0.34,-1.644 0.624,-2.154 0.623,-1.162 1.53,-2.07 2.721,-2.665 1.219,-0.595 2.664,-0.907 4.337,-0.907 1.729,0 3.175,0.312 4.365,0.907 1.162,0.595 2.098,1.503 2.75,2.665 0.283,0.51 0.482,1.219 0.623,2.154 0.114,0.907 0.17,2.466 0.17,4.621 v 30.472 h 5.982 v -27.638 c 0,-4.592 -0.284,-7.88 -0.879,-9.808 -0.539,-1.927 -1.503,-3.515 -2.891,-4.79 -1.304,-1.162 -2.778,-2.069 -4.451,-2.636 -1.672,-0.596 -3.572,-0.879 -5.669,-0.879 -2.069,0 -3.94,0.283 -5.613,0.879 -1.672,0.567 -3.175,1.474 -4.479,2.636 -1.36,1.247 -2.324,2.863 -2.891,4.819 -0.595,1.984 -0.879,5.244 -0.879,9.779 z m 63.837,-43.285 c -1.503,-0.822 -3.062,-1.417 -4.678,-1.843 -1.587,-0.396 -3.288,-0.623 -5.074,-0.623 -5.669,0 -10.063,2.041 -13.181,6.094 -3.118,4.082 -4.677,9.808 -4.677,17.178 0,7.342 1.559,13.04 4.706,17.15 3.146,4.082 7.54,6.151 13.152,6.151 1.786,0 3.487,-0.198 5.074,-0.624 1.616,-0.396 3.175,-1.02 4.678,-1.842 v -6.236 c -1.446,1.247 -3.033,2.154 -4.706,2.806 -1.672,0.652 -3.345,0.964 -5.046,0.964 -3.883,0 -6.803,-1.531 -8.73,-4.564 -1.928,-3.061 -2.892,-7.654 -2.892,-13.805 0,-6.123 0.964,-10.715 2.892,-13.776 1.927,-3.033 4.847,-4.564 8.73,-4.564 1.73,0 3.43,0.312 5.074,0.964 1.673,0.652 3.232,1.587 4.678,2.806 z m 8.787,43.285 h 6.009 V 339.93 l 18.652,19.956 h 7.002 l -17.178,-18.34 17.688,-26.532 h -7.228 l -14.4,22.478 -4.536,-4.932 v -17.546 h -6.009 z"
         style="color:#000000;font-style:normal;font-variant:normal;font-weight:normal;font-stretch:normal;font-size:medium;line-height:normal;font-family:sans-serif;font-variant-ligatures:normal;font-variant-position:normal;font-variant-caps:normal;font-variant-numeric:normal;font-variant-alternates:normal;font-variant-east-asian:normal;font-feature-settings:normal;font-variation-settings:normal;text-indent:0;text-align:start;text-decoration-line:none;text-decoration-style:solid;text-decoration-color:#000000;letter-spacing:normal;word-spacing:normal;text-transform:none;writing-mode:lr-tb;direction:ltr;text-orientation:mixed;dominant-baseline:auto;baseline-shift:baseline;text-anchor:start;white-space:normal;shape-padding:0;shape-margin:0;inline-size:0;clip-rule:nonzero;display:inline;overflow:visible;visibility:visible;isolation:auto;mix-blend-mode:normal;color-interpolation:sRGB;color-interpolation-filters:linearRGB;solid-color:#000000;solid-opacity:1;vector-effect:none;fill:#000000;fill-opacity:1;fill-rule:evenodd;stroke:none;stroke-linecap:butt;stroke-linejoin:miter;stroke-miterlimit:4;stroke-dasharray:none;stroke-dashoffset:0;stroke-opacity:1;-inkscape-stroke:none;color-rendering:auto;image-rendering:auto;shape-rendering:auto;text-rendering:auto;enable-background:accumulate;stop-color:#000000;stop-opacity:1"
         transform="matrix(1.3333333,0,0,-1.3333333,0,793.70079)" />
      <path
         id="path15"
         d="m 87.137,380.125 h 2.835 V 505.388 H 294.151 V 380.125 h 2.835 V 508.223 H 87.137 Z m 56.75,-81.751 h 99.893 v 2.835 h -99.893 z"
         style="color:#000000;font-style:normal;font-variant:normal;font-weight:normal;font-stretch:normal;font-size:medium;line-height:normal;font-family:sans-serif;font-variant-ligatures:normal;font-variant-position:normal;font-variant-caps:normal;font-variant-numeric:normal;font-variant-alternates:normal;font-variant-east-asian:normal;font-feature-settings:normal;font-variation-settings:normal;text-indent:0;text-align:start;text-decoration-line:none;text-decoration-style:solid;text-decoration-color:#000000;letter-spacing:normal;word-spacing:normal;text-transform:none;writing-mode:lr-tb;direction:ltr;text-orientation:mixed;dominant-baseline:auto;baseline-shift:baseline;text-anchor:start;white-space:normal;shape-padding:0;shape-margin:0;inline-size:0;clip-rule:nonzero;display:inline;overflow:visible;visibility:visible;isolation:auto;mix-blend-mode:normal;color-interpolation:sRGB;color-interpolation-filters:linearRGB;solid-color:#000000;solid-opacity:1;vector-effect:none;fill:#000000;fill-opacity:1;fill-rule:evenodd;stroke:none;stroke-linecap:butt;stroke-linejoin:miter;stroke-miterlimit:4;stroke-dasharray:none;stroke-dashoffset:0;stroke-opacity:1;-inkscape-stroke:none;color-rendering:auto;image-rendering:auto;shape-rendering:auto;text-rendering:auto;enable-background:accumulate;stop-color:#000000;stop-opacity:1"
         transform="matrix(1.3333333,0,0,-1.3333333,0,793.70079)" />
      <path
         id="path16"
         d="m 370.488,359.886 h 9.014 v -1.729 h -6.973 v -4.507 h 6.662 v -1.729 h -6.662 v -5.5 h 7.172 v -1.729 h -9.213 z"
         style="color:#000000;font-style:normal;font-variant:normal;font-weight:normal;font-stretch:normal;font-size:medium;line-height:normal;font-family:sans-serif;font-variant-ligatures:normal;font-variant-position:normal;font-variant-caps:normal;font-variant-numeric:normal;font-variant-alternates:normal;font-variant-east-asian:normal;font-feature-settings:normal;font-variation-settings:normal;text-indent:0;text-align:start;text-decoration-line:none;text-decoration-style:solid;text-decoration-color:#000000;letter-spacing:normal;word-spacing:normal;text-transform:none;writing-mode:lr-tb;direction:ltr;text-orientation:mixed;dominant-baseline:auto;baseline-shift:baseline;text-anchor:start;white-space:normal;shape-padding:0;shape-margin:0;inline-size:0;clip-rule:nonzero;display:inline;overflow:visible;visibility:visible;isolation:auto;mix-blend-mode:normal;color-interpolation:sRGB;color-interpolation-filters:linearRGB;solid-color:#000000;solid-opacity:1;vector-effect:none;fill:#000000;fill-opacity:1;fill-rule:evenodd;stroke:none;stroke-linecap:butt;stroke-linejoin:miter;stroke-miterlimit:4;stroke-dasharray:none;stroke-dashoffset:0;stroke-opacity:1;-inkscape-stroke:none;color-rendering:auto;image-rendering:auto;shape-rendering:auto;text-rendering:auto;enable-background:accumulate;stop-color:#000000;stop-opacity:1"
         transform="matrix(1.3333333,0,0,-1.3333333,0,793.70079)" />
      <path
         id="path17"
         d="m 87.335,369.184 c -17.971,-0.426 -35.376,-12.615 -41.612,-30.416 -5.925,-15.846 -1.928,-34.98 9.638,-46.942 13.776,-15.165 37.133,-18.935 54.878,-9.468 14.967,7.541 25.427,24.407 24.747,41.953 -0.17,18.34 -12.444,35.207 -28.715,41.556 -6.01,2.438 -12.501,3.515 -18.936,3.317 z m 3.629,-2.778 c 17.405,-0.511 34.157,-12.87 39.401,-30.444 4.876,-15.222 0.227,-32.967 -11.111,-43.711 -13.834,-13.833 -36.397,-16.242 -52.753,-6.009 -13.975,8.22 -22.734,25.512 -20.438,42.264 2.041,18.539 17.008,33.875 34.356,37.106 3.458,0.709 7.001,0.935 10.545,0.794 z"
         style="color:#000000;font-style:normal;font-variant:normal;font-weight:normal;font-stretch:normal;font-size:medium;line-height:normal;font-family:sans-serif;font-variant-ligatures:normal;font-variant-position:normal;font-variant-caps:normal;font-variant-numeric:normal;font-variant-alternates:normal;font-variant-east-asian:normal;font-feature-settings:normal;font-variation-settings:normal;text-indent:0;text-align:start;text-decoration-line:none;text-decoration-style:solid;text-decoration-color:#000000;letter-spacing:normal;word-spacing:normal;text-transform:none;writing-mode:lr-tb;direction:ltr;text-orientation:mixed;dominant-baseline:auto;baseline-shift:baseline;text-anchor:start;white-space:normal;shape-padding:0;shape-margin:0;inline-size:0;clip-rule:nonzero;display:inline;overflow:visible;visibility:visible;isolation:auto;mix-blend-mode:normal;color-interpolation:sRGB;color-interpolation-filters:linearRGB;solid-color:#000000;solid-opacity:1;vector-effect:none;fill:#000000;fill-opacity:1;fill-rule:evenodd;stroke:none;stroke-linecap:butt;stroke-linejoin:miter;stroke-miterlimit:4;stroke-dasharray:none;stroke-dashoffset:0;stroke-opacity:1;-inkscape-stroke:none;color-rendering:auto;image-rendering:auto;shape-rendering:auto;text-rendering:auto;enable-background:accumulate;stop-color:#000000;stop-opacity:1"
         transform="matrix(1.3333333,0,0,-1.3333333,0,793.70079)" />
      <path
         id="path18"
         d="m 49.72,337.095 c -5.386,-14.655 -1.389,-32.286 9.524,-43.029 12.784,-13.38 33.902,-16.328 49.748,-7.427 13.351,7.086 22.479,22.45 21.657,38.211 -0.482,16.497 -11.651,31.549 -26.362,37.105 -5.443,2.183 -11.282,3.09 -17.093,2.863 C 70.98,364.308 55.276,353.225 49.72,337.095 Z m 41.272,24.974 c 15.761,-0.567 30.869,-11.963 35.377,-27.95 4.28,-14.003 -0.426,-30.189 -11.084,-39.628 -13.039,-12.218 -33.874,-13.578 -48.331,-3.345 -11.848,7.88 -18.793,23.244 -16.441,37.814 2.24,16.044 15.137,29.197 30.189,32.258 3.374,0.737 6.832,0.992 10.29,0.851 z"
         style="color:#000000;font-style:normal;font-variant:normal;font-weight:normal;font-stretch:normal;font-size:medium;line-height:normal;font-family:sans-serif;font-variant-ligatures:normal;font-variant-position:normal;font-variant-caps:normal;font-variant-numeric:normal;font-variant-alternates:normal;font-variant-east-asian:normal;font-feature-settings:normal;font-variation-settings:normal;text-indent:0;text-align:start;text-decoration-line:none;text-decoration-style:solid;text-decoration-color:#000000;letter-spacing:normal;word-spacing:normal;text-transform:none;writing-mode:lr-tb;direction:ltr;text-orientation:mixed;dominant-baseline:auto;baseline-shift:baseline;text-anchor:start;white-space:normal;shape-padding:0;shape-margin:0;inline-size:0;clip-rule:nonzero;display:inline;overflow:visible;visibility:visible;isolation:auto;mix-blend-mode:normal;color-interpolation:sRGB;color-interpolation-filters:linearRGB;solid-color:#000000;solid-opacity:1;vector-effect:none;fill:#000000;fill-opacity:1;fill-rule:evenodd;stroke:none;stroke-linecap:butt;stroke-linejoin:miter;stroke-miterlimit:4;stroke-dasharray:none;stroke-dashoffset:0;stroke-opacity:1;-inkscape-stroke:none;color-rendering:auto;image-rendering:auto;shape-rendering:auto;text-rendering:auto;enable-background:accumulate;stop-color:#000000;stop-opacity:1"
         transform="matrix(1.3333333,0,0,-1.3333333,0,793.70079)" />
      <path
         id="path19"
         d="m 87.902,360.368 c 0,0 -0.311,0 -0.708,-0.028 -0.397,-0.029 -0.794,-0.029 -0.879,-0.029 -0.085,-0.028 -0.312,-0.056 -0.539,-0.056 -0.396,-0.029 -0.652,-0.057 -0.878,-0.086 -0.057,-0.028 -0.255,-0.028 -0.397,-0.056 -0.17,0 -0.34,-0.029 -0.397,-0.029 -0.17,-0.028 -0.34,-0.056 -0.595,-0.085 -0.114,-0.028 -0.312,-0.056 -0.426,-0.085 -0.141,-0.028 -0.311,-0.056 -0.396,-0.056 -0.085,-0.029 -0.227,-0.057 -0.312,-0.057 -0.057,0 -0.17,-0.028 -0.199,-0.028 -0.056,-0.029 -0.141,-0.029 -0.17,-0.057 -0.056,0 -0.17,-0.028 -0.255,-0.028 -0.113,-0.029 -0.425,-0.085 -0.68,-0.142 -0.284,-0.057 -0.539,-0.142 -0.595,-0.142 -0.057,0 -0.17,-0.028 -0.284,-0.057 -0.085,-0.028 -0.198,-0.056 -0.227,-0.056 -0.85,-0.199 -4.082,-1.219 -4.762,-1.559 -0.085,-0.029 -0.312,-0.114 -0.51,-0.199 -1.474,-0.595 -3.628,-1.701 -5.046,-2.579 -0.255,-0.17 -0.51,-0.312 -0.538,-0.34 -0.879,-0.482 -3.26,-2.268 -4.366,-3.232 -1.445,-1.247 -2.863,-2.664 -3.94,-3.94 -0.142,-0.17 -0.34,-0.397 -0.397,-0.454 -0.056,-0.056 -0.17,-0.226 -0.255,-0.34 -0.113,-0.113 -0.198,-0.255 -0.227,-0.283 -0.226,-0.227 -1.304,-1.729 -1.757,-2.353 -0.284,-0.454 -0.794,-1.219 -0.794,-1.247 0,0 -0.028,-0.085 -0.085,-0.142 -0.113,-0.198 -0.879,-1.502 -1.105,-1.928 -0.085,-0.141 -0.199,-0.396 -0.284,-0.51 -0.793,-1.559 -1.729,-3.798 -2.324,-5.641 -0.312,-1.02 -0.737,-2.551 -0.879,-3.26 0,-0.056 -0.057,-0.311 -0.113,-0.595 -0.114,-0.51 -0.312,-1.644 -0.369,-1.927 0,-0.085 -0.028,-0.199 -0.028,-0.256 -0.029,-0.141 -0.114,-0.992 -0.17,-1.36 0,-0.142 -0.029,-0.312 -0.029,-0.369 -0.028,-0.056 -0.028,-0.311 -0.056,-0.538 0,-0.255 -0.029,-0.539 -0.029,-0.624 -0.113,-1.02 -0.113,-3.798 0,-4.932 0,-0.114 0.029,-0.369 0.029,-0.539 0.028,-0.198 0.028,-0.397 0.056,-0.482 0,-0.056 0.029,-0.255 0.029,-0.396 0.028,-0.171 0.028,-0.341 0.056,-0.397 0,-0.057 0.029,-0.227 0.029,-0.397 0.028,-0.17 0.028,-0.312 0.056,-0.312 0,-0.028 0.029,-0.142 0.029,-0.283 0.028,-0.114 0.085,-0.454 0.113,-0.709 0.057,-0.255 0.085,-0.539 0.114,-0.595 0,-0.057 0.028,-0.312 0.085,-0.567 0.056,-0.227 0.113,-0.482 0.113,-0.539 0.028,-0.085 0.34,-1.389 0.369,-1.559 0,-0.028 0.028,-0.113 0.056,-0.17 0.114,-0.51 0.454,-1.587 0.709,-2.353 0.709,-2.154 1.559,-4.053 2.778,-6.321 0.51,-0.935 1.899,-3.118 2.211,-3.487 0.057,-0.028 0.085,-0.085 0.085,-0.113 0,0 0.028,-0.057 0.057,-0.085 0.028,-0.028 0.17,-0.227 0.34,-0.454 1.049,-1.417 2.664,-3.259 3.912,-4.45 0.793,-0.737 0.822,-0.794 1.105,-1.02 0.17,-0.142 0.284,-0.256 0.312,-0.284 0.057,-0.057 0.907,-0.765 1.304,-1.077 1.389,-1.134 3.061,-2.239 4.649,-3.175 0.68,-0.397 2.097,-1.134 2.579,-1.332 1.673,-0.766 2.778,-1.219 4.082,-1.673 1.134,-0.368 2.495,-0.737 3.147,-0.907 0.056,0 0.368,-0.056 0.708,-0.141 0.652,-0.142 1.049,-0.227 1.701,-0.341 0.198,-0.028 0.425,-0.085 0.482,-0.085 0.057,0 0.198,-0.028 0.312,-0.028 0.141,-0.028 0.283,-0.028 0.34,-0.057 0.113,-0.028 0.482,-0.056 1.049,-0.141 0.113,0 0.283,-0.029 0.368,-0.029 0.085,0 0.312,-0.028 0.482,-0.056 0.198,0 0.425,-0.029 0.539,-0.029 1.19,-0.113 4.337,-0.113 5.414,0 0.085,0 0.312,0.029 0.538,0.029 0.199,0.028 0.426,0.056 0.482,0.056 0.085,0 0.255,0.029 0.425,0.029 0.369,0.056 0.567,0.085 0.709,0.085 0.085,0.028 0.227,0.056 0.34,0.056 0.114,0.029 0.255,0.029 0.34,0.057 0.085,0 0.227,0.028 0.312,0.028 0.284,0.057 1.162,0.199 1.361,0.255 0.113,0.029 0.255,0.057 0.312,0.057 0.113,0.029 0.652,0.142 1.105,0.255 0.199,0.057 0.397,0.085 0.454,0.085 0.028,0.029 0.227,0.085 0.425,0.114 0.17,0.056 0.368,0.113 0.425,0.113 0.369,0.085 2.325,0.737 3.175,1.049 0.879,0.34 0.964,0.368 1.559,0.624 1.219,0.51 3.231,1.53 3.968,2.012 0.086,0.028 0.256,0.142 0.369,0.199 0.113,0.056 0.255,0.141 0.312,0.198 0.085,0.057 0.142,0.085 0.142,0.085 0.028,0 0.51,0.283 0.737,0.454 0.085,0.056 0.34,0.226 0.566,0.396 0.823,0.539 2.92,2.098 3.062,2.268 0,0 0.142,0.142 0.312,0.284 0.17,0.141 0.34,0.255 0.368,0.311 0.029,0.029 0.142,0.114 0.255,0.199 0.199,0.198 0.255,0.255 0.737,0.708 0.199,0.171 0.397,0.369 0.454,0.397 0.312,0.284 1.757,1.815 2.296,2.466 0.198,0.227 0.368,0.426 0.397,0.454 0.142,0.17 1.049,1.361 1.304,1.672 0.141,0.227 0.283,0.397 0.312,0.426 0,0 0.085,0.113 0.17,0.226 0.056,0.142 0.141,0.256 0.17,0.256 0.056,0.056 0.793,1.19 1.247,1.927 0.85,1.417 1.842,3.317 2.438,4.734 0.028,0.085 0.085,0.227 0.113,0.34 0.255,0.567 0.879,2.268 1.021,2.778 0.028,0.057 0.113,0.312 0.17,0.539 0.141,0.453 0.397,1.275 0.397,1.389 0.028,0.028 0.085,0.283 0.141,0.567 0.199,0.708 0.369,1.587 0.51,2.296 0.086,0.595 0.114,0.652 0.171,1.048 0,0.114 0.028,0.227 0.028,0.256 0,0.056 0.028,0.17 0.028,0.311 0.029,0.114 0.057,0.256 0.057,0.312 0,0.057 0.028,0.227 0.057,0.369 0,0.17 0.028,0.312 0.028,0.34 0,0.028 0.028,0.227 0.057,0.425 0,0.198 0.028,0.454 0.028,0.567 0.142,1.304 0.142,4.139 0.028,5.471 0,0.113 -0.028,0.368 -0.028,0.567 -0.028,0.397 -0.028,0.453 -0.085,0.879 -0.028,0.283 -0.113,0.907 -0.113,1.077 -0.029,0.056 -0.029,0.198 -0.057,0.283 -0.028,0.227 -0.057,0.397 -0.113,0.709 0,0.113 -0.029,0.283 -0.057,0.368 0,0.114 -0.227,1.191 -0.312,1.559 0,0.057 0,0.142 -0.028,0.199 -0.029,0.142 -0.227,0.935 -0.255,1.134 -0.029,0.056 -0.085,0.226 -0.114,0.368 -0.368,1.389 -0.964,3.175 -1.587,4.677 -0.284,0.709 -0.936,2.098 -1.049,2.296 -0.057,0.057 -0.085,0.142 -0.085,0.17 -0.028,0.029 -0.057,0.114 -0.113,0.199 -0.029,0.085 -0.171,0.312 -0.256,0.51 -0.113,0.199 -0.283,0.539 -0.425,0.737 -0.113,0.199 -0.198,0.397 -0.198,0.397 0,0.028 -0.057,0.113 -0.142,0.227 -0.057,0.085 -0.255,0.397 -0.425,0.68 -0.312,0.51 -1.106,1.729 -1.276,1.956 -0.056,0.057 -0.113,0.17 -0.17,0.227 -1.616,2.239 -3.628,4.478 -5.697,6.264 -0.312,0.284 -0.596,0.539 -0.652,0.567 -0.17,0.17 -1.134,0.907 -1.531,1.219 -1.758,1.332 -4.167,2.806 -5.981,3.685 -0.17,0.085 -0.425,0.199 -0.567,0.255 -1.332,0.652 -3.26,1.389 -5.131,1.956 -0.737,0.227 -2.466,0.681 -2.948,0.766 -0.085,0 -0.17,0.028 -0.17,0.028 -0.028,0 -0.113,0.028 -0.227,0.028 -0.113,0.029 -0.34,0.085 -0.482,0.114 -0.17,0.028 -0.453,0.085 -0.623,0.113 -0.199,0.028 -0.369,0.057 -0.397,0.057 -0.028,0 -0.17,0.028 -0.312,0.056 -0.113,0 -0.255,0.029 -0.283,0.029 -0.057,0 -0.17,0.028 -0.312,0.028 -0.114,0.028 -0.284,0.057 -0.369,0.057 -0.255,0.028 -0.51,0.085 -0.793,0.085 -0.142,0.028 -0.341,0.028 -0.454,0.057 -0.113,0 -0.368,0.028 -0.567,0.028 -0.198,0.028 -0.538,0.057 -0.737,0.057 -0.34,0.028 -3.061,0.056 -3.09,0.028 z m -1.871,-2.665 c 0.029,-0.056 0,-5.045 -0.028,-5.499 0,-0.17 -0.028,-0.425 -0.028,-0.567 -0.029,-0.113 -0.029,-0.397 -0.057,-0.567 0,-0.17 -0.028,-0.397 -0.028,-0.482 -0.029,-0.085 -0.029,-0.255 -0.057,-0.34 -0.028,-0.368 -0.057,-0.567 -0.113,-0.793 0,-0.114 -0.029,-0.284 -0.057,-0.369 -0.028,-0.227 -0.17,-0.85 -0.255,-1.134 -0.028,-0.142 -0.085,-0.312 -0.085,-0.368 -0.085,-0.312 -0.284,-0.794 -0.482,-1.276 -0.142,-0.312 -0.595,-1.049 -0.765,-1.219 -0.057,-0.057 -0.142,-0.17 -0.199,-0.255 l -0.142,-0.142 0.142,-0.198 c 0.085,-0.085 0.312,-0.425 0.539,-0.737 1.559,-2.41 2.579,-5.131 2.948,-7.965 0.028,-0.199 0.056,-0.426 0.056,-0.482 0.029,-0.057 0.029,-0.227 0.057,-0.369 0,-0.142 0.029,-0.34 0.029,-0.425 0.028,-0.142 0.028,-0.34 0.085,-1.304 l 0.028,-0.397 -0.199,-0.028 c -1.559,-0.227 -3.344,-1.049 -4.648,-2.126 -0.199,-0.17 -0.596,-0.539 -0.879,-0.851 -0.284,-0.311 -0.539,-0.566 -0.567,-0.566 -0.028,0 -0.907,0.595 -1.502,0.992 -0.539,0.396 -1.616,1.247 -1.871,1.474 -0.057,0.056 -0.255,0.226 -0.425,0.396 -0.766,0.709 -1.701,1.73 -2.353,2.637 -0.142,0.198 -0.284,0.397 -0.284,0.397 -0.056,0.056 -0.652,0.992 -0.907,1.417 -0.141,0.255 -0.397,0.765 -0.595,1.134 -0.17,0.368 -0.34,0.708 -0.369,0.765 -0.028,0.057 -0.056,0.057 -0.141,0.028 -0.029,-0.028 -0.17,-0.056 -0.284,-0.056 -0.113,-0.029 -0.283,-0.057 -0.34,-0.057 -0.34,-0.057 -1.417,-0.028 -1.786,0.057 -0.056,0 -0.198,0.028 -0.283,0.028 -0.624,0.113 -1.843,0.454 -2.75,0.794 -1.417,0.567 -3.43,1.559 -5.357,2.664 -0.114,0.085 -0.539,0.312 -0.936,0.539 l -0.68,0.397 0.057,0.113 c 0.198,0.312 1.587,2.183 1.729,2.296 0.028,0.029 0.17,0.199 0.34,0.369 0.595,0.737 1.559,1.757 2.324,2.494 0.227,0.227 0.454,0.454 0.511,0.482 0.368,0.369 1.927,1.701 2.409,2.041 0.057,0.057 0.198,0.17 0.312,0.255 0.538,0.425 2.438,1.701 2.976,2.013 0.029,0 0.17,0.085 0.284,0.142 0.51,0.34 2.069,1.162 2.636,1.417 0.142,0.085 0.397,0.198 0.539,0.255 1.105,0.539 2.834,1.191 4.535,1.701 1.02,0.34 3.26,0.85 4.139,0.964 0.085,0 0.255,0.028 0.368,0.056 0.142,0.029 0.34,0.057 0.454,0.085 0.113,0 0.255,0.029 0.34,0.029 0.056,0.028 0.227,0.028 0.34,0.056 0.142,0 0.283,0.029 0.34,0.029 0.057,0.028 0.255,0.028 0.454,0.056 0.17,0 0.34,0.029 0.34,0.029 0.028,0.028 0.113,0 0.141,-0.029 z m 6.52,0 c 0.142,-0.028 0.284,-0.028 0.369,-0.056 0.085,0 0.255,-0.029 0.368,-0.029 0.312,-0.028 0.851,-0.113 0.992,-0.141 0.057,0 0.17,-0.029 0.284,-0.057 0.113,0 0.227,-0.028 0.255,-0.028 0.028,-0.029 0.113,-0.029 0.198,-0.029 0.085,-0.028 0.34,-0.057 0.539,-0.113 0.198,-0.029 0.425,-0.085 0.482,-0.085 0.056,0 0.283,-0.057 0.51,-0.114 0.198,-0.056 0.425,-0.085 0.482,-0.113 0.198,-0.028 1.332,-0.34 1.672,-0.425 2.353,-0.709 4.309,-1.503 6.52,-2.665 1.162,-0.623 1.871,-1.049 2.863,-1.701 0.369,-0.226 0.68,-0.453 0.737,-0.481 0.284,-0.199 1.502,-1.106 2.154,-1.645 0.426,-0.34 1.248,-1.02 1.304,-1.105 0,0 0.142,-0.142 0.312,-0.312 1.021,-0.935 2.41,-2.409 3.402,-3.628 0.51,-0.624 1.474,-1.899 1.445,-1.928 -0.028,-0.028 -0.68,-0.425 -1.02,-0.623 -0.142,-0.085 -0.34,-0.199 -0.425,-0.227 -0.511,-0.312 -0.766,-0.454 -1.106,-0.652 -0.198,-0.114 -0.397,-0.227 -0.425,-0.255 0,0 -0.482,-0.284 -1.049,-0.567 -1.502,-0.794 -2.721,-1.361 -3.713,-1.701 -0.482,-0.17 -1.389,-0.454 -1.588,-0.482 -0.085,0 -0.17,-0.028 -0.198,-0.028 -0.028,-0.029 -0.142,-0.029 -0.255,-0.057 -0.114,0 -0.284,-0.028 -0.397,-0.057 -0.227,-0.028 -1.644,-0.028 -1.814,0.029 -0.057,0 -0.17,0.028 -0.255,0.028 -0.057,0.028 -0.142,0.028 -0.142,0.057 -0.028,0 -0.142,-0.227 -0.283,-0.51 -1.418,-3.034 -3.459,-5.5 -6.265,-7.541 -0.482,-0.368 -1.502,-1.048 -1.729,-1.162 -0.114,-0.056 -0.114,-0.056 -0.681,0.539 -1.218,1.304 -2.579,2.126 -4.195,2.636 -0.567,0.17 -0.765,0.227 -1.162,0.283 l -0.34,0.057 0.028,0.397 c 0,0.369 0.057,1.02 0.085,1.304 0,0.085 0.029,0.283 0.029,0.453 0.028,0.227 0.226,1.531 0.311,1.985 0.057,0.34 0.397,1.701 0.539,2.126 0.539,1.644 1.361,3.373 2.239,4.705 0.142,0.199 0.312,0.454 0.369,0.51 0.028,0.086 0.142,0.199 0.17,0.284 l 0.113,0.113 -0.141,0.17 c -0.256,0.284 -0.341,0.369 -0.567,0.766 -0.397,0.623 -0.737,1.36 -0.992,2.296 -0.171,0.51 -0.397,1.559 -0.426,1.927 -0.028,0.142 -0.056,0.255 -0.056,0.312 0,0.029 -0.029,0.142 -0.029,0.255 -0.028,0.114 -0.028,0.255 -0.056,0.312 0,0.085 -0.057,0.454 -0.085,0.879 0,0.113 -0.029,0.312 -0.029,0.425 -0.028,0.142 -0.028,0.454 -0.056,0.68 0,0.255 -0.029,0.596 -0.029,0.794 -0.028,0.198 -0.028,1.247 -0.057,2.296 v 1.956 l 0.284,-0.028 c 0.17,0 0.397,-0.029 0.51,-0.029 z m 27.978,-19.984 c 0.567,-1.275 1.106,-2.664 1.474,-3.855 0.114,-0.312 0.199,-0.624 0.199,-0.624 0.028,-0.028 0.028,-0.085 0.056,-0.113 0,-0.057 0.057,-0.227 0.114,-0.397 0.028,-0.198 0.113,-0.425 0.141,-0.538 0.029,-0.114 0.085,-0.284 0.085,-0.369 0.029,-0.113 0.114,-0.425 0.199,-0.737 0.057,-0.283 0.142,-0.624 0.142,-0.709 0.028,-0.113 0.085,-0.34 0.113,-0.51 0.085,-0.368 0.227,-1.247 0.255,-1.559 0.028,-0.085 0.028,-0.227 0.057,-0.255 0,-0.028 0.028,-0.17 0.028,-0.312 0.028,-0.113 0.028,-0.255 0.057,-0.283 0,-0.057 0,-0.227 0.028,-0.369 0,-0.17 0.029,-0.34 0.029,-0.397 0.028,-0.028 0.028,-0.283 0.056,-0.51 0.029,-0.255 0.029,-0.51 0.029,-0.567 0.113,-0.51 0.113,-3.997 0,-4.904 0,-0.085 0,-0.312 -0.029,-0.51 0,-0.198 -0.028,-0.397 -0.056,-0.454 0,-0.056 0,-0.226 -0.029,-0.396 -0.028,-0.369 -0.057,-0.596 -0.085,-0.709 0,-0.057 -0.028,-0.198 -0.028,-0.312 -0.057,-0.312 -0.17,-1.049 -0.227,-1.332 0,-0.057 -0.028,-0.142 -0.057,-0.227 -0.368,-2.183 -1.275,-5.216 -2.267,-7.455 -0.341,-0.765 -0.397,-0.85 -0.454,-0.794 -0.028,0.029 -0.142,0.085 -0.992,0.539 -0.198,0.113 -0.397,0.255 -0.482,0.283 -0.057,0.057 -0.283,0.17 -0.454,0.284 -1.587,0.878 -3.458,2.069 -4.535,2.863 -0.595,0.482 -1.304,1.105 -1.842,1.672 -0.823,0.851 -1.276,1.531 -1.616,2.381 -0.17,0.397 -0.199,0.454 -0.284,0.425 -0.056,0 -0.283,0 -0.482,-0.028 -0.226,-0.028 -0.453,-0.028 -0.51,-0.028 -0.17,-0.029 -2.012,-0.029 -2.296,0 -1.02,0.056 -1.332,0.113 -2.041,0.227 -1.729,0.311 -3.231,0.765 -4.96,1.559 -0.567,0.255 -1.758,0.822 -1.815,0.878 0,0.029 0.029,0.085 0.057,0.199 0.227,0.567 0.482,1.616 0.567,2.268 0,0.141 0.028,0.311 0.028,0.368 0.029,0.142 0.029,1.389 0,1.587 0,0.057 -0.028,0.227 -0.028,0.369 -0.028,0.113 -0.028,0.283 -0.057,0.34 0,0.057 -0.028,0.227 -0.056,0.369 -0.057,0.311 -0.255,1.02 -0.397,1.417 -0.057,0.17 -0.114,0.312 -0.114,0.312 0.029,0.028 1.106,0.567 1.304,0.652 0.142,0.056 0.369,0.17 0.482,0.226 0.766,0.369 2.58,1.021 3.26,1.191 0.028,0 0.227,0.057 0.425,0.085 0.34,0.113 0.907,0.227 1.191,0.255 0.057,0.029 0.17,0.057 0.198,0.057 0.114,0.028 0.992,0.142 1.389,0.17 0.794,0.085 2.268,0.085 2.807,0.057 0.113,-0.029 0.368,-0.029 0.566,-0.057 0.227,0 0.426,-0.028 0.482,-0.057 0.114,0 0.17,0.057 0.199,0.227 0.056,0.227 0.368,0.907 0.567,1.247 0.623,0.992 1.53,1.956 2.778,2.977 0.765,0.623 2.636,1.927 3.685,2.551 0.056,0.028 0.368,0.227 0.68,0.397 0.312,0.198 0.709,0.425 0.907,0.538 0.17,0.085 0.312,0.17 0.34,0.199 0.029,0.028 0.199,0.113 0.369,0.226 0.198,0.085 0.397,0.227 0.482,0.256 0.056,0.056 0.141,0.085 0.141,0.085 0.029,0 0.114,-0.17 0.227,-0.369 z m -62.447,-0.085 c 0.227,-0.142 0.51,-0.283 0.567,-0.34 0.085,-0.028 0.34,-0.17 0.567,-0.312 0.227,-0.113 0.425,-0.227 0.453,-0.255 0.029,-0.028 0.17,-0.113 0.312,-0.198 0.794,-0.426 1.814,-1.049 2.551,-1.531 0.482,-0.34 1.531,-1.077 1.701,-1.191 0.028,-0.056 0.312,-0.283 0.624,-0.51 0.51,-0.425 1.474,-1.389 1.757,-1.786 0.454,-0.538 0.936,-1.445 1.077,-1.956 0.029,-0.141 0.085,-0.17 0.114,-0.17 0.056,0.029 0.368,0.057 1.105,0.114 0.822,0.056 2.466,0 3.26,-0.114 0.312,-0.028 0.794,-0.113 0.879,-0.113 0.057,0 0.198,-0.028 0.312,-0.057 0.141,-0.028 0.255,-0.028 0.255,-0.028 0.028,0 0.141,-0.029 0.283,-0.057 1.758,-0.397 3.345,-0.964 5.074,-1.814 0.851,-0.425 0.992,-0.51 0.964,-0.567 -0.255,-0.709 -0.539,-1.786 -0.595,-2.438 0,-0.142 -0.029,-0.312 -0.029,-0.34 -0.028,-0.085 -0.028,-1.361 0,-1.559 0,-0.085 0.029,-0.255 0.057,-0.397 0.057,-0.623 0.255,-1.446 0.482,-2.126 0.057,-0.17 0.113,-0.312 0.113,-0.312 -0.085,-0.085 -1.899,-0.935 -2.551,-1.219 -0.057,0 -0.142,-0.056 -0.198,-0.056 -0.34,-0.17 -1.985,-0.709 -2.296,-0.794 -0.029,0 -0.142,-0.028 -0.255,-0.057 -0.114,-0.028 -0.227,-0.056 -0.256,-0.056 -0.17,-0.057 -0.935,-0.199 -1.077,-0.227 -0.085,-0.028 -0.198,-0.028 -0.226,-0.057 -0.482,-0.085 -1.361,-0.17 -1.985,-0.198 -0.453,-0.029 -2.154,-0.029 -2.296,-0.029 -0.056,0.029 -0.283,0.057 -0.51,0.057 -0.227,0.028 -0.425,0.028 -0.482,0.028 -0.057,0.029 -0.113,-0.056 -0.227,-0.368 -0.51,-1.446 -1.814,-2.948 -3.883,-4.507 -0.879,-0.68 -2.24,-1.588 -3.373,-2.268 -0.284,-0.17 -1.701,-0.992 -1.985,-1.162 -0.141,-0.085 -0.34,-0.198 -0.453,-0.255 -0.085,-0.057 -0.199,-0.114 -0.199,-0.114 -0.056,0 -0.793,1.701 -1.105,2.523 -0.114,0.312 -0.227,0.567 -0.227,0.624 -0.255,0.595 -0.964,2.948 -1.02,3.373 -0.029,0.057 -0.057,0.199 -0.085,0.312 -0.057,0.227 -0.029,0.17 -0.227,1.049 -0.142,0.652 -0.34,1.757 -0.369,2.097 0,0.085 -0.056,0.426 -0.085,0.709 -0.113,0.907 -0.113,0.879 -0.17,1.758 -0.113,1.417 -0.113,3.741 0,4.96 0,0.085 0.029,0.312 0.029,0.482 0.028,0.369 0.056,0.652 0.085,0.85 0.028,0.086 0.028,0.256 0.056,0.397 0,0.142 0.029,0.312 0.029,0.369 0,0.057 0.085,0.482 0.141,0.935 0.142,0.794 0.426,2.268 0.511,2.551 0.028,0.085 0.056,0.199 0.056,0.256 0.114,0.538 0.851,2.948 1.106,3.571 0.028,0.085 0.142,0.369 0.255,0.681 0.17,0.425 0.453,1.133 0.794,1.899 0.056,0.085 0.113,0.17 0.113,0.17 0.028,0 0.227,-0.114 0.482,-0.227 z m 31.578,-7.257 c 0.595,-0.056 1.19,-0.198 1.757,-0.396 2.552,-0.908 4.394,-3.204 4.734,-5.868 0.085,-0.595 0.085,-1.559 -0.028,-2.013 0,-0.056 -0.029,-0.17 -0.029,-0.255 0,-0.085 -0.056,-0.312 -0.113,-0.482 -0.312,-1.219 -0.935,-2.324 -1.842,-3.231 -1.191,-1.191 -2.722,-1.928 -4.366,-2.126 -0.283,0 -1.219,-0.029 -1.445,0 -0.482,0.085 -0.567,0.085 -0.737,0.113 -2.183,0.454 -4.082,1.928 -5.046,3.912 -0.51,1.049 -0.737,2.013 -0.737,3.175 0,1.899 0.765,3.741 2.069,5.045 0.482,0.454 0.567,0.539 0.964,0.822 0.822,0.567 1.814,1.021 2.721,1.191 0.142,0.028 0.284,0.057 0.369,0.057 0.056,0.028 0.255,0.028 0.482,0.056 0.198,0 0.368,0.029 0.368,0.029 0.028,0 0.595,0 0.879,-0.029 z m -7.654,-13.918 c 0.539,-0.567 1.219,-1.134 1.701,-1.417 0.765,-0.482 1.304,-0.737 1.956,-0.992 0.51,-0.17 1.389,-0.397 1.729,-0.454 l 0.227,-0.028 v -0.369 c -0.085,-1.332 -0.113,-1.502 -0.227,-2.437 -0.085,-0.681 -0.255,-1.531 -0.397,-2.183 -0.141,-0.51 -0.567,-1.928 -0.68,-2.211 -0.028,-0.085 -0.142,-0.369 -0.255,-0.595 -0.482,-1.219 -1.276,-2.665 -2.069,-3.742 l -0.227,-0.34 0.085,-0.114 c 0.057,-0.056 0.113,-0.141 0.17,-0.198 0.198,-0.198 0.709,-1.021 0.907,-1.446 0.312,-0.708 0.624,-1.701 0.737,-2.324 0,-0.028 0.028,-0.142 0.057,-0.255 0.028,-0.085 0.056,-0.227 0.056,-0.312 0.029,-0.057 0.057,-0.284 0.085,-0.51 0.057,-0.312 0.085,-0.511 0.142,-0.964 0,-0.057 0.028,-0.312 0.057,-0.595 0.028,-0.255 0.057,-0.567 0.057,-0.681 0.028,-0.085 0.056,-0.368 0.056,-0.623 0,-0.255 0.029,-0.596 0.029,-0.794 0.028,-0.198 0.028,-1.219 0.056,-2.296 l 0.029,-1.956 -0.341,0.028 c -0.368,0.029 -0.538,0.057 -0.793,0.085 -0.085,0 -0.284,0.029 -0.425,0.029 -0.142,0.028 -0.284,0.056 -0.341,0.056 -0.028,0 -0.17,0.029 -0.311,0.057 -0.964,0.114 -2.778,0.482 -3.941,0.794 -0.878,0.227 -1.048,0.283 -2.324,0.68 -1.786,0.595 -4.195,1.673 -5.953,2.693 -0.992,0.567 -1.02,0.595 -1.105,0.652 -0.029,0.057 -0.085,0.085 -0.085,0.085 -0.114,0 -1.985,1.304 -2.863,1.956 -0.567,0.454 -1.899,1.559 -2.041,1.729 -0.029,0.028 -0.114,0.114 -0.227,0.199 -0.907,0.822 -2.211,2.211 -3.033,3.146 -0.425,0.539 -0.482,0.595 -0.794,0.992 -0.141,0.199 -0.283,0.369 -0.283,0.369 -0.029,0.028 -0.114,0.141 -0.227,0.311 -0.113,0.171 -0.227,0.312 -0.255,0.341 -0.312,0.425 -0.369,0.51 -0.369,0.51 0.029,0.028 1.106,0.68 1.191,0.709 0.028,0 0.113,0.056 0.17,0.113 0.709,0.453 3.345,1.899 4.252,2.324 1.446,0.681 3.26,1.304 4.139,1.446 0.085,0 0.198,0.028 0.255,0.028 0.141,0.029 0.708,0.085 1.048,0.085 0.454,0 0.964,-0.056 1.304,-0.141 0.029,-0.029 0.199,0.283 0.426,0.737 0.368,0.737 0.737,1.389 1.105,1.984 0.227,0.34 0.794,1.162 0.822,1.19 0.029,0.029 0.085,0.085 0.142,0.171 0.057,0.085 0.17,0.226 0.227,0.311 0.056,0.057 0.198,0.227 0.34,0.369 0.255,0.34 1.219,1.36 1.559,1.672 0.17,0.114 0.312,0.255 0.368,0.312 0.142,0.142 1.163,0.964 1.333,1.106 0.623,0.425 1.134,0.793 1.587,1.077 l 0.539,0.34 0.085,-0.113 c 0.056,-0.086 0.312,-0.341 0.538,-0.596 z m 15.251,0.312 c 2.381,-1.531 4.308,-3.316 5.754,-5.357 0.283,-0.369 1.049,-1.588 1.049,-1.645 0,0 0.085,-0.141 0.17,-0.283 0.085,-0.17 0.312,-0.595 0.482,-0.935 l 0.312,-0.681 0.255,0.057 c 0.652,0.142 1.644,0.142 2.409,0.028 0.114,-0.028 0.284,-0.056 0.369,-0.085 0.425,-0.056 1.786,-0.453 2.296,-0.652 0.935,-0.368 1.247,-0.51 1.899,-0.793 0.879,-0.426 2.806,-1.446 4.195,-2.24 0.596,-0.34 1.077,-0.623 1.106,-0.652 0.028,-0.028 -1.106,-1.587 -1.616,-2.211 -0.085,-0.085 -0.227,-0.255 -0.312,-0.368 -0.794,-0.936 -2.041,-2.268 -3.033,-3.175 -0.198,-0.198 -0.453,-0.425 -0.51,-0.482 -0.085,-0.085 -0.397,-0.34 -0.68,-0.595 -2.637,-2.183 -5.301,-3.884 -8.448,-5.273 -0.311,-0.141 -0.595,-0.255 -0.595,-0.255 -0.028,0 -0.085,-0.028 -0.142,-0.056 -0.68,-0.312 -3.401,-1.248 -3.883,-1.333 -0.085,-0.028 -0.17,-0.056 -0.199,-0.056 -0.056,-0.029 -0.085,-0.057 -0.085,-0.029 0,0 -0.085,0 -0.226,-0.056 -0.114,-0.029 -0.227,-0.057 -0.284,-0.086 -0.028,0 -0.368,-0.085 -0.737,-0.17 -0.368,-0.085 -0.709,-0.141 -0.794,-0.17 -0.056,0 -0.17,-0.028 -0.226,-0.056 -0.085,0 -0.312,-0.057 -0.737,-0.114 -0.057,-0.028 -0.142,-0.028 -0.199,-0.056 -0.085,0 -0.198,-0.029 -0.255,-0.029 -0.085,-0.028 -0.283,-0.057 -0.482,-0.085 -0.198,-0.028 -0.425,-0.057 -0.482,-0.057 -0.056,0 -0.198,-0.028 -0.34,-0.056 -0.113,0 -0.255,-0.029 -0.312,-0.029 -0.113,-0.028 -0.652,-0.056 -0.907,-0.085 -0.085,0 -0.085,0.029 -0.085,2.381 0,1.333 0,2.665 0.029,2.949 0.056,1.048 0.085,1.53 0.141,1.984 0.029,0.198 0.057,0.425 0.085,0.538 0,0.114 0.029,0.227 0.029,0.255 0,0.029 0.028,0.171 0.056,0.284 0.029,0.255 0.199,1.134 0.284,1.446 0.057,0.113 0.085,0.255 0.085,0.283 0.028,0.17 0.397,1.077 0.567,1.417 0.227,0.482 0.425,0.794 0.765,1.191 l 0.255,0.312 -0.255,0.34 c -0.652,0.935 -1.19,1.842 -1.701,2.948 -0.963,2.013 -1.502,3.968 -1.785,6.463 0,0.113 -0.029,0.283 -0.029,0.368 -0.028,0.142 -0.056,0.482 -0.085,1.333 l -0.028,0.425 0.198,0.028 c 0.114,0.029 0.227,0.029 0.255,0.057 0.057,0 0.142,0.028 0.227,0.028 1.361,0.255 2.892,1.021 4.11,2.013 0.369,0.283 1.389,1.332 1.389,1.417 0,0.085 0.17,0 0.681,-0.34 z"
         style="color:#000000;font-style:normal;font-variant:normal;font-weight:normal;font-stretch:normal;font-size:medium;line-height:normal;font-family:sans-serif;font-variant-ligatures:normal;font-variant-position:normal;font-variant-caps:normal;font-variant-numeric:normal;font-variant-alternates:normal;font-variant-east-asian:normal;font-feature-settings:normal;font-variation-settings:normal;text-indent:0;text-align:start;text-decoration-line:none;text-decoration-style:solid;text-decoration-color:#000000;letter-spacing:normal;word-spacing:normal;text-transform:none;writing-mode:lr-tb;direction:ltr;text-orientation:mixed;dominant-baseline:auto;baseline-shift:baseline;text-anchor:start;white-space:normal;shape-padding:0;shape-margin:0;inline-size:0;clip-rule:nonzero;display:inline;overflow:visible;visibility:visible;isolation:auto;mix-blend-mode:normal;color-interpolation:sRGB;color-interpolation-filters:linearRGB;solid-color:#000000;solid-opacity:1;vector-effect:none;fill:#000000;fill-opacity:1;fill-rule:evenodd;stroke:none;stroke-linecap:butt;stroke-linejoin:miter;stroke-miterlimit:4;stroke-dasharray:none;stroke-dashoffset:0;stroke-opacity:1;-inkscape-stroke:none;color-rendering:auto;image-rendering:auto;shape-rendering:auto;text-rendering:auto;enable-background:accumulate;stop-color:#000000;stop-opacity:1"
         transform="matrix(1.3333333,0,0,-1.3333333,0,793.70079)" />
      <path
         id="path20"
         d="m 84.416,325.984 c -0.567,-0.907 -0.851,-2.013 -0.766,-3.09 0.057,-2.154 1.644,-4.11 3.572,-4.762 1.474,-0.511 3.118,-0.397 4.45,0.397 1.673,0.935 2.835,2.891 2.693,4.903 -0.028,1.843 -1.162,3.572 -2.693,4.423 -0.935,0.566 -2.012,0.765 -3.089,0.708 -1.673,-0.142 -3.26,-1.105 -4.167,-2.579 z m 7.427,-2.75 c 0.085,-1.502 -1.191,-2.835 -2.608,-2.891 -1.248,-0.114 -2.523,0.708 -2.948,1.956 -0.284,0.935 -0.114,2.041 0.567,2.749 0.68,0.851 1.785,1.162 2.806,0.936 1.19,-0.284 2.239,-1.418 2.183,-2.75 z"
         style="color:#000000;font-style:normal;font-variant:normal;font-weight:normal;font-stretch:normal;font-size:medium;line-height:normal;font-family:sans-serif;font-variant-ligatures:normal;font-variant-position:normal;font-variant-caps:normal;font-variant-numeric:normal;font-variant-alternates:normal;font-variant-east-asian:normal;font-feature-settings:normal;font-variation-settings:normal;text-indent:0;text-align:start;text-decoration-line:none;text-decoration-style:solid;text-decoration-color:#000000;letter-spacing:normal;word-spacing:normal;text-transform:none;writing-mode:lr-tb;direction:ltr;text-orientation:mixed;dominant-baseline:auto;baseline-shift:baseline;text-anchor:start;white-space:normal;shape-padding:0;shape-margin:0;inline-size:0;clip-rule:nonzero;display:inline;overflow:visible;visibility:visible;isolation:auto;mix-blend-mode:normal;color-interpolation:sRGB;color-interpolation-filters:linearRGB;solid-color:#000000;solid-opacity:1;vector-effect:none;fill:#000000;fill-opacity:1;fill-rule:evenodd;stroke:none;stroke-linecap:butt;stroke-linejoin:miter;stroke-miterlimit:4;stroke-dasharray:none;stroke-dashoffset:0;stroke-opacity:1;-inkscape-stroke:none;color-rendering:auto;image-rendering:auto;shape-rendering:auto;text-rendering:auto;enable-background:accumulate;stop-color:#000000;stop-opacity:1"
         transform="matrix(1.3333333,0,0,-1.3333333,0,793.70079)" />
    </g>
  </g>
</svg>
