<?xml version="1.0" encoding="UTF-8" standalone="no"?>
<!-- Created with Inkscape (http://www.inkscape.org/) -->

<svg
   width="159.99919mm"
   height="59.943001mm"
   viewBox="0 0 159.99919 59.943001"
   version="1.1"
   id="svg1"
   xml:space="preserve"
   sodipodi:docname="sign-braille.svg"
   inkscape:version="1.4.3 (0d15f75042, 2025-12-25)"
   xmlns:inkscape="http://www.inkscape.org/namespaces/inkscape"
   xmlns:sodipodi="http://sodipodi.sourceforge.net/DTD/sodipodi-0.dtd"
   xmlns="http://www.w3.org/2000/svg"
   xmlns:svg="http://www.w3.org/2000/svg"><sodipodi:namedview
     id="namedview1"
     pagecolor="#ffffff"
     bordercolor="#000000"
     borderopacity="0.25"
     inkscape:showpageshadow="2"
     inkscape:pageopacity="0.0"
     inkscape:pagecheckerboard="0"
     inkscape:deskcolor="#d1d1d1"
     inkscape:document-units="mm"
     inkscape:zoom="0.98572841"
     inkscape:cx="288.61905"
     inkscape:cy="120.21567"
     inkscape:window-width="1920"
     inkscape:window-height="1040"
     inkscape:window-x="0"
     inkscape:window-y="0"
     inkscape:window-maximized="1"
     inkscape:current-layer="svg1" /><defs
     id="defs1" /><path
     style="fill:#000000;stroke-width:1.03052"
     d="m 0.254103,59.69564 c -0.489278,-0.48927 -0.199226,-1.22141 0.483888,-1.22141 0.75252,0 1.040094,1.00894 0.384246,1.3481 -0.364085,0.18828 -0.585486,0.15596 -0.868134,-0.12669 z m 2.342693,0 c -0.489276,-0.48927 -0.199227,-1.22141 0.48389,-1.22141 0.781585,0 1.023771,1.00517 0.331078,1.3741 -0.305558,0.16275 -0.544262,0.11802 -0.814968,-0.15269 z m 31.235897,0 c -0.489276,-0.48927 -0.199226,-1.22141 0.48389,-1.22141 0.781584,0 1.023771,1.00517 0.331078,1.3741 -0.305558,0.16275 -0.544262,0.11802 -0.814968,-0.15269 z m 24.988715,0 c -0.489276,-0.48927 -0.199227,-1.22141 0.48389,-1.22141 0.781584,0 1.023772,1.00517 0.331077,1.3741 -0.305557,0.16275 -0.544261,0.11802 -0.814967,-0.15269 z m 37.483132,0 c -0.48928,-0.48927 -0.19923,-1.22141 0.48388,-1.22141 0.78159,0 1.02379,1.00517 0.33107,1.3741 -0.30555,0.16275 -0.54424,0.11802 -0.81495,-0.15269 z M 2.596796,57.35296 c -0.489276,-0.48928 -0.199227,-1.22141 0.48389,-1.22141 0.781585,0 1.023771,1.00516 0.331078,1.37408 -0.305558,0.16276 -0.544262,0.11802 -0.814968,-0.15267 z m 3.863836,0.0406 c -0.298526,-0.29854 -0.282952,-0.68485 0.04065,-1.00845 0.282651,-0.28264 0.504051,-0.31497 0.868133,-0.12668 0.65585,0.33916 0.368275,1.34809 -0.384243,1.34809 -0.215115,0 -0.377503,-0.066 -0.524544,-0.21296 z m 2.342695,0 c -0.298529,-0.29854 -0.282956,-0.68485 0.04066,-1.00845 0.270704,-0.27069 0.509409,-0.31543 0.814968,-0.15269 0.692692,0.36894 0.450508,1.3741 -0.331078,1.3741 -0.215115,0 -0.377502,-0.066 -0.524542,-0.21296 z m 3.904487,0 c -0.298527,-0.29854 -0.282954,-0.68485 0.04066,-1.00845 0.28265,-0.28264 0.504052,-0.31497 0.868132,-0.12668 0.65585,0.33916 0.368276,1.34809 -0.384241,1.34809 -0.215116,0 -0.377503,-0.066 -0.524543,-0.21296 z m 2.342691,0 c -0.298528,-0.29854 -0.282953,-0.68485 0.04066,-1.00845 0.270705,-0.27069 0.509409,-0.31543 0.814967,-0.15269 0.692695,0.36894 0.450507,1.3741 -0.331077,1.3741 -0.215116,0 -0.377502,-0.066 -0.524544,-0.21296 z m 6.247178,0 c -0.298526,-0.29854 -0.282953,-0.68485 0.04066,-1.00845 0.270706,-0.27069 0.509409,-0.31543 0.814967,-0.15269 0.692694,0.36894 0.450507,1.3741 -0.331078,1.3741 -0.215114,0 -0.377501,-0.066 -0.524543,-0.21296 z m 3.904488,0 c -0.298527,-0.29854 -0.282954,-0.68485 0.04066,-1.00845 0.28265,-0.28264 0.504051,-0.31497 0.868133,-0.12668 0.65585,0.33916 0.368274,1.34809 -0.384244,1.34809 -0.215114,0 -0.377501,-0.066 -0.524542,-0.21296 z m 12.494357,0 c -0.298527,-0.29854 -0.282954,-0.68485 0.04066,-1.00845 0.28265,-0.28264 0.504051,-0.31497 0.868132,-0.12668 0.655851,0.33916 0.368276,1.34809 -0.384243,1.34809 -0.215113,0 -0.377502,-0.066 -0.52454,-0.21296 z m 6.24718,0 c -0.29853,-0.29854 -0.282956,-0.68485 0.04066,-1.00845 0.282648,-0.28264 0.50405,-0.31497 0.868132,-0.12668 0.65585,0.33916 0.368274,1.34809 -0.384242,1.34809 -0.215116,0 -0.377502,-0.066 -0.524542,-0.21296 z m 21.084227,0 c -0.298527,-0.29854 -0.282954,-0.68485 0.04065,-1.00845 0.270707,-0.27069 0.509411,-0.31543 0.814969,-0.15269 0.692692,0.36894 0.450507,1.3741 -0.33108,1.3741 -0.215112,0 -0.377502,-0.066 -0.524539,-0.21296 z m 3.904487,0 c -0.298528,-0.29854 -0.282956,-0.68485 0.04065,-1.00845 0.28265,-0.28264 0.504052,-0.31497 0.868132,-0.12668 0.655851,0.33916 0.368275,1.34809 -0.384241,1.34809 -0.215114,0 -0.377502,-0.066 -0.524543,-0.21296 z m 6.247177,0 c -0.298526,-0.29854 -0.282952,-0.68485 0.04065,-1.00845 0.28265,-0.28264 0.50405,-0.31497 0.868132,-0.12668 0.65585,0.33916 0.368276,1.34809 -0.384241,1.34809 -0.215117,0 -0.377504,-0.066 -0.524546,-0.21296 z m 12.494361,0 c -0.29854,-0.29854 -0.28295,-0.68485 0.0408,-1.00845 0.28265,-0.28264 0.50406,-0.31497 0.86814,-0.12668 0.65586,0.33916 0.36828,1.34809 -0.38425,1.34809 -0.21511,0 -0.37751,-0.066 -0.52454,-0.21296 z m 18.74162,0 c -0.29852,-0.29854 -0.28294,-0.68485 0.0406,-1.00845 0.28268,-0.28264 0.50407,-0.31497 0.86814,-0.12668 0.65586,0.33916 0.36827,1.34809 -0.38423,1.34809 -0.21513,0 -0.37749,-0.066 -0.52456,-0.21296 z m 2.34269,0 c -0.29851,-0.29854 -0.28293,-0.68485 0.0408,-1.00845 0.27071,-0.27069 0.50942,-0.31543 0.81497,-0.15269 0.6927,0.36894 0.45051,1.3741 -0.33108,1.3741 -0.21511,0 -0.37751,-0.066 -0.52455,-0.21296 z m 6.24719,0 c -0.29852,-0.29854 -0.28296,-0.68485 0.0406,-1.00845 0.27072,-0.27069 0.50941,-0.31543 0.81497,-0.15269 0.6927,0.36894 0.4505,1.3741 -0.33109,1.3741 -0.21509,0 -0.3775,-0.066 -0.52452,-0.21296 z m 3.90448,0 c -0.29852,-0.29854 -0.28294,-0.68485 0.0408,-1.00845 0.28266,-0.28264 0.50405,-0.31497 0.86813,-0.12668 0.65585,0.33916 0.36827,1.34809 -0.38425,1.34809 -0.21509,0 -0.37751,-0.066 -0.52454,-0.21296 z M 2.556142,55.05087 c -0.298525,-0.29851 -0.282953,-0.68482 0.04066,-1.00842 0.270707,-0.2707 0.509411,-0.31543 0.814969,-0.15268 0.692693,0.36893 0.450507,1.37408 -0.331078,1.37408 -0.215113,0 -0.377503,-0.066 -0.524546,-0.21298 z m 6.247185,0 c -0.298529,-0.29851 -0.282956,-0.68482 0.04066,-1.00842 0.270704,-0.2707 0.509409,-0.31543 0.814968,-0.15268 0.692692,0.36893 0.450508,1.37408 -0.331078,1.37408 -0.215115,0 -0.377502,-0.066 -0.524542,-0.21298 z m 6.247178,0 c -0.298528,-0.29851 -0.282953,-0.68482 0.04066,-1.00842 0.270705,-0.2707 0.509409,-0.31543 0.814967,-0.15268 0.692695,0.36893 0.450507,1.37408 -0.331077,1.37408 -0.215116,0 -0.377502,-0.066 -0.524544,-0.21298 z m 3.904486,0 c -0.298525,-0.29851 -0.282952,-0.68482 0.04065,-1.00842 0.270705,-0.2707 0.509411,-0.31543 0.814967,-0.15268 0.436753,0.23262 0.538822,0.74854 0.226607,1.14546 -0.246441,0.3133 -0.776904,0.32097 -1.082227,0.0156 z m 2.342692,0 c -0.298526,-0.29851 -0.282953,-0.68482 0.04066,-1.00842 0.270706,-0.2707 0.509409,-0.31543 0.814967,-0.15268 0.692694,0.36893 0.450507,1.37408 -0.331078,1.37408 -0.215114,0 -0.377501,-0.066 -0.524543,-0.21298 z m 6.247178,0 c -0.298525,-0.29851 -0.282952,-0.68482 0.04066,-1.00842 0.270704,-0.2707 0.509408,-0.31543 0.814966,-0.15268 0.692694,0.36893 0.450507,1.37408 -0.331078,1.37408 -0.215114,0 -0.377502,-0.066 -0.524544,-0.21298 z m 6.24718,0 c -0.298527,-0.29851 -0.282955,-0.68482 0.04066,-1.00842 0.270706,-0.2707 0.509409,-0.31543 0.814966,-0.15268 0.692693,0.36893 0.450507,1.37408 -0.331077,1.37408 -0.215115,0 -0.377503,-0.066 -0.524542,-0.21298 z m 3.904487,0 c -0.298527,-0.29851 -0.282954,-0.68482 0.04066,-1.00842 0.270707,-0.2707 0.509409,-0.31543 0.814968,-0.15268 0.436751,0.23262 0.538817,0.74854 0.226606,1.14546 -0.24644,0.3133 -0.776903,0.32097 -1.082225,0.0156 z m 6.24718,0 c -0.29853,-0.29851 -0.282956,-0.68482 0.04066,-1.00842 0.270703,-0.2707 0.509409,-0.31543 0.814967,-0.15268 0.436752,0.23262 0.538819,0.74854 0.226606,1.14546 -0.246441,0.3133 -0.776904,0.32097 -1.082225,0.0156 z m 6.247175,0 c -0.298525,-0.29851 -0.282951,-0.68482 0.04066,-1.00842 0.270705,-0.2707 0.509409,-0.31543 0.814966,-0.15268 0.436754,0.23262 0.53882,0.74854 0.226607,1.14546 -0.246442,0.3133 -0.776905,0.32097 -1.082227,0.0156 z m 8.589872,0 c -0.298525,-0.29851 -0.282953,-0.68482 0.04066,-1.00842 0.270708,-0.2707 0.509411,-0.31543 0.814969,-0.15268 0.692695,0.36893 0.450506,1.37408 -0.331077,1.37408 -0.215114,0 -0.377502,-0.066 -0.524544,-0.21298 z m 3.904487,0 c -0.298527,-0.29851 -0.282954,-0.68482 0.04065,-1.00842 0.270705,-0.2707 0.50941,-0.31543 0.814968,-0.15268 0.436752,0.23262 0.538818,0.74854 0.226604,1.14546 -0.246438,0.3133 -0.776902,0.32097 -1.082225,0.0156 z m 8.58987,0 c -0.298526,-0.29851 -0.282953,-0.68482 0.04065,-1.00842 0.270705,-0.2707 0.50941,-0.31543 0.814968,-0.15268 0.692694,0.36893 0.450506,1.37408 -0.331079,1.37408 -0.215114,0 -0.377501,-0.066 -0.524543,-0.21298 z m 3.904487,0 c -0.298526,-0.29851 -0.282952,-0.68482 0.04065,-1.00842 0.270706,-0.2707 0.509407,-0.31543 0.814967,-0.15268 0.436753,0.23262 0.538819,0.74854 0.226606,1.14546 -0.246442,0.3133 -0.776904,0.32097 -1.082227,0.0156 z m 2.342692,0 c -0.298527,-0.29851 -0.282953,-0.68482 0.04066,-1.00842 0.270705,-0.2707 0.509409,-0.31543 0.814968,-0.15268 0.692693,0.36893 0.450506,1.37408 -0.33108,1.37408 -0.215112,0 -0.3775,-0.066 -0.524541,-0.21298 z m 3.904492,0 c -0.29853,-0.29851 -0.282954,-0.68482 0.04066,-1.00842 0.270708,-0.2707 0.509408,-0.31543 0.814967,-0.15268 0.436747,0.23262 0.538819,0.74854 0.226605,1.14546 -0.246444,0.3133 -0.776907,0.32097 -1.08222,0.0156 z m 8.589887,0 c -0.29854,-0.29851 -0.28295,-0.68482 0.0406,-1.00842 0.27072,-0.2707 0.50943,-0.31543 0.81498,-0.15268 0.69267,0.36893 0.45048,1.37408 -0.33107,1.37408 -0.21512,0 -0.37751,-0.066 -0.52456,-0.21298 z m 6.24722,0 c -0.29852,-0.29851 -0.28296,-0.68482 0.0408,-1.00842 0.27072,-0.2707 0.50941,-0.31543 0.81496,-0.15268 0.6927,0.36893 0.4505,1.37408 -0.33108,1.37408 -0.21509,0 -0.37749,-0.066 -0.52455,-0.21298 z m 3.90452,0 c -0.29854,-0.29851 -0.28298,-0.68482 0.0407,-1.00842 0.27069,-0.2707 0.5094,-0.31543 0.81494,-0.15268 0.43677,0.23262 0.53883,0.74854 0.2266,1.14546 -0.24642,0.3133 -0.77689,0.32097 -1.0822,0.0156 z m 8.58986,0 c -0.29851,-0.29851 -0.28293,-0.68482 0.0408,-1.00842 0.27071,-0.2707 0.50942,-0.31543 0.81497,-0.15268 0.6927,0.36893 0.45051,1.37408 -0.33108,1.37408 -0.21511,0 -0.37751,-0.066 -0.52455,-0.21298 z m 3.90451,0 c -0.29853,-0.29851 -0.28297,-0.68482 0.0406,-1.00842 0.27071,-0.2707 0.5094,-0.31543 0.81495,-0.15268 0.43676,0.23262 0.53883,0.74854 0.22661,1.14546 -0.24645,0.3133 -0.77691,0.32097 -1.0822,0.0156 z m 2.34268,0 c -0.29852,-0.29851 -0.28296,-0.68482 0.0406,-1.00842 0.27072,-0.2707 0.50941,-0.31543 0.81497,-0.15268 0.6927,0.36893 0.4505,1.37408 -0.33109,1.37408 -0.21509,0 -0.3775,-0.066 -0.52452,-0.21298 z m 6.24718,0 c -0.29852,-0.29851 -0.28296,-0.68482 0.0408,-1.00842 0.27072,-0.2707 0.50942,-0.31543 0.81497,-0.15268 0.69267,0.36893 0.4505,1.37408 -0.33109,1.37408 -0.2151,0 -0.37751,-0.066 -0.52454,-0.21298 z M 0.254103,48.93661 c -0.489278,-0.48929 -0.199226,-1.2214 0.483888,-1.2214 0.75252,0 1.040094,1.00893 0.384246,1.34808 -0.364085,0.18827 -0.585486,0.15597 -0.868134,-0.12668 z m 6.247182,0 c -0.489276,-0.48929 -0.199227,-1.2214 0.483889,-1.2214 0.752519,0 1.040094,1.00893 0.384243,1.34808 -0.364081,0.18827 -0.585481,0.15597 -0.868132,-0.12668 z m 6.247181,0 c -0.489277,-0.48929 -0.199226,-1.2214 0.483891,-1.2214 0.752518,0 1.040091,1.00893 0.384241,1.34808 -0.364081,0.18827 -0.585483,0.15597 -0.868132,-0.12668 z m 8.589871,0 c -0.489277,-0.48929 -0.199226,-1.2214 0.483888,-1.2214 0.781585,0 1.023772,1.00515 0.331078,1.37408 -0.305558,0.16275 -0.544261,0.11802 -0.814966,-0.15268 z m 16.398843,0 c -0.489276,-0.48929 -0.199225,-1.2214 0.483888,-1.2214 0.752519,0 1.040096,1.00893 0.384244,1.34808 -0.36408,0.18827 -0.585482,0.15597 -0.868132,-0.12668 z m 6.247179,0 c -0.489276,-0.48929 -0.199226,-1.2214 0.483889,-1.2214 0.752519,0 1.040093,1.00893 0.384243,1.34808 -0.364082,0.18827 -0.585484,0.15597 -0.868132,-0.12668 z m 6.247179,0 c -0.489276,-0.48929 -0.199226,-1.2214 0.48389,-1.2214 0.752516,0 1.040093,1.00893 0.384242,1.34808 -0.364081,0.18827 -0.585483,0.15597 -0.868132,-0.12668 z m 2.342692,0 c -0.489278,-0.48929 -0.199225,-1.2214 0.483888,-1.2214 0.781585,0 1.023772,1.00515 0.331079,1.37408 -0.305559,0.16275 -0.544262,0.11802 -0.814967,-0.15268 z m 16.398843,0 c -0.489274,-0.48929 -0.199225,-1.2214 0.48389,-1.2214 0.752517,0 1.040092,1.00893 0.384242,1.34808 -0.364081,0.18827 -0.585482,0.15597 -0.868132,-0.12668 z M 0.254103,46.5939 c -0.489278,-0.48926 -0.199226,-1.22139 0.483888,-1.22139 0.75252,0 1.040094,1.00893 0.384246,1.34809 -0.364085,0.18826 -0.585486,0.15596 -0.868134,-0.1267 z m 8.589876,0 c -0.489277,-0.48926 -0.199226,-1.22139 0.483889,-1.22139 0.781586,0 1.023771,1.00516 0.331079,1.3741 -0.305561,0.16272 -0.544264,0.11801 -0.814968,-0.15271 z m 6.247179,0 c -0.489276,-0.48926 -0.199226,-1.22139 0.483891,-1.22139 0.781583,0 1.023772,1.00516 0.331075,1.3741 -0.305556,0.16272 -0.54426,0.11801 -0.814966,-0.15271 z m 3.904486,0 c -0.489277,-0.48926 -0.199225,-1.22139 0.48389,-1.22139 0.752518,0 1.040093,1.00893 0.384243,1.34809 -0.364082,0.18826 -0.585482,0.15596 -0.868133,-0.1267 z m 2.342693,0 c -0.489277,-0.48926 -0.199226,-1.22139 0.483888,-1.22139 0.781585,0 1.023772,1.00516 0.331078,1.3741 -0.305558,0.16272 -0.544261,0.11801 -0.814966,-0.15271 z m 18.741535,0 c -0.489276,-0.48926 -0.199225,-1.22139 0.483891,-1.22139 0.781585,0 1.023771,1.00516 0.331077,1.3741 -0.305558,0.16272 -0.544262,0.11801 -0.814968,-0.15271 z m 3.904487,0 c -0.489276,-0.48926 -0.199226,-1.22139 0.483889,-1.22139 0.752519,0 1.040093,1.00893 0.384243,1.34809 -0.364082,0.18826 -0.585484,0.15596 -0.868132,-0.1267 z m 2.342692,0 c -0.489276,-0.48926 -0.199226,-1.22139 0.48389,-1.22139 0.781584,0 1.023771,1.00516 0.331077,1.3741 -0.305557,0.16272 -0.544261,0.11801 -0.814967,-0.15271 z m 10.111012,0.0406 c -0.298525,-0.29852 -0.282954,-0.68482 0.04065,-1.00842 0.282649,-0.28266 0.504048,-0.31496 0.868131,-0.12668 0.655849,0.33916 0.368277,1.34809 -0.384243,1.34809 -0.215115,0 -0.377503,-0.066 -0.524542,-0.21299 z m 8.589872,0 c -0.298527,-0.29852 -0.282954,-0.68482 0.04065,-1.00842 0.270707,-0.27071 0.509411,-0.31543 0.814969,-0.15268 0.692692,0.36892 0.450507,1.37409 -0.33108,1.37409 -0.215112,0 -0.377502,-0.066 -0.524539,-0.21299 z m 6.28783,-0.0406 c -0.489277,-0.48926 -0.199226,-1.22139 0.48389,-1.22139 0.781586,0 1.023772,1.00516 0.331078,1.3741 -0.305557,0.16272 -0.544262,0.11801 -0.814968,-0.15271 z M 2.556142,44.29187 c -0.298525,-0.29853 -0.282953,-0.68481 0.04066,-1.00843 0.270707,-0.27072 0.509411,-0.31541 0.814969,-0.15269 0.692693,0.36894 0.450507,1.3741 -0.331078,1.3741 -0.215113,0 -0.377503,-0.066 -0.524546,-0.21298 z m 3.90449,0 c -0.298526,-0.29853 -0.282952,-0.68481 0.04065,-1.00843 0.270707,-0.27072 0.50941,-0.31541 0.814968,-0.15269 0.436752,0.23261 0.53882,0.74858 0.226605,1.14549 -0.24644,0.3133 -0.776904,0.32096 -1.082227,0.0156 z m 6.247182,0 c -0.298527,-0.29853 -0.282954,-0.68481 0.04066,-1.00843 0.270705,-0.27072 0.509409,-0.31541 0.814969,-0.15269 0.436751,0.23261 0.538819,0.74858 0.226605,1.14549 -0.246441,0.3133 -0.776905,0.32096 -1.082226,0.0156 z m 2.342691,0 c -0.298528,-0.29853 -0.282953,-0.68481 0.04066,-1.00843 0.270705,-0.27072 0.509409,-0.31541 0.814967,-0.15269 0.692695,0.36894 0.450507,1.3741 -0.331077,1.3741 -0.215116,0 -0.377502,-0.066 -0.524544,-0.21298 z m 3.904486,0 c -0.298525,-0.29853 -0.282952,-0.68481 0.04065,-1.00843 0.270705,-0.27072 0.509411,-0.31541 0.814967,-0.15269 0.436753,0.23261 0.538822,0.74858 0.226607,1.14549 -0.246441,0.3133 -0.776904,0.32096 -1.082227,0.0156 z m 2.342692,0 c -0.298526,-0.29853 -0.282953,-0.68481 0.04066,-1.00843 0.270706,-0.27072 0.509409,-0.31541 0.814967,-0.15269 0.692694,0.36894 0.450507,1.3741 -0.331078,1.3741 -0.215114,0 -0.377501,-0.066 -0.524543,-0.21298 z m 10.151666,0 c -0.298527,-0.29853 -0.282952,-0.68481 0.04065,-1.00843 0.270706,-0.27072 0.509409,-0.31541 0.814968,-0.15269 0.436752,0.23261 0.538817,0.74858 0.226605,1.14549 -0.246441,0.3133 -0.776904,0.32096 -1.082226,0.0156 z m 6.247179,0 c -0.298527,-0.29853 -0.282954,-0.68481 0.04066,-1.00843 0.270707,-0.27072 0.509409,-0.31541 0.814968,-0.15269 0.436751,0.23261 0.538817,0.74858 0.226606,1.14549 -0.24644,0.3133 -0.776903,0.32096 -1.082225,0.0156 z m 2.342692,0 c -0.298527,-0.29853 -0.282955,-0.68481 0.04065,-1.00843 0.270706,-0.27072 0.50941,-0.31541 0.814969,-0.15269 0.692694,0.36894 0.450507,1.3741 -0.331077,1.3741 -0.215116,0 -0.377504,-0.066 -0.524544,-0.21298 z m 3.904488,0 c -0.29853,-0.29853 -0.282956,-0.68481 0.04066,-1.00843 0.270703,-0.27072 0.509409,-0.31541 0.814967,-0.15269 0.436752,0.23261 0.538819,0.74858 0.226606,1.14549 -0.246441,0.3133 -0.776904,0.32096 -1.082225,0.0156 z m 6.247175,0 c -0.298525,-0.29853 -0.282951,-0.68481 0.04066,-1.00843 0.270705,-0.27072 0.509409,-0.31541 0.814966,-0.15269 0.436754,0.23261 0.53882,0.74858 0.226607,1.14549 -0.246442,0.3133 -0.776905,0.32096 -1.082227,0.0156 z m 6.24718,0 c -0.298525,-0.29853 -0.282954,-0.68481 0.04065,-1.00843 0.270703,-0.27072 0.509407,-0.31541 0.814967,-0.15269 0.436752,0.23261 0.538818,0.74858 0.226606,1.14549 -0.246442,0.3133 -0.776905,0.32096 -1.082226,0.0156 z m 2.342692,0 c -0.298525,-0.29853 -0.282953,-0.68481 0.04066,-1.00843 0.270708,-0.27072 0.509411,-0.31541 0.814969,-0.15269 0.692695,0.36894 0.450506,1.3741 -0.331077,1.3741 -0.215114,0 -0.377502,-0.066 -0.524544,-0.21298 z m 3.904487,0 c -0.298527,-0.29853 -0.282954,-0.68481 0.04065,-1.00843 0.270705,-0.27072 0.50941,-0.31541 0.814968,-0.15269 0.436752,0.23261 0.538818,0.74858 0.226604,1.14549 -0.246438,0.3133 -0.776902,0.32096 -1.082225,0.0156 z m 6.24718,0 c -0.298528,-0.29853 -0.282956,-0.68481 0.04065,-1.00843 0.270706,-0.27072 0.509411,-0.31541 0.814968,-0.15269 0.436752,0.23261 0.53882,0.74858 0.226606,1.14549 -0.24644,0.3133 -0.776904,0.32096 -1.082226,0.0156 z m 2.34269,0 c -0.298526,-0.29853 -0.282953,-0.68481 0.04065,-1.00843 0.270705,-0.27072 0.50941,-0.31541 0.814968,-0.15269 0.692694,0.36894 0.450506,1.3741 -0.331079,1.3741 -0.215114,0 -0.377501,-0.066 -0.524543,-0.21298 z M 2.596796,38.17757 c -0.489276,-0.48925 -0.199227,-1.2214 0.48389,-1.2214 0.781585,0 1.023771,1.00516 0.331078,1.37409 -0.305558,0.16275 -0.544262,0.11803 -0.814968,-0.15269 z m 10.15167,0 c -0.489277,-0.48925 -0.199226,-1.2214 0.483891,-1.2214 0.752518,0 1.040091,1.00894 0.384241,1.34808 -0.364081,0.1883 -0.585483,0.15599 -0.868132,-0.12668 z m 12.494357,0 c -0.489275,-0.48925 -0.199227,-1.2214 0.483888,-1.2214 0.752519,0 1.040094,1.00894 0.384245,1.34808 -0.364083,0.1883 -0.585483,0.15599 -0.868133,-0.12668 z m 6.247179,0 c -0.489277,-0.48925 -0.199228,-1.2214 0.48389,-1.2214 0.752518,0 1.040091,1.00894 0.384243,1.34808 -0.364083,0.1883 -0.585483,0.15599 -0.868133,-0.12668 z m 6.247178,0 c -0.489276,-0.48925 -0.199225,-1.2214 0.483888,-1.2214 0.752519,0 1.040096,1.00894 0.384244,1.34808 -0.36408,0.1883 -0.585482,0.15599 -0.868132,-0.12668 z m 6.247179,0 c -0.489276,-0.48925 -0.199226,-1.2214 0.483889,-1.2214 0.752519,0 1.040093,1.00894 0.384243,1.34808 -0.364082,0.1883 -0.585484,0.15599 -0.868132,-0.12668 z m 12.494358,0 c -0.489278,-0.48925 -0.199226,-1.2214 0.483888,-1.2214 0.75252,0 1.040093,1.00894 0.384243,1.34808 -0.364082,0.1883 -0.585481,0.15599 -0.868131,-0.12668 z m 12.494356,0 c -0.489274,-0.48925 -0.199225,-1.2214 0.48389,-1.2214 0.752517,0 1.040092,1.00894 0.384242,1.34808 -0.364081,0.1883 -0.585482,0.15599 -0.868132,-0.12668 z m 2.342692,0 c -0.489277,-0.48925 -0.199226,-1.2214 0.48389,-1.2214 0.781586,0 1.023772,1.00516 0.331078,1.37409 -0.305557,0.16275 -0.544262,0.11803 -0.814968,-0.15269 z m 3.904487,0 c -0.489277,-0.48925 -0.199226,-1.2214 0.483891,-1.2214 0.752518,0 1.040091,1.00894 0.38424,1.34808 -0.36408,0.1883 -0.585481,0.15599 -0.868131,-0.12668 z m 18.741578,0 c -0.48927,-0.48925 -0.19923,-1.2214 0.4839,-1.2214 0.75252,0 1.04009,1.00894 0.38423,1.34808 -0.36407,0.1883 -0.58547,0.15599 -0.86813,-0.12668 z m 18.74159,0 c -0.48927,-0.48925 -0.19923,-1.2214 0.48389,-1.2214 0.75251,0 1.0401,1.00894 0.38423,1.34808 -0.36407,0.1883 -0.58548,0.15599 -0.86812,-0.12668 z m 12.49436,0 c -0.48927,-0.48925 -0.19923,-1.2214 0.48389,-1.2214 0.75252,0 1.04009,1.00894 0.38424,1.34808 -0.3641,0.1883 -0.58548,0.15599 -0.86813,-0.12668 z m 8.58988,0 c -0.48929,-0.48925 -0.19923,-1.2214 0.48388,-1.2214 0.78158,0 1.02377,1.00516 0.33108,1.37409 -0.30555,0.16275 -0.54427,0.11803 -0.81496,-0.15269 z M 0.254103,35.83488 c -0.489278,-0.48927 -0.199226,-1.22139 0.483888,-1.22139 0.75252,0 1.040094,1.00894 0.384246,1.34808 -0.364085,0.18827 -0.585486,0.15596 -0.868134,-0.12669 z m 2.342693,0 c -0.489276,-0.48927 -0.199227,-1.22139 0.48389,-1.22139 0.781585,0 1.023771,1.00515 0.331078,1.37408 -0.305558,0.16275 -0.544262,0.11803 -0.814968,-0.15269 z m 3.863836,0.0408 C 6.162106,35.57717 6.17768,35.19087 6.501282,34.86727 6.783933,34.5846 7.005333,34.55229 7.369415,34.74059 c 0.65585,0.33913 0.368275,1.34807 -0.384243,1.34807 -0.215115,0 -0.377503,-0.066 -0.524544,-0.21298 z m 6.287834,-0.0408 c -0.489277,-0.48927 -0.199226,-1.22139 0.483891,-1.22139 0.752518,0 1.040091,1.00894 0.384241,1.34808 -0.364081,0.18827 -0.585483,0.15596 -0.868132,-0.12669 z m 2.342692,0 c -0.489276,-0.48927 -0.199226,-1.22139 0.483891,-1.22139 0.781583,0 1.023772,1.00515 0.331075,1.37408 -0.305556,0.16275 -0.54426,0.11803 -0.814966,-0.15269 z m 18.741535,0 c -0.489276,-0.48927 -0.199226,-1.22139 0.48389,-1.22139 0.781584,0 1.023771,1.00515 0.331078,1.37408 -0.305558,0.16275 -0.544262,0.11803 -0.814968,-0.15269 z m 18.700883,0.0408 c -0.298525,-0.29851 -0.282953,-0.68481 0.04065,-1.00841 0.270703,-0.27072 0.509407,-0.31544 0.814965,-0.15268 0.692693,0.36893 0.450507,1.37407 -0.331078,1.37407 -0.215115,0 -0.377502,-0.066 -0.524543,-0.21298 z m 6.287832,-0.0408 c -0.489276,-0.48927 -0.199227,-1.22139 0.48389,-1.22139 0.781584,0 1.023772,1.00515 0.331077,1.37408 -0.305557,0.16275 -0.544261,0.11803 -0.814967,-0.15269 z m 18.741537,0 c -0.489277,-0.48927 -0.199227,-1.22139 0.483888,-1.22139 0.781585,0 1.023773,1.00515 0.33108,1.37408 -0.305561,0.16275 -0.544264,0.11803 -0.814968,-0.15269 z m 6.206522,0.0408 c -0.298524,-0.29851 -0.282953,-0.68481 0.04063,-1.00841 0.270698,-0.27072 0.509394,-0.31544 0.814952,-0.15268 0.692694,0.36893 0.450516,1.37407 -0.331069,1.37407 -0.215115,0 -0.377509,-0.066 -0.524552,-0.21298 z m 12.535073,-0.0408 c -0.48928,-0.48927 -0.19923,-1.22139 0.48388,-1.22139 0.78159,0 1.02379,1.00515 0.33107,1.37408 -0.30555,0.16275 -0.54424,0.11803 -0.81495,-0.15269 z m 3.86387,0.0408 c -0.29854,-0.29851 -0.28298,-0.68481 0.0407,-1.00841 0.28263,-0.28267 0.50404,-0.31498 0.8681,-0.12668 0.65587,0.33913 0.36829,1.34807 -0.38423,1.34807 -0.2151,0 -0.37749,-0.066 -0.52453,-0.21298 z m 6.24717,0 c -0.29852,-0.29851 -0.28294,-0.68481 0.0406,-1.00841 0.28268,-0.28267 0.50407,-0.31498 0.86814,-0.12668 0.65586,0.33913 0.36827,1.34807 -0.38423,1.34807 -0.21513,0 -0.37749,-0.066 -0.52456,-0.21298 z m 8.63053,-0.0408 c -0.48927,-0.48927 -0.19922,-1.22139 0.48389,-1.22139 0.78158,0 1.02378,1.00515 0.33108,1.37408 -0.30556,0.16275 -0.54425,0.11803 -0.81497,-0.15269 z m 6.20653,0.0408 c -0.29852,-0.29851 -0.28296,-0.68481 0.0408,-1.00841 0.27072,-0.27072 0.50942,-0.31544 0.81497,-0.15268 0.69267,0.36893 0.4505,1.37407 -0.33109,1.37407 -0.2151,0 -0.37751,-0.066 -0.52454,-0.21298 z m 6.28783,-0.0408 c -0.48927,-0.48927 -0.19922,-1.22139 0.48388,-1.22139 0.78158,0 1.02377,1.00515 0.33109,1.37408 -0.30556,0.16275 -0.54427,0.11803 -0.81497,-0.15269 z M 2.556142,33.53286 c -0.298525,-0.29854 -0.282953,-0.68483 0.04066,-1.00843 0.270707,-0.27072 0.509411,-0.31545 0.814969,-0.1527 0.692693,0.36894 0.450507,1.37408 -0.331078,1.37408 -0.215113,0 -0.377503,-0.066 -0.524546,-0.21295 z m 6.247185,0 c -0.298529,-0.29854 -0.282956,-0.68483 0.04066,-1.00843 0.270704,-0.27072 0.509409,-0.31545 0.814968,-0.1527 0.692692,0.36894 0.450508,1.37408 -0.331078,1.37408 -0.215115,0 -0.377502,-0.066 -0.524542,-0.21295 z m 3.904487,0 c -0.298527,-0.29854 -0.282954,-0.68483 0.04066,-1.00843 0.270705,-0.27072 0.509409,-0.31545 0.814969,-0.1527 0.436751,0.23262 0.538819,0.74855 0.226605,1.14548 -0.246441,0.31328 -0.776905,0.32095 -1.082226,0.0156 z m 12.494357,0 c -0.298527,-0.29854 -0.282954,-0.68483 0.04066,-1.00843 0.270706,-0.27072 0.50941,-0.31545 0.814967,-0.1527 0.436752,0.23262 0.538822,0.74855 0.226607,1.14548 -0.24644,0.31328 -0.776904,0.32095 -1.082225,0.0156 z m 6.247178,0 c -0.298527,-0.29854 -0.282952,-0.68483 0.04065,-1.00843 0.270706,-0.27072 0.509409,-0.31545 0.814968,-0.1527 0.436752,0.23262 0.538817,0.74855 0.226605,1.14548 -0.246441,0.31328 -0.776904,0.32095 -1.082226,0.0156 z m 6.247179,0 c -0.298527,-0.29854 -0.282954,-0.68483 0.04066,-1.00843 0.270707,-0.27072 0.509409,-0.31545 0.814968,-0.1527 0.436751,0.23262 0.538817,0.74855 0.226606,1.14548 -0.24644,0.31328 -0.776903,0.32095 -1.082225,0.0156 z m 2.342692,0 c -0.298527,-0.29854 -0.282955,-0.68483 0.04065,-1.00843 0.270706,-0.27072 0.50941,-0.31545 0.814969,-0.1527 0.692694,0.36894 0.450507,1.37408 -0.331077,1.37408 -0.215116,0 -0.377504,-0.066 -0.524544,-0.21295 z m 3.904488,0 c -0.29853,-0.29854 -0.282956,-0.68483 0.04066,-1.00843 0.270703,-0.27072 0.509409,-0.31545 0.814967,-0.1527 0.436752,0.23262 0.538819,0.74855 0.226606,1.14548 -0.246441,0.31328 -0.776904,0.32095 -1.082225,0.0156 z m 2.34269,0 c -0.298527,-0.29854 -0.282953,-0.68483 0.04066,-1.00843 0.270704,-0.27072 0.509409,-0.31545 0.814967,-0.1527 0.692694,0.36894 0.450507,1.37408 -0.331078,1.37408 -0.215114,0 -0.3775,-0.066 -0.524543,-0.21295 z m 3.904485,0 c -0.298525,-0.29854 -0.282951,-0.68483 0.04066,-1.00843 0.270705,-0.27072 0.509409,-0.31545 0.814966,-0.1527 0.436754,0.23262 0.53882,0.74855 0.226607,1.14548 -0.246442,0.31328 -0.776905,0.32095 -1.082227,0.0156 z m 6.24718,0 c -0.298525,-0.29854 -0.282954,-0.68483 0.04065,-1.00843 0.270703,-0.27072 0.509407,-0.31545 0.814967,-0.1527 0.436752,0.23262 0.538818,0.74855 0.226606,1.14548 -0.246442,0.31328 -0.776905,0.32095 -1.082226,0.0156 z m 2.342692,0 c -0.298525,-0.29854 -0.282953,-0.68483 0.04066,-1.00843 0.270708,-0.27072 0.509411,-0.31545 0.814969,-0.1527 0.692695,0.36894 0.450506,1.37408 -0.331077,1.37408 -0.215114,0 -0.377502,-0.066 -0.524544,-0.21295 z m 10.151667,0 c -0.298528,-0.29854 -0.282956,-0.68483 0.04065,-1.00843 0.270706,-0.27072 0.509411,-0.31545 0.814968,-0.1527 0.436752,0.23262 0.53882,0.74855 0.226606,1.14548 -0.24644,0.31328 -0.776904,0.32095 -1.082226,0.0156 z m 6.247177,0 c -0.298526,-0.29854 -0.282952,-0.68483 0.04065,-1.00843 0.270706,-0.27072 0.509407,-0.31545 0.814967,-0.1527 0.436753,0.23262 0.538819,0.74855 0.226606,1.14548 -0.246442,0.31328 -0.776904,0.32095 -1.082227,0.0156 z m 2.342692,0 c -0.298527,-0.29854 -0.282953,-0.68483 0.04066,-1.00843 0.270705,-0.27072 0.509409,-0.31545 0.814968,-0.1527 0.692693,0.36894 0.450506,1.37408 -0.33108,1.37408 -0.215112,0 -0.3775,-0.066 -0.524541,-0.21295 z m 3.904492,0 c -0.29853,-0.29854 -0.282954,-0.68483 0.04066,-1.00843 0.270708,-0.27072 0.509408,-0.31545 0.814967,-0.1527 0.436747,0.23262 0.538819,0.74855 0.226605,1.14548 -0.246444,0.31328 -0.776907,0.32095 -1.08222,0.0156 z m 2.342684,0 c -0.298524,-0.29854 -0.282953,-0.68483 0.04063,-1.00843 0.270698,-0.27072 0.509394,-0.31545 0.814952,-0.1527 0.692694,0.36894 0.450516,1.37408 -0.331069,1.37408 -0.215115,0 -0.377509,-0.066 -0.524552,-0.21295 z m 16.398943,0 c -0.29854,-0.29854 -0.28298,-0.68483 0.0407,-1.00843 0.27069,-0.27072 0.5094,-0.31545 0.81494,-0.1527 0.43677,0.23262 0.53883,0.74855 0.2266,1.14548 -0.24642,0.31328 -0.77689,0.32095 -1.0822,0.0156 z m 2.3427,0 c -0.29854,-0.29854 -0.28298,-0.68483 0.0408,-1.00843 0.2707,-0.27072 0.50942,-0.31545 0.81496,-0.1527 0.6927,0.36894 0.45051,1.37408 -0.33106,1.37408 -0.21513,0 -0.37751,-0.066 -0.52456,-0.21295 z m 3.90447,0 c -0.29852,-0.29854 -0.28294,-0.68483 0.0406,-1.00843 0.27072,-0.27072 0.50941,-0.31545 0.81498,-0.1527 0.43675,0.23262 0.53883,0.74855 0.22661,1.14548 -0.24644,0.31328 -0.7769,0.32095 -1.08224,0.0156 z m 2.34269,0 c -0.29851,-0.29854 -0.28293,-0.68483 0.0408,-1.00843 0.27071,-0.27072 0.50942,-0.31545 0.81497,-0.1527 0.6927,0.36894 0.45051,1.37408 -0.33108,1.37408 -0.21511,0 -0.37751,-0.066 -0.52455,-0.21295 z m 3.90451,0 c -0.29853,-0.29854 -0.28297,-0.68483 0.0406,-1.00843 0.27071,-0.27072 0.5094,-0.31545 0.81495,-0.1527 0.43676,0.23262 0.53883,0.74855 0.22661,1.14548 -0.24645,0.31328 -0.77691,0.32095 -1.0822,0.0156 z m 2.34268,0 c -0.29852,-0.29854 -0.28296,-0.68483 0.0406,-1.00843 0.27072,-0.27072 0.50941,-0.31545 0.81497,-0.1527 0.6927,0.36894 0.4505,1.37408 -0.33109,1.37408 -0.21509,0 -0.3775,-0.066 -0.52452,-0.21295 z m 3.90448,0 c -0.29852,-0.29854 -0.28294,-0.68483 0.0408,-1.00843 0.27072,-0.27072 0.50942,-0.31545 0.81497,-0.1527 0.43674,0.23262 0.53882,0.74855 0.2266,1.14548 -0.24644,0.31328 -0.77689,0.32095 -1.08223,0.0156 z m 6.24718,0 c -0.29852,-0.29854 -0.28295,-0.68483 0.0406,-1.00843 0.27072,-0.27072 0.50941,-0.31545 0.81497,-0.1527 0.43677,0.23262 0.53883,0.74855 0.2266,1.14548 -0.24644,0.31328 -0.77688,0.32095 -1.08222,0.0156 z m 2.34269,0 c -0.29852,-0.29854 -0.28294,-0.68483 0.0408,-1.00843 0.2707,-0.27072 0.50941,-0.31545 0.81497,-0.1527 0.69271,0.36894 0.45052,1.37408 -0.33107,1.37408 -0.21512,0 -0.3775,-0.066 -0.52455,-0.21295 z m 6.2472,0 c -0.29854,-0.29854 -0.28297,-0.68483 0.0408,-1.00843 0.27069,-0.27072 0.50941,-0.31545 0.81496,-0.1527 0.69268,0.36894 0.45049,1.37408 -0.33109,1.37408 -0.21511,0 -0.3775,-0.066 -0.52452,-0.21295 z M 12.748466,27.41856 c -0.489277,-0.48928 -0.199226,-1.22142 0.483891,-1.22142 0.752518,0 1.040091,1.00894 0.384241,1.3481 -0.364081,0.18826 -0.585483,0.15596 -0.868132,-0.12668 z m 6.247178,0 c -0.489277,-0.48928 -0.199225,-1.22142 0.48389,-1.22142 0.752518,0 1.040093,1.00894 0.384243,1.3481 -0.364082,0.18826 -0.585482,0.15596 -0.868133,-0.12668 z m 18.741536,0 c -0.489276,-0.48928 -0.199225,-1.22142 0.483888,-1.22142 0.752519,0 1.040096,1.00894 0.384244,1.3481 -0.36408,0.18826 -0.585482,0.15596 -0.868132,-0.12668 z m 6.247179,0 c -0.489276,-0.48928 -0.199226,-1.22142 0.483889,-1.22142 0.752519,0 1.040093,1.00894 0.384243,1.3481 -0.364082,0.18826 -0.585484,0.15596 -0.868132,-0.12668 z m 12.494358,0 c -0.489278,-0.48928 -0.199226,-1.22142 0.483888,-1.22142 0.75252,0 1.040093,1.00894 0.384243,1.3481 -0.364082,0.18826 -0.585481,0.15596 -0.868131,-0.12668 z m 18.741535,0 c -0.489277,-0.48928 -0.199226,-1.22142 0.483891,-1.22142 0.752518,0 1.040091,1.00894 0.38424,1.3481 -0.36408,0.18826 -0.585481,0.15596 -0.868131,-0.12668 z m 6.24718,0 c -0.489277,-0.48928 -0.199227,-1.22142 0.483891,-1.22142 0.752511,0 1.040086,1.00894 0.384241,1.3481 -0.36408,0.18826 -0.585481,0.15596 -0.868132,-0.12668 z m 12.494398,0 c -0.48927,-0.48928 -0.19923,-1.22142 0.4839,-1.22142 0.75252,0 1.04009,1.00894 0.38423,1.3481 -0.36407,0.18826 -0.58547,0.15596 -0.86813,-0.12668 z m 2.34271,0 c -0.48928,-0.48928 -0.19923,-1.22142 0.48388,-1.22142 0.78159,0 1.02379,1.00517 0.33107,1.37409 -0.30555,0.16275 -0.54424,0.11804 -0.81495,-0.15267 z m 3.90453,0 c -0.48932,-0.48928 -0.19925,-1.22142 0.48387,-1.22142 0.75252,0 1.0401,1.00894 0.38423,1.3481 -0.36406,0.18826 -0.58547,0.15596 -0.8681,-0.12668 z m 21.08422,0 c -0.48928,-0.48928 -0.19923,-1.22142 0.48389,-1.22142 0.7816,0 1.02377,1.00517 0.33109,1.37409 -0.30556,0.16275 -0.54426,0.11804 -0.81498,-0.15267 z m 10.15167,0 c -0.48929,-0.48928 -0.19923,-1.22142 0.48389,-1.22142 0.75252,0 1.0401,1.00894 0.38424,1.3481 -0.36407,0.18826 -0.58547,0.15596 -0.86813,-0.12668 z m 6.24718,0 c -0.48927,-0.48928 -0.19922,-1.22142 0.48389,-1.22142 0.75252,0 1.04008,1.00894 0.38424,1.3481 -0.36408,0.18826 -0.58548,0.15596 -0.86813,-0.12668 z m 12.49435,0 c -0.48927,-0.48928 -0.19922,-1.22142 0.4839,-1.22142 0.75251,0 1.04008,1.00894 0.38424,1.3481 -0.36408,0.18826 -0.58549,0.15596 -0.86814,-0.12668 z m 8.58987,0 c -0.48925,-0.48928 -0.19922,-1.22142 0.48388,-1.22142 0.7816,0 1.0238,1.00517 0.33109,1.37409 -0.30557,0.16275 -0.54427,0.11804 -0.81497,-0.15267 z M 0.213449,25.11652 c -0.298527,-0.29853 -0.282953,-0.68484 0.04066,-1.00843 0.282647,-0.28267 0.504049,-0.31498 0.868134,-0.1267 0.275146,0.14228 0.35327,0.28934 0.35327,0.665 0,0.60931 -0.818104,0.91407 -1.262059,0.47013 z m 6.247183,0 c -0.298526,-0.29853 -0.282952,-0.68484 0.04065,-1.00843 0.282651,-0.28267 0.504051,-0.31498 0.868133,-0.1267 0.27515,0.14228 0.353271,0.28934 0.353271,0.665 0,0.60931 -0.818103,0.91407 -1.262058,0.47013 z m 6.287834,-0.0408 c -0.489277,-0.48926 -0.199226,-1.22139 0.483891,-1.22139 0.752518,0 1.040091,1.00893 0.384241,1.34807 -0.364081,0.18831 -0.585483,0.15599 -0.868132,-0.12668 z m 2.342692,0 c -0.489276,-0.48926 -0.199226,-1.22139 0.483891,-1.22139 0.781583,0 1.023772,1.00516 0.331075,1.37408 -0.305556,0.16275 -0.54426,0.11803 -0.814966,-0.15269 z m 3.904486,0 c -0.489277,-0.48926 -0.199225,-1.22139 0.48389,-1.22139 0.752518,0 1.040093,1.00893 0.384243,1.34807 -0.364082,0.18831 -0.585482,0.15599 -0.868133,-0.12668 z m 2.342693,0 c -0.489277,-0.48926 -0.199226,-1.22139 0.483888,-1.22139 0.781585,0 1.023772,1.00516 0.331078,1.37408 -0.305558,0.16275 -0.544261,0.11803 -0.814966,-0.15269 z m 6.206524,0.0408 c -0.298525,-0.29853 -0.282952,-0.68484 0.04066,-1.00843 0.270704,-0.27071 0.509408,-0.31544 0.814966,-0.1527 0.282936,0.15069 0.400605,0.34373 0.403678,0.66222 0.0062,0.63631 -0.801799,0.9564 -1.2593,0.49891 z m 16.439498,-0.0408 c -0.489276,-0.48926 -0.199226,-1.22139 0.483889,-1.22139 0.752519,0 1.040093,1.00893 0.384243,1.34807 -0.364082,0.18831 -0.585484,0.15599 -0.868132,-0.12668 z m 6.206524,0.0408 c -0.298525,-0.29853 -0.282951,-0.68484 0.04066,-1.00843 0.282649,-0.28267 0.504051,-0.31498 0.868133,-0.1267 0.275149,0.14228 0.35327,0.28934 0.35327,0.665 0,0.60931 -0.818104,0.91407 -1.262058,0.47013 z m 8.630525,-0.0408 c -0.489276,-0.48926 -0.199227,-1.22139 0.48389,-1.22139 0.781584,0 1.023772,1.00516 0.331077,1.37408 -0.305557,0.16275 -0.544261,0.11803 -0.814967,-0.15269 z m 3.863834,0.0408 c -0.298527,-0.29853 -0.282954,-0.68484 0.04065,-1.00843 0.282651,-0.28267 0.50405,-0.31498 0.868133,-0.1267 0.275148,0.14228 0.353271,0.28934 0.353271,0.665 0,0.60931 -0.818102,0.91407 -1.262058,0.47013 z m 2.342693,0 c -0.298527,-0.29853 -0.282954,-0.68484 0.04065,-1.00843 0.270707,-0.27071 0.509411,-0.31544 0.814969,-0.1527 0.282934,0.15069 0.400603,0.34373 0.403676,0.66222 0.0062,0.63631 -0.801797,0.9564 -1.259295,0.49891 z m 6.247177,0 c -0.298526,-0.29853 -0.282953,-0.68484 0.04065,-1.00843 0.270705,-0.27071 0.50941,-0.31544 0.814968,-0.1527 0.282936,0.15069 0.400603,0.34373 0.403677,0.66222 0.0062,0.63631 -0.801798,0.9564 -1.259299,0.49891 z m 3.94514,-0.0408 c -0.489277,-0.48926 -0.199226,-1.22139 0.483891,-1.22139 0.752518,0 1.040091,1.00893 0.38424,1.34807 -0.36408,0.18831 -0.585481,0.15599 -0.868131,-0.12668 z m 8.589874,0 c -0.489282,-0.48926 -0.199231,-1.22139 0.483893,-1.22139 0.781585,0 1.023763,1.00516 0.331069,1.37408 -0.305558,0.16275 -0.544254,0.11803 -0.814962,-0.15269 z m 18.741634,0 c -0.4893,-0.48926 -0.19923,-1.22139 0.48387,-1.22139 0.7816,0 1.02379,1.00516 0.33108,1.37408 -0.30553,0.16275 -0.54425,0.11803 -0.81495,-0.15269 z m 6.20651,0.0408 c -0.29851,-0.29853 -0.28293,-0.68484 0.0408,-1.00843 0.27071,-0.27071 0.50942,-0.31544 0.81497,-0.1527 0.28293,0.15069 0.40059,0.34373 0.40368,0.66222 0.007,0.63631 -0.80179,0.9564 -1.25931,0.49891 z m 10.19232,-0.0408 c -0.48926,-0.48926 -0.19922,-1.22139 0.48391,-1.22139 0.7525,0 1.0401,1.00893 0.38424,1.34807 -0.36407,0.18831 -0.58547,0.15599 -0.86815,-0.12668 z m 2.3427,0 c -0.48928,-0.48926 -0.19923,-1.22139 0.48389,-1.22139 0.7816,0 1.02377,1.00516 0.33109,1.37408 -0.30556,0.16275 -0.54426,0.11803 -0.81498,-0.15269 z m 10.15167,0 c -0.48929,-0.48926 -0.19923,-1.22139 0.48389,-1.22139 0.75252,0 1.0401,1.00893 0.38424,1.34807 -0.36407,0.18831 -0.58547,0.15599 -0.86813,-0.12668 z m 2.3427,0 c -0.48929,-0.48926 -0.19923,-1.22139 0.48388,-1.22139 0.78158,0 1.02377,1.00516 0.33108,1.37408 -0.30555,0.16275 -0.54427,0.11803 -0.81496,-0.15269 z m 3.90448,0 c -0.48927,-0.48926 -0.19922,-1.22139 0.48389,-1.22139 0.75252,0 1.04008,1.00893 0.38424,1.34807 -0.36408,0.18831 -0.58548,0.15599 -0.86813,-0.12668 z m 2.34268,0 c -0.48926,-0.48926 -0.1992,-1.22139 0.4839,-1.22139 0.78158,0 1.02376,1.00516 0.33108,1.37408 -0.30556,0.16275 -0.54427,0.11803 -0.81498,-0.15269 z m 6.20654,0.0408 c -0.29852,-0.29853 -0.28295,-0.68484 0.0406,-1.00843 0.27068,-0.27071 0.50939,-0.31544 0.81494,-0.1527 0.28294,0.15069 0.40061,0.34373 0.40367,0.66222 0.007,0.63631 -0.8018,0.9564 -1.25927,0.49891 z m 6.28782,-0.0408 c -0.48927,-0.48926 -0.19922,-1.22139 0.48389,-1.22139 0.7816,0 1.02378,1.00516 0.3311,1.37408 -0.30557,0.16275 -0.54428,0.11803 -0.81499,-0.15269 z M 0.213449,22.77378 c -0.298527,-0.29853 -0.282953,-0.68482 0.04066,-1.00843 0.270703,-0.2707 0.509408,-0.31542 0.814967,-0.1527 0.436753,0.23263 0.53882,0.74857 0.226607,1.14549 -0.246441,0.31329 -0.776908,0.32097 -1.082227,0.0156 z m 8.589878,0 c -0.298529,-0.29853 -0.282956,-0.68482 0.04066,-1.00843 0.270704,-0.2707 0.509409,-0.31542 0.814968,-0.1527 0.282935,0.15069 0.400605,0.34373 0.403679,0.66223 0.0062,0.63632 -0.801801,0.95638 -1.259299,0.4989 z m 6.247178,0 c -0.298528,-0.29853 -0.282953,-0.68482 0.04066,-1.00843 0.270705,-0.2707 0.509409,-0.31542 0.814967,-0.1527 0.282936,0.15069 0.400602,0.34373 0.403676,0.66223 0.0062,0.63632 -0.801798,0.95638 -1.259297,0.4989 z m 6.247178,0 c -0.298526,-0.29853 -0.282953,-0.68482 0.04066,-1.00843 0.270706,-0.2707 0.509409,-0.31542 0.814967,-0.1527 0.282936,0.15069 0.400604,0.34373 0.403677,0.66223 0.0062,0.63632 -0.801797,0.95638 -1.259298,0.4989 z m 3.904488,0 c -0.298527,-0.29853 -0.282954,-0.68482 0.04066,-1.00843 0.270706,-0.2707 0.50941,-0.31542 0.814967,-0.1527 0.436752,0.23263 0.538822,0.74857 0.226607,1.14549 -0.24644,0.31329 -0.776904,0.32097 -1.082225,0.0156 z m 12.494357,0 c -0.298527,-0.29853 -0.282954,-0.68482 0.04066,-1.00843 0.270707,-0.2707 0.509409,-0.31542 0.814968,-0.1527 0.436751,0.23263 0.538817,0.74857 0.226606,1.14549 -0.24644,0.31329 -0.776903,0.32097 -1.082225,0.0156 z m 6.24718,0 c -0.29853,-0.29853 -0.282956,-0.68482 0.04066,-1.00843 0.270703,-0.2707 0.509409,-0.31542 0.814967,-0.1527 0.436752,0.23263 0.538819,0.74857 0.226606,1.14549 -0.246441,0.31329 -0.776904,0.32097 -1.082225,0.0156 z m 8.589868,0 c -0.298525,-0.29853 -0.282953,-0.68482 0.04065,-1.00843 0.270703,-0.2707 0.509407,-0.31542 0.814965,-0.1527 0.282936,0.15069 0.400603,0.34373 0.403676,0.66223 0.0062,0.63632 -0.801797,0.95638 -1.259297,0.4989 z m 3.904487,0 c -0.298525,-0.29853 -0.282954,-0.68482 0.04065,-1.00843 0.270703,-0.2707 0.509407,-0.31542 0.814967,-0.1527 0.436752,0.23263 0.538818,0.74857 0.226606,1.14549 -0.246442,0.31329 -0.776905,0.32097 -1.082226,0.0156 z m 2.342692,0 c -0.298525,-0.29853 -0.282953,-0.68482 0.04066,-1.00843 0.270708,-0.2707 0.509411,-0.31542 0.814969,-0.1527 0.282937,0.15069 0.400604,0.34373 0.403678,0.66223 0.0062,0.63632 -0.801799,0.95638 -1.259299,0.4989 z m 3.904487,0 c -0.298527,-0.29853 -0.282954,-0.68482 0.04065,-1.00843 0.270705,-0.2707 0.50941,-0.31542 0.814968,-0.1527 0.436752,0.23263 0.538818,0.74857 0.226604,1.14549 -0.246438,0.31329 -0.776902,0.32097 -1.082225,0.0156 z m 2.342693,0 c -0.298527,-0.29853 -0.282954,-0.68482 0.04065,-1.00843 0.270707,-0.2707 0.509411,-0.31542 0.814969,-0.1527 0.282934,0.15069 0.400603,0.34373 0.403676,0.66223 0.0062,0.63632 -0.801797,0.95638 -1.259295,0.4989 z m 3.904487,0 c -0.298528,-0.29853 -0.282956,-0.68482 0.04065,-1.00843 0.270706,-0.2707 0.509411,-0.31542 0.814968,-0.1527 0.436752,0.23263 0.53882,0.74857 0.226606,1.14549 -0.24644,0.31329 -0.776904,0.32097 -1.082226,0.0156 z m 6.247177,0 c -0.298526,-0.29853 -0.282952,-0.68482 0.04065,-1.00843 0.270706,-0.2707 0.509407,-0.31542 0.814967,-0.1527 0.436753,0.23263 0.538819,0.74857 0.226606,1.14549 -0.246442,0.31329 -0.776904,0.32097 -1.082227,0.0156 z m 6.247184,0 c -0.29853,-0.29853 -0.282954,-0.68482 0.04066,-1.00843 0.270708,-0.2707 0.509408,-0.31542 0.814967,-0.1527 0.436747,0.23263 0.538819,0.74857 0.226605,1.14549 -0.246444,0.31329 -0.776907,0.32097 -1.08222,0.0156 z m 2.342684,0 c -0.298524,-0.29853 -0.282953,-0.68482 0.04063,-1.00843 0.270698,-0.2707 0.509394,-0.31542 0.814952,-0.1527 0.282934,0.15069 0.400606,0.34373 0.40367,0.66223 0.0068,0.63632 -0.801783,0.95638 -1.259291,0.4989 z m 10.151723,0 c -0.29854,-0.29853 -0.28298,-0.68482 0.0408,-1.00843 0.27071,-0.2707 0.50941,-0.31542 0.81497,-0.1527 0.43674,0.23263 0.53881,0.74857 0.22659,1.14549 -0.24643,0.31329 -0.77689,0.32097 -1.08222,0.0156 z m 6.24722,0 c -0.29854,-0.29853 -0.28298,-0.68482 0.0407,-1.00843 0.27069,-0.2707 0.5094,-0.31542 0.81494,-0.1527 0.43677,0.23263 0.53883,0.74857 0.2266,1.14549 -0.24642,0.31329 -0.77689,0.32097 -1.0822,0.0156 z m 2.3427,0 c -0.29854,-0.29853 -0.28298,-0.68482 0.0408,-1.00843 0.2707,-0.2707 0.50942,-0.31542 0.81496,-0.1527 0.28295,0.15069 0.4006,0.34373 0.40368,0.66223 0.007,0.63632 -0.8018,0.95638 -1.2593,0.4989 z m 3.90447,0 c -0.29852,-0.29853 -0.28294,-0.68482 0.0406,-1.00843 0.27072,-0.2707 0.50941,-0.31542 0.81498,-0.1527 0.43675,0.23263 0.53883,0.74857 0.22661,1.14549 -0.24644,0.31329 -0.7769,0.32097 -1.08224,0.0156 z m 2.34269,0 c -0.29851,-0.29853 -0.28293,-0.68482 0.0408,-1.00843 0.27071,-0.2707 0.50942,-0.31542 0.81497,-0.1527 0.28293,0.15069 0.40059,0.34373 0.40368,0.66223 0.007,0.63632 -0.80179,0.95638 -1.25931,0.4989 z m 12.49437,0 c -0.29852,-0.29853 -0.28296,-0.68482 0.0408,-1.00843 0.27072,-0.2707 0.50942,-0.31542 0.81497,-0.1527 0.28293,0.15069 0.40059,0.34373 0.40369,0.66223 0.007,0.63632 -0.80181,0.95638 -1.25932,0.4989 z m 3.90448,0 c -0.29852,-0.29853 -0.28295,-0.68482 0.0406,-1.00843 0.27072,-0.2707 0.50941,-0.31542 0.81497,-0.1527 0.43677,0.23263 0.53883,0.74857 0.2266,1.14549 -0.24644,0.31329 -0.77688,0.32097 -1.08222,0.0156 z m 6.24719,0 c -0.29854,-0.29853 -0.28296,-0.68482 0.0406,-1.00843 0.27071,-0.2707 0.50942,-0.31542 0.81497,-0.1527 0.43676,0.23263 0.53881,0.74857 0.22661,1.14549 -0.24644,0.31329 -0.7769,0.32097 -1.08224,0.0156 z m 8.58987,0 c -0.29852,-0.29853 -0.28295,-0.68482 0.0408,-1.00843 0.27071,-0.2707 0.50942,-0.31542 0.81498,-0.1527 0.28293,0.15069 0.4006,0.34373 0.40368,0.66223 0.007,0.63632 -0.80181,0.95638 -1.2593,0.4989 z m 3.90449,0 c -0.29852,-0.29853 -0.28296,-0.68482 0.0406,-1.00843 0.27069,-0.2707 0.50941,-0.31542 0.81496,-0.1527 0.43676,0.23263 0.53882,0.74857 0.22661,1.14549 -0.24645,0.31329 -0.77692,0.32097 -1.08222,0.0156 z m 6.24717,0 c -0.29852,-0.29853 -0.28295,-0.68482 0.0406,-1.00843 0.27071,-0.2707 0.50941,-0.31542 0.81496,-0.1527 0.43674,0.23263 0.53882,0.74857 0.2266,1.14549 -0.24644,0.31329 -0.7769,0.32097 -1.08222,0.0156 z m 2.34268,0 c -0.29851,-0.29853 -0.28293,-0.68482 0.0406,-1.00843 0.27071,-0.2707 0.50941,-0.31542 0.81498,-0.1527 0.28293,0.15069 0.40059,0.34373 0.40368,0.66223 0.007,0.63632 -0.80182,0.95638 -1.25931,0.4989 z m 6.2472,0 c -0.29853,-0.29853 -0.28297,-0.68482 0.0406,-1.00843 0.2707,-0.2707 0.5094,-0.31542 0.81497,-0.1527 0.28294,0.15069 0.4006,0.34373 0.40368,0.66223 0.007,0.63632 -0.8018,0.95638 -1.2593,0.4989 z M 6.501285,16.65952 C 6.012009,16.17025 6.302058,15.4381 6.985174,15.4381 c 0.752519,0 1.040094,1.00895 0.384243,1.34811 -0.364081,0.18827 -0.585481,0.15596 -0.868132,-0.12669 z m 6.247181,0 c -0.489277,-0.48927 -0.199226,-1.22142 0.483891,-1.22142 0.752518,0 1.040091,1.00895 0.384241,1.34811 -0.364081,0.18827 -0.585483,0.15596 -0.868132,-0.12669 z m 18.741536,0 c -0.489277,-0.48927 -0.199228,-1.22142 0.48389,-1.22142 0.752518,0 1.040091,1.00895 0.384243,1.34811 -0.364083,0.18827 -0.585483,0.15596 -0.868133,-0.12669 z m 18.741536,0 c -0.489276,-0.48927 -0.199226,-1.22142 0.48389,-1.22142 0.752516,0 1.040093,1.00895 0.384242,1.34811 -0.364081,0.18827 -0.585483,0.15596 -0.868132,-0.12669 z m 6.247179,0 c -0.489278,-0.48927 -0.199226,-1.22142 0.483888,-1.22142 0.75252,0 1.040093,1.00895 0.384243,1.34811 -0.364082,0.18827 -0.585481,0.15596 -0.868131,-0.12669 z m 2.342691,0 c -0.489276,-0.48927 -0.199227,-1.22142 0.48389,-1.22142 0.781584,0 1.023772,1.00518 0.331077,1.37411 -0.305557,0.16273 -0.544261,0.118 -0.814967,-0.15269 z m 3.904487,0 c -0.489277,-0.48927 -0.199227,-1.22142 0.483889,-1.22142 0.752518,0 1.040094,1.00895 0.384244,1.34811 -0.364083,0.18827 -0.585482,0.15596 -0.868133,-0.12669 z m 12.494357,0 c -0.489277,-0.48927 -0.199226,-1.22142 0.483891,-1.22142 0.752518,0 1.040091,1.00895 0.38424,1.34811 -0.36408,0.18827 -0.585481,0.15596 -0.868131,-0.12669 z m 14.837078,0 c -0.48929,-0.48927 -0.19923,-1.22142 0.4839,-1.22142 0.78157,0 1.02376,1.00518 0.33109,1.37411 -0.30555,0.16273 -0.54427,0.118 -0.81499,-0.15269 z m 10.15174,0 c -0.48932,-0.48927 -0.19925,-1.22142 0.48387,-1.22142 0.75252,0 1.0401,1.00895 0.38423,1.34811 -0.36406,0.18827 -0.58547,0.15596 -0.8681,-0.12669 z m 12.49435,0 c -0.48927,-0.48927 -0.19923,-1.22142 0.48389,-1.22142 0.75251,0 1.0401,1.00895 0.38423,1.34811 -0.36407,0.18827 -0.58548,0.15596 -0.86812,-0.12669 z m 6.24717,0 c -0.48926,-0.48927 -0.19922,-1.22142 0.48391,-1.22142 0.7525,0 1.0401,1.00895 0.38424,1.34811 -0.36407,0.18827 -0.58547,0.15596 -0.86815,-0.12669 z m 14.83707,0 c -0.48929,-0.48927 -0.19923,-1.22142 0.48388,-1.22142 0.78158,0 1.02377,1.00518 0.33108,1.37411 -0.30555,0.16273 -0.54427,0.118 -0.81496,-0.15269 z M 6.501285,14.31682 c -0.489276,-0.48926 -0.199227,-1.2214 0.483889,-1.2214 0.752519,0 1.040094,1.00893 0.384243,1.34809 -0.364081,0.1883 -0.585481,0.15598 -0.868132,-0.12669 z m 6.247181,0 c -0.489277,-0.48926 -0.199226,-1.2214 0.483891,-1.2214 0.752518,0 1.040091,1.00893 0.384241,1.34809 -0.364081,0.1883 -0.585483,0.15598 -0.868132,-0.12669 z m 18.741536,0 c -0.489277,-0.48926 -0.199228,-1.2214 0.48389,-1.2214 0.752518,0 1.040091,1.00893 0.384243,1.34809 -0.364083,0.1883 -0.585483,0.15598 -0.868133,-0.12669 z m 2.342691,0 c -0.489276,-0.48926 -0.199226,-1.2214 0.48389,-1.2214 0.781584,0 1.023771,1.00516 0.331078,1.3741 -0.305558,0.16274 -0.544262,0.11801 -0.814968,-0.1527 z m 6.206527,0.0406 c -0.298527,-0.29853 -0.282955,-0.68483 0.04065,-1.00844 0.270706,-0.2707 0.50941,-0.31543 0.814969,-0.15269 0.282935,0.1507 0.400603,0.34373 0.403677,0.66223 0.0062,0.63633 -0.8018,0.9564 -1.259298,0.4989 z m 10.192318,-0.0406 c -0.489276,-0.48926 -0.199226,-1.2214 0.48389,-1.2214 0.752516,0 1.040093,1.00893 0.384242,1.34809 -0.364081,0.1883 -0.585483,0.15598 -0.868132,-0.12669 z m 2.342692,0 c -0.489278,-0.48926 -0.199225,-1.2214 0.483888,-1.2214 0.781585,0 1.023772,1.00516 0.331079,1.3741 -0.305559,0.16274 -0.544262,0.11801 -0.814967,-0.1527 z m 10.151665,0 c -0.489277,-0.48926 -0.199227,-1.2214 0.483889,-1.2214 0.752518,0 1.040094,1.00893 0.384244,1.34809 -0.364083,0.1883 -0.585482,0.15598 -0.868133,-0.12669 z m 2.342691,0 c -0.489275,-0.48926 -0.199223,-1.2214 0.483888,-1.2214 0.781588,0 1.023772,1.00516 0.331081,1.3741 -0.305559,0.16274 -0.544262,0.11801 -0.814969,-0.1527 z m 6.206526,0.0406 c -0.298526,-0.29853 -0.282953,-0.68483 0.04065,-1.00844 0.270705,-0.2707 0.50941,-0.31543 0.814968,-0.15269 0.282936,0.1507 0.400603,0.34373 0.403677,0.66223 0.0062,0.63633 -0.801798,0.9564 -1.259299,0.4989 z m 3.94514,-0.0406 c -0.489277,-0.48926 -0.199226,-1.2214 0.483891,-1.2214 0.752518,0 1.040091,1.00893 0.38424,1.34809 -0.36408,0.1883 -0.585481,0.15598 -0.868131,-0.12669 z m 12.494368,0 c -0.48929,-0.48926 -0.19923,-1.2214 0.4839,-1.2214 0.75252,0 1.0401,1.00893 0.38425,1.34809 -0.36409,0.1883 -0.58549,0.15598 -0.86815,-0.12669 z m 2.34271,0 c -0.48929,-0.48926 -0.19923,-1.2214 0.4839,-1.2214 0.78157,0 1.02376,1.00516 0.33109,1.3741 -0.30555,0.16274 -0.54427,0.11801 -0.81499,-0.1527 z m 6.20656,0.0406 c -0.29852,-0.29853 -0.28296,-0.68483 0.0408,-1.00844 0.27072,-0.2707 0.50941,-0.31543 0.81496,-0.15269 0.28292,0.1507 0.4006,0.34373 0.40368,0.66223 0.007,0.63633 -0.8018,0.9564 -1.25931,0.4989 z m 3.94518,-0.0406 c -0.48932,-0.48926 -0.19925,-1.2214 0.48387,-1.2214 0.75252,0 1.0401,1.00893 0.38423,1.34809 -0.36406,0.1883 -0.58547,0.15598 -0.8681,-0.12669 z m 14.83704,0 c -0.48927,-0.48926 -0.19922,-1.2214 0.48389,-1.2214 0.78158,0 1.02378,1.00516 0.33108,1.3741 -0.30556,0.16274 -0.54425,0.11801 -0.81497,-0.1527 z m 12.4537,0.0406 c -0.29852,-0.29853 -0.28294,-0.68483 0.0408,-1.00844 0.2707,-0.2707 0.50941,-0.31543 0.81497,-0.15269 0.28295,0.1507 0.40061,0.34373 0.40367,0.66223 0.007,0.63633 -0.80179,0.9564 -1.25929,0.4989 z M 0.213449,12.01478 c -0.298527,-0.29853 -0.282953,-0.68482 0.04066,-1.00842 0.270703,-0.27071 0.509408,-0.31543 0.814967,-0.15268 0.436753,0.23261 0.53882,0.74855 0.226607,1.14546 -0.246441,0.31331 -0.776908,0.32098 -1.082227,0.0156 z m 6.247183,0 c -0.298526,-0.29853 -0.282952,-0.68482 0.04065,-1.00842 0.270707,-0.27071 0.50941,-0.31543 0.814968,-0.15268 0.436752,0.23261 0.53882,0.74855 0.226605,1.14546 -0.24644,0.31331 -0.776904,0.32098 -1.082227,0.0156 z m 6.247182,0 c -0.298527,-0.29853 -0.282954,-0.68482 0.04066,-1.00842 0.270705,-0.27071 0.509409,-0.31543 0.814969,-0.15268 0.436751,0.23261 0.538819,0.74855 0.226605,1.14546 -0.246441,0.31331 -0.776905,0.32098 -1.082226,0.0156 z m 12.494357,0 c -0.298527,-0.29853 -0.282954,-0.68482 0.04066,-1.00842 0.270706,-0.27071 0.50941,-0.31543 0.814967,-0.15268 0.436752,0.23261 0.538822,0.74855 0.226607,1.14546 -0.24644,0.31331 -0.776904,0.32098 -1.082225,0.0156 z m 2.34269,0 c -0.298525,-0.29853 -0.282952,-0.68482 0.04066,-1.00842 0.270704,-0.27071 0.509408,-0.31543 0.814966,-0.15268 0.282936,0.15069 0.400605,0.34372 0.403678,0.66219 0.0062,0.63633 -0.801799,0.95642 -1.2593,0.49891 z m 3.904488,0 c -0.298527,-0.29853 -0.282952,-0.68482 0.04065,-1.00842 0.270706,-0.27071 0.509409,-0.31543 0.814968,-0.15268 0.436752,0.23261 0.538817,0.74855 0.226605,1.14546 -0.246441,0.31331 -0.776904,0.32098 -1.082226,0.0156 z m 6.247179,0 c -0.298527,-0.29853 -0.282954,-0.68482 0.04066,-1.00842 0.270707,-0.27071 0.509409,-0.31543 0.814968,-0.15268 0.436751,0.23261 0.538817,0.74855 0.226606,1.14546 -0.24644,0.31331 -0.776903,0.32098 -1.082225,0.0156 z m 6.24718,0 c -0.29853,-0.29853 -0.282956,-0.68482 0.04066,-1.00842 0.270703,-0.27071 0.509409,-0.31543 0.814967,-0.15268 0.436752,0.23261 0.538819,0.74855 0.226606,1.14546 -0.246441,0.31331 -0.776904,0.32098 -1.082225,0.0156 z m 8.589868,0 c -0.298525,-0.29853 -0.282953,-0.68482 0.04065,-1.00842 0.270703,-0.27071 0.509407,-0.31543 0.814965,-0.15268 0.282936,0.15069 0.400603,0.34372 0.403676,0.66219 0.0062,0.63633 -0.801797,0.95642 -1.259297,0.49891 z m 3.904487,0 c -0.298525,-0.29853 -0.282954,-0.68482 0.04065,-1.00842 0.270703,-0.27071 0.509407,-0.31543 0.814967,-0.15268 0.436752,0.23261 0.538818,0.74855 0.226606,1.14546 -0.246442,0.31331 -0.776905,0.32098 -1.082226,0.0156 z m 6.247179,0 c -0.298527,-0.29853 -0.282954,-0.68482 0.04065,-1.00842 0.270705,-0.27071 0.50941,-0.31543 0.814968,-0.15268 0.436752,0.23261 0.538818,0.74855 0.226604,1.14546 -0.246438,0.31331 -0.776902,0.32098 -1.082225,0.0156 z m 6.24718,0 c -0.298528,-0.29853 -0.282956,-0.68482 0.04065,-1.00842 0.270706,-0.27071 0.509411,-0.31543 0.814968,-0.15268 0.436752,0.23261 0.53882,0.74855 0.226606,1.14546 -0.24644,0.31331 -0.776904,0.32098 -1.082226,0.0156 z m 8.589869,0 c -0.298527,-0.29853 -0.282953,-0.68482 0.04066,-1.00842 0.270705,-0.27071 0.509409,-0.31543 0.814968,-0.15268 0.282936,0.15069 0.400603,0.34372 0.403676,0.66219 0.0062,0.63633 -0.801798,0.95642 -1.259298,0.49891 z m 12.494379,0 c -0.29854,-0.29853 -0.28295,-0.68482 0.0406,-1.00842 0.27072,-0.27071 0.50943,-0.31543 0.81498,-0.15268 0.28292,0.15069 0.40058,0.34372 0.40365,0.66219 0.007,0.63633 -0.80177,0.95642 -1.25928,0.49891 z m 3.90452,0 c -0.29854,-0.29853 -0.28298,-0.68482 0.0408,-1.00842 0.27071,-0.27071 0.50941,-0.31543 0.81497,-0.15268 0.43674,0.23261 0.53881,0.74855 0.22659,1.14546 -0.24643,0.31331 -0.77689,0.32098 -1.08222,0.0156 z m 6.24722,0 c -0.29854,-0.29853 -0.28298,-0.68482 0.0407,-1.00842 0.27069,-0.27071 0.5094,-0.31543 0.81494,-0.15268 0.43677,0.23261 0.53883,0.74855 0.2266,1.14546 -0.24642,0.31331 -0.77689,0.32098 -1.0822,0.0156 z m 6.24717,0 c -0.29852,-0.29853 -0.28294,-0.68482 0.0406,-1.00842 0.27072,-0.27071 0.50941,-0.31543 0.81498,-0.15268 0.43675,0.23261 0.53883,0.74855 0.22661,1.14546 -0.24644,0.31331 -0.7769,0.32098 -1.08224,0.0156 z m 2.34269,0 c -0.29851,-0.29853 -0.28293,-0.68482 0.0408,-1.00842 0.27071,-0.27071 0.50942,-0.31543 0.81497,-0.15268 0.28293,0.15069 0.40059,0.34372 0.40368,0.66219 0.007,0.63633 -0.80179,0.95642 -1.25931,0.49891 z m 3.90451,0 c -0.29853,-0.29853 -0.28297,-0.68482 0.0406,-1.00842 0.27071,-0.27071 0.5094,-0.31543 0.81495,-0.15268 0.43676,0.23261 0.53883,0.74855 0.22661,1.14546 -0.24645,0.31331 -0.77691,0.32098 -1.0822,0.0156 z m 6.24716,0 c -0.29852,-0.29853 -0.28294,-0.68482 0.0408,-1.00842 0.27072,-0.27071 0.50942,-0.31543 0.81497,-0.15268 0.43674,0.23261 0.53882,0.74855 0.2266,1.14546 -0.24644,0.31331 -0.77689,0.32098 -1.08223,0.0156 z m 2.3427,0 c -0.29852,-0.29853 -0.28296,-0.68482 0.0408,-1.00842 0.27072,-0.27071 0.50942,-0.31543 0.81497,-0.15268 0.28293,0.15069 0.40059,0.34372 0.40369,0.66219 0.007,0.63633 -0.80181,0.95642 -1.25932,0.49891 z m 3.90448,0 c -0.29852,-0.29853 -0.28295,-0.68482 0.0406,-1.00842 0.27072,-0.27071 0.50941,-0.31543 0.81497,-0.15268 0.43677,0.23261 0.53883,0.74855 0.2266,1.14546 -0.24644,0.31331 -0.77688,0.32098 -1.08222,0.0156 z m 8.58989,0 c -0.29854,-0.29853 -0.28297,-0.68482 0.0408,-1.00842 0.27069,-0.27071 0.50941,-0.31543 0.81496,-0.15268 0.28293,0.15069 0.40059,0.34372 0.40367,0.66219 0.007,0.63633 -0.80179,0.95642 -1.25928,0.49891 z M 2.596796,5.90048 C 2.10752,5.4112 2.397569,4.67911 3.080686,4.67911 c 0.781585,0 1.023771,1.00513 0.331078,1.37408 C 3.106206,6.21593 2.867502,6.1712 2.596796,5.90048 Z m 10.15167,0 C 12.259189,5.4112 12.54924,4.67911 13.232357,4.67911 c 0.752518,0 1.040091,1.0089 0.384241,1.34807 -0.364081,0.18827 -0.585483,0.15597 -0.868132,-0.1267 z m 6.247178,0 c -0.489277,-0.48928 -0.199225,-1.22137 0.48389,-1.22137 0.752518,0 1.040093,1.0089 0.384243,1.34807 -0.364082,0.18827 -0.585482,0.15597 -0.868133,-0.1267 z m 6.247179,0 C 24.753548,5.4112 25.043596,4.67911 25.726711,4.67911 c 0.752519,0 1.040094,1.0089 0.384245,1.34807 -0.364083,0.18827 -0.585483,0.15597 -0.868133,-0.1267 z m 6.247179,0 c -0.489277,-0.48928 -0.199228,-1.22137 0.48389,-1.22137 0.752518,0 1.040091,1.0089 0.384243,1.34807 -0.364083,0.18827 -0.585483,0.15597 -0.868133,-0.1267 z m 31.235893,0 C 62.236618,5.4112 62.526668,4.67911 63.209784,4.67911 c 0.752518,0 1.040094,1.0089 0.384244,1.34807 -0.364083,0.18827 -0.585482,0.15597 -0.868133,-0.1267 z m 6.247178,0 c -0.489274,-0.48928 -0.199225,-1.22137 0.48389,-1.22137 0.752517,0 1.040092,1.0089 0.384242,1.34807 -0.364081,0.18827 -0.585482,0.15597 -0.868132,-0.1267 z m 6.247179,0 C 74.730975,5.4112 75.021026,4.67911 75.704143,4.67911 c 0.752518,0 1.040091,1.0089 0.38424,1.34807 -0.36408,0.18827 -0.585481,0.15597 -0.868131,-0.1267 z m 18.741578,0 C 93.47256,5.4112 93.7626,4.67911 94.44573,4.67911 c 0.75252,0 1.04009,1.0089 0.38423,1.34807 -0.36407,0.18827 -0.58547,0.15597 -0.86813,-0.1267 z m 6.24724,0 c -0.48932,-0.48928 -0.19925,-1.22137 0.48387,-1.22137 0.75252,0 1.0401,1.0089 0.38423,1.34807 -0.36406,0.18827 -0.58547,0.15597 -0.8681,-0.1267 z m 2.34269,0 c -0.4893,-0.48928 -0.19923,-1.22137 0.48387,-1.22137 0.7816,0 1.02379,1.00513 0.33108,1.37408 -0.30553,0.16274 -0.54425,0.11801 -0.81495,-0.15271 z m 10.15166,0 c -0.48927,-0.48928 -0.19923,-1.22137 0.48389,-1.22137 0.75251,0 1.0401,1.0089 0.38423,1.34807 -0.36407,0.18827 -0.58548,0.15597 -0.86812,-0.1267 z m 21.08424,0 c -0.48929,-0.48928 -0.19923,-1.22137 0.48388,-1.22137 0.78158,0 1.02377,1.00513 0.33108,1.37408 -0.30555,0.16274 -0.54427,0.11801 -0.81496,-0.15271 z m 3.90448,0 c -0.48927,-0.48928 -0.19922,-1.22137 0.48389,-1.22137 0.75252,0 1.04008,1.0089 0.38424,1.34807 -0.36408,0.18827 -0.58548,0.15597 -0.86813,-0.1267 z m 2.34268,0 c -0.48926,-0.48928 -0.1992,-1.22137 0.4839,-1.22137 0.78158,0 1.02376,1.00513 0.33108,1.37408 -0.30556,0.16274 -0.54427,0.11801 -0.81498,-0.15271 z m 6.2472,0 c -0.48928,-0.48928 -0.19923,-1.22137 0.48386,-1.22137 0.7816,0 1.02378,1.00513 0.33109,1.37408 -0.30555,0.16274 -0.54426,0.11801 -0.81495,-0.15271 z M 0.254103,3.55779 C -0.235175,3.0685 0.054877,2.33639 0.737991,2.33639 c 0.75252,0 1.040094,1.00893 0.384246,1.3481 C 0.758152,3.87275 0.536751,3.84044 0.254103,3.55779 Z m 2.342693,0 C 2.10752,3.0685 2.397569,2.33639 3.080686,2.33639 c 0.781585,0 1.023771,1.00515 0.331078,1.3741 C 3.106206,3.87323 2.867502,3.82851 2.596796,3.55779 Z m 12.494362,0 c -0.489276,-0.48929 -0.199226,-1.2214 0.483891,-1.2214 0.781583,0 1.023772,1.00515 0.331075,1.3741 -0.305556,0.16274 -0.54426,0.11802 -0.814966,-0.1527 z m 3.904486,0 c -0.489277,-0.48929 -0.199225,-1.2214 0.48389,-1.2214 0.752518,0 1.040093,1.00893 0.384243,1.3481 -0.364082,0.18826 -0.585482,0.15595 -0.868133,-0.1267 z m 6.247179,0 c -0.489275,-0.48929 -0.199227,-1.2214 0.483888,-1.2214 0.752519,0 1.040094,1.00893 0.384245,1.3481 -0.364083,0.18826 -0.585483,0.15595 -0.868133,-0.1267 z m 2.342693,0 c -0.489277,-0.48929 -0.199228,-1.2214 0.483889,-1.2214 0.781583,0 1.023771,1.00515 0.331078,1.3741 -0.305558,0.16274 -0.544262,0.11802 -0.814967,-0.1527 z m 3.904486,0 c -0.489277,-0.48929 -0.199228,-1.2214 0.48389,-1.2214 0.752518,0 1.040091,1.00893 0.384243,1.3481 -0.364083,0.18826 -0.585483,0.15595 -0.868133,-0.1267 z m 2.342691,0 c -0.489276,-0.48929 -0.199226,-1.2214 0.48389,-1.2214 0.781584,0 1.023771,1.00515 0.331078,1.3741 -0.305558,0.16274 -0.544262,0.11802 -0.814968,-0.1527 z m 6.206527,0.0406 c -0.298527,-0.29853 -0.282955,-0.68482 0.04065,-1.00843 0.270706,-0.27071 0.50941,-0.31542 0.814969,-0.15268 0.692694,0.36893 0.450507,1.37408 -0.331077,1.37408 -0.215116,0 -0.377504,-0.066 -0.524544,-0.21297 z m 3.904488,0 c -0.29853,-0.29853 -0.282956,-0.68482 0.04066,-1.00843 0.282648,-0.28265 0.50405,-0.31495 0.868132,-0.12668 0.65585,0.33916 0.368274,1.34808 -0.384242,1.34808 -0.215116,0 -0.377502,-0.066 -0.524542,-0.21297 z m 6.247175,0 c -0.298525,-0.29853 -0.282951,-0.68482 0.04066,-1.00843 0.282649,-0.28265 0.504051,-0.31495 0.868133,-0.12668 0.65585,0.33916 0.368274,1.34808 -0.384244,1.34808 -0.215114,0 -0.377501,-0.066 -0.524544,-0.21297 z m 14.877703,-0.0406 c -0.489275,-0.48929 -0.199223,-1.2214 0.483888,-1.2214 0.781588,0 1.023772,1.00515 0.331081,1.3741 -0.305559,0.16274 -0.544262,0.11802 -0.814969,-0.1527 z m 3.904487,0 c -0.489274,-0.48929 -0.199225,-1.2214 0.48389,-1.2214 0.752517,0 1.040092,1.00893 0.384242,1.3481 -0.364081,0.18826 -0.585482,0.15595 -0.868132,-0.1267 z m 8.589872,0 c -0.489277,-0.48929 -0.199227,-1.2214 0.483888,-1.2214 0.781585,0 1.023773,1.00515 0.33108,1.3741 -0.305561,0.16274 -0.544264,0.11802 -0.814968,-0.1527 z m 10.111015,0.0406 c -0.29854,-0.29853 -0.28295,-0.68482 0.0408,-1.00843 0.28265,-0.28265 0.50406,-0.31495 0.86814,-0.12668 0.65586,0.33916 0.36828,1.34808 -0.38425,1.34808 -0.21511,0 -0.37751,-0.066 -0.52454,-0.21297 z m 6.28787,-0.0406 c -0.48927,-0.48929 -0.19923,-1.2214 0.4839,-1.2214 0.75252,0 1.04009,1.00893 0.38423,1.3481 -0.36407,0.18826 -0.58547,0.15595 -0.86813,-0.1267 z m 2.34271,0 c -0.48928,-0.48929 -0.19923,-1.2214 0.48388,-1.2214 0.78159,0 1.02379,1.00515 0.33107,1.3741 -0.30555,0.16274 -0.54424,0.11802 -0.81495,-0.1527 z m 3.90453,0 c -0.48932,-0.48929 -0.19925,-1.2214 0.48387,-1.2214 0.75252,0 1.0401,1.00893 0.38423,1.3481 -0.36406,0.18826 -0.58547,0.15595 -0.8681,-0.1267 z m 27.29074,0.0406 c -0.29852,-0.29853 -0.28294,-0.68482 0.0408,-1.00843 0.2707,-0.27071 0.50941,-0.31542 0.81497,-0.15268 0.69271,0.36893 0.45052,1.37408 -0.33107,1.37408 -0.21512,0 -0.3775,-0.066 -0.52455,-0.21297 z m 10.19233,-0.0406 c -0.48927,-0.48929 -0.19922,-1.2214 0.48389,-1.2214 0.75252,0 1.04008,1.00893 0.38424,1.3481 -0.36408,0.18826 -0.58548,0.15595 -0.86813,-0.1267 z M 6.460632,1.25576 C 6.162106,0.95725 6.17768,0.57092 6.501282,0.24733 6.771989,-0.02338 7.010692,-0.06809 7.31625,0.09464 7.753002,0.32725 7.85507,0.8432 7.542855,1.24012 7.296415,1.5534 6.765951,1.56107 6.460628,1.25572 Z m 6.247182,0 c -0.298527,-0.29851 -0.282954,-0.68484 0.04066,-1.00843 0.270705,-0.27071 0.509409,-0.31542 0.814969,-0.15269 0.436751,0.23261 0.538819,0.74856 0.226605,1.14548 -0.246441,0.31328 -0.776905,0.32095 -1.082226,0.0156 z m 8.589869,0 c -0.298526,-0.29851 -0.282953,-0.68484 0.04066,-1.00843 0.270706,-0.27071 0.509409,-0.31542 0.814967,-0.15269 0.692694,0.36893 0.450507,1.3741 -0.331078,1.3741 -0.215114,0 -0.377501,-0.066 -0.524543,-0.21298 z m 6.247178,0 c -0.298525,-0.29851 -0.282952,-0.68484 0.04066,-1.00843 0.270704,-0.27071 0.509408,-0.31542 0.814966,-0.15269 0.692694,0.36893 0.450507,1.3741 -0.331078,1.3741 -0.215114,0 -0.377502,-0.066 -0.524544,-0.21298 z m 3.904488,0 c -0.298527,-0.29851 -0.282952,-0.68484 0.04065,-1.00843 0.270706,-0.27071 0.509409,-0.31542 0.814968,-0.15269 0.436752,0.23261 0.538817,0.74856 0.226605,1.14548 -0.246441,0.31328 -0.776904,0.32095 -1.082226,0.0156 z m 6.247179,0 c -0.298527,-0.29851 -0.282954,-0.68484 0.04066,-1.00843 0.270707,-0.27071 0.509409,-0.31542 0.814968,-0.15269 0.436751,0.23261 0.538817,0.74856 0.226606,1.14548 -0.24644,0.31328 -0.776903,0.32095 -1.082225,0.0156 z m 6.24718,0 c -0.29853,-0.29851 -0.282956,-0.68484 0.04066,-1.00843 0.270703,-0.27071 0.509409,-0.31542 0.814967,-0.15269 0.436752,0.23261 0.538819,0.74856 0.226606,1.14548 -0.246441,0.31328 -0.776904,0.32095 -1.082225,0.0156 z m 2.34269,0 c -0.298527,-0.29851 -0.282953,-0.68484 0.04066,-1.00843 0.270704,-0.27071 0.509409,-0.31542 0.814967,-0.15269 0.692694,0.36893 0.450507,1.3741 -0.331078,1.3741 -0.215114,0 -0.3775,-0.066 -0.524543,-0.21298 z m 3.904485,0 c -0.298525,-0.29851 -0.282951,-0.68484 0.04066,-1.00843 0.270705,-0.27071 0.509409,-0.31542 0.814966,-0.15269 0.436754,0.23261 0.53882,0.74856 0.226607,1.14548 -0.246442,0.31328 -0.776905,0.32095 -1.082227,0.0156 z m 2.342693,0 c -0.298525,-0.29851 -0.282953,-0.68484 0.04065,-1.00843 0.270703,-0.27071 0.509407,-0.31542 0.814965,-0.15269 0.692693,0.36893 0.450507,1.3741 -0.331078,1.3741 -0.215115,0 -0.377502,-0.066 -0.524543,-0.21298 z m 10.151666,0 c -0.298527,-0.29851 -0.282954,-0.68484 0.04065,-1.00843 0.270705,-0.27071 0.50941,-0.31542 0.814968,-0.15269 0.436752,0.23261 0.538818,0.74856 0.226604,1.14548 -0.246438,0.31328 -0.776902,0.32095 -1.082225,0.0156 z m 8.58987,0 c -0.298526,-0.29851 -0.282953,-0.68484 0.04065,-1.00843 0.270705,-0.27071 0.50941,-0.31542 0.814968,-0.15269 0.692694,0.36893 0.450506,1.3741 -0.331079,1.3741 -0.215114,0 -0.377501,-0.066 -0.524543,-0.21298 z m 3.904487,0 c -0.298526,-0.29851 -0.282952,-0.68484 0.04065,-1.00843 0.270706,-0.27071 0.509407,-0.31542 0.814967,-0.15269 0.436753,0.23261 0.538819,0.74856 0.226606,1.14548 -0.246442,0.31328 -0.776904,0.32095 -1.082227,0.0156 z m 2.342692,0 c -0.298527,-0.29851 -0.282953,-0.68484 0.04066,-1.00843 0.270705,-0.27071 0.509409,-0.31542 0.814968,-0.15269 0.692693,0.36893 0.450506,1.3741 -0.33108,1.3741 -0.215112,0 -0.3775,-0.066 -0.524541,-0.21298 z m 3.904492,0 c -0.29853,-0.29851 -0.282954,-0.68484 0.04066,-1.00843 0.270708,-0.27071 0.509408,-0.31542 0.814967,-0.15269 0.436747,0.23261 0.538819,0.74856 0.226605,1.14548 -0.246444,0.31328 -0.776907,0.32095 -1.08222,0.0156 z m 6.247177,0 c -0.29854,-0.29851 -0.28295,-0.68484 0.0408,-1.00843 0.27071,-0.27071 0.50942,-0.31542 0.81498,-0.15269 0.43675,0.23261 0.53882,0.74856 0.22661,1.14548 -0.24643,0.31328 -0.77691,0.32095 -1.08224,0.0156 z m 6.24723,0 c -0.29854,-0.29851 -0.28298,-0.68484 0.0408,-1.00843 0.27071,-0.27071 0.50941,-0.31542 0.81497,-0.15269 0.43674,0.23261 0.53881,0.74856 0.22659,1.14548 -0.24643,0.31328 -0.77689,0.32095 -1.08222,0.0156 z m 12.49439,0 c -0.29852,-0.29851 -0.28294,-0.68484 0.0406,-1.00843 0.27072,-0.27071 0.50941,-0.31542 0.81498,-0.15269 0.43675,0.23261 0.53883,0.74856 0.22661,1.14548 -0.24644,0.31328 -0.7769,0.32095 -1.08224,0.0156 z m 2.34269,0 c -0.29851,-0.29851 -0.28293,-0.68484 0.0408,-1.00843 0.27071,-0.27071 0.50942,-0.31542 0.81497,-0.15269 0.6927,0.36893 0.45051,1.3741 -0.33108,1.3741 -0.21511,0 -0.37751,-0.066 -0.52455,-0.21298 z m 3.90451,0 c -0.29853,-0.29851 -0.28297,-0.68484 0.0406,-1.00843 0.27071,-0.27071 0.5094,-0.31542 0.81495,-0.15269 0.43676,0.23261 0.53883,0.74856 0.22661,1.14548 -0.24645,0.31328 -0.77691,0.32095 -1.0822,0.0156 z m 12.49434,0 c -0.29852,-0.29851 -0.28295,-0.68484 0.0406,-1.00843 0.27072,-0.27071 0.50941,-0.31542 0.81497,-0.15269 0.43677,0.23261 0.53883,0.74856 0.2266,1.14548 -0.24644,0.31328 -0.77688,0.32095 -1.08222,0.0156 z m 8.58989,0 c -0.29854,-0.29851 -0.28297,-0.68484 0.0408,-1.00843 0.27069,-0.27071 0.50941,-0.31542 0.81496,-0.15269 0.69268,0.36893 0.45049,1.3741 -0.33109,1.3741 -0.21511,0 -0.3775,-0.066 -0.52452,-0.21298 z m 3.90448,0 c -0.29853,-0.29851 -0.28296,-0.68484 0.0406,-1.00843 0.27069,-0.27071 0.50941,-0.31542 0.81497,-0.15269 0.43673,0.23261 0.5388,0.74856 0.22659,1.14548 -0.24643,0.31328 -0.77689,0.32095 -1.08222,0.0156 z m 8.58987,0 c -0.29852,-0.29851 -0.28295,-0.68484 0.0406,-1.00843 0.27068,-0.27071 0.50939,-0.31542 0.81494,-0.15269 0.6927,0.36893 0.45052,1.3741 -0.33109,1.3741 -0.21509,0 -0.37748,-0.066 -0.52451,-0.21298 z"
     id="path1" /></svg>
