<?xml version="1.0" encoding="UTF-8" standalone="no"?>
<!-- Created with Inkscape (http://www.inkscape.org/) -->

<svg
   width="105mm"
   height="148mm"
   viewBox="0 0 105 148"
   version="1.1"
   id="svg240"
   inkscape:version="1.2.2 (b0a8486541, 2022-12-01)"
   sodipodi:docname="diday-nr5-DINA6-dark.svg"
   inkscape:export-filename="diday-nr5-2026-28-03-DINA6-dark.png"
   inkscape:export-xdpi="96"
   inkscape:export-ydpi="96"
   xmlns:inkscape="http://www.inkscape.org/namespaces/inkscape"
   xmlns:sodipodi="http://sodipodi.sourceforge.net/DTD/sodipodi-0.dtd"
   xmlns:xlink="http://www.w3.org/1999/xlink"
   xmlns="http://www.w3.org/2000/svg"
   xmlns:svg="http://www.w3.org/2000/svg">
  <sodipodi:namedview
     id="namedview242"
     pagecolor="#505050"
     bordercolor="#ffffff"
     borderopacity="1"
     inkscape:showpageshadow="0"
     inkscape:pageopacity="0"
     inkscape:pagecheckerboard="1"
     inkscape:deskcolor="#505050"
     inkscape:document-units="mm"
     showgrid="false"
     inkscape:zoom="3.659624"
     inkscape:cx="135.53305"
     inkscape:cy="341.01864"
     inkscape:window-width="3840"
     inkscape:window-height="2068"
     inkscape:window-x="0"
     inkscape:window-y="0"
     inkscape:window-maximized="1"
     inkscape:current-layer="layer1" />
  <defs
     id="defs237">
    <rect
       x="324.18628"
       y="276.80439"
       width="12.241708"
       height="16.176512"
       id="rect1965" />
    <linearGradient
       inkscape:collect="always"
       id="linearGradient1146">
      <stop
         style="stop-color:#ff0000;stop-opacity:1;"
         offset="0"
         id="stop1142" />
      <stop
         style="stop-color:#ffff00;stop-opacity:1;"
         offset="0.2"
         id="stop1144" />
      <stop
         style="stop-color:#00ff00;stop-opacity:1;"
         offset="0.40000001"
         id="stop4054" />
      <stop
         style="stop-color:#00ffff;stop-opacity:1;"
         offset="0.60000002"
         id="stop4056" />
      <stop
         style="stop-color:#0000ff;stop-opacity:1;"
         offset="0.80000001"
         id="stop4058" />
      <stop
         style="stop-color:#ff00ff;stop-opacity:1;"
         offset="1"
         id="stop4060" />
    </linearGradient>
    <linearGradient
       inkscape:collect="always"
       xlink:href="#linearGradient1146"
       id="linearGradient2058"
       gradientUnits="userSpaceOnUse"
       gradientTransform="matrix(1.2811549,0,0,1.2811549,-36.059577,7.6721365)"
       x1="48.797504"
       y1="138.62044"
       x2="118.7975"
       y2="138.62044" />
    <linearGradient
       inkscape:collect="always"
       xlink:href="#linearGradient1146"
       id="linearGradient2156"
       gradientUnits="userSpaceOnUse"
       gradientTransform="matrix(1.2811549,0,0,1.2811549,-36.059574,71.86272)"
       x1="48.797504"
       y1="138.62044"
       x2="118.7975"
       y2="138.62044" />
    <linearGradient
       inkscape:collect="always"
       xlink:href="#linearGradient1146"
       id="linearGradient1148"
       x1="48.797504"
       y1="138.62044"
       x2="118.7975"
       y2="138.62044"
       gradientUnits="userSpaceOnUse"
       gradientTransform="matrix(1.2811599,0,0,1.2811599,-36.060002,-36.527523)" />
  </defs>
  <g
     inkscape:groupmode="layer"
     id="layer2"
     inkscape:label="Background"
     transform="translate(-18.797504,-108.62044)" />
  <g
     inkscape:label="Main"
     inkscape:groupmode="layer"
     id="layer1"
     transform="translate(-18.797504,-108.62044)">
    <rect
       style="fill:#191919;fill-opacity:1;stroke-width:0.424307"
       id="rect351"
       width="105"
       height="148"
       x="18.797504"
       y="108.62044"
       inkscape:label="Single Color" />
    <path
       style="color:#000000;fill:url(#linearGradient2058);stroke-width:0.648934;-inkscape-stroke:none"
       d="m 26.457003,184.96844 v 0.5957 H 116.138 v -0.5957 z"
       id="path393-0"
       inkscape:label="Rainbow Line" />
    <path
       style="color:#000000;fill:url(#linearGradient2156);stroke-width:0.648934;-inkscape-stroke:none"
       d="m 26.457006,249.15901 v 0.5957 H 116.138 v -0.5957 z"
       id="path393-0-6"
       inkscape:label="Rainbow Line" />
    <text
       xml:space="preserve"
       style="font-style:normal;font-variant:normal;font-weight:bold;font-stretch:normal;font-size:8.87219px;font-family:Montserrat;-inkscape-font-specification:'Montserrat Bold';text-align:center;writing-mode:lr-tb;text-anchor:middle;fill:#ffffff;stroke-width:0.974545"
       x="50.420895"
       y="174.26192"
       id="text1792"
       inkscape:label="5. Digital Indipendence Day"><tspan
         sodipodi:role="line"
         style="font-style:normal;font-variant:normal;font-weight:bold;font-stretch:normal;font-size:8.87219px;font-family:Montserrat;-inkscape-font-specification:'Montserrat Bold';text-align:center;writing-mode:lr-tb;text-anchor:middle;stroke-width:0.974545"
         x="50.420895"
         y="174.26192"
         id="tspan1969">5. DI.<tspan
   style="font-style:normal;font-variant:normal;font-weight:500;font-stretch:normal;font-family:Montserrat;-inkscape-font-specification:'Montserrat Medium';stroke-width:0.974545"
   id="tspan2440">DAY</tspan></tspan></text>
    <text
       xml:space="preserve"
       style="font-style:normal;font-variant:normal;font-weight:800;font-stretch:normal;font-size:5.38366px;font-family:Montserrat;-inkscape-font-specification:'Montserrat Ultra-Bold';text-align:center;writing-mode:lr-tb;text-anchor:middle;fill:#ffffff;stroke-width:0.591355"
       x="73.56337"
       y="181.93748"
       id="text1792-1"
       inkscape:label="5. Digital Indipendence Day"><tspan
         sodipodi:role="line"
         style="font-style:normal;font-variant:normal;font-weight:800;font-stretch:normal;font-size:5.38366px;font-family:Montserrat;-inkscape-font-specification:'Montserrat Ultra-Bold';text-align:center;writing-mode:lr-tb;text-anchor:middle;stroke-width:0.591355"
         x="73.56337"
         y="181.93748"
         id="tspan1969-7">Tag des offenen Hackspace</tspan></text>
    <text
       xml:space="preserve"
       transform="matrix(0.26458333,0,0,0.26458333,18.797504,108.62044)"
       id="text1963"
       style="font-style:normal;font-variant:normal;font-weight:200;font-stretch:normal;font-size:16px;font-family:Montserrat;-inkscape-font-specification:'Montserrat Ultra-Light';white-space:pre;shape-inside:url(#rect1965);display:inline;fill:#ffffff;stroke-width:1.75748" />
    <text
       xml:space="preserve"
       style="font-style:normal;font-variant:normal;font-weight:100;font-stretch:normal;font-size:11.3926px;font-family:Montserrat;-inkscape-font-specification:'Montserrat Thin';text-align:start;writing-mode:lr-tb;text-anchor:start;fill:#ffffff;stroke-width:1.25139"
       x="52.255386"
       y="213.761"
       id="text1983"><tspan
         sodipodi:role="line"
         style="font-style:normal;font-variant:normal;font-weight:100;font-stretch:normal;font-family:Montserrat;-inkscape-font-specification:'Montserrat Thin';text-align:start;text-anchor:start;stroke-width:1.25139"
         x="52.255386"
         y="213.761"
         id="tspan1985">28.03.2026</tspan></text>
    <text
       xml:space="preserve"
       style="font-style:normal;font-variant:normal;font-weight:100;font-stretch:normal;font-size:11.3926px;font-family:Montserrat;-inkscape-font-specification:'Montserrat Thin';text-align:start;writing-mode:lr-tb;text-anchor:start;fill:#ffffff;stroke-width:1.25139"
       x="32.146217"
       y="202.53105"
       id="text1983-2"><tspan
         sodipodi:role="line"
         style="font-style:normal;font-variant:normal;font-weight:100;font-stretch:normal;font-family:Montserrat;-inkscape-font-specification:'Montserrat Thin';text-align:start;text-anchor:start;stroke-width:1.25139"
         x="32.146217"
         y="202.53105"
         id="tspan1985-9">Samstag</tspan></text>
    <text
       xml:space="preserve"
       style="font-style:normal;font-variant:normal;font-weight:100;font-stretch:normal;font-size:11.3926px;font-family:Montserrat;-inkscape-font-specification:'Montserrat Thin';text-align:start;writing-mode:lr-tb;text-anchor:start;fill:#ffffff;stroke-width:1.25139"
       x="32.693062"
       y="225.75278"
       id="text1983-1"><tspan
         sodipodi:role="line"
         style="font-style:normal;font-variant:normal;font-weight:100;font-stretch:normal;font-family:Montserrat;-inkscape-font-specification:'Montserrat Thin';text-align:start;text-anchor:start;stroke-width:1.25139"
         x="32.693062"
         y="225.75278"
         id="tspan1985-8">13:37 - 22:00</tspan></text>
    <text
       xml:space="preserve"
       style="font-style:italic;font-variant:normal;font-weight:600;font-stretch:normal;font-size:5.77401px;font-family:Montserrat;-inkscape-font-specification:'Montserrat Semi-Bold Italic';text-align:start;writing-mode:lr-tb;text-anchor:start;fill:#ffffff;stroke-width:0.634232"
       x="30.590139"
       y="249.25908"
       id="text2301"
       transform="rotate(-3.3583647)"><tspan
         sodipodi:role="line"
         id="tspan2299"
         style="font-style:italic;font-variant:normal;font-weight:600;font-stretch:normal;font-family:Montserrat;-inkscape-font-specification:'Montserrat Semi-Bold Italic';stroke-width:0.634232"
         x="30.590139"
         y="249.25908">Wir freuen uns auf Euch!</tspan></text>
    <text
       xml:space="preserve"
       style="font-style:normal;font-variant:normal;font-weight:normal;font-stretch:normal;font-size:3.57995px;font-family:Montserrat;-inkscape-font-specification:Montserrat;text-align:start;writing-mode:lr-tb;text-anchor:start;fill:#ffffff;stroke-width:0.39323"
       x="29.319023"
       y="232.40979"
       id="text2577"><tspan
         sodipodi:role="line"
         style="font-style:normal;font-variant:normal;font-weight:normal;font-stretch:normal;font-family:Montserrat;-inkscape-font-specification:Montserrat;stroke-width:0.39323"
         x="29.319023"
         y="232.40979"
         id="tspan1552">Informiert Euch über <tspan
   style="font-style:italic;font-variant:normal;font-weight:normal;font-stretch:normal;font-family:Montserrat;-inkscape-font-specification:'Montserrat Italic';stroke-width:0.39323"
   id="tspan2491">Digitale Unabhängigkeit</tspan></tspan><tspan
         sodipodi:role="line"
         style="font-style:normal;font-variant:normal;font-weight:normal;font-stretch:normal;font-family:Montserrat;-inkscape-font-specification:Montserrat;stroke-width:0.39323"
         x="29.319023"
         y="236.88474"
         id="tspan1554">und lernt uns und den Hackspace kennen. ;)</tspan></text>
    <path
       id="path254"
       style="font-weight:300;font-size:13.2535px;font-family:Montserrat;-inkscape-font-specification:'Montserrat Light';text-align:end;text-anchor:end;display:inline;fill:#ffffff;stroke-width:0.301756"
       inkscape:label="Text"
       d="m 75.55241,122.87775 c -1.152494,0 -1.789082,0.67931 -1.789082,1.71999 v 0.20658 h -0.713617 v 1.03186 h 0.713617 v 3.49198 h 1.34173 v -3.49198 h 1.152591 v -1.03186 h -1.186796 v -0.19785 c 0,-0.45584 0.215038,-0.67104 0.610669,-0.67104 0.206421,0 0.395372,0.0601 0.541584,0.16331 l 0.352788,-0.97183 c -0.249419,-0.17201 -0.645057,-0.24916 -1.023484,-0.24916 z m 3.39707,0 c -1.152487,0 -1.788744,0.67931 -1.788744,1.71999 v 0.20658 h -0.713955 v 1.03186 h 0.713955 v 3.49198 h 1.34173 v -3.49198 h 1.152253 v -1.03186 h -1.186796 v -0.19785 c 0,-0.45584 0.215038,-0.67104 0.610669,-0.67104 0.206421,0 0.395709,0.0601 0.541921,0.16331 l 0.352451,-0.97183 c -0.249419,-0.17201 -0.64505,-0.24916 -1.023484,-0.24916 z m -39.631718,0.0687 v 6.38167 h 1.341726 v -2.28774 c 0,-0.85147 0.464278,-1.24716 1.10933,-1.24716 0.593446,0 0.937632,0.34397 0.937632,1.09223 v 2.44267 h 1.341726 v -2.64891 c 0,-1.41051 -0.825902,-2.04696 -1.918189,-2.04696 -0.593447,0 -1.109271,0.18907 -1.470499,0.5503 v -2.2361 z m -3.242477,0.25788 c -1.874949,0 -3.268298,1.29863 -3.268298,3.11337 0,1.81475 1.393231,3.11371 3.25958,3.11371 1.049282,0 1.917951,-0.37847 2.485596,-1.07513 l -0.894372,-0.82563 c -0.404232,0.47304 -0.911712,0.71362 -1.51376,0.71362 -1.126688,0 -1.926572,-0.79128 -1.926572,-1.92657 0,-1.13528 0.799884,-1.92657 1.926572,-1.92657 0.602048,0 1.109528,0.24114 1.51376,0.70557 l 0.894372,-0.82596 c -0.567645,-0.68805 -1.436195,-1.06641 -2.476878,-1.06641 z m 24.890174,0.47318 v 1.02348 h -0.71362 v 1.03187 h 0.71362 v 2.00403 c 0,1.10089 0.636431,1.65997 1.728717,1.65997 0.412832,0 0.817341,-0.0946 1.092562,-0.29242 l -0.361505,-0.94602 c -0.146211,0.11182 -0.34377,0.17204 -0.541586,0.17204 -0.361228,0 -0.576463,-0.21504 -0.576463,-0.61067 v -1.98693 h 1.15259 v -1.03187 h -1.15259 v -1.02348 z m -13.838457,0.95474 c -0.739658,0 -1.487878,0.19779 -1.995318,0.55902 l 0.481559,0.9373 c 0.335427,-0.26662 0.843104,-0.42992 1.333342,-0.42992 0.722458,0 1.066406,0.33523 1.066406,0.91147 h -1.066406 c -1.410512,0 -1.986934,0.56793 -1.986934,1.38499 0,0.79987 0.64503,1.40175 1.728717,1.40175 0.679454,0 1.152452,-0.22366 1.410472,-0.63649 v 0.56775 h 1.255877 v -2.64053 c 0,-1.40191 -0.817203,-2.05534 -2.227715,-2.05534 z m 5.67643,0 c -1.470717,0 -2.545624,0.98899 -2.545624,2.38231 0,1.3933 1.074907,2.3823 2.545624,2.3823 1.470716,0 2.53724,-0.989 2.53724,-2.3823 0,-1.39332 -1.066524,-2.38231 -2.53724,-2.38231 z m 5.237795,0 c -1.350307,0 -2.14153,0.61905 -2.14153,1.49632 0,1.12668 1.040761,1.28156 1.857826,1.39336 0.516041,0.0774 0.937632,0.14622 0.937632,0.43864 0,0.25802 -0.232199,0.42153 -0.851448,0.42153 -0.567645,0 -1.195494,-0.18073 -1.608327,-0.44735 l -0.447354,0.96346 c 0.430034,0.28382 1.221375,0.49865 2.004038,0.49865 1.384709,0 2.184454,-0.61076 2.184454,-1.47083 0,-1.82335 -2.795123,-1.05784 -2.795123,-1.8491 0,-0.24082 0.257784,-0.42993 0.859832,-0.42993 0.421433,0 0.877506,0.0861 1.333342,0.34408 l 0.447019,-0.95474 c -0.438635,-0.25802 -1.143911,-0.40409 -1.780361,-0.40409 z m 9.374979,0 c -0.713857,0 -1.264399,0.23217 -1.591225,0.67941 v -0.61067 h -1.281363 v 4.62713 h 1.341726 v -2.18446 c 0,-0.88586 0.490061,-1.29041 1.22972,-1.29041 0.103208,0 0.189333,0.009 0.301142,0.0175 z m 2.881307,0 c -1.410512,0 -2.468494,0.99759 -2.468494,2.38231 0,1.37611 1.040465,2.3823 2.640192,2.3823 0.834267,0 1.479429,-0.25792 1.909467,-0.74816 l -0.713954,-0.77398 c -0.318225,0.30102 -0.670733,0.44702 -1.160972,0.44702 -0.705256,0 -1.195613,-0.35267 -1.324623,-0.92891 h 3.500695 c 0.0086,-0.11181 0.02583,-0.25797 0.02583,-0.36118 0,-1.4879 -1.049221,-2.3994 -2.408131,-2.3994 z m 0.0084,1.01475 c 0.602048,0 1.04088,0.37828 1.135488,0.96312 h -2.27064 c 0.09461,-0.58484 0.524504,-0.96312 1.135152,-0.96312 z m -17.502464,0.0859 c 0.670853,0 1.178411,0.48183 1.178411,1.2817 0,0.79986 -0.507558,1.28136 -1.178411,1.28136 -0.670854,0 -1.186796,-0.4815 -1.186796,-1.28136 0,-0.79987 0.515942,-1.2817 1.186796,-1.2817 z m -5.710635,1.65997 h 0.920194 v 0.47317 c -0.154813,0.42143 -0.542041,0.62778 -0.989276,0.62778 -0.473038,0 -0.756544,-0.2236 -0.756544,-0.55903 0,-0.30963 0.197775,-0.54192 0.825626,-0.54192 z m -14.28581,5.7056 v 15.77945 h 6.897766 c 5.117044,0 8.611056,-3.15589 8.611056,-7.88973 0,-4.73382 -3.494012,-7.88972 -8.611056,-7.88972 z m 18.619843,0 v 15.77945 h 2.930267 v -15.77945 z m 13.141939,0 v 15.77945 h 6.424255 c 5.049417,0 8.453443,-3.24605 8.453443,-7.88973 0,-4.64365 -3.404026,-7.88972 -8.453443,-7.88972 z m 23.082985,0 -7.213328,15.77945 h 1.735758 l 1.893372,-4.21566 h 8.813945 l 1.870905,4.21566 h 1.758562 L 89.29732,133.09847 Z m -21.414966,1.44267 h 4.666362 c 4.192816,0 6.897768,2.66 6.897768,6.44705 0,3.78707 -2.704952,6.44673 -6.897768,6.44673 h -4.666362 z m 22.226507,0.29275 3.809548,8.47592 h -7.596629 z m -52.726041,0.74414 h 3.832354 c 3.516558,0 5.79313,2.14157 5.79313,5.41016 0,3.2686 -2.276572,5.40983 -5.79313,5.40983 h -3.832354 z m 23.511559,9.7157 c -1.014391,0 -1.848435,0.74379 -1.848435,1.8709 0,1.08202 0.834044,1.87091 1.848435,1.87091 1.014393,0 1.848437,-0.78889 1.848437,-1.87091 0,-1.12711 -0.834044,-1.8709 -1.848437,-1.8709 z m 26.853298,7.40883 v 6.38167 h 0.412815 v -1.05769 c 0.352633,0.68805 1.031921,1.09223 1.840386,1.09223 1.264305,0 2.218996,-0.93766 2.218996,-2.27936 0,-1.35031 -0.954691,-2.27902 -2.218996,-2.27902 -0.791262,0 -1.47066,0.38695 -1.823286,1.0664 v -2.92423 z m 19.644002,0 v 6.38167 h 0.42991 v -1.32429 l 1.16098,-1.07513 1.91818,2.39942 h 0.53321 l -2.11604,-2.67473 1.92657,-1.81491 h -0.55031 l -2.87259,2.63181 v -4.52384 z m -9.254593,0.30953 c -0.163409,0 -0.309531,0.12924 -0.309531,0.30986 0,0.17201 0.146122,0.30952 0.309531,0.30952 0.172013,0 0.309861,-0.13751 0.309861,-0.30952 0,-0.18062 -0.137848,-0.30986 -0.309861,-0.30986 z m 1.487935,0 c -0.172014,0 -0.309524,0.12924 -0.309524,0.30986 0,0.17201 0.13751,0.30952 0.309524,0.30952 0.172014,0 0.309861,-0.13751 0.309861,-0.30952 0,-0.18062 -0.137847,-0.30986 -0.309861,-0.30986 z m -31.306715,0.009 c -1.822258,1.4e-4 -3.12784,1.30147 -3.130135,3.06273 1.36e-4,1.7588 1.354925,3.04582 3.130135,3.04362 1.730769,5e-5 3.128322,-1.2331 3.128458,-3.0577 -0.0023,-1.76609 -1.336565,-3.04636 -3.128458,-3.04865 z m -0.170692,0.40913 c 0,0.21635 -0.02397,0.43743 -0.08887,0.63213 -0.04326,0.10821 -0.08652,0.21645 -0.08652,0.36788 0,0.15142 0.04325,0.25971 0.08652,0.36787 0.06489,0.15143 0.08667,0.32425 0.108318,0.49732 -0.173064,0.0432 -0.34623,0.12975 -0.454396,0.25956 -0.151431,-0.1082 -0.281343,-0.21628 -0.367877,-0.34608 -0.06489,-0.0866 -0.151395,-0.19466 -0.259558,-0.25955 -0.129801,-0.0648 -0.237742,-0.0867 -0.367541,-0.10832 -0.194701,-0.0217 -0.462754,-0.16715 -0.635819,-0.27532 0.432664,-0.67063 1.222047,-1.09222 2.065741,-1.13549 z m 0.346079,0 c 0.865327,0.0432 1.638443,0.48835 2.071107,1.15896 -0.194699,0.10818 -0.429211,0.23022 -0.645544,0.25185 -0.108167,0.0217 -0.238077,0.0218 -0.367877,0.10832 -0.129795,0.0648 -0.194659,0.173 -0.259559,0.25955 -0.108167,0.1298 -0.237741,0.23791 -0.367541,0.34608 -0.108168,-0.12981 -0.281332,-0.23791 -0.454396,-0.25956 0.02164,-0.17307 0.04308,-0.34589 0.107982,-0.49732 0.04327,-0.10819 0.08652,-0.21645 0.08652,-0.36787 0,-0.15143 -0.04325,-0.25971 -0.08652,-0.36788 -0.08654,-0.1947 -0.08417,-0.41578 -0.08417,-0.63213 z m 5.544301,1.13046 c -1.135286,0 -1.702894,0.55026 -1.702894,1.22971 0,1.76315 2.975875,0.80003 2.975875,2.10733 0,0.50744 -0.378544,0.84273 -1.324624,0.84273 -0.662253,0 -1.272684,-0.24917 -1.61671,-0.54159 l -0.197855,0.34374 c 0.352626,0.32682 1.057814,0.57646 1.797459,0.57646 1.143895,0 1.771645,-0.49901 1.771645,-1.23006 0,-1.71153 -2.975874,-0.75668 -2.975874,-2.10699 0,-0.48164 0.387321,-0.84306 1.264594,-0.84306 0.481634,0 0.971679,0.12921 1.350114,0.40443 l 0.197854,-0.34407 c -0.352632,-0.26662 -0.971939,-0.43863 -1.539584,-0.43863 z m 5.100303,0 c -0.85147,0 -1.479337,0.37841 -1.780359,0.99765 v -0.96345 h -0.412815 v 4.48964 h 0.429914 v -2.39103 c 0,-1.06648 0.645011,-1.74582 1.702896,-1.74582 0.911673,0 1.453736,0.53308 1.453736,1.54796 v 2.58889 h 0.429915 v -2.62309 c 0,-1.2557 -0.731002,-1.90075 -1.823287,-1.90075 z m 5.108688,0 c -0.69666,0 -1.350231,0.24086 -1.797466,0.63649 l 0.214961,0.30952 c 0.369829,-0.33543 0.929051,-0.56774 1.548299,-0.56774 0.877273,0 1.333008,0.44743 1.333008,1.2817 v 0.36117 h -1.539584 c -1.247102,0 -1.677075,0.57609 -1.677075,1.25554 0,0.76546 0.610767,1.2817 1.617048,1.2817 0.782658,0 1.332892,-0.3183 1.616711,-0.83434 v 0.7998 h 0.412815 v -2.84677 c 0,-1.10949 -0.619229,-1.67707 -1.728717,-1.67707 z m 11.430323,0 c -0.851464,0 -1.436397,0.36111 -1.711617,1.01476 v -0.98056 h -0.412809 v 4.48964 h 0.430252 v -2.33939 c 0,-1.10949 0.593207,-1.77164 1.590889,-1.77164 0.03439,0 0.06888,0.008 0.103285,0.008 z m 8.798521,0 c -1.3159,0 -2.27064,0.93731 -2.27064,2.27902 0,1.33311 0.95474,2.27936 2.27064,2.27936 0.71385,0 1.33306,-0.28379 1.70289,-0.82563 l -0.31824,-0.2324 c -0.32681,0.45584 -0.82561,0.67104 -1.38465,0.67104 -1.05788,0 -1.83201,-0.75708 -1.83201,-1.89237 0,-1.13529 0.77413,-1.89203 1.83201,-1.89203 0.55904,0 1.05784,0.21486 1.38465,0.67069 l 0.31824,-0.23206 c -0.36983,-0.55045 -0.98904,-0.82562 -1.70289,-0.82562 z m -7.585904,0.0342 v 2.62342 c 0,1.25569 0.731372,1.90075 1.875267,1.90075 0.791249,0 1.393152,-0.37002 1.694174,-0.98928 v 0.95474 h 0.412815 v -4.48963 h -0.429921 v 2.39103 c 0,1.06648 -0.62799,1.74615 -1.642863,1.74615 -0.937474,0 -1.47922,-0.53342 -1.47922,-1.5483 v -2.58888 z m -30.988805,0.27599 c 0.194698,0.10818 0.405417,0.27311 0.535215,0.42455 0.06489,0.0866 0.151391,0.19465 0.259559,0.25955 0.129798,0.0648 0.238077,0.0867 0.367876,0.10832 0.173065,0.0217 0.324254,0.0864 0.497321,0.15125 -0.02164,0.0866 -0.04326,0.17336 -0.04326,0.25989 0,0.0866 0.02163,0.17303 0.04326,0.25956 -0.151432,0.0649 -0.324256,0.12961 -0.497321,0.15124 -0.108166,0.0217 -0.238078,0.0218 -0.367876,0.10832 -0.129799,0.065 -0.19466,0.17304 -0.259559,0.25956 -0.129798,0.17308 -0.335822,0.32575 -0.53052,0.43394 -0.173066,-0.34614 -0.283034,-0.78983 -0.283034,-1.20088 0.02164,-0.41104 0.105275,-0.8692 0.278339,-1.2153 z m 4.836719,0.0211 c 0.173065,0.34612 0.262577,0.77107 0.262577,1.1821 0,0.41103 -0.08951,0.83867 -0.262577,1.18478 -0.1947,-0.10821 -0.407429,-0.25432 -0.537227,-0.40576 -0.0649,-0.0865 -0.151393,-0.19465 -0.259559,-0.25957 -0.129796,-0.0648 -0.238077,-0.0867 -0.367876,-0.10831 -0.173065,-0.0217 -0.32459,-0.0864 -0.497656,-0.15124 0.02163,-0.0866 0.04326,-0.17302 0.04326,-0.25956 0,-0.0866 -0.02163,-0.17335 -0.04326,-0.2599 0.151433,-0.0648 0.324591,-0.1296 0.497656,-0.15124 0.108168,-0.0217 0.23808,-0.0218 0.367876,-0.10832 0.1298,-0.0648 0.19466,-0.17303 0.259559,-0.25955 0.129798,-0.17308 0.342527,-0.29526 0.537227,-0.40343 z m 19.237218,0.0557 c 1.032083,0 1.814902,0.76534 1.814902,1.89203 0,1.1267 -0.782819,1.89237 -1.814902,1.89237 -1.032083,0 -1.806181,-0.76567 -1.806181,-1.89237 0,-1.12669 0.774098,-1.89203 1.806181,-1.89203 z m -21.656751,0.80215 c 0.173064,0 0.324616,0.15156 0.324616,0.32462 0,0.17307 -0.151552,0.32428 -0.324616,0.32428 -0.173068,0 -0.324281,-0.15121 -0.324281,-0.32428 0,-0.17306 0.151213,-0.32462 0.324281,-0.32462 z m -0.605638,0.84374 c 0.108166,0.1298 0.281332,0.23794 0.454396,0.25956 -0.02164,0.17308 -0.04341,0.34622 -0.108318,0.49766 -0.04326,0.10819 -0.08652,0.21611 -0.08652,0.36753 0,0.15143 0.04325,0.25971 0.08652,0.36788 0.08653,0.19469 0.08652,0.4111 0.08652,0.62744 -0.843693,-0.0432 -1.612118,-0.45312 -2.066413,-1.12375 0.1947,-0.1082 0.422505,-0.26074 0.638838,-0.28237 0.108166,-0.0217 0.23774,-0.0218 0.367541,-0.10831 0.129796,-0.0648 0.19466,-0.17302 0.259558,-0.25957 0.108169,-0.12978 0.238078,-0.2379 0.367878,-0.34607 z m 1.211611,0 c 0.151431,0.1082 0.281009,0.21629 0.367541,0.34607 0.06489,0.0866 0.151396,0.19467 0.259559,0.25957 0.1298,0.0648 0.238079,0.0867 0.367877,0.10831 0.1947,0.0217 0.467448,0.15777 0.640514,0.26593 -0.432664,0.67064 -1.224731,1.09692 -2.068425,1.14019 0,-0.21634 0.02162,-0.43275 0.08652,-0.62744 0.04327,-0.10819 0.08652,-0.21645 0.08652,-0.36788 0,-0.15142 -0.04325,-0.25938 -0.08652,-0.36753 -0.0649,-0.15144 -0.08636,-0.32458 -0.107982,-0.49766 0.173064,-0.0432 0.346228,-0.12976 0.454396,-0.25956 z m 15.090646,0.32361 h 1.530862 v 0.84307 c -0.258024,0.64505 -0.782722,1.00604 -1.539584,1.00604 -0.791262,0 -1.24716,-0.36117 -1.24716,-0.94602 0,-0.51604 0.327012,-0.90309 1.255882,-0.90309 z" />
    <path
       style="color:#000000;fill:url(#linearGradient1148);stroke-width:0.648937;-inkscape-stroke:none"
       d="m 26.456824,140.76946 v 0.5957 h 89.681356 v -0.5957 z"
       id="path393"
       inkscape:label="Rainbow Line" />
    <path
       id="path642"
       style="font-weight:600;font-size:34.7369px;font-family:Montserrat;-inkscape-font-specification:'Montserrat Semi-Bold';display:inline;fill:#ffffff;stroke-width:0.790892"
       d="m 95.51901,133.09847 6.31158,10.32401 v 5.45544 h 1.64588 v -5.45544 l 6.31158,-10.32401 h -1.66801 l -5.41017,8.83641 -5.410163,-8.83641 z m -50.329982,6.41118 c 0.113073,0.46138 0.17371,0.95483 0.17371,1.47854 0,0.58404 -0.07474,1.13085 -0.214622,1.63684 h 3.016452 c 0.09857,-0.52111 0.151242,-1.06688 0.151242,-1.63684 0,-0.51221 -0.04188,-1.00535 -0.121396,-1.47854 z m 6.237802,0 v 3.11538 h 2.930268 v -3.11538 z m 26.224522,0 c 0.09761,0.46955 0.149567,0.96315 0.149567,1.47854 0,0.5737 -0.06418,1.12039 -0.184441,1.63684 h 1.678074 c 0.09912,-0.52257 0.151916,-1.06879 0.151916,-1.63684 0,-0.51073 -0.04231,-1.00412 -0.122402,-1.47854 z m 7.069796,0 -1.424217,3.11538 h 1.685122 l 1.392029,-3.11538 z m 5.843771,0 1.400076,3.11538 h 1.68747 l -1.424222,-3.11538 z"
       inkscape:label="Text 3D Effect" />
    <text
       xml:space="preserve"
       style="font-style:normal;font-variant:normal;font-weight:200;font-stretch:normal;font-size:4.26653px;font-family:Montserrat;-inkscape-font-specification:'Montserrat Ultra-Light';fill:#fffffe;fill-opacity:1;stroke-width:0.531282"
       x="32.777134"
       y="192.3772"
       id="text1766"><tspan
         sodipodi:role="line"
         style="font-style:normal;font-variant:normal;font-weight:200;font-stretch:normal;font-size:4.26653px;font-family:Montserrat;-inkscape-font-specification:'Montserrat Ultra-Light';fill:#fffffe;fill-opacity:1;stroke-width:0.531282"
         x="32.777134"
         y="192.3772"
         id="tspan2442">Aufgrund von Ostern 1 Woche früher:</tspan></text>
    <text
       xml:space="preserve"
       style="font-style:normal;font-variant:normal;font-weight:300;font-stretch:normal;font-size:2.88447px;font-family:Montserrat;-inkscape-font-specification:'Montserrat Light';fill:#fffffe;fill-opacity:1;stroke-width:0.534703"
       x="74.8414"
       y="173.79726"
       id="text1766-0"><tspan
         sodipodi:role="line"
         style="font-style:italic;font-variant:normal;font-weight:300;font-stretch:normal;font-size:2.88447px;font-family:Montserrat;-inkscape-font-specification:'Montserrat Light Italic';fill:#fffffe;fill-opacity:1;stroke-width:0.534703"
         x="74.8414"
         y="173.79726"
         id="tspan2487">Digital Independence Day</tspan></text>
    <text
       xml:space="preserve"
       style="font-style:normal;font-variant:normal;font-weight:200;font-stretch:normal;font-size:5.98886px;font-family:Montserrat;-inkscape-font-specification:'Montserrat Ultra-Light';fill:#fffffe;fill-opacity:1;stroke-width:1.11017"
       x="98.960197"
       y="225.76299"
       id="text1766-0-3"><tspan
         sodipodi:role="line"
         style="font-style:normal;font-variant:normal;font-weight:200;font-stretch:normal;font-size:5.98886px;font-family:Montserrat;-inkscape-font-specification:'Montserrat Ultra-Light';fill:#fffffe;fill-opacity:1;stroke-width:1.11017"
         x="98.960197"
         y="225.76299"
         id="tspan2634">Uhr</tspan></text>
  </g>
</svg>
