<?xml version="1.0" encoding="UTF-8" standalone="no"?>
<!-- Created with Inkscape (http://www.inkscape.org/) -->

<svg
   width="350mm"
   height="450mm"
   viewBox="0 0 350 450"
   version="1.1"
   id="svg1"
   xml:space="preserve"
   inkscape:version="1.4.2 (ebf0e940d0, 2025-05-08)"
   sodipodi:docname="tshirt-vorne.svg"
   inkscape:export-filename="tshirt-vorne.pdf"
   inkscape:export-xdpi="600"
   inkscape:export-ydpi="600"
   xmlns:inkscape="http://www.inkscape.org/namespaces/inkscape"
   xmlns:sodipodi="http://sodipodi.sourceforge.net/DTD/sodipodi-0.dtd"
   xmlns:xlink="http://www.w3.org/1999/xlink"
   xmlns="http://www.w3.org/2000/svg"
   xmlns:svg="http://www.w3.org/2000/svg"><sodipodi:namedview
     id="namedview1"
     pagecolor="#5c5c5c"
     bordercolor="#000000"
     borderopacity="0.25"
     inkscape:showpageshadow="2"
     inkscape:pageopacity="0.0"
     inkscape:pagecheckerboard="0"
     inkscape:deskcolor="#d1d1d1"
     inkscape:document-units="mm"
     inkscape:export-bgcolor="#00000000"
     inkscape:zoom="0.205"
     inkscape:cx="-95.121951"
     inkscape:cy="1360.9756"
     inkscape:window-width="1920"
     inkscape:window-height="1043"
     inkscape:window-x="0"
     inkscape:window-y="0"
     inkscape:window-maximized="1"
     inkscape:current-layer="g4" /><defs
     id="defs1" /><g
     inkscape:label="Layer 1"
     inkscape:groupmode="layer"
     id="layer1"><g
       id="g4"
       transform="matrix(0.41775682,0,0,0.41775682,149.76194,-261.18017)"
       style="display:inline"><g
         id="text2985-3-2-5-5"
         style="line-height:0%;letter-spacing:0px;word-spacing:0px;fill:#ffffff"
         transform="matrix(0.79261755,0,0,0.80601727,8.8334598,77.223102)"
         aria-label="CHAOS&#10;TREFF&#10; OSNA"><path
           style="font-size:68.4761px;line-height:107%;font-family:'DejaVu Sans Mono';-inkscape-font-specification:'DejaVu Sans Mono'"
           d="m 229.25518,768.39375 q -2.57454,1.37086 -5.28283,2.03957 -2.70828,0.70214 -5.75092,0.70214 -9.59601,0 -14.91227,-6.78742 -5.28283,-6.78743 -5.28283,-19.09173 0,-12.23742 5.31626,-19.05828 5.3497,-6.8543 14.87884,-6.8543 3.04264,0 5.75092,0.70215 2.70829,0.66871 5.28283,2.03957 v 6.92117 q -2.47424,-2.03958 -5.31626,-3.10951 -2.84203,-1.06994 -5.71749,-1.06994 -6.58681,0 -9.8635,5.08221 -3.27669,5.08221 -3.27669,15.34693 0,10.2313 3.27669,15.31351 3.27669,5.08221 9.8635,5.08221 2.94233,0 5.75092,-1.06994 2.84203,-1.06994 5.28283,-3.10951 z m 9.93037,-48.14726 h 6.78743 v 20.46258 h 18.48988 v -20.46258 h 6.78742 v 49.91934 h -6.78742 v -23.77271 h -18.48988 v 23.77271 h -6.78743 z m 57.24174,5.95154 -7.12178,25.54479 h 14.24356 z m -4.07914,-5.95154 h 8.19172 l 15.28006,49.91934 h -6.98804 l -3.67791,-13.00644 h -17.48682 l -3.61104,13.00644 h -6.98804 z m 54.96812,25.00982 q 0,-11.00031 -2.27362,-15.71472 -2.24019,-4.71442 -7.38927,-4.71442 -5.11565,0 -7.38927,4.71442 -2.24018,4.71441 -2.24018,15.71472 0,10.96688 2.24018,15.6813 2.27362,4.71442 7.38927,4.71442 5.14908,0 7.38927,-4.68099 2.27362,-4.71441 2.27362,-15.71473 z m 7.05491,0 q 0,13.03989 -4.14602,19.45952 -4.11258,6.41963 -12.57178,6.41963 -8.45921,0 -12.57178,-6.38619 -4.11258,-6.3862 -4.11258,-19.49296 0,-13.07331 4.11258,-19.49295 4.14601,-6.41963 12.57178,-6.41963 8.4592,0 12.57178,6.41963 4.14602,6.41964 4.14602,19.49295 z m 37.74878,-23.3046 v 6.85429 q -3.07607,-1.9727 -6.18558,-2.97577 -3.07608,-1.00306 -6.21902,-1.00306 -4.78129,0 -7.55645,2.24018 -2.77515,2.20675 -2.77515,5.98497 0,3.31013 1.80552,5.04878 1.83896,1.73865 6.82086,2.90889 l 3.54418,0.80246 q 7.02147,1.63834 10.23129,5.14908 3.20981,3.51074 3.20981,9.56258 0,7.12178 -4.41349,10.86657 -4.4135,3.74478 -12.83927,3.74478 -3.51074,0 -7.05491,-0.76901 -3.54418,-0.73559 -7.12178,-2.24019 v -7.18865 q 3.84509,2.4408 7.25552,3.57761 3.44387,1.13681 6.92117,1.13681 5.11564,0 7.95767,-2.27362 2.84202,-2.30706 2.84202,-6.41964 0,-3.74478 -1.9727,-5.71748 -1.93926,-1.9727 -6.78742,-3.04264 l -3.61104,-0.83589 q -6.95461,-1.57148 -10.09755,-4.74786 -3.14295,-3.17638 -3.14295,-8.52607 0,-6.68712 4.48037,-10.69939 4.5138,-4.04571 11.96994,-4.04571 2.87546,0 6.05184,0.66871 3.17639,0.63528 6.68712,1.93927 z"
           id="path1" /><path
           style="font-size:68.4761px;line-height:107%;font-family:'DejaVu Sans Mono';-inkscape-font-specification:'DejaVu Sans Mono'"
           d="m 194.95026,793.51592 h 38.08314 v 5.68405 h -15.61442 v 44.23529 h -6.78743 v -44.23529 h -15.68129 z m 65.06567,26.34725 q 2.60797,0.66871 4.44693,2.5411 1.83896,1.83896 4.58068,7.38927 l 6.78742,13.64172 h -7.25552 l -5.95154,-12.60522 q -2.57454,-5.38313 -4.64755,-6.92117 -2.03957,-1.57147 -5.34969,-1.57147 h -6.45307 v 21.09786 h -6.78743 v -49.91934 h 13.90921 q 8.22516,0 12.60522,3.71135 4.38006,3.71135 4.38006,10.73282 0,4.94847 -2.70828,8.09142 -2.67485,3.10951 -7.55644,3.81166 z m -13.84234,-20.79694 v 17.72086 h 7.38927 q 4.84816,0 7.22208,-2.17331 2.37393,-2.17332 2.37393,-6.65369 0,-4.31319 -2.5411,-6.58681 -2.50767,-2.30705 -7.3224,-2.30705 z m 36.24419,-5.55031 h 29.62393 v 5.68405 h -22.86994 v 14.77853 h 21.86687 v 5.68405 h -21.86687 v 18.08866 h 23.50522 v 5.68405 h -30.25921 z m 42.42977,0 h 29.38988 v 5.68405 h -22.60246 v 14.71166 h 20.49602 v 5.68405 h -20.49602 v 23.83958 h -6.78742 z m 41.22609,0 h 29.38988 v 5.68405 h -22.60246 v 14.71166 h 20.49602 v 5.68405 h -20.49602 v 23.83958 h -6.78742 z"
           id="path2" /><path
           style="font-size:68.4761px;line-height:107%;font-family:'DejaVu Sans Mono';-inkscape-font-specification:'DejaVu Sans Mono'"
           d="m 264.86409,891.79517 q 0,-11.00031 -2.27362,-15.71473 -2.24019,-4.71442 -7.38927,-4.71442 -5.11565,0 -7.38927,4.71442 -2.24018,4.71442 -2.24018,15.71473 0,10.96687 2.24018,15.68129 2.27362,4.71442 7.38927,4.71442 5.14908,0 7.38927,-4.68098 2.27362,-4.71442 2.27362,-15.71473 z m 7.05491,0 q 0,13.03988 -4.14602,19.45952 -4.11257,6.41963 -12.57178,6.41963 -8.45921,0 -12.57178,-6.3862 -4.11258,-6.3862 -4.11258,-19.49295 0,-13.07332 4.11258,-19.49295 4.14601,-6.41964 12.57178,-6.41964 8.45921,0 12.57178,6.41964 4.14602,6.41963 4.14602,19.49295 z m 37.74878,-23.30461 v 6.8543 q -3.07607,-1.9727 -6.18558,-2.97577 -3.07608,-1.00307 -6.21902,-1.00307 -4.78129,0 -7.55645,2.24019 -2.77515,2.20675 -2.77515,5.98497 0,3.31012 1.80552,5.04877 1.83896,1.73865 6.82086,2.9089 l 3.54418,0.80245 q 7.02147,1.63835 10.23129,5.14909 3.20982,3.51073 3.20982,9.56258 0,7.12178 -4.4135,10.86656 -4.4135,3.74479 -12.83927,3.74479 -3.51074,0 -7.05491,-0.76902 -3.54417,-0.73558 -7.12178,-2.24018 v -7.18866 q 3.84509,2.4408 7.25552,3.57761 3.44387,1.13681 6.92117,1.13681 5.11564,0 7.95767,-2.27362 2.84203,-2.30705 2.84203,-6.41963 0,-3.74479 -1.9727,-5.71749 -1.93927,-1.9727 -6.78743,-3.04264 l -3.61104,-0.83589 q -6.95461,-1.57147 -10.09755,-4.74785 -3.14295,-3.17638 -3.14295,-8.52608 0,-6.68712 4.48037,-10.69939 4.51381,-4.04571 11.96994,-4.04571 2.87546,0 6.05185,0.66872 3.17638,0.63527 6.68711,1.93926 z m 12.03682,-1.70521 h 8.55951 l 16.85154,41.09234 v -41.09234 h 6.51994 v 49.91934 h -8.55951 l -16.85154,-41.09235 v 41.09235 h -6.51994 z m 57.17487,5.95153 -7.12178,25.5448 h 14.24356 z m -4.07914,-5.95153 h 8.19172 l 15.28006,49.91934 h -6.98804 l -3.67791,-13.00645 h -17.48682 l -3.61104,13.00645 h -6.98804 z"
           id="path3" /></g><path
         sodipodi:nodetypes="cccccc"
         inkscape:connector-curvature="0"
         id="rect7647-4-3-9-1"
         d="M 289.12539,829.74089 H 199.57108 M 149.98123,757.73703 V 644.17012 h 185.57075 v 145.53852"
         style="color:#ffffff;display:inline;overflow:visible;visibility:visible;fill:none;stroke:#ffffff;stroke-width:3.94306;stroke-miterlimit:4;stroke-dasharray:none;stroke-opacity:1;marker:none;enable-background:accumulate" /><g
         id="g6-9-4"
         transform="matrix(0.20465411,0,0,0.20494074,150.39575,808.76217)"
         style="display:inline"><path
           d="m 6,37 c 0,19 3,38 17,57 -12,12 -10,41 -10,62 h -25 c 0,-21 1,-50 -11,-62 C -9,75 -6,56 -6,37 Z"
           id="felly-1-0"
           inkscape:connector-curvature="0"
           style="display:inline;fill:#ffffff" /><use
           id="use9-0-9"
           transform="rotate(60)"
           xlink:href="#felly-1-0"
           x="0"
           y="0"
           width="744.09448"
           height="1052.3622"
           style="display:inline" /><use
           id="use11-0-3"
           transform="rotate(120)"
           xlink:href="#felly-1-0"
           x="0"
           y="0"
           width="744.09448"
           height="1052.3622"
           style="display:inline" /><use
           id="use13-8-8"
           transform="scale(-1)"
           xlink:href="#felly-1-0"
           x="0"
           y="0"
           width="744.09448"
           height="1052.3622"
           style="display:inline" /><use
           id="use15-7-4"
           transform="rotate(-120)"
           xlink:href="#felly-1-0"
           x="0"
           y="0"
           width="744.09448"
           height="1052.3622"
           style="display:inline" /><use
           id="use17-8-2"
           transform="rotate(-60)"
           xlink:href="#felly-1-0"
           x="0"
           y="0"
           width="744.09448"
           height="1052.3622"
           style="display:inline" /><g
           id="g19-5-6"
           style="display:inline;fill:none;stroke:#ffffff"><circle
             id="circle21-7-3"
             r="195"
             cx="0"
             cy="0"
             style="stroke-width:19.2534;stroke-dasharray:none" /><circle
             id="circle23-0-2"
             r="176"
             cx="0"
             cy="0"
             style="display:none;stroke-width:12" /><circle
             id="circle25-7-9"
             r="157"
             cx="0"
             cy="0"
             style="stroke-width:19.2534;stroke-dasharray:none" /><circle
             id="circle27-5-2"
             r="30.540163"
             cx="0"
             cy="0"
             style="stroke-width:19.2534;stroke-dasharray:none" /><circle
             id="circle29-8-3"
             r="14.086332"
             cx="0"
             cy="0"
             style="display:none;stroke-width:11.6865;stroke-dasharray:none" /></g><path
           class="st1"
           d="M 200.89498,0.47256467 C 200.89498,-110.5719 110.93547,-200.40563 -0.2645446,-200.40563 -111.46456,-200.40563 -201.42408,-110.5719 -201.42408,0.47256467 -201.42408,111.51704 -111.46456,201.35076 -0.2645446,201.35076 110.93547,201.35076 200.89498,111.51704 200.89498,0.47256467 M 9.7309361,152.69083 c 0,-12.47691 1.2494349,-24.95381 4.9977889,-36.18303 2.49887,-6.23845 4.99774,-12.47691 4.99774,-21.210743 0,-8.733837 -2.49887,-14.97229 -4.99774,-21.210744 C 10.980371,65.352479 9.7309361,55.370954 8.481501,45.389428 18.47703,42.894047 28.47251,37.903284 34.719734,30.41714 c 8.746046,6.238454 16.242656,12.476907 21.240445,19.963051 3.748305,4.990763 8.746046,11.229216 14.993269,14.972288 7.496611,3.743072 13.743786,4.990762 21.240445,6.238453 11.244917,1.247691 23.739317,7.486144 33.734797,13.724597 C 100.93994,123.99394 58.459049,150.19545 9.7309361,152.69083 M -0.2645446,-18.242796 c 9.9954807,0 18.7415746,8.7338354 18.7415746,18.71536067 0,9.98152533 -8.7460939,18.71535933 -18.7415746,18.71535933 -9.9955294,0 -18.7415754,-8.733834 -18.7415754,-18.71535933 0,-9.98152527 8.746046,-18.71536067 18.7415754,-18.71536067 M 137.17365,67.84786 C 125.92869,61.609407 115.93321,54.123263 108.43655,45.389428 104.68824,40.398666 99.690504,34.160212 93.443328,30.41714 85.946669,26.674068 79.699494,25.426378 72.202883,24.178687 62.207354,22.930996 53.461309,19.187924 43.46578,15.444852 44.715215,10.45409 45.96465,5.4633275 45.96465,0.47256467 c 0,-4.99076267 -1.249435,-9.98152527 -2.49887,-14.97228767 8.746094,-3.743073 18.741574,-7.486145 28.737103,-8.733835 6.247176,-1.247691 13.743786,-1.247691 21.240445,-6.238454 7.496612,-3.743072 11.244912,-9.981525 14.993222,-14.972288 7.49666,-9.981525 17.49214,-16.219978 28.7371,-22.458432 9.99548,19.963051 16.2427,43.669174 16.2427,67.37529667 0,23.70612233 -6.24722,47.41224533 -16.2427,67.37529533 m -9.99553,-152.218261 c -11.24491,6.238453 -22.48988,12.476907 -34.984227,13.724597 -6.247224,1.247691 -13.743834,1.247691 -21.240445,6.238454 -7.496659,3.743072 -11.244964,9.981525 -14.993269,14.972288 -6.247224,7.486144 -13.743834,13.724597 -21.240445,19.96305 C 28.47251,-36.958156 18.47703,-43.196609 8.481501,-44.4443 c 1.2494351,-9.981525 2.49887,-19.96305 6.247224,-28.696885 2.49887,-6.238453 4.99774,-12.476907 4.99774,-21.210741 0,-8.733834 -2.49887,-14.972284 -4.99774,-21.210734 -4.9977889,-11.22922 -4.9977889,-23.70613 -4.9977889,-36.18303 49.9775479,2.49538 92.4584339,28.69688 117.4471839,67.375289 M -10.260074,-151.74569 c 0,12.4769 -1.249435,24.95381 -4.99774,36.18303 -2.49887,6.23845 -4.997741,12.4769 -4.997741,21.210734 0,8.733834 2.498871,14.972288 4.997741,21.210741 3.748305,8.733835 4.99774,18.71536 6.2471754,28.696885 -9.9954814,2.495382 -19.9910104,7.486144 -26.2381854,14.972288 -8.746046,-6.238453 -16.242704,-12.476906 -21.240445,-19.96305 -3.748305,-4.990763 -8.746045,-11.229216 -14.993269,-14.972288 -7.496611,-3.743072 -13.743789,-4.990763 -21.240449,-6.238454 -11.244913,-1.24769 -23.739313,-7.486144 -33.734843,-13.724597 24.9888,-38.678409 67.469691,-64.879909 116.197756,-67.375289 m -127.442676,84.842958 c 11.24492,6.238454 21.24045,13.724598 28.73706,22.458432 3.7483,4.990763 8.74609,11.229216 14.993273,14.972288 7.49661,3.743072 13.743833,4.990763 21.240444,6.238454 9.995529,1.24769 18.741574,4.990762 28.737103,8.733835 -1.249435,4.9907624 -2.498918,9.981525 -2.498918,14.97228767 0,4.99076283 1.249483,9.98152533 2.498918,14.97228733 -8.746094,3.743072 -18.741574,7.486144 -28.737103,8.733835 -6.247176,1.247691 -13.743834,1.247691 -21.240444,6.238453 -7.496613,3.743072 -11.244973,9.981526 -14.993273,14.972288 -7.49661,9.981526 -17.49214,16.219979 -28.73706,22.458432 -9.99552,-19.96305 -16.2427,-43.669173 -16.2427,-67.37529533 1.24943,-23.70612267 6.24718,-47.41224567 16.2427,-67.37529667 m 9.99548,152.218261 c 11.24497,-6.238453 22.48988,-12.476906 34.984283,-13.724597 6.24718,-1.247691 13.743838,-1.247691 21.240449,-6.238453 7.496659,-3.743072 11.244964,-9.981525 14.993269,-14.972288 6.247176,-7.486144 13.743835,-13.724597 21.240445,-19.963051 6.247175,7.486144 16.242704,13.724598 26.2381854,14.972288 -1.2494354,9.981526 -2.4988704,19.963051 -6.2471754,28.696885 -2.49887,6.238454 -4.997741,12.476907 -4.997741,21.210744 0,8.733833 2.498871,14.972293 4.997741,21.210743 4.99774,11.22922 4.99774,23.70612 4.99774,36.18303 -48.728065,-2.49538 -91.208956,-28.69689 -117.447196,-67.375301"
           id="path3-5"
           style="display:none;fill:#ffffff;fill-opacity:1;stroke-width:12.4856"
           inkscape:label="neurad" /></g></g></g></svg>
